<svg id="Layer_1" data-name="Layer 1" xmlns="http://www.w3.org/2000/svg" width="119.5" height="114.2" viewBox="0 0 119.5 114.2">
  <defs>
    <style>
      .cls-1 {
        fill: #bed075;
      }

      .cls-2 {
        fill: #aeb557;
      }

      .cls-3 {
        fill: #bdc55b;
      }

      .cls-4 {
        fill: #4f8e4f;
      }

      .cls-5 {
        fill: #9bb351;
      }

      .cls-6 {
        fill: #95c168;
      }

      .cls-7 {
        fill: #f17e9a;
      }

      .cls-8 {
        fill: #f7b3c0;
      }

      .cls-9 {
        fill: #f59fb0;
      }
    </style>
  </defs>
  <title>succulent-barrel-cactus</title>
  <g>
    <path class="cls-1" d="M3865.5,193.4c0,25.4-24.8,46-55.5,46s-55.5-20.6-55.5-46,24.8-49,55.5-49S3865.5,168,3865.5,193.4Z" transform="translate(-3750.2 -125.2)"/>
    <path class="cls-2" d="M3797.3,145.9c-8.2,3-15.9,11.6-20.8,18.5a51.7,51.7,0,0,0-9.6,29.8c0,32.7,28.1,43.5,28.1,43.5s7.3,1.8,12.5,1.5c0,0-19.5-16.2-19.5-51.1s21.9-43.6,22-43.7-2.9,0-4,.1a31,31,0,0,0-8.6,1.4h-0.1Z" transform="translate(-3750.2 -125.2)"/>
    <path class="cls-3" d="M3797.4,145.9s-41.5,7.2-43.2,46.5c-1.7,41.9,42.5,46.5,47.3,46.5,0,0-30.9-6.7-33.6-44.7C3767.9,194.2,3764.8,165.4,3797.4,145.9Z" transform="translate(-3750.2 -125.2)"/>
    <path class="cls-4" d="M3799.3,147.8s0.2,2.1,1.9,2.4l0.6-.5S3801.6,148.4,3799.3,147.8Z" transform="translate(-3750.2 -125.2)"/>
    <path class="cls-4" d="M3796.2,150.6s0.3,2.6,2.4,3.1l0.8-.6S3799.1,151.4,3796.2,150.6Z" transform="translate(-3750.2 -125.2)"/>
    <path class="cls-4" d="M3792.4,155.4s0.9,2.8,3.3,2.8l0.8-.8S3795.8,155.6,3792.4,155.4Z" transform="translate(-3750.2 -125.2)"/>
    <path class="cls-4" d="M3790.3,159.4s1.2,2.7,3.6,2.4l0.7-.9S3793.7,159.3,3790.3,159.4Z" transform="translate(-3750.2 -125.2)"/>
    <path class="cls-4" d="M3787.6,166.3s2,2.2,4.2,1.2l0.4-1.1S3790.8,165.1,3787.6,166.3Z" transform="translate(-3750.2 -125.2)"/>
    <path class="cls-4" d="M3785.3,174.6s2.3,1.9,4.3.6l0.2-1.1S3788.3,173,3785.3,174.6Z" transform="translate(-3750.2 -125.2)"/>
    <path class="cls-4" d="M3783.8,181.4s2.3,1.9,4.3.6l0.2-1.1S3786.8,179.8,3783.8,181.4Z" transform="translate(-3750.2 -125.2)"/>
    <path class="cls-4" d="M3783.8,189.8s2.7,1.2,4.3-.5v-1.1S3786.2,187.4,3783.8,189.8Z" transform="translate(-3750.2 -125.2)"/>
    <path class="cls-4" d="M3784,196.6s2.7,1.2,4.3-.5V195S3786.5,194.3,3784,196.6Z" transform="translate(-3750.2 -125.2)"/>
    <path class="cls-4" d="M3784.7,202.6s2.7,1.2,4.3-.5V201S3787.1,200.3,3784.7,202.6Z" transform="translate(-3750.2 -125.2)"/>
    <path class="cls-4" d="M3786.2,209.2s2.9,0.7,4.1-1.3l-0.4-1.1S3788.1,206.6,3786.2,209.2Z" transform="translate(-3750.2 -125.2)"/>
    <path class="cls-4" d="M3787.6,215.5s2.9,0.7,4.1-1.3l-0.4-1.1S3789.5,212.8,3787.6,215.5Z" transform="translate(-3750.2 -125.2)"/>
    <path class="cls-4" d="M3789.7,220.7s2.9,0.7,4.1-1.3l-0.4-1.1S3791.6,218.1,3789.7,220.7Z" transform="translate(-3750.2 -125.2)"/>
    <path class="cls-4" d="M3792.5,226.1s2.9,0.7,4.1-1.3l-0.4-1.1S3794.4,223.4,3792.5,226.1Z" transform="translate(-3750.2 -125.2)"/>
    <path class="cls-4" d="M3796.6,232.4s3,0.4,4-1.7l-0.5-1S3798.2,229.6,3796.6,232.4Z" transform="translate(-3750.2 -125.2)"/>
    <path class="cls-4" d="M3801.2,236s2.2,0.3,2.9-1.3l-0.3-.8S3802.4,233.9,3801.2,236Z" transform="translate(-3750.2 -125.2)"/>
    <path class="cls-4" d="M3768.7,157.1s0.7,2.1,2.5,2.1l0.6-.6S3771.2,157.3,3768.7,157.1Z" transform="translate(-3750.2 -125.2)"/>
    <path class="cls-4" d="M3764.5,162s0.9,2,2.7,1.8l0.5-.7S3767,161.8,3764.5,162Z" transform="translate(-3750.2 -125.2)"/>
    <path class="cls-4" d="M3758.8,168.1s1.1,2.7,3.5,2.5l0.7-.9S3762.2,168.1,3758.8,168.1Z" transform="translate(-3750.2 -125.2)"/>
    <path class="cls-4" d="M3755.1,174.5s1.5,2.5,3.9,2l0.6-1S3758.5,173.9,3755.1,174.5Z" transform="translate(-3750.2 -125.2)"/>
    <path class="cls-4" d="M3752.2,182.8s1.9,2.2,4.1,1.3l0.4-1.1S3755.4,181.7,3752.2,182.8Z" transform="translate(-3750.2 -125.2)"/>
    <path class="cls-4" d="M3750.9,189.1s1.9,2.3,4.1,1.4l0.4-1.1S3754.1,188.1,3750.9,189.1Z" transform="translate(-3750.2 -125.2)"/>
    <path class="cls-4" d="M3750.2,197.3s2.7,1.2,4.3-.5v-1.1S3752.7,195,3750.2,197.3Z" transform="translate(-3750.2 -125.2)"/>
    <path class="cls-4" d="M3751.5,203s2.7,1.2,4.3-.5v-1.1S3754,200.6,3751.5,203Z" transform="translate(-3750.2 -125.2)"/>
    <path class="cls-4" d="M3753.1,209.1s2.9,0.7,4.1-1.3l-0.4-1.1S3755,206.5,3753.1,209.1Z" transform="translate(-3750.2 -125.2)"/>
    <path class="cls-4" d="M3755.5,214.6s2.9,0.7,4.1-1.3l-0.4-1.1S3757.4,211.9,3755.5,214.6Z" transform="translate(-3750.2 -125.2)"/>
    <path class="cls-4" d="M3758.9,219.6s2.9,0.7,4.1-1.3l-0.4-1.1S3760.8,216.9,3758.9,219.6Z" transform="translate(-3750.2 -125.2)"/>
    <path class="cls-4" d="M3762.9,223.9s2.4,0,2.9-1.8l-0.5-.8S3763.9,221.4,3762.9,223.9Z" transform="translate(-3750.2 -125.2)"/>
    <path class="cls-4" d="M3766.6,226.9s2-.2,2.4-1.8l-0.5-.6S3767.2,224.8,3766.6,226.9Z" transform="translate(-3750.2 -125.2)"/>
    <path class="cls-4" d="M3770.5,229.9s2.2,0.3,2.9-1.3l-0.3-.8S3771.7,227.7,3770.5,229.9Z" transform="translate(-3750.2 -125.2)"/>
    <path class="cls-4" d="M3788.5,148.8s0.2,2.1,1.9,2.4l0.6-.5S3790.8,149.5,3788.5,148.8Z" transform="translate(-3750.2 -125.2)"/>
    <path class="cls-4" d="M3783.5,151.5s0.3,2.6,2.4,3.1l0.8-.6S3786.4,152.3,3783.5,151.5Z" transform="translate(-3750.2 -125.2)"/>
    <path class="cls-4" d="M3778.9,156s0.9,2.8,3.3,2.8l0.8-.8S3782.3,156.2,3778.9,156Z" transform="translate(-3750.2 -125.2)"/>
    <path class="cls-4" d="M3774.6,161.2s1.2,2.7,3.6,2.4l0.7-.9S3778,161,3774.6,161.2Z" transform="translate(-3750.2 -125.2)"/>
    <path class="cls-4" d="M3771.5,167.1s2,2.2,4.2,1.2l0.4-1.1S3774.6,165.9,3771.5,167.1Z" transform="translate(-3750.2 -125.2)"/>
    <path class="cls-4" d="M3768.4,172.4s1.6,2.5,3.9,1.9l0.5-1S3771.7,171.8,3768.4,172.4Z" transform="translate(-3750.2 -125.2)"/>
    <path class="cls-4" d="M3765.4,179.1s1.9,2.2,4.1,1.3l0.4-1.1S3768.5,178,3765.4,179.1Z" transform="translate(-3750.2 -125.2)"/>
    <path class="cls-4" d="M3764.4,187.1s2.7,1.2,4.3-.5v-1.1S3766.8,184.8,3764.4,187.1Z" transform="translate(-3750.2 -125.2)"/>
    <path class="cls-4" d="M3764,194s2.7,1.2,4.3-.5v-1.1S3766.5,191.7,3764,194Z" transform="translate(-3750.2 -125.2)"/>
    <path class="cls-4" d="M3764.9,201.3s2.2,1.9,4.3.7l0.2-1.1S3767.9,199.7,3764.9,201.3Z" transform="translate(-3750.2 -125.2)"/>
    <path class="cls-4" d="M3766.1,207.5s2.5,1.6,4.3.1v-1.1S3768.8,205.5,3766.1,207.5Z" transform="translate(-3750.2 -125.2)"/>
    <path class="cls-4" d="M3768.6,214.1s2.9,0.7,4.1-1.3l-0.4-1.1S3770.5,211.5,3768.6,214.1Z" transform="translate(-3750.2 -125.2)"/>
    <path class="cls-4" d="M3771.1,220s2.9,0.7,4.1-1.3l-0.4-1.1S3773,217.3,3771.1,220Z" transform="translate(-3750.2 -125.2)"/>
    <path class="cls-4" d="M3774.2,224.6s2.8,1.1,4.3-.7l-0.2-1.1S3776.4,222.2,3774.2,224.6Z" transform="translate(-3750.2 -125.2)"/>
    <path class="cls-4" d="M3778,229.8s3,0.4,4-1.7l-0.5-1S3779.6,227,3778,229.8Z" transform="translate(-3750.2 -125.2)"/>
    <path class="cls-4" d="M3785.1,233.2s2.2,0.3,2.9-1.3l-0.3-.8S3786.3,231.1,3785.1,233.2Z" transform="translate(-3750.2 -125.2)"/>
    <path class="cls-5" d="M3822.5,145.9c8.2,3,15.9,11.6,20.8,18.5a51.7,51.7,0,0,1,9.6,29.8c0,32.7-28.1,43.5-28.1,43.5s-7.2,1.8-12.5,1.5c0,0,19.5-16.2,19.5-51.1s-21.9-43.6-22-43.7,2.9,0,4,.1a31,31,0,0,1,8.6,1.4h0.1Z" transform="translate(-3750.2 -125.2)"/>
    <path class="cls-6" d="M3822.4,145.9s41.5,7.2,43.2,46.5c1.7,41.9-42.5,46.5-47.2,46.5,0,0,30.9-6.7,33.6-44.7C3851.9,194.2,3855,165.4,3822.4,145.9Z" transform="translate(-3750.2 -125.2)"/>
    <path class="cls-4" d="M3820.6,147.8s-0.2,2.1-1.9,2.4l-0.6-.5S3818.3,148.4,3820.6,147.8Z" transform="translate(-3750.2 -125.2)"/>
    <path class="cls-4" d="M3823.7,150.6s-0.3,2.6-2.4,3.1l-0.8-.6S3820.8,151.4,3823.7,150.6Z" transform="translate(-3750.2 -125.2)"/>
    <path class="cls-4" d="M3827.4,155.4s-0.9,2.8-3.3,2.8l-0.8-.8S3824.1,155.6,3827.4,155.4Z" transform="translate(-3750.2 -125.2)"/>
    <path class="cls-4" d="M3829.6,159.4s-1.2,2.7-3.6,2.4l-0.7-.9S3826.2,159.3,3829.6,159.4Z" transform="translate(-3750.2 -125.2)"/>
    <path class="cls-4" d="M3832.3,166.3s-2,2.2-4.2,1.2l-0.4-1.1S3829.1,165.1,3832.3,166.3Z" transform="translate(-3750.2 -125.2)"/>
    <path class="cls-4" d="M3834.6,174.6s-2.3,1.9-4.3.6l-0.2-1.1S3831.6,173,3834.6,174.6Z" transform="translate(-3750.2 -125.2)"/>
    <path class="cls-4" d="M3836.1,181.4s-2.3,1.9-4.3.6l-0.2-1.1S3833.1,179.8,3836.1,181.4Z" transform="translate(-3750.2 -125.2)"/>
    <path class="cls-4" d="M3836.1,189.8s-2.7,1.2-4.3-.5v-1.1S3833.6,187.4,3836.1,189.8Z" transform="translate(-3750.2 -125.2)"/>
    <path class="cls-4" d="M3835.8,196.6s-2.7,1.2-4.3-.5V195S3833.4,194.3,3835.8,196.6Z" transform="translate(-3750.2 -125.2)"/>
    <path class="cls-4" d="M3835.2,202.6s-2.7,1.2-4.3-.5V201S3832.8,200.3,3835.2,202.6Z" transform="translate(-3750.2 -125.2)"/>
    <path class="cls-4" d="M3833.7,209.2s-2.9.7-4.1-1.3l0.4-1.1S3831.8,206.6,3833.7,209.2Z" transform="translate(-3750.2 -125.2)"/>
    <path class="cls-4" d="M3832.3,215.5s-2.9.7-4.1-1.3l0.4-1.1S3830.4,212.8,3832.3,215.5Z" transform="translate(-3750.2 -125.2)"/>
    <path class="cls-4" d="M3830.2,220.7s-2.9.7-4.1-1.3l0.4-1.1S3828.3,218.1,3830.2,220.7Z" transform="translate(-3750.2 -125.2)"/>
    <path class="cls-4" d="M3827.4,226.1s-2.9.7-4.1-1.3l0.4-1.1S3825.5,223.4,3827.4,226.1Z" transform="translate(-3750.2 -125.2)"/>
    <path class="cls-4" d="M3823.3,232.4s-3,.4-4-1.7l0.5-1S3821.7,229.6,3823.3,232.4Z" transform="translate(-3750.2 -125.2)"/>
    <path class="cls-4" d="M3818.7,236s-2.2.3-2.9-1.3l0.3-.8S3817.5,233.9,3818.7,236Z" transform="translate(-3750.2 -125.2)"/>
    <path class="cls-4" d="M3851.2,157.1s-0.7,2.1-2.5,2.1l-0.6-.6S3848.7,157.3,3851.2,157.1Z" transform="translate(-3750.2 -125.2)"/>
    <path class="cls-4" d="M3855.4,162s-0.9,2-2.7,1.8l-0.5-.7S3852.9,161.8,3855.4,162Z" transform="translate(-3750.2 -125.2)"/>
    <path class="cls-4" d="M3861,168.1s-1.1,2.7-3.5,2.5l-0.7-.9S3857.7,168.1,3861,168.1Z" transform="translate(-3750.2 -125.2)"/>
    <path class="cls-4" d="M3864.8,174.5s-1.5,2.5-3.9,2l-0.6-1S3861.4,173.9,3864.8,174.5Z" transform="translate(-3750.2 -125.2)"/>
    <path class="cls-4" d="M3867.7,182.8s-1.9,2.2-4.1,1.3l-0.4-1.1S3864.5,181.7,3867.7,182.8Z" transform="translate(-3750.2 -125.2)"/>
    <path class="cls-4" d="M3869,189.1s-1.9,2.3-4.1,1.4l-0.4-1.1S3865.7,188.1,3869,189.1Z" transform="translate(-3750.2 -125.2)"/>
    <path class="cls-4" d="M3869.7,197.3s-2.7,1.2-4.3-.5v-1.1S3867.2,195,3869.7,197.3Z" transform="translate(-3750.2 -125.2)"/>
    <path class="cls-4" d="M3868.4,203s-2.7,1.2-4.3-.5v-1.1S3865.9,200.6,3868.4,203Z" transform="translate(-3750.2 -125.2)"/>
    <path class="cls-4" d="M3866.8,209.1s-2.9.7-4.1-1.3l0.4-1.1S3864.9,206.5,3866.8,209.1Z" transform="translate(-3750.2 -125.2)"/>
    <path class="cls-4" d="M3864.4,214.6s-2.9.7-4.1-1.3l0.4-1.1S3862.5,211.9,3864.4,214.6Z" transform="translate(-3750.2 -125.2)"/>
    <path class="cls-4" d="M3861,219.6s-2.9.7-4.1-1.3l0.4-1.1S3859.1,216.9,3861,219.6Z" transform="translate(-3750.2 -125.2)"/>
    <path class="cls-4" d="M3856.9,223.9s-2.4,0-2.9-1.8l0.5-.8S3856,221.4,3856.9,223.9Z" transform="translate(-3750.2 -125.2)"/>
    <path class="cls-4" d="M3853.3,226.9s-2-.2-2.4-1.8l0.5-.6S3852.7,224.8,3853.3,226.9Z" transform="translate(-3750.2 -125.2)"/>
    <path class="cls-4" d="M3849.4,229.9s-2.2.3-2.9-1.3l0.3-.8S3848.2,227.7,3849.4,229.9Z" transform="translate(-3750.2 -125.2)"/>
    <path class="cls-4" d="M3831.4,148.8s-0.2,2.1-1.9,2.4l-0.6-.5S3829.1,149.5,3831.4,148.8Z" transform="translate(-3750.2 -125.2)"/>
    <path class="cls-4" d="M3836.4,151.5s-0.3,2.6-2.4,3.1l-0.8-.6S3833.5,152.3,3836.4,151.5Z" transform="translate(-3750.2 -125.2)"/>
    <path class="cls-4" d="M3840.9,156s-0.9,2.8-3.3,2.8l-0.8-.8S3837.6,156.2,3840.9,156Z" transform="translate(-3750.2 -125.2)"/>
    <path class="cls-4" d="M3845.2,161.2s-1.2,2.7-3.6,2.4l-0.7-.9S3841.9,161,3845.2,161.2Z" transform="translate(-3750.2 -125.2)"/>
    <path class="cls-4" d="M3848.4,167.1s-2,2.2-4.2,1.2l-0.4-1.1S3845.2,165.9,3848.4,167.1Z" transform="translate(-3750.2 -125.2)"/>
    <path class="cls-4" d="M3851.5,172.4s-1.6,2.5-3.9,1.9l-0.5-1S3848.2,171.8,3851.5,172.4Z" transform="translate(-3750.2 -125.2)"/>
    <path class="cls-4" d="M3854.5,179.1s-1.9,2.2-4.1,1.3l-0.4-1.1S3851.3,178,3854.5,179.1Z" transform="translate(-3750.2 -125.2)"/>
    <path class="cls-4" d="M3855.5,187.1s-2.7,1.2-4.3-.5v-1.1S3853,184.8,3855.5,187.1Z" transform="translate(-3750.2 -125.2)"/>
    <path class="cls-4" d="M3855.9,194s-2.7,1.2-4.3-.5v-1.1S3853.4,191.7,3855.9,194Z" transform="translate(-3750.2 -125.2)"/>
    <path class="cls-4" d="M3855,201.3s-2.2,1.9-4.3.7l-0.2-1.1S3852,199.7,3855,201.3Z" transform="translate(-3750.2 -125.2)"/>
    <path class="cls-4" d="M3853.7,207.5s-2.5,1.6-4.3.1v-1.1S3851.1,205.5,3853.7,207.5Z" transform="translate(-3750.2 -125.2)"/>
    <path class="cls-4" d="M3851.3,214.1s-2.9.7-4.1-1.3l0.4-1.1S3849.4,211.5,3851.3,214.1Z" transform="translate(-3750.2 -125.2)"/>
    <path class="cls-4" d="M3848.8,220s-2.9.7-4.1-1.3l0.4-1.1S3846.9,217.3,3848.8,220Z" transform="translate(-3750.2 -125.2)"/>
    <path class="cls-4" d="M3845.7,224.6s-2.8,1.1-4.3-.7l0.2-1.1S3843.4,222.2,3845.7,224.6Z" transform="translate(-3750.2 -125.2)"/>
    <path class="cls-4" d="M3841.9,229.8s-3,.4-4-1.7l0.5-1S3840.3,227,3841.9,229.8Z" transform="translate(-3750.2 -125.2)"/>
    <path class="cls-4" d="M3834.8,233.2s-2.2.3-2.9-1.3l0.3-.8S3833.6,231.1,3834.8,233.2Z" transform="translate(-3750.2 -125.2)"/>
    <path class="cls-7" d="M3798.5,127.7s-3.6,7-1.4,9.3,8.3,0.5,8.9-2.1S3801.2,127.7,3798.5,127.7Z" transform="translate(-3750.2 -125.2)"/>
    <path class="cls-7" d="M3823.2,128.9s-7.6,2.4-7.1,6.1,5.6,5.9,7.1,4.8S3826.1,131.5,3823.2,128.9Z" transform="translate(-3750.2 -125.2)"/>
    <path class="cls-8" d="M3801.7,147.4s-4.5,3-9.9-3.6-5.9-11.2-5.9-11.2,12.2-1,15.6,2S3805.5,145.1,3801.7,147.4Z" transform="translate(-3750.2 -125.2)"/>
    <path class="cls-8" d="M3820.2,148.1s4.2,3.3,10.1-2.8,6.8-10.7,6.8-10.7-12.1-2-15.7.7S3813.9,143.8,3820.2,148.1Z" transform="translate(-3750.2 -125.2)"/>
    <path class="cls-9" d="M3810,148.5s7.2,0.3,9.4-6.3-8.4-17-8.4-17-11.2,9.6-9.5,16.3,8.9,7,8.9,7" transform="translate(-3750.2 -125.2)"/>
    <path class="cls-7" d="M3811.3,132.4s-10.5,5-7.5,11.3,11.6,4.5,13.5.7S3814.2,133.3,3811.3,132.4Z" transform="translate(-3750.2 -125.2)"/>
  </g>
</svg>
