<svg id="Layer_1" data-name="Layer 1" xmlns="http://www.w3.org/2000/svg" width="82.5" height="218.4" viewBox="0 0 82.5 218.4">
  <defs>
    <style>
      .cls-1 {
        fill: #feba97;
      }

      .cls-2 {
        fill: #475478;
      }

      .cls-3 {
        fill: #282f39;
      }

      .cls-4 {
        fill: #768f0b;
      }

      .cls-5 {
        fill: #352e24;
      }

      .cls-6 {
        fill: #717c05;
      }

      .cls-7 {
        fill: #ffa780;
      }

      .cls-8 {
        fill: #d8d8d8;
      }

      .cls-9 {
        fill: #eaeaea;
      }

      .cls-10 {
        fill: #ff483c;
      }
    </style>
  </defs>
  <title>succulent-gnome</title>
  <g>
    <path class="cls-1" d="M3806,484.4s-1,8.2,5.3,12.5c0,0,4.3-5.7,3.8-9.5S3807.2,481.1,3806,484.4Z" transform="translate(-3803.8 -306.3)"/>
    <path class="cls-1" d="M3883.7,484.4s1,8.2-5.3,12.5c0,0-4.3-5.7-3.8-9.5S3882.5,481.1,3883.7,484.4Z" transform="translate(-3803.8 -306.3)"/>
    <g>
      <path class="cls-2" d="M3814,499.4s3.5,21.5,5.5,25H3845V502.1Z" transform="translate(-3803.8 -306.3)"/>
      <path class="cls-3" d="M3819.5,524.6c0-7.1,5.8-11.2,12.9-11.2s12.9,4.1,12.9,11.3" transform="translate(-3803.8 -306.3)"/>
      <path class="cls-2" d="M3875.9,499.4s-3.5,21.5-5.5,25h-25.5V502.1Z" transform="translate(-3803.8 -306.3)"/>
      <path class="cls-3" d="M3870.4,524.6c0-7.1-5.8-11.2-12.9-11.2s-12.9,4.1-12.9,11.3" transform="translate(-3803.8 -306.3)"/>
    </g>
    <path class="cls-4" d="M3885.4,484.6l0.8-9h-2.5c0-3-7.7-19-7.7-19-5.9,13.7-28.5,11.5-30.8,11.3h-0.2c-2.3.3-24.9,2.5-30.8-11.3,0,0-7.7,16-7.7,19h-2.5l0.8,9h7.8l1.3,5-2.7,9.8s19.3,2.7,34,2.7h0.2c14.7,0,34-2.7,34-2.7l-2.7-9.7,1.3-5h7.8Z" transform="translate(-3803.8 -306.3)"/>
    <path class="cls-5" d="M3877.2,478.6l-32.2,1.6-32.2-1.6a20,20,0,0,0,.4,11l31.4,1.5h0.7l31.4-1.5A20,20,0,0,0,3877.2,478.6Z" transform="translate(-3803.8 -306.3)"/>
    <polygon class="cls-6" points="0 169.3 8.8 169.3 8.1 178.3 0.8 178.3 0 169.3"/>
    <polygon class="cls-6" points="73.6 169.3 82.5 169.3 81.7 178.3 74.4 178.3 73.6 169.3"/>
    <path class="cls-1" d="M3871.2,396.9c1.3-4.3-1-12-1-12-11.1-4.4-22.7-3.9-25.4-3.7s-14.3-.7-25.4,3.7c0,0-2.3,7.7-1,12,0,0-6.7,0-5.3,8.3s7,7.7,7,7.7,7.3,16.9,24.2,17.6h1.2c16.8-.8,24.2-17.6,24.2-17.6s5.7,0.7,7-7.7S3871.2,396.9,3871.2,396.9Z" transform="translate(-3803.8 -306.3)"/>
    <ellipse class="cls-7" cx="41.3" cy="101.5" rx="14" ry="10.6"/>
    <path class="cls-8" d="M3819.3,384.9s-4.2,4.6-1,12,1.3,12.9,1.3,12.9-14,15.3-10.7,32.5,8.8,21.3,11.8,24,14.5,6,14.5,14.8c0,0,2-3.7,2-5.7,0,0,7.5,2,6.3,11.8,0,0,3.5-3.7,3.5-8.5s0.5-8.5,3-5.5c0,0,1.3,1.3,0,3.5,0,0,2.5-4.7,9.5-6.7s14.3-6,18.8-16.2,7.3-22.2-2-36.5c0,0-6.2-6.2-6-9.5s2.5-10,2.5-13.5a21.2,21.2,0,0,0-.5-5.2l2.5,2.8-1.9-6s-2.6-3.6-4.6-1.5c0,0-.5,11-0.5,13.3s1.9,9,1.1,12.3-2.9,10-7.7,14-6.6,4.5-6.6,4.5a25.6,25.6,0,0,0-18.2.5s-12.5-5.2-14.2-18.4c0,0,.9-10.6.8-12.6s0.3-14,.3-14S3820.1,383.4,3819.3,384.9Z" transform="translate(-3803.8 -306.3)"/>
    <g>
      <path class="cls-9" d="M3845.1,418.4s-8-7.6-12.9-2.1-9.3,1.4-8.2-.5a4.8,4.8,0,0,1,3.3-2.2s-4.9-3.6-6.6,2.7a6.9,6.9,0,0,0,6.3,9.1C3829.7,425.4,3839.3,425.7,3845.1,418.4Z" transform="translate(-3803.8 -306.3)"/>
      <path class="cls-9" d="M3845.1,418.4s8-7.6,12.9-2.1,9.3,1.4,8.2-.5a4.8,4.8,0,0,0-3.3-2.2s4.9-3.6,6.6,2.7a6.9,6.9,0,0,1-6.3,9.1C3860.4,425.4,3850.8,425.7,3845.1,418.4Z" transform="translate(-3803.8 -306.3)"/>
    </g>
    <g>
      <path class="cls-9" d="M3848.3,395.2s1.6-10.5,14.7-7.9c0,0,5.5,1.8,6.3,7.1C3869.2,394.5,3859.5,387.4,3848.3,395.2Z" transform="translate(-3803.8 -306.3)"/>
      <path class="cls-9" d="M3841.4,395.2s-1.6-10.5-14.7-7.9c0,0-5.5,1.8-6.3,7.1C3820.5,394.5,3830.2,387.4,3841.4,395.2Z" transform="translate(-3803.8 -306.3)"/>
    </g>
    <path class="cls-10" d="M3816.7,386.3l23-75.2s1.5-5,5-4.8,5.7,5.7,5.7,5.7l22.3,73.7S3846.7,375.6,3816.7,386.3Z" transform="translate(-3803.8 -306.3)"/>
  </g>
</svg>
