<svg id="Layer_1" data-name="Layer 1" xmlns="http://www.w3.org/2000/svg" width="81.5" height="84.5" viewBox="0 0 81.5 84.5">
  <defs>
    <style>
      .cls-1 {
        fill: #c8a6ee;
      }

      .cls-2 {
        fill: #b98fe2;
      }

      .cls-3 {
        fill: #b995e8;
      }

      .cls-4 {
        fill: #af70d1;
      }

      .cls-5 {
        fill: #cdabf2;
      }

      .cls-6 {
        fill: #965cb7;
      }

      .cls-7 {
        fill: #85a;
      }

      .cls-8 {
        fill: #ac6eca;
      }

      .cls-9 {
        fill: #bf92de;
      }

      .cls-10 {
        fill: #e5b1f6;
      }

      .cls-11 {
        fill: #cca9ee;
      }

      .cls-12 {
        fill: #ae72d2;
      }

      .cls-13 {
        fill: #975db6;
      }

      .cls-14 {
        fill: #cba7f0;
      }

      .cls-15 {
        fill: #d2b5f7;
      }

      .cls-16 {
        fill: #b88ee1;
      }

      .cls-17 {
        fill: #8a55ab;
      }

      .cls-18 {
        fill: #e2b5fb;
      }

      .cls-19 {
        fill: #aa74d8;
      }

      .cls-20 {
        fill: #b78de2;
      }

      .cls-21 {
        fill: #e0b6fb;
      }

      .cls-22 {
        fill: #cba8ed;
      }

      .cls-23 {
        fill: #dbb1f4;
      }

      .cls-24 {
        fill: #b48fdf;
      }

      .cls-25 {
        fill: #7b4a84;
      }

      .cls-26 {
        fill: #895391;
      }
    </style>
  </defs>
  <title>succulent-gemstone</title>
  <g>
    <polygon class="cls-1" points="32.2 0 19.4 25 32.6 36.3 32.2 0"/>
    <polygon class="cls-2" points="43.1 24 32.6 36.3 32.2 0 43.1 24"/>
    <polygon class="cls-3" points="32.6 36.3 36.7 70.7 29.5 71.2 32.1 45.3 22.6 31.2 19.4 25 32.6 36.3"/>
    <polygon class="cls-4" points="46.5 42.5 35.4 32.8 32.6 36.3 36.7 70.7 44.8 70.8 46.5 42.5"/>
    <polygon class="cls-5" points="43.1 24 52.2 28.7 46.5 42.5 35.4 32.8 43.1 24"/>
    <polygon class="cls-6" points="32.2 0 59.8 21.1 52.2 28.7 43.1 24 32.2 0"/>
    <polygon class="cls-7" points="59.8 21.1 59.8 28.1 55 34.1 53.8 63.9 44.8 70.8 46.5 42.5 52.2 28.7 59.8 21.1"/>
    <polygon class="cls-8" points="59.8 28.1 76 28.4 78.1 36.9 69.1 38.9 55 34.1 59.8 28.1"/>
    <polygon class="cls-9" points="22.6 31.2 12.6 31.2 6.8 33.8 3.3 38.8 13.3 39.2 22.6 31.2"/>
    <polygon class="cls-10" points="0.8 45.9 9.3 47.7 13.3 39.2 3.3 38.8 0.8 45.9"/>
    <polygon class="cls-11" points="0 72.7 2.3 64.8 0.8 45.9 9.3 47.7 9.5 72.7 8 82.4 0 72.7"/>
    <polygon class="cls-12" points="9.5 72.7 16.3 73.3 21.4 51.5 13.3 39.2 9.3 47.7 9.5 72.7"/>
    <polygon class="cls-13" points="20.3 81.1 16.3 73.3 21.4 51.5 13.3 39.2 22.6 31.2 32.1 45.3 29.5 71.2 29.1 74.4 20.3 81.1"/>
    <polygon class="cls-14" points="54.4 47.5 55 34.1 59.2 35.5 62.6 48.8 54.4 47.5"/>
    <polygon class="cls-15" points="69.5 41.3 62.6 48.8 59.2 35.5 69.1 38.9 69.5 41.3"/>
    <polygon class="cls-16" points="80.8 46.6 78.1 36.9 69.1 38.9 70.8 49.9 80.8 46.6"/>
    <polygon class="cls-17" points="79.1 67.4 80.8 46.6 70.8 49.9 69.6 56.9 69.3 69.3 79.1 67.4"/>
    <polygon class="cls-18" points="61 56.5 69.6 56.9 70.8 49.9 69.5 41.3 62.6 48.8 61 56.5"/>
    <polygon class="cls-15" points="60.8 69.1 61 56.5 62.6 48.8 54.4 47.5 53.8 63.9 60.8 69.1"/>
    <polygon class="cls-19" points="44.8 70.8 53.5 72.6 60.8 69.1 53.8 63.9 44.8 70.8"/>
    <polygon class="cls-20" points="61 56.5 69.6 56.9 69.3 69.3 60.8 69.1 61 56.5"/>
    <polygon class="cls-21" points="66.6 76.7 54.3 80.5 53.5 72.6 60.8 69.1 69.3 69.3 66.6 76.7"/>
    <polygon class="cls-22" points="29.1 74.4 39.3 75.5 44.8 70.8 36.7 70.7 29.5 71.2 29.1 74.4"/>
    <polygon class="cls-23" points="20.3 81.1 34.7 81.5 39.3 75.5 29.1 74.4 20.3 81.1"/>
    <polygon class="cls-24" points="45.2 81.5 54.3 80.5 53.5 72.6 44.8 70.8 39.3 75.5 45.2 81.5"/>
    <polygon class="cls-25" points="20.3 81.1 26.6 84.5 41.9 84.4 45.3 83.3 59.9 83.2 68.1 78.9 78.8 75.7 81.5 66.9 79.2 65.6 79.1 67.4 69.3 69.3 66.6 76.7 54.3 80.5 45.2 81.5 39.3 75.5 34.7 81.5 20.3 81.1"/>
    <polygon class="cls-26" points="8 82.4 20.3 81.1 16.3 73.3 9.5 72.7 8 82.4"/>
  </g>
</svg>
