<svg id="Layer_1" data-name="Layer 1" xmlns="http://www.w3.org/2000/svg" width="131.6" height="91.5" viewBox="0 0 131.6 91.5">
  <defs>
    <style>
      .cls-1 {
        fill: #3fadad;
      }

      .cls-2 {
        fill: #25af95;
      }

      .cls-3 {
        fill: #0d8f6e;
      }

      .cls-4 {
        fill: #0f8a92;
      }

      .cls-5 {
        fill: #1ea099;
      }

      .cls-6 {
        fill: #499fb2;
      }

      .cls-7 {
        fill: #218b88;
      }

      .cls-8 {
        fill: #35a48e;
      }

      .cls-9 {
        fill: #3abec2;
      }

      .cls-10 {
        fill: #218c8f;
      }

      .cls-11 {
        fill: #1f9995;
      }
    </style>
  </defs>
  <title>succulent-agave</title>
  <g>
    <path class="cls-1" d="M3702.8,217.2s-13-1.8-33.2,5l-20.2,6.8s19.4,4.2,36.8-2.4S3702.8,217.2,3702.8,217.2Z" transform="translate(-3573.9 -139.5)"/>
    <path class="cls-2" d="M3595.7,194.3s-8.3-12.3-1.2-32.6c0,0,31.2,11.3,30,34.1C3624.5,195.9,3615.4,204.3,3595.7,194.3Z" transform="translate(-3573.9 -139.5)"/>
    <path class="cls-3" d="M3622.2,139.5s-16.6,30.2,2,46.5,15.4-15.8,11.5-26.8S3622.2,139.5,3622.2,139.5Z" transform="translate(-3573.9 -139.5)"/>
    <path class="cls-4" d="M3641.9,148.9s23.3,24.9,11.1,42c0,0-14.2,1.8-15-13.1S3641.9,148.9,3641.9,148.9Z" transform="translate(-3573.9 -139.5)"/>
    <path class="cls-5" d="M3675.1,145.2s-17.4,15.5-19.4,35.7,14.2,15.8,18.2,11.6,8.7-10.5,7.1-25.5S3675.1,145.2,3675.1,145.2Z" transform="translate(-3573.9 -139.5)"/>
    <path class="cls-6" d="M3693.3,167s-25.7,19.2-27.3,30.7,14.6,15.2,22.1,7.1S3698.4,183.6,3693.3,167Z" transform="translate(-3573.9 -139.5)"/>
    <path class="cls-7" d="M3649.8,219.8a183.9,183.9,0,0,1,55.7-19.2s-11.9,31.5-56.1,28.4C3649.4,229,3639.2,224.5,3649.8,219.8Z" transform="translate(-3573.9 -139.5)"/>
    <path class="cls-8" d="M3658.5,202.7s22.5-15.5,45.5-16c0,0-5.5,33.6-54.5,42.3C3649.4,229,3638.4,212.7,3658.5,202.7Z" transform="translate(-3573.9 -139.5)"/>
    <path class="cls-9" d="M3607.9,175.4s-7.9,12.3-3.6,21.5,21.7,14.2,21.7,14.2,3.2-17.6-7.9-28.1S3607.9,175.4,3607.9,175.4Z" transform="translate(-3573.9 -139.5)"/>
    <path class="cls-9" d="M3670.8,162.6s-20.9,12.1-20.9,32.6,15.8,10.8,15.8,10.8S3685,191.2,3670.8,162.6Z" transform="translate(-3573.9 -139.5)"/>
    <path class="cls-10" d="M3573.9,204.3s13.4,19.2,35.6,21.5,13.4-6.6,13.4-6.6S3621,201.4,3573.9,204.3Z" transform="translate(-3573.9 -139.5)"/>
    <path class="cls-1" d="M3589,192.5s-0.8,24.2,20.6,33.3a61.3,61.3,0,0,0,39.9,3.2S3631.6,201.7,3589,192.5Z" transform="translate(-3573.9 -139.5)"/>
    <path class="cls-11" d="M3617.8,163.9s33.2,17.6,39.9,33.1-8.3,32-8.3,32-20.2,1.6-31.6-26A65.3,65.3,0,0,1,3617.8,163.9Z" transform="translate(-3573.9 -139.5)"/>
  </g>
</svg>
