<svg id="Layer_1" data-name="Layer 1" xmlns="http://www.w3.org/2000/svg" width="171" height="125" viewBox="0 0 171 125">
  <defs>
    <style>
      .cls-1 {
        fill: #7260a4;
      }

      .cls-2 {
        fill: #997bb7;
      }

      .cls-3 {
        fill: #c5dc80;
      }

      .cls-4 {
        fill: #bca0cb;
      }
    </style>
  </defs>
  <title>succulent-purple-agave</title>
  <g>
    <path class="cls-1" d="M3969.8,192.7s2.3-18.1,9.5-31.1,6.7-32.3,6.7-32.3,19.7,42.2,14.5,68.9c-3.3,17.1-16.4,22.3-16.4,22.3Z" transform="translate(-3898 -120.7)"/>
    <path class="cls-2" d="M3935.5,120.7s10.5,50.8,30.5,68,18,31.8,18,31.8,0.5-15.7,15.5-27,24-53.5,24-53.5,9.5,60.5-3,82-47.5,15.3-47.5,15.3-25.5-3.7-32-34.2S3935,168.7,3935.5,120.7Z" transform="translate(-3898 -120.7)"/>
    <path class="cls-1" d="M3898,183.7s16-3,41.3,17.5c0,0,7,5.2,13.3,7s30,8.3,32.2,23.3c0,0,8.8-20.5,39-35.8s45.2-16.3,45.2-16.3-29.2,10.5-37.2,36.3S3996,245,3996,245s-26.8,4.2-47.8-8.8S3931.2,195.7,3898,183.7Z" transform="translate(-3898 -120.7)"/>
    <polygon class="cls-3" points="19.6 68.8 19.4 69.9 20 70.7 19 70.5 18.1 71.1 18.4 70.1 17.8 69.2 18.8 69.4 19.6 68.8"/>
    <polygon class="cls-3" points="26.6 79.6 26.4 80.6 27 81.4 26 81.2 25.2 81.8 25.4 80.8 24.8 80 25.8 80.2 26.6 79.6"/>
    <polygon class="cls-3" points="38.9 81 38.7 82 39.3 82.8 38.3 82.6 37.4 83.2 37.6 82.2 37 81.4 38 81.6 38.9 81"/>
    <polygon class="cls-3" points="36.3 95.1 36.1 96.1 36.7 96.9 35.7 96.7 34.9 97.3 35.1 96.3 34.5 95.5 35.5 95.7 36.3 95.1"/>
    <polygon class="cls-3" points="47 90.3 47.4 91.2 48.4 91.6 47.4 92 47.1 92.9 46.7 92 45.7 91.7 46.6 91.2 47 90.3"/>
    <polygon class="cls-3" points="62.5 104.9 62.9 105.8 63.9 106.2 62.9 106.6 62.6 107.6 62.2 106.6 61.2 106.3 62.2 105.9 62.5 104.9"/>
    <polygon class="cls-3" points="46.1 93.5 46 94.1 46.3 94.6 45.7 94.5 45.2 94.9 45.3 94.2 44.9 93.7 45.6 93.8 46.1 93.5"/>
    <polygon class="cls-3" points="43.6 100.6 43 101.4 43.1 102.4 42.3 101.8 41.3 101.9 41.9 101.1 41.8 100.1 42.6 100.8 43.6 100.6"/>
    <polygon class="cls-3" points="60.4 92.6 60.2 93.6 60.8 94.4 59.8 94.2 59 94.8 59.2 93.8 58.6 93 59.6 93.2 60.4 92.6"/>
    <polygon class="cls-3" points="54.9 99.8 54 99.5 53 99.9 53.4 99 52.9 98.1 53.9 98.4 54.8 97.9 54.5 98.9 54.9 99.8"/>
    <polygon class="cls-3" points="54.1 110.8 53.9 111.8 54.5 112.7 53.5 112.5 52.6 113.1 52.8 112 52.2 111.2 53.3 111.4 54.1 110.8"/>
    <polygon class="cls-3" points="45.5 107 45.3 108 45.9 108.8 44.9 108.6 44 109.2 44.3 108.2 43.7 107.4 44.7 107.6 45.5 107"/>
    <polygon class="cls-3" points="52.6 104.2 52.5 104.9 52.8 105.4 52.2 105.3 51.7 105.6 51.8 105 51.4 104.5 52.1 104.6 52.6 104.2"/>
    <polygon class="cls-3" points="81.1 116.9 81.5 116 81 115 82 115.4 82.9 115 82.6 115.9 83 116.8 82 116.5 81.1 116.9"/>
    <polygon class="cls-3" points="84 115.3 84.5 114.9 84.6 114.3 85 114.8 85.7 114.9 85.1 115.3 85 115.9 84.6 115.4 84 115.3"/>
    <polygon class="cls-3" points="69.2 122.4 70.3 122.3 70.9 121.5 71 122.5 71.8 123.1 70.8 123.3 70.2 124.1 70.1 123.1 69.2 122.4"/>
    <polygon class="cls-3" points="89.6 119.4 90.4 118.8 90.6 117.8 91.2 118.7 92.2 118.9 91.3 119.4 91.2 120.4 90.6 119.6 89.6 119.4"/>
    <polygon class="cls-3" points="60.6 115.1 61 116 62 116.3 61.1 116.8 60.8 117.7 60.3 116.8 59.4 116.5 60.3 116 60.6 115.1"/>
    <polygon class="cls-3" points="72.3 116.6 73.2 116 73.4 115 73.9 115.8 75 116 74.1 116.6 73.9 117.6 73.4 116.7 72.3 116.6"/>
    <polygon class="cls-3" points="65.3 113.6 65.9 113.2 66 112.6 66.4 113.1 67 113.2 66.5 113.6 66.3 114.2 66 113.7 65.3 113.6"/>
    <polygon class="cls-3" points="46.8 83.7 46.7 84.4 47 84.9 46.4 84.8 45.8 85.1 46 84.5 45.6 83.9 46.3 84.1 46.8 83.7"/>
    <polygon class="cls-3" points="66.8 91.3 67 91.9 67.6 92.2 67 92.4 66.8 93 66.5 92.4 65.9 92.2 66.5 91.9 66.8 91.3"/>
    <polygon class="cls-3" points="82.4 103 82.9 103.5 83.5 103.5 83.1 104 83.1 104.6 82.6 104.1 82 104.2 82.4 103.7 82.4 103"/>
    <polygon class="cls-3" points="37.1 87.8 37 88.4 37.4 89 36.7 88.8 36.2 89.2 36.3 88.6 35.9 88 36.6 88.2 37.1 87.8"/>
    <polygon class="cls-3" points="30.1 75.9 30 76.5 30.4 77.1 29.7 76.9 29.2 77.3 29.3 76.7 28.9 76.1 29.6 76.3 30.1 75.9"/>
    <polygon class="cls-3" points="73.8 102.4 73.6 103.4 74.2 104.2 73.2 104 72.3 104.6 72.5 103.6 71.9 102.7 72.9 103 73.8 102.4"/>
    <polygon class="cls-3" points="78.9 122 78.3 122.8 78.4 123.8 77.6 123.2 76.6 123.3 77.3 122.5 77.1 121.5 77.9 122.1 78.9 122"/>
    <polygon class="cls-3" points="72 109.2 71.9 109.8 72.3 110.4 71.6 110.2 71.1 110.6 71.2 109.9 70.9 109.4 71.5 109.5 72 109.2"/>
    <polygon class="cls-3" points="65 97.3 64.9 97.9 65.3 98.4 64.6 98.3 64.1 98.7 64.2 98 63.9 97.5 64.5 97.6 65 97.3"/>
    <polygon class="cls-4" points="68.7 89.3 69.1 90.2 70.1 90.6 69.1 91 68.8 91.9 68.4 91 67.4 90.7 68.3 90.2 68.7 89.3"/>
    <polygon class="cls-4" points="64.3 72.7 64.1 73.7 64.7 74.6 63.7 74.3 62.8 74.9 63.1 73.9 62.5 73.1 63.5 73.3 64.3 72.7"/>
    <polygon class="cls-4" points="55.6 84 56.4 83.9 56.9 83.2 57 84.1 57.7 84.6 56.9 84.7 56.4 85.3 56.3 84.5 55.6 84"/>
    <polygon class="cls-4" points="48.4 79.1 48.8 80 49.8 80.3 48.9 80.7 48.6 81.7 48.1 80.8 47.1 80.5 48.1 80 48.4 79.1"/>
    <polygon class="cls-4" points="60.5 80 61 79.6 61.2 79 61.5 79.5 62.2 79.6 61.6 80 61.5 80.7 61.1 80.1 60.5 80"/>
    <polygon class="cls-4" points="53.1 77.6 53.7 77.2 53.8 76.6 54.1 77.1 54.8 77.2 54.2 77.6 54.1 78.2 53.8 77.7 53.1 77.6"/>
    <polygon class="cls-4" points="72.9 75.7 73.2 76.3 73.8 76.6 73.2 76.8 72.9 77.4 72.7 76.8 72.1 76.6 72.7 76.3 72.9 75.7"/>
    <polygon class="cls-4" points="80 86.7 79.8 87.8 80.3 88.6 79.3 88.4 78.5 89 78.7 88 78.1 87.1 79.1 87.3 80 86.7"/>
    <polygon class="cls-4" points="62.8 85.5 62.4 86 62.5 86.7 62 86.2 61.3 86.3 61.7 85.8 61.6 85.2 62.1 85.6 62.8 85.5"/>
    <polygon class="cls-4" points="78.2 93.5 78.1 94.2 78.5 94.7 77.8 94.6 77.3 95 77.4 94.3 77 93.8 77.7 93.9 78.2 93.5"/>
    <polygon class="cls-4" points="71.2 81.6 71.1 82.3 71.5 82.8 70.8 82.7 70.3 83.1 70.4 82.4 70 81.9 70.7 82 71.2 81.6"/>
    <polygon class="cls-3" points="88.6 115.8 88.9 116.4 89.5 116.7 88.9 116.9 88.6 117.5 88.4 116.9 87.8 116.7 88.4 116.4 88.6 115.8"/>
    <polygon class="cls-3" points="86.9 121.8 86.8 122.4 87.2 122.9 86.5 122.8 86 123.2 86.1 122.5 85.7 122 86.4 122.1 86.9 121.8"/>
    <polygon class="cls-3" points="99.1 120.3 99.4 121.3 100.3 121.8 99.3 122 98.8 122.9 98.5 121.9 97.6 121.5 98.6 121.2 99.1 120.3"/>
    <polygon class="cls-3" points="106.3 111.1 107.1 111.8 108.2 111.7 107.5 112.5 107.7 113.5 106.9 112.8 105.8 113 106.5 112.2 106.3 111.1"/>
    <polygon class="cls-3" points="107 114.4 107.2 115 107.8 115.3 107.1 115.5 106.8 116.1 106.7 115.5 106.1 115.1 106.7 115 107 114.4"/>
    <polygon class="cls-3" points="119.4 107 119.6 108 120.5 108.5 119.5 108.8 119.1 109.7 118.8 108.7 117.9 108.2 118.9 107.9 119.4 107"/>
    <polygon class="cls-3" points="117.8 116 116.8 116.1 116.2 117 116 115.9 115.2 115.3 116.2 115.2 116.8 114.4 117 115.4 117.8 116"/>
    <polygon class="cls-3" points="124.4 103 124.9 103.5 125.6 103.4 125.1 103.9 125.2 104.5 124.7 104.1 124 104.2 124.5 103.7 124.4 103"/>
    <polygon class="cls-3" points="125.6 109.1 125.8 109.7 126.4 110 125.7 110.2 125.4 110.8 125.2 110.1 124.7 109.8 125.3 109.7 125.6 109.1"/>
    <polygon class="cls-3" points="11.3 65.4 11.2 66 11.5 66.6 10.9 66.4 10.4 66.8 10.5 66.2 10.1 65.6 10.8 65.8 11.3 65.4"/>
    <polygon class="cls-3" points="154.8 63.6 154.9 64.6 154.3 65.4 155.3 65.3 156.1 65.9 155.9 64.9 156.6 64.1 155.6 64.3 154.8 63.6"/>
    <polygon class="cls-3" points="146.4 70.7 146.5 71.7 145.9 72.5 146.9 72.4 147.7 73.1 147.6 72 148.2 71.3 147.2 71.4 146.4 70.7"/>
    <polygon class="cls-3" points="135.9 71.7 136 72.7 135.4 73.5 136.4 73.3 137.2 74 137 73 137.7 72.2 136.7 72.3 135.9 71.7"/>
    <polygon class="cls-3" points="136.3 85.2 136.4 86.3 135.8 87 136.8 86.9 137.6 87.6 137.4 86.5 138.1 85.8 137.1 85.9 136.3 85.2"/>
    <polygon class="cls-3" points="127.1 80.2 126.6 81.2 125.6 81.4 126.5 81.9 126.7 82.9 127.2 82 128.2 81.7 127.3 81.2 127.1 80.2"/>
    <polygon class="cls-3" points="110.4 93.5 109.9 94.5 108.9 94.7 109.8 95.2 110.1 96.2 110.6 95.3 111.6 95 110.6 94.5 110.4 93.5"/>
    <polygon class="cls-3" points="127.7 83.5 127.8 84.2 127.3 84.7 128 84.6 128.5 85 128.4 84.3 128.8 83.8 128.2 83.9 127.7 83.5"/>
    <polygon class="cls-3" points="129.6 90.8 130.2 91.7 129.9 92.7 130.8 92.1 131.8 92.3 131.2 91.5 131.4 90.5 130.6 91.1 129.6 90.8"/>
    <polygon class="cls-3" points="113.5 81.4 113.6 82.5 112.9 83.3 114 83.1 114.8 83.8 114.6 82.8 115.3 82 114.3 82.1 113.5 81.4"/>
    <polygon class="cls-3" points="118.3 89.1 119.3 88.8 120.2 89.4 119.9 88.4 120.5 87.5 119.5 87.8 118.6 87.3 118.9 88.2 118.3 89.1"/>
    <polygon class="cls-3" points="118.3 100.2 118.4 101.2 117.8 102 118.8 101.8 119.6 102.5 119.4 101.5 120.1 100.7 119.1 100.8 118.3 100.2"/>
    <polygon class="cls-3" points="127.2 97 127.3 98.1 126.6 98.8 127.6 98.7 128.4 99.4 128.3 98.3 129 97.6 127.9 97.7 127.2 97"/>
    <polygon class="cls-3" points="120.3 93.7 120.4 94.3 120 94.8 120.6 94.8 121.1 95.2 121.1 94.5 121.5 94 120.8 94.1 120.3 93.7"/>
    <polygon class="cls-3" points="89.5 108.5 89.2 107.5 89.7 106.6 88.8 106.9 87.9 106.4 88.2 107.4 87.6 108.3 88.6 108 89.5 108.5"/>
    <polygon class="cls-3" points="102.2 110.5 101.2 110.3 100.7 109.4 100.5 110.4 99.6 111 100.6 111.2 101.2 112 101.4 111 102.2 110.5"/>
    <polygon class="cls-3" points="111.5 103.8 110.9 104.7 109.9 105 110.8 105.5 111.1 106.5 111.6 105.6 112.6 105.4 111.7 104.8 111.5 103.8"/>
    <polygon class="cls-4" points="57.2 66.8 58.1 67.3 59.1 67 58.6 67.9 58.9 68.9 58 68.3 57 68.6 57.5 67.8 57.2 66.8"/>
    <polygon class="cls-4" points="85 99.7 84.3 100.5 84.5 101.5 83.7 100.8 82.7 101 83.3 100.2 83.2 99.2 84 99.8 85 99.7"/>
    <polygon class="cls-4" points="58.1 60.4 58.8 60.3 59.2 59.8 59.2 60.5 59.7 60.9 59.1 61 58.6 61.5 58.6 60.8 58.1 60.4"/>
    <polygon class="cls-4" points="45.8 75.7 46.4 76 47 75.8 46.6 76.4 46.8 77 46.3 76.7 45.6 76.9 46 76.3 45.8 75.7"/>
    <polygon class="cls-4" points="44.7 35.7 45.5 36.3 45.6 37.3 46.3 36.5 47.3 36.5 46.5 35.8 46.4 34.8 45.8 35.6 44.7 35.7"/>
    <polygon class="cls-4" points="44.2 42.2 44.4 43.1 43.9 44 44.9 43.7 45.8 44.3 45.5 43.3 46 42.4 45 42.7 44.2 42.2"/>
    <polygon class="cls-4" points="41.4 63.3 41.7 64.3 41.2 65.2 42.2 64.9 43 65.4 42.8 64.4 43.3 63.6 42.3 63.8 41.4 63.3"/>
    <polygon class="cls-4" points="46.9 44.1 47.4 44.5 47.4 45.1 47.8 44.6 48.5 44.6 48 44.2 47.9 43.5 47.5 44 46.9 44.1"/>
    <polygon class="cls-4" points="38 17.5 39 17.7 39.6 18.6 39.8 17.5 40.6 17 39.6 16.8 39.1 15.9 38.9 16.9 38 17.5"/>
    <polygon class="cls-4" points="38.8 33.8 39.6 34.4 39.6 35.4 40.3 34.6 41.3 34.5 40.5 33.9 40.4 32.9 39.8 33.7 38.8 33.8"/>
    <polygon class="cls-4" points="44.1 54.6 44.6 53.7 45.6 53.5 44.7 53 44.5 52 44 52.8 43 53.1 43.8 53.6 44.1 54.6"/>
    <polygon class="cls-4" points="51.7 62.6 52.5 63.2 52.6 64.2 53.2 63.4 54.2 63.3 53.4 62.7 53.4 61.7 52.7 62.5 51.7 62.6"/>
    <polygon class="cls-4" points="50.7 50.3 51.5 50.9 51.6 52 52.3 51.2 53.3 51.1 52.5 50.4 52.4 49.4 51.8 50.2 50.7 50.3"/>
    <polygon class="cls-4" points="48.7 56.5 49.2 56.9 49.2 57.6 49.6 57.1 50.3 57 49.8 56.6 49.7 55.9 49.3 56.4 48.7 56.5"/>
    <polygon class="cls-4" points="49.3 70 49.6 71 49 71.8 50 71.6 50.9 72.1 50.6 71.1 51.2 70.3 50.2 70.5 49.3 70"/>
    <polygon class="cls-4" points="92.4 87.2 92.6 88.2 92 89.1 93 88.8 93.9 89.4 93.6 88.4 94.2 87.6 93.2 87.8 92.4 87.2"/>
    <polygon class="cls-4" points="122 73.4 121.5 74.3 120.6 74.7 121.5 75.1 121.8 76.1 122.3 75.1 123.2 74.8 122.3 74.4 122 73.4"/>
    <polygon class="cls-4" points="109.9 74.3 109.3 74 109.2 73.3 108.8 73.9 108.2 74 108.7 74.3 108.9 75 109.2 74.4 109.9 74.3"/>
    <polygon class="cls-4" points="115.6 74.8 114.4 75.1 113.3 74.5 113.6 75.7 113 76.8 114.2 76.4 115.3 77.1 114.9 75.9 115.6 74.8"/>
    <polygon class="cls-4" points="111.9 66.3 111.1 66.8 110.1 66.5 110.6 67.4 110.3 68.4 111.2 67.8 112.2 68.1 111.7 67.2 111.9 66.3"/>
    <polygon class="cls-4" points="99.5 81.1 98.9 81.1 98.5 80.6 98.4 81.2 97.9 81.6 98.6 81.7 99 82.2 99 81.5 99.5 81.1"/>
    <polygon class="cls-4" points="125.9 65.9 125.3 66.2 124.7 66 125 66.6 124.9 67.2 125.4 66.9 126.1 67.1 125.7 66.5 125.9 65.9"/>
    <polygon class="cls-4" points="125.6 30 124.8 30.7 124.7 31.7 124.1 30.9 123.1 30.8 123.9 30.2 124 29.1 124.6 29.9 125.6 30"/>
    <polygon class="cls-4" points="126.2 36.5 125.9 37.5 126.5 38.4 125.5 38.1 124.6 38.6 124.9 37.6 124.3 36.7 125.3 37 126.2 36.5"/>
    <polygon class="cls-4" points="126.1 56.7 125.9 57.7 126.4 58.5 125.4 58.3 124.5 58.8 124.8 57.8 124.3 56.9 125.3 57.2 126.1 56.7"/>
    <polygon class="cls-4" points="123.5 38.4 123 38.8 122.9 39.5 122.5 39 121.9 38.9 122.4 38.5 122.4 37.8 122.8 38.4 123.5 38.4"/>
    <polygon class="cls-4" points="105 76.6 104.2 77.3 104.1 78.3 103.4 77.5 102.4 77.4 103.2 76.8 103.3 75.7 103.9 76.5 105 76.6"/>
    <polygon class="cls-4" points="126.3 48.9 125.8 48 124.8 47.8 125.7 47.3 125.9 46.3 126.4 47.2 127.4 47.4 126.5 47.9 126.3 48.9"/>
    <polygon class="cls-4" points="118.7 56.9 117.9 57.5 117.8 58.6 117.2 57.8 116.1 57.7 116.9 57 117 56 117.7 56.8 118.7 56.9"/>
    <polygon class="cls-4" points="101.7 87.1 100.9 87.7 100.8 88.7 100.2 87.9 99.1 87.9 99.9 87.2 100 86.2 100.7 87 101.7 87.1"/>
    <polygon class="cls-4" points="121.7 50.8 121.2 51.2 121.1 51.9 120.7 51.4 120.1 51.3 120.6 50.9 120.6 50.3 121.1 50.8 121.7 50.8"/>
    <polygon class="cls-4" points="121 64.3 120.8 65.3 121.3 66.2 120.3 65.9 119.5 66.5 119.7 65.5 119.2 64.6 120.2 64.9 121 64.3"/>
    <polygon class="cls-3" points="99.6 104.4 98.8 103.7 98.7 102.7 98.1 103.5 97.1 103.6 97.9 104.2 98 105.3 98.6 104.5 99.6 104.4"/>
    <polygon class="cls-3" points="106.9 102 106.3 101.6 106.3 100.9 105.9 101.4 105.2 101.5 105.7 101.9 105.8 102.5 106.2 102 106.9 102"/>
    <polygon class="cls-3" points="127.8 73.7 127.9 74.4 127.4 74.9 128.1 74.8 128.6 75.2 128.5 74.6 128.9 74.1 128.3 74.1 127.8 73.7"/>
    <polygon class="cls-4" points="107.3 79.7 107 80.3 106.3 80.5 106.9 80.8 107.1 81.4 107.4 80.8 108 80.6 107.5 80.3 107.3 79.7"/>
    <polygon class="cls-4" points="88.5 102.5 89.2 102.6 89.6 103.1 89.7 102.5 90.2 102.1 89.5 102 89.2 101.5 89.1 102.1 88.5 102.5"/>
    <polygon class="cls-4" points="95.1 92.1 95.7 91.8 96.3 92.1 96.1 91.5 96.3 90.9 95.7 91.1 95.1 90.8 95.4 91.5 95.1 92.1"/>
    <polygon class="cls-4" points="88.7 96.6 88.7 95.9 89.2 95.5 88.5 95.4 88.1 94.9 88.1 95.6 87.6 96 88.2 96.1 88.7 96.6"/>
    <polygon class="cls-3" points="137.1 78.6 137.2 79.2 136.7 79.7 137.4 79.7 137.9 80.1 137.8 79.4 138.2 78.9 137.6 79 137.1 78.6"/>
    <polygon class="cls-3" points="145 67.3 145.1 67.9 144.7 68.4 145.3 68.4 145.8 68.8 145.8 68.1 146.2 67.6 145.5 67.7 145 67.3"/>
    <polygon class="cls-3" points="95.8 95.7 95.9 96.8 95.3 97.5 96.3 97.4 97.1 98.1 96.9 97 97.6 96.3 96.6 96.4 95.8 95.7"/>
    <polygon class="cls-3" points="92.6 109.3 93.2 110.1 93 111.1 93.8 110.5 94.8 110.7 94.3 109.9 94.5 108.9 93.6 109.5 92.6 109.3"/>
    <polygon class="cls-3" points="100.5 97 100.6 97.7 100.2 98.2 100.8 98.1 101.4 98.5 101.3 97.9 101.7 97.4 101 97.5 100.5 97"/>
    <polygon class="cls-3" points="108.5 85.7 108.6 86.4 108.1 86.9 108.8 86.8 109.3 87.2 109.2 86.6 109.6 86.1 109 86.1 108.5 85.7"/>
    <polygon class="cls-3" points="164.1 60.3 164.2 61 163.7 61.5 164.4 61.4 164.9 61.8 164.8 61.2 165.2 60.7 164.6 60.8 164.1 60.3"/>
    <g>
      <polygon class="cls-3" points="83.2 75.9 82.2 75.7 81.6 74.8 81.4 75.8 80.5 76.4 81.5 76.6 82.1 77.5 82.3 76.4 83.2 75.9"/>
      <polygon class="cls-3" points="80.2 77.4 79.6 77.7 79 77.4 79.3 78 79 78.7 79.6 78.4 80.2 78.6 80 78 80.2 77.4"/>
      <polygon class="cls-3" points="78.1 63.2 77.1 63.7 76.2 63.3 76.6 64.2 76.2 65.1 77.2 64.7 78.1 65.1 77.7 64.2 78.1 63.2"/>
      <polygon class="cls-3" points="74.7 69.2 75.3 70 75 71 75.9 70.5 76.9 70.7 76.3 69.9 76.6 68.9 75.7 69.4 74.7 69.2"/>
      <polygon class="cls-3" points="78 56.8 77.3 56.7 77 56.1 76.9 56.8 76.3 57.1 77 57.3 77.3 57.8 77.4 57.2 78 56.8"/>
      <polygon class="cls-3" points="86.9 85.8 86.3 86 85.7 85.8 85.9 86.4 85.7 87 86.3 86.7 86.9 87 86.6 86.4 86.9 85.8"/>
      <polygon class="cls-3" points="89.6 15.3 89.3 15.5 89.2 15.9 89 15.6 88.7 15.5 89 15.3 89.1 14.9 89.3 15.3 89.6 15.3"/>
      <polygon class="cls-3" points="90 25.6 89.1 26.1 88.9 27.2 88.4 26.3 87.4 26.1 88.3 25.5 88.5 24.5 89 25.4 90 25.6"/>
      <polygon class="cls-3" points="94.9 28 94.1 28.6 93.9 29.6 93.3 28.7 92.3 28.5 93.2 28 93.4 27 93.9 27.8 94.9 28"/>
      <polygon class="cls-3" points="88.5 37.1 87.6 37.6 87.4 38.7 86.9 37.8 85.9 37.6 86.8 37 87 36 87.5 36.9 88.5 37.1"/>
      <polygon class="cls-3" points="94.9 41.7 94.5 42.7 94.9 43.6 94 43.2 93 43.7 93.4 42.7 93 41.8 93.9 42.2 94.9 41.7"/>
      <polygon class="cls-3" points="94.2 61.6 93.8 62.6 94.2 63.5 93.3 63.1 92.4 63.5 92.8 62.6 92.3 61.7 93.3 62 94.2 61.6"/>
      <polygon class="cls-3" points="91 41.9 90.4 42.2 90.3 42.9 90 42.3 89.3 42.2 89.9 41.8 90 41.2 90.4 41.8 91 41.9"/>
      <polygon class="cls-3" points="84.1 45.1 83.1 45.2 82.5 46 82.4 44.9 81.6 44.3 82.6 44.2 83.2 43.4 83.3 44.4 84.1 45.1"/>
      <polygon class="cls-3" points="101.6 51.6 100.7 52.1 100.5 53.1 100 52.2 99 52 99.9 51.5 100.1 50.5 100.6 51.4 101.6 51.6"/>
      <polygon class="cls-3" points="92.6 52.7 92.2 51.7 91.2 51.4 92.1 51 92.5 50 92.9 50.9 93.9 51.3 92.9 51.7 92.6 52.7"/>
      <polygon class="cls-3" points="84.1 59.7 83.2 60.2 83 61.3 82.5 60.4 81.5 60.2 82.3 59.6 82.5 58.6 83.1 59.5 84.1 59.7"/>
      <polygon class="cls-3" points="80.9 50.9 80 51.4 79.8 52.4 79.3 51.6 78.3 51.4 79.1 50.8 79.3 49.8 79.9 50.7 80.9 50.9"/>
      <polygon class="cls-3" points="87.8 54 87.2 54.4 87.1 55 86.8 54.5 86.1 54.3 86.7 54 86.8 53.3 87.2 53.9 87.8 54"/>
      <polygon class="cls-3" points="86.3 78.7 87.1 79.3 88.1 79.2 87.4 80 87.6 81 86.8 80.3 85.8 80.5 86.4 79.7 86.3 78.7"/>
      <polygon class="cls-3" points="85.9 66.4 85.6 67.3 86 68.2 85.1 67.9 84.1 68.3 84.5 67.4 84 66.5 85 66.8 85.9 66.4"/>
      <polygon class="cls-3" points="92.7 76.8 93.7 77 94.5 76.4 94.3 77.4 94.9 78.3 93.9 78.1 93 78.7 93.2 77.6 92.7 76.8"/>
      <polygon class="cls-3" points="89.9 69.7 90.6 69.8 91.1 69.5 91 70.1 91.4 70.6 90.7 70.5 90.2 70.9 90.3 70.2 89.9 69.7"/>
      <polygon class="cls-3" points="96.6 35.8 96 36.1 95.9 36.7 95.5 36.2 94.9 36.1 95.4 35.7 95.6 35.1 95.9 35.6 96.6 35.8"/>
      <polygon class="cls-3" points="88.8 31.5 88.3 31.8 88.2 32.5 87.8 31.9 87.2 31.8 87.7 31.5 87.8 30.8 88.2 31.4 88.8 31.5"/>
      <polygon class="cls-3" points="91.9 20.8 91.4 21.2 91.2 21.8 90.9 21.3 90.2 21.2 90.8 20.8 90.9 20.2 91.3 20.7 91.9 20.8"/>
      <polygon class="cls-3" points="101.9 65.5 101 66.1 100.8 67.1 100.3 66.2 99.3 66 100.1 65.5 100.3 64.5 100.9 65.3 101.9 65.5"/>
      <polygon class="cls-3" points="97.8 71.4 97.2 71.8 97.1 72.4 96.7 71.9 96.1 71.8 96.6 71.4 96.8 70.8 97.1 71.3 97.8 71.4"/>
      <polygon class="cls-3" points="101.5 58.1 100.9 58.5 100.8 59.1 100.4 58.6 99.8 58.4 100.3 58.1 100.5 57.4 100.8 58 101.5 58.1"/>
    </g>
  </g>
</svg>
