<svg id="Layer_1" data-name="Layer 1" xmlns="http://www.w3.org/2000/svg" width="133" height="243.8" viewBox="0 0 133 243.8">
  <defs>
    <style>
      .cls-1 {
        fill: #698142;
      }

      .cls-2 {
        fill: #85a057;
      }
    </style>
  </defs>
  <title>succulent-purslane</title>
  <g>
    <g>
      <path class="cls-1" d="M3480.6,426.6s13.2-5.1,30.9,12.4c0,0-16.9,17.3-32.2,6.4S3480.6,426.6,3480.6,426.6Z" transform="translate(-3430.4 -272.5)"/>
      <path class="cls-1" d="M3506.8,516.3a2,2,0,0,1-1.7-1.5c-0.3-1.2-7-29.9-.4-58.9a173,173,0,0,1,8.3-26.1c4.1-10.5,7.3-18.9,6.8-35-0.2-5.5-1.6-12.1-3.4-19.8-4.2-18.8-10-44.6-.4-76a2,2,0,0,1,3.8,1.2c-9.2,30.4-3.6,55.6.5,74,1.8,7.9,3.3,14.7,3.5,20.6,0.5,16.9-2.8,25.6-7.1,36.6a169.5,169.5,0,0,0-8.1,25.6c-6.4,28.1.3,56.8,0.4,57.1a2,2,0,0,1-1.5,2.4h-0.7Z" transform="translate(-3430.4 -272.5)"/>
      <path class="cls-1" d="M3518.9,275.5s-8.5,7.7-2.3,27c0,0,18.8-6,16.4-21.1S3518.9,275.5,3518.9,275.5Z" transform="translate(-3430.4 -272.5)"/>
      <path class="cls-1" d="M3534.8,305.9s-8.6-2.8-19.3,8.9c0,0,11.3,10.5,20.7,3.1S3534.8,305.9,3534.8,305.9Z" transform="translate(-3430.4 -272.5)"/>
      <path class="cls-1" d="M3544.9,333.6s-13.5-4.5-30.3,13.9c0,0,17.8,16.5,32.6,4.9S3544.9,333.6,3544.9,333.6Z" transform="translate(-3430.4 -272.5)"/>
      <path class="cls-1" d="M3494.3,311.7s9.8-.7,18,14.5c0,0-14.7,8.1-22.7-2.2S3494.3,311.7,3494.3,311.7Z" transform="translate(-3430.4 -272.5)"/>
      <path class="cls-1" d="M3485,347.9s11.3-7.1,30.8,5.9c0,0-12.5,19.1-28.7,11.7S3485,347.9,3485,347.9Z" transform="translate(-3430.4 -272.5)"/>
      <path class="cls-1" d="M3497.1,407.4s9.1-4.3,22.4,7.2c0,0-11,13.1-22.4,6.2S3497.1,407.4,3497.1,407.4Z" transform="translate(-3430.4 -272.5)"/>
      <path class="cls-1" d="M3480.9,377.6s14.7-9.2,40,7.7c0,0-16.2,24.7-37.2,15.2S3480.9,377.6,3480.9,377.6Z" transform="translate(-3430.4 -272.5)"/>
      <path class="cls-1" d="M3481.8,456.3s11.1-2.4,23,13.6c0,0-15.5,11.7-26.3,1.2S3481.8,456.3,3481.8,456.3Z" transform="translate(-3430.4 -272.5)"/>
      <path class="cls-1" d="M3489.6,486.3s6.7-1.5,14,8.3c0,0-9.4,7.1-16,.7S3489.6,486.3,3489.6,486.3Z" transform="translate(-3430.4 -272.5)"/>
      <path class="cls-1" d="M3533.1,456.4s-11-6-28.5,7.3c0,0,12.8,17.1,27.5,9.3S3533.1,456.4,3533.1,456.4Z" transform="translate(-3430.4 -272.5)"/>
      <path class="cls-1" d="M3521.6,496.5s-9.7.7-17.8-14.2c0,0,14.5-8,22.3,2.2S3521.6,496.5,3521.6,496.5Z" transform="translate(-3430.4 -272.5)"/>
      <path class="cls-1" d="M3553.9,363.6s-15.4-5.4-35,15.4c0,0,20,19.2,37.2,6.1S3553.9,363.6,3553.9,363.6Z" transform="translate(-3430.4 -272.5)"/>
      <path class="cls-1" d="M3554.9,424.1s-15.6-9-41.2,9.5c0,0,17.8,25.1,39.2,14.4S3554.9,424.1,3554.9,424.1Z" transform="translate(-3430.4 -272.5)"/>
      <path class="cls-1" d="M3549.6,397.7s-10.7-7.3-27.3,6c0,0,12.6,19.5,26.6,12.1S3549.6,397.7,3549.6,397.7Z" transform="translate(-3430.4 -272.5)"/>
    </g>
    <g>
      <path class="cls-2" d="M3476.8,341.2s2.7,7.6-7.6,17.3c0,0-9.5-9.9-3.1-18.3S3476.8,341.2,3476.8,341.2Z" transform="translate(-3430.4 -272.5)"/>
      <path class="cls-2" d="M3441.7,356s10.8-4.9,26.4,8.9c0,0-13.3,15.3-26.6,6.9S3441.7,356,3441.7,356Z" transform="translate(-3430.4 -272.5)"/>
      <path class="cls-2" d="M3447.5,406.8s7.8-5.9,22.9,2.3c0,0-7.9,14.7-20.2,10.4S3447.5,406.8,3447.5,406.8Z" transform="translate(-3430.4 -272.5)"/>
      <path class="cls-2" d="M3466.6,485.1s8.6-4.7,22.3,5.6c0,0-10,13.4-21.5,7.4S3466.6,485.1,3466.6,485.1Z" transform="translate(-3430.4 -272.5)"/>
      <path class="cls-2" d="M3502.9,495.6s-4.8-1.1-10,5.7c0,0,6.6,5.1,11.3.7S3502.9,495.6,3502.9,495.6Z" transform="translate(-3430.4 -272.5)"/>
      <path class="cls-2" d="M3515.5,467.1s-10.9-4.8-26.4,9.2c0,0,13.5,15.2,26.8,6.7S3515.5,467.1,3515.5,467.1Z" transform="translate(-3430.4 -272.5)"/>
      <path class="cls-2" d="M3510.4,431.2s-12.8-3-26.8,15.3c0,0,17.7,13.8,30.4,1.9S3510.4,431.2,3510.4,431.2Z" transform="translate(-3430.4 -272.5)"/>
      <path class="cls-2" d="M3493.6,386.8s-11.4-2.7-24,13.6c0,0,15.8,12.3,27.2,1.7S3493.6,386.8,3493.6,386.8Z" transform="translate(-3430.4 -272.5)"/>
      <path class="cls-2" d="M3489.5,369.5s-7.8-5.6-22.4,3c0,0,8.2,14.2,20.1,9.6S3489.5,369.5,3489.5,369.5Z" transform="translate(-3430.4 -272.5)"/>
      <path class="cls-2" d="M3446.2,430.3s9.6-9.6,31.9-1.2c0,0-8.1,21.8-25.7,18.2S3446.2,430.3,3446.2,430.3Z" transform="translate(-3430.4 -272.5)"/>
      <path class="cls-2" d="M3450,454.7s13.7-8.9,37.7,6.8c0,0-15,23.5-34.8,14.8S3450,454.7,3450,454.7Z" transform="translate(-3430.4 -272.5)"/>
      <path class="cls-2" d="M3436.5,380.8s11.7-7.3,31.8,6.3c0,0-13.1,19.6-29.7,12S3436.5,380.8,3436.5,380.8Z" transform="translate(-3430.4 -272.5)"/>
      <path class="cls-2" d="M3494.3,414.7s-8.2-1.9-17.2,9.8c0,0,11.3,8.8,19.5,1.2S3494.3,414.7,3494.3,414.7Z" transform="translate(-3430.4 -272.5)"/>
      <path class="cls-2" d="M3499.9,515.4a1.5,1.5,0,0,1-1-.2c-0.5-.3-11.2-8-11.4-39.6-0.1-19.8-5-31.6-10.2-44.1a155.1,155.1,0,0,1-8-22.7c-6.7-26.9-1.7-53.1-1.6-53.4a1.5,1.5,0,0,1,2.9.6c-0.1.3-4.9,25.9,1.6,52.1a152.7,152.7,0,0,0,7.8,22.3c5.3,12.8,10.3,24.9,10.4,45.2,0.2,23.9,6.7,34.8,10.1,37.2A1.5,1.5,0,0,1,3499.9,515.4Z" transform="translate(-3430.4 -272.5)"/>
    </g>
  </g>
</svg>
