<svg id="Layer_1" data-name="Layer 1" xmlns="http://www.w3.org/2000/svg" width="93.1" height="138.6" viewBox="0 0 93.1 138.6">
  <defs>
    <style>
      .cls-1 {
        fill: #2b5a2c;
      }

      .cls-2 {
        fill: #419b46;
      }

      .cls-3 {
        fill: #bd539e;
      }

      .cls-4 {
        fill: #9633ff;
      }
    </style>
  </defs>
  <title>succulent-cacti</title>
  <g>
    <path class="cls-1" d="M3946.4,421.6s-1.5-35,17-38,22.5,26,22.5,26-1.5,58.5-12,60-18.5,4.5-18.5-2.5S3946.4,421.6,3946.4,421.6Z" transform="translate(-3925.4 -380.4)"/>
    <path class="cls-2" d="M3963.4,471.1s1.5-54-22-50,0.5,77.5.5,77.5,9,20.5,19.5,20,18,4,26-8,35.5-71,26-95.5-37-15-43.5,9A202.8,202.8,0,0,0,3963.4,471.1Z" transform="translate(-3925.4 -380.4)"/>
    <path class="cls-3" d="M4017.3,406.9a0.3,0.3,0,0,0-.4-0.2l-5.6,1.6,4.4-2.8a0.3,0.3,0,0,0-.3-0.5l-4.7,3,2.9-3.5a0.3,0.3,0,1,0-.4-0.4l-4,4.8h0a0.3,0.3,0,0,0-.2.2v0.2a0.3,0.3,0,0,0,.3.3l6.7,0.2h0a0.3,0.3,0,0,0,0-.6l-5.4-.2,6.6-1.9A0.3,0.3,0,0,0,4017.3,406.9Z" transform="translate(-3925.4 -380.4)"/>
    <path class="cls-3" d="M4002.8,493a0.3,0.3,0,0,0,0-.4l-4.5-3.7,4.8,2a0.3,0.3,0,0,0,.2-0.5l-5.1-2.2,4.5,0.5a0.3,0.3,0,1,0,.1-0.6l-6.2-.6H3996a0.3,0.3,0,0,0-.1.4l3.6,5.7h0a0.3,0.3,0,0,0,.5-0.3l-2.9-4.6,5.3,4.4A0.3,0.3,0,0,0,4002.8,493Z" transform="translate(-3925.4 -380.4)"/>
    <path class="cls-3" d="M3988.5,402.5a0.2,0.2,0,0,0-.2.3l0.7,4.9-1.8-4.1a0.2,0.2,0,0,0-.4.2l1.9,4.3-2.6-2.9h-0.3a0.2,0.2,0,0,0,0,.3l3.5,4h0l0.2,0.2h0.2a0.2,0.2,0,0,0,.3-0.2l1-5.7h0a0.2,0.2,0,0,0-.5-0.1l-0.8,4.6-0.8-5.8A0.2,0.2,0,0,0,3988.5,402.5Z" transform="translate(-3925.4 -380.4)"/>
    <path class="cls-3" d="M3974.9,412.3a0.3,0.3,0,0,0-.1.5l3.9,5.9-4.9-4.1a0.3,0.3,0,0,0-.5.5l5.1,4.4-5.1-2.2a0.3,0.3,0,1,0-.3.6l7,3h0.7a0.3,0.3,0,0,0,.2-0.4l-2.2-7.9h0a0.3,0.3,0,0,0-.7.2l1.7,6.4-4.6-7A0.3,0.3,0,0,0,3974.9,412.3Z" transform="translate(-3925.4 -380.4)"/>
    <path class="cls-3" d="M3962.7,441.9a0.3,0.3,0,0,0,0,.5l5.3,4.8-5.7-2.8a0.3,0.3,0,1,0-.3.6l6.1,2.9-5.4-.8a0.3,0.3,0,0,0-.1.7l7.5,1.2h0.7a0.3,0.3,0,0,0,.1-0.5l-4.1-7.1h0a0.3,0.3,0,0,0-.6.4l3.3,5.7-6.2-5.6A0.3,0.3,0,0,0,3962.7,441.9Z" transform="translate(-3925.4 -380.4)"/>
    <path class="cls-3" d="M3958,442.7a0.3,0.3,0,0,0-.4,0l-4.1,4.6,2.3-5a0.3,0.3,0,0,0-.5-0.3l-2.5,5.3,0.7-4.7a0.3,0.3,0,0,0-.6-0.1l-0.9,6.5h0a0.3,0.3,0,0,0,0,.3,0.3,0.3,0,0,0,0,.3,0.3,0.3,0,0,0,.4.1l6.1-3.6h0a0.3,0.3,0,0,0-.3-0.5l-5,2.9,4.8-5.5A0.3,0.3,0,0,0,3958,442.7Z" transform="translate(-3925.4 -380.4)"/>
    <path class="cls-3" d="M3999.8,447.5a0.3,0.3,0,0,1,.1.5l-3.9,5.9,4.9-4.1a0.3,0.3,0,1,1,.5.5l-5.1,4.4,5.1-2.2a0.3,0.3,0,1,1,.3.6l-7,3h-0.7a0.3,0.3,0,0,1-.2-0.4l2.2-7.9h0a0.3,0.3,0,0,1,.7.2l-1.7,6.4,4.6-7A0.3,0.3,0,0,1,3999.8,447.5Z" transform="translate(-3925.4 -380.4)"/>
    <path class="cls-3" d="M3979.5,467.8a0.4,0.4,0,0,1-.2-0.6l3.9-7.7-5.3,5.7a0.4,0.4,0,0,1-.6-0.6l5.6-6-5.9,3.3a0.4,0.4,0,0,1-.4-0.7l8.1-4.6h0a0.4,0.4,0,0,1,.4-0.2h0.3a0.4,0.4,0,0,1,.4.5l-1.6,9.9h0a0.4,0.4,0,0,1-.8-0.1l1.3-8-4.6,9.1A0.4,0.4,0,0,1,3979.5,467.8Z" transform="translate(-3925.4 -380.4)"/>
    <path class="cls-3" d="M3956.7,475.7a0.3,0.3,0,0,1,.3-0.3l5.9,1-5.1-2.7a0.4,0.4,0,0,1-.2-0.5,0.2,0.2,0,0,1,.4-0.2l5.4,2.9-3.8-3.9a0.5,0.5,0,0,1-.1-0.5,0.2,0.2,0,0,1,.4,0l5.2,5.3h0a0.4,0.4,0,0,1,.3.3l0.2,0.3a0.3,0.3,0,0,1-.2.4l-6.6,1.6h0a0.3,0.3,0,0,1-.4-0.3,0.3,0.3,0,0,1,.2-0.4l5.3-1.3-7-1.1A0.4,0.4,0,0,1,3956.7,475.7Z" transform="translate(-3925.4 -380.4)"/>
    <path class="cls-3" d="M4018.5,427.8a0.3,0.3,0,0,0-.2-0.4l-5.6-1.6h5.2a0.3,0.3,0,1,0,0-.6h-5.5l4.3-1.4a0.3,0.3,0,1,0-.2-0.5l-5.9,1.9h-0.5a0.3,0.3,0,0,0,.1.4l5.6,3.7h0a0.3,0.3,0,0,0,.3-0.5l-4.5-3,6.6,1.8A0.3,0.3,0,0,0,4018.5,427.8Z" transform="translate(-3925.4 -380.4)"/>
    <path class="cls-3" d="M3985.6,424.7a0.3,0.3,0,0,1,.4,0l4,4.3-2.3-4.8a0.3,0.3,0,0,1,.1-0.4,0.3,0.3,0,0,1,.4.1l2.5,5.1-0.7-4.7a0.3,0.3,0,0,1,.2-0.4,0.3,0.3,0,0,1,.3.2l1,6.5h0a0.3,0.3,0,0,1,0,.3,0.3,0.3,0,0,1,0,.3,0.3,0.3,0,0,1-.4.1l-6-3.1h0a0.3,0.3,0,0,1-.1-0.4,0.3,0.3,0,0,1,.4-0.1l4.8,2.5-4.7-5A0.3,0.3,0,0,1,3985.6,424.7Z" transform="translate(-3925.4 -380.4)"/>
    <path class="cls-3" d="M3963.9,464.4a0.3,0.3,0,0,1,.4-0.2l5.5,2.1-4.2-3.3a0.3,0.3,0,0,1-.1-0.4,0.3,0.3,0,0,1,.4-0.1l4.5,3.5-2.7-3.9a0.3,0.3,0,0,1,.1-0.4,0.3,0.3,0,0,1,.4.1l3.8,5.4h0a0.3,0.3,0,0,1,.2.3,0.3,0.3,0,0,1,.1.2,0.3,0.3,0,0,1-.3.3h-6.7a0.3,0.3,0,0,1-.3-0.3,0.3,0.3,0,0,1,.3-0.3h5.4l-6.5-2.4A0.3,0.3,0,0,1,3963.9,464.4Z" transform="translate(-3925.4 -380.4)"/>
    <path class="cls-3" d="M3937.4,484.5a0.3,0.3,0,0,1,0-.4l4.2-4.1-4.8,2.5a0.3,0.3,0,0,1-.4-0.1,0.3,0.3,0,0,1,.1-0.4l5-2.6-4.7.9a0.3,0.3,0,0,1-.4-0.2,0.3,0.3,0,0,1,.2-0.3l6.5-1.2h0.6a0.3,0.3,0,0,1,.2.4l-2.9,6.1h0a0.3,0.3,0,0,1-.4.1,0.3,0.3,0,0,1-.2-0.4l2.3-4.9-4.9,4.9A0.3,0.3,0,0,1,3937.4,484.5Z" transform="translate(-3925.4 -380.4)"/>
    <path class="cls-3" d="M4001.7,430.3a0.3,0.3,0,0,1,.2.4l-2.1,5.5,3.4-4.2a0.3,0.3,0,0,1,.4-0.1,0.3,0.3,0,0,1,.1.4l-3.6,4.4,4-2.7a0.3,0.3,0,0,1,.4.1,0.3,0.3,0,0,1-.1.4l-5.5,3.7h0l-0.3.2h-0.2a0.3,0.3,0,0,1-.3-0.3l0.2-6.7h0a0.3,0.3,0,0,1,.3-0.3,0.3,0.3,0,0,1,.3.3l-0.2,5.4,2.5-6.4A0.3,0.3,0,0,1,4001.7,430.3Z" transform="translate(-3925.4 -380.4)"/>
    <path class="cls-3" d="M3997.5,411.2a0.3,0.3,0,0,0-.3.2l-1.2,5.7-0.4-5.2a0.3,0.3,0,1,0-.6,0l0.4,5.5-1.6-4.2a0.3,0.3,0,1,0-.5.2l2.3,5.8h0a0.3,0.3,0,0,0,.1.3v0.2a0.3,0.3,0,0,0,.4-0.1l3.4-5.8h0a0.3,0.3,0,0,0-.5-0.3l-2.7,4.7,1.5-6.7A0.3,0.3,0,0,0,3997.5,411.2Z" transform="translate(-3925.4 -380.4)"/>
    <path class="cls-3" d="M3974.1,503.4a0.3,0.3,0,0,0-.4,0l-4.4,3.8,2.8-4.4a0.3,0.3,0,0,0-.5-0.3l-3,4.6,1.2-4.4a0.3,0.3,0,0,0-.5-0.2l-1.7,6h0a0.3,0.3,0,0,0-.1.3,0.3,0.3,0,0,0,0,.2,0.3,0.3,0,0,0,.4.2l6.2-2.6h0a0.3,0.3,0,0,0-.2-0.5l-5,2.1,5.2-4.5A0.3,0.3,0,0,0,3974.1,503.4Z" transform="translate(-3925.4 -380.4)"/>
    <path class="cls-3" d="M3953.3,499.7a0.3,0.3,0,0,0,.4.2l5.6-1.7-4.4,2.9a0.3,0.3,0,1,0,.3.5l4.6-3.1L3957,502a0.3,0.3,0,0,0,.4.4l3.9-4.8h0a0.3,0.3,0,0,0,.2-0.3v-0.2a0.3,0.3,0,0,0-.3-0.3h-6.7a0.3,0.3,0,0,0,0,.6h5.4l-6.5,2A0.3,0.3,0,0,0,3953.3,499.7Z" transform="translate(-3925.4 -380.4)"/>
    <path class="cls-3" d="M3979.2,437.3a0.4,0.4,0,0,0-.1.5l3.8,6.5-4.9-4.6a0.4,0.4,0,1,0-.5.5l5.2,4.9-5.2-2.6a0.4,0.4,0,0,0-.3.7l7.2,3.5h0l0.4,0.2h0.3a0.4,0.4,0,0,0,.3-0.4l-1.9-8.5h0a0.4,0.4,0,0,0-.7.2l1.5,6.8-4.5-7.6A0.4,0.4,0,0,0,3979.2,437.3Z" transform="translate(-3925.4 -380.4)"/>
    <path class="cls-3" d="M3925.4,458.2a0.4,0.4,0,0,0,.4.3l7.4-1.4-6,3.1a0.4,0.4,0,1,0,.3.7l6.3-3.2-4.2,4.1a0.4,0.4,0,0,0,.5.5l5.8-5.6h0a0.4,0.4,0,0,0,.3-0.3l0.2-.3a0.4,0.4,0,0,0-.3-0.4l-8.6-1.1h0a0.4,0.4,0,0,0-.1.7l7,0.9-8.7,1.6A0.4,0.4,0,0,0,3925.4,458.2Z" transform="translate(-3925.4 -380.4)"/>
    <path class="cls-3" d="M4016.9,443.5a0.3,0.3,0,0,0-.1-0.4l-4.8-3.4,4.9,1.7a0.3,0.3,0,0,0,.2-0.5l-5.2-1.8h4.5a0.3,0.3,0,0,0,0-.6l-6.2-.2h-0.6a0.3,0.3,0,0,0-.1.4l4,5.4h0a0.3,0.3,0,0,0,.5-0.3l-3.2-4.4,5.6,4A0.3,0.3,0,0,0,4016.9,443.5Z" transform="translate(-3925.4 -380.4)"/>
    <path class="cls-3" d="M3951,490.7a0.3,0.3,0,0,0,.2-0.3l-0.9-5.8,2.2,4.7a0.3,0.3,0,1,0,.5-0.2l-2.4-5,3,3.3a0.3,0.3,0,1,0,.4-0.4l-4.2-4.6h0l-0.2-.2h-0.2a0.3,0.3,0,0,0-.3.2l-1.1,6.6h0a0.3,0.3,0,0,0,.6.1l0.9-5.4,1,6.8A0.3,0.3,0,0,0,3951,490.7Z" transform="translate(-3925.4 -380.4)"/>
    <path class="cls-3" d="M3932.2,469.7a0.3,0.3,0,0,0,.4.2l5.5-2-4.2,3.1a0.3,0.3,0,1,0,.3.5l4.4-3.3-2.7,3.6a0.3,0.3,0,0,0,.5.3l3.7-5h0a0.3,0.3,0,0,0,.2-0.3v-0.2a0.3,0.3,0,0,0-.3-0.3l-6.7.2h0a0.3,0.3,0,0,0,0,.6l5.4-.2-6.4,2.4A0.3,0.3,0,0,0,3932.2,469.7Z" transform="translate(-3925.4 -380.4)"/>
    <path class="cls-3" d="M3983.4,502a0.3,0.3,0,0,0,.2-0.4l-1.8-5.5,3,4.3a0.3,0.3,0,1,0,.5-0.3l-3.1-4.6,3.5,2.8a0.3,0.3,0,1,0,.4-0.4l-4.9-3.9h0l-0.3-.2h-0.2a0.3,0.3,0,0,0-.3.3v6.7h0a0.3,0.3,0,0,0,.6,0v-5.4l2.1,6.5A0.3,0.3,0,0,0,3983.4,502Z" transform="translate(-3925.4 -380.4)"/>
    <path class="cls-3" d="M3951.6,469.9a0.2,0.2,0,0,0-.3-0.2l-4.1,2.7,2.9-3.9a0.4,0.4,0,0,0,0-.5,0.2,0.2,0,0,0-.3,0l-3.1,4.1,1.6-4.4a0.4,0.4,0,0,0-.1-0.5,0.2,0.2,0,0,0-.3.1l-2.2,6h0a0.3,0.3,0,0,0-.1.3,0.4,0.4,0,0,0,0,.3,0.3,0.3,0,0,0,.3.3l5.4-.8h0a0.3,0.3,0,0,0,.2-0.4,0.3,0.3,0,0,0-.3-0.3l-4.3.6,4.8-3.2A0.4,0.4,0,0,0,3951.6,469.9Z" transform="translate(-3925.4 -380.4)"/>
    <path class="cls-3" d="M3966.1,431.7a0.2,0.2,0,0,1,.2-0.2l3.6-.2-3.1-.7a0.2,0.2,0,0,1-.1-0.2h0.2l3.3,0.8-2.4-1.4a0.2,0.2,0,0,1-.1-0.2h0.2l3.3,1.9h0.3a0.2,0.2,0,0,1-.1.2l-3.9,1.5h-0.2a0.2,0.2,0,0,1,.1-0.2l3.1-1.2-4.2.2Z" transform="translate(-3925.4 -380.4)"/>
    <path class="cls-3" d="M3960.1,430.3a0.2,0.2,0,0,1,0,.2l-2.2,2.8,2.6-1.9h0.2a0.2,0.2,0,0,1,0,.2l-2.8,2,2.7-.9h0.2a0.2,0.2,0,0,1-.1.2l-3.7,1.2h-0.3a0.2,0.2,0,0,1-.1-0.2l1.4-3.9h0.2a0.2,0.2,0,0,1,.1.2l-1.1,3.2,2.6-3.4h0.2Z" transform="translate(-3925.4 -380.4)"/>
    <path class="cls-3" d="M3960.9,457.4a0.3,0.3,0,0,1,.1.4l-3.7,4.7,4.4-3.1a0.3,0.3,0,1,1,.3.5l-4.6,3.3,4.4-1.5a0.3,0.3,0,1,1,.2.6l-6.1,2h-0.6a0.3,0.3,0,0,1-.2-0.4l2.3-6.5h0a0.3,0.3,0,0,1,.5.2l-1.9,5.3,4.3-5.6A0.3,0.3,0,0,1,3960.9,457.4Z" transform="translate(-3925.4 -380.4)"/>
    <path class="cls-3" d="M3938.2,452.7a0.2,0.2,0,0,1,0-.4l3.2-3.9-3.8,2.6h-0.3a0.2,0.2,0,0,1,.1-0.3l4-2.7-3.8,1.2a0.2,0.2,0,1,1-.1-0.5l5.2-1.6h0.5a0.2,0.2,0,0,1,.1.3l-2.1,5.5h0a0.2,0.2,0,0,1-.5-0.2l1.7-4.4-3.8,4.6h-0.4Z" transform="translate(-3925.4 -380.4)"/>
    <path class="cls-3" d="M3939.8,433.2h0.3l2.9,3.5-1.6-4a0.3,0.3,0,0,1,.1-0.4,0.2,0.2,0,0,1,.3.1l1.6,4.2-0.3-3.9a0.3,0.3,0,0,1,.2-0.3,0.2,0.2,0,0,1,.2.2l0.4,5.4h0a0.3,0.3,0,0,1,0,.3,0.3,0.3,0,0,1,0,.2,0.3,0.3,0,0,1-.3.1l-4.5-2.5h0a0.2,0.2,0,0,1-.1-0.3,0.3,0.3,0,0,1,.3-0.1l3.7,2-3.4-4.1A0.3,0.3,0,0,1,3939.8,433.2Z" transform="translate(-3925.4 -380.4)"/>
    <path class="cls-3" d="M3950.7,461.4a0.2,0.2,0,0,0,.1-0.3l-2.4-3.9,3.3,2.8h0.4a0.2,0.2,0,0,0,0-.3l-3.5-2.9,3.6,1.5h0.4a0.2,0.2,0,0,0-.1-0.3l-5-2.1h-0.5a0.3,0.3,0,0,0-.2.3l0.8,5.1h0a0.2,0.2,0,0,0,.3.2,0.3,0.3,0,0,0,.2-0.3l-0.7-4.1,2.8,4.6h0.4Z" transform="translate(-3925.4 -380.4)"/>
    <path class="cls-3" d="M3952.1,421.5a0.2,0.2,0,0,1,.1.2l-1.3,3.4,2-2.6h0.2a0.2,0.2,0,0,1,0,.2l-2.1,2.7,2.3-1.6h0.2a0.2,0.2,0,0,1,0,.2l-3.2,2.2h-0.3a0.2,0.2,0,0,1-.2-0.2l0.3-4.2h0l0.2-.2a0.2,0.2,0,0,1,.2.2l-0.2,3.4,1.6-3.9h0.2Z" transform="translate(-3925.4 -380.4)"/>
    <path class="cls-3" d="M3927.8,428.9a0.3,0.3,0,0,1,.4-0.1l4.7,2.8-3.4-3.6a0.3,0.3,0,0,1,.4-0.4l3.6,3.8-1.9-3.8a0.3,0.3,0,0,1,.5-0.2l2.6,5.3h0a0.3,0.3,0,0,1,.1.3,0.3,0.3,0,0,1,.1.2,0.3,0.3,0,0,1-.3.2l-6.2-1.4h0a0.3,0.3,0,0,1,.1-0.5l5,1.1-5.6-3.3A0.3,0.3,0,0,1,3927.8,428.9Z" transform="translate(-3925.4 -380.4)"/>
    <path class="cls-3" d="M3927.4,443.1a0.3,0.3,0,0,1,.3-0.2l5.4,1.1-4.4-2.3a0.3,0.3,0,1,1,.2-0.5l4.6,2.4-3-3a0.3,0.3,0,1,1,.4-0.4l4.2,4.1h0l0.2,0.2v0.2a0.3,0.3,0,0,1-.2.3l-6.3.8h0a0.3,0.3,0,0,1-.1-0.5l5.1-.6-6.3-1.2A0.3,0.3,0,0,1,3927.4,443.1Z" transform="translate(-3925.4 -380.4)"/>
    <path class="cls-3" d="M3939.5,417.5a0.3,0.3,0,0,0-.3.3v5.5l-1.3-4.7a0.3,0.3,0,1,0-.5.1l1.4,5-2.3-3.6a0.3,0.3,0,0,0-.5.3l3.1,5h0a0.3,0.3,0,0,0,.2.3l0.2,0.2a0.3,0.3,0,0,0,.3-0.2l2.1-6h0a0.3,0.3,0,0,0-.5-0.2l-1.7,4.8v-6.5A0.3,0.3,0,0,0,3939.5,417.5Z" transform="translate(-3925.4 -380.4)"/>
    <path class="cls-4" d="M3957.9,380.4a0.3,0.3,0,0,0-.2.3l0.6,5.5-1.9-4.5a0.3,0.3,0,1,0-.5.2l2,4.8-2.7-3.3a0.3,0.3,0,1,0-.4.3l3.7,4.5h0l0.2,0.2h0.2a0.3,0.3,0,0,0,.3-0.2l1.3-6.2h0a0.3,0.3,0,0,0-.5-0.1l-1.1,5-0.7-6.4A0.3,0.3,0,0,0,3957.9,380.4Z" transform="translate(-3925.4 -380.4)"/>
    <path class="cls-4" d="M3982.5,399a0.3,0.3,0,0,0-.4,0l-3.2,4.2,1.7-4.4a0.3,0.3,0,1,0-.5-0.2l-1.8,4.6,0.3-4.1a0.3,0.3,0,1,0-.5,0l-0.4,5.6h0a0.3,0.3,0,0,0,0,.3,0.3,0.3,0,0,0,0,.2,0.3,0.3,0,0,0,.4.1l5-3.4h0a0.3,0.3,0,0,0-.3-0.4l-4,2.8,3.8-4.9A0.3,0.3,0,0,0,3982.5,399Z" transform="translate(-3925.4 -380.4)"/>
    <path class="cls-4" d="M3981.3,388.2a0.3,0.3,0,0,0-.4,0l-4.2,3.6,2.7-4.1a0.3,0.3,0,0,0-.5-0.3l-2.8,4.4,1.2-4.1a0.3,0.3,0,0,0-.5-0.1l-1.6,5.6h0a0.3,0.3,0,0,0-.1.3,0.3,0.3,0,0,0,0,.2,0.3,0.3,0,0,0,.4.1l5.9-2.4h0a0.3,0.3,0,0,0-.2-0.5l-4.7,2,4.9-4.2A0.3,0.3,0,0,0,3981.3,388.2Z" transform="translate(-3925.4 -380.4)"/>
    <path class="cls-4" d="M3956.9,399.5a0.3,0.3,0,0,0-.3.2l-1.1,5.4-0.5-4.9a0.3,0.3,0,1,0-.5,0l0.5,5.2-1.6-3.9a0.3,0.3,0,0,0-.5.2l2.2,5.4h0a0.3,0.3,0,0,0,.1.3v0.2a0.3,0.3,0,0,0,.4-0.1l3.1-5.5h0a0.3,0.3,0,0,0-.5-0.3l-2.5,4.5,1.2-6.3A0.3,0.3,0,0,0,3956.9,399.5Z" transform="translate(-3925.4 -380.4)"/>
    <path class="cls-4" d="M3961.7,422.6a0.4,0.4,0,0,0,.1-0.5l-3.7-6.4,4.8,4.6a0.4,0.4,0,1,0,.5-0.5l-5-4.8,5.1,2.6a0.4,0.4,0,0,0,.3-0.6l-7-3.5h0l-0.4-.2h-0.3a0.4,0.4,0,0,0-.3.4l1.7,8.3h0a0.4,0.4,0,0,0,.7-0.2l-1.4-6.7,4.3,7.5A0.4,0.4,0,0,0,3961.7,422.6Z" transform="translate(-3925.4 -380.4)"/>
    <path class="cls-4" d="M3962,392.8a0.3,0.3,0,0,1,.4,0l4.2,3.6-2.7-4.1a0.3,0.3,0,0,1,.5-0.3l2.8,4.4-1.2-4.1a0.3,0.3,0,0,1,.5-0.1l1.6,5.6h0a0.3,0.3,0,0,1,.1.3,0.3,0.3,0,0,1,0,.2,0.3,0.3,0,0,1-.4.1l-5.9-2.4h0a0.3,0.3,0,0,1,.2-0.5l4.7,2-4.9-4.2A0.3,0.3,0,0,1,3962,392.8Z" transform="translate(-3925.4 -380.4)"/>
    <path class="cls-4" d="M3944.4,407.8a0.2,0.2,0,0,0,0,.3l3,3.3-3.2-2.1h-0.3a0.2,0.2,0,0,0,.1.3l3.4,2.2-3.1-.9a0.2,0.2,0,0,0-.2.1,0.2,0.2,0,0,0,.2.3l4.2,1.2h0.4a0.2,0.2,0,0,0,.1-0.3l-2.3-4.6h-0.3a0.2,0.2,0,0,0-.1.3l1.8,3.7-3.5-3.8h-0.3Z" transform="translate(-3925.4 -380.4)"/>
    <path class="cls-4" d="M3960.4,426.2a0.2,0.2,0,0,0,0,.3l3,3.3-3.2-2.1h-0.3a0.2,0.2,0,0,0,.1.3l3.4,2.2-3.1-.9a0.2,0.2,0,0,0-.2.1,0.2,0.2,0,0,0,.2.3l4.2,1.2h0.4a0.2,0.2,0,0,0,.1-0.3l-2.3-4.6h-0.3a0.2,0.2,0,0,0-.1.3l1.8,3.7-3.5-3.8h-0.3Z" transform="translate(-3925.4 -380.4)"/>
    <path class="cls-4" d="M3970.4,404.1a0.3,0.3,0,0,0-.5,0l-4.2,4.8,2.4-5.4a0.4,0.4,0,0,0-.2-0.5,0.3,0.3,0,0,0-.4.1l-2.5,5.8,0.6-5.4a0.4,0.4,0,0,0-.3-0.4,0.3,0.3,0,0,0-.4.2l-0.8,7.4h0a0.4,0.4,0,0,0,0,.4,0.4,0.4,0,0,0,0,.3,0.3,0.3,0,0,0,.4.2l6.4-3.3h0a0.3,0.3,0,0,0,.1-0.5,0.3,0.3,0,0,0-.4-0.2l-5.2,2.7,5-5.6A0.4,0.4,0,0,0,3970.4,404.1Z" transform="translate(-3925.4 -380.4)"/>
    <path class="cls-3" d="M4005.8,477.4a0.3,0.3,0,0,0,.2-0.4l-2.3-6.6,3.8,5.1a0.4,0.4,0,0,0,.5.1,0.3,0.3,0,0,0,.1-0.5l-4-5.4,4.6,3.4a0.4,0.4,0,0,0,.5-0.1,0.3,0.3,0,0,0-.1-0.5l-6.3-4.6h0a0.4,0.4,0,0,0-.3-0.2h-0.3a0.4,0.4,0,0,0-.4.3v8h0a0.4,0.4,0,0,0,.4.3,0.4,0.4,0,0,0,.4-0.3v-6.5l2.7,7.8A0.4,0.4,0,0,0,4005.8,477.4Z" transform="translate(-3925.4 -380.4)"/>
    <path class="cls-3" d="M3989,484.7a0.4,0.4,0,0,1-.5-0.3l-1.5-7.5-0.8,7a0.4,0.4,0,0,1-.4.4,0.4,0.4,0,0,1-.4-0.4l0.8-7.4-2.5,5.7a0.4,0.4,0,0,1-.5.2,0.4,0.4,0,0,1-.2-0.5l3.4-7.9h0a0.4,0.4,0,0,1,.2-0.4l0.2-.3a0.4,0.4,0,0,1,.5.1l4.5,7.6h0a0.4,0.4,0,0,1-.2.5,0.4,0.4,0,0,1-.5-0.1l-3.6-6.1,1.7,8.9A0.4,0.4,0,0,1,3989,484.7Z" transform="translate(-3925.4 -380.4)"/>
    <path class="cls-3" d="M3967.9,487.5a0.3,0.3,0,0,0,.4,0l4-4.7-2.2,5.2a0.3,0.3,0,0,0,.2.4,0.3,0.3,0,0,0,.4-0.1l2.4-5.5-0.5,5a0.3,0.3,0,0,0,.3.4,0.3,0.3,0,0,0,.3-0.3l0.7-6.8h0a0.3,0.3,0,0,0,0-.4,0.3,0.3,0,0,0,0-.3,0.3,0.3,0,0,0-.4-0.1l-6.1,3.5h0a0.3,0.3,0,0,0-.1.4,0.3,0.3,0,0,0,.4.1l5-2.8-4.7,5.5A0.3,0.3,0,0,0,3967.9,487.5Z" transform="translate(-3925.4 -380.4)"/>
  </g>
</svg>
