<svg id="Layer_1" data-name="Layer 1" xmlns="http://www.w3.org/2000/svg" width="640" height="640" viewBox="0 0 640 640">
  <defs>
    <style>
      .cls-1 {
        fill: #78583d;
      }

      .cls-2 {
        fill: #896a52;
      }
    </style>
  </defs>
  <title>terrarium-bottle-soil</title>
  <g id="BOTTLE">
    <g id="SOIL">
      <path class="cls-1" d="M109.1,430.4s8.9-6.2,34.7-4.5,36.5,7.1,46.3,6.2,35.6-.9,35.6-0.9,26.7,6.2,36.5,4.5,25.8-6.2,52.6-6.2,38.3,2.7,57,1.8,35.6-5.3,46.3-3.6a35.6,35.6,0,0,0,18.7-1.8S405.7,537.3,289,553.3,111.7,459.8,109.1,430.4Z"/>
      <g>
        <polygon class="cls-2" points="225 541.5 231.5 545.1 234 539.6 228.4 537.7 225 541.5"/>
        <polygon class="cls-2" points="271 543.4 274.9 539.7 271.7 536.7 269.1 540.2 271 543.4"/>
        <polygon class="cls-2" points="250.3 546.1 255.1 541.6 251.2 538 248 542.2 250.3 546.1"/>
        <polygon class="cls-2" points="284 540.2 289.5 543.9 292.2 539.3 287.3 537.2 284 540.2"/>
        <polygon class="cls-2" points="122.5 459.3 126.8 457.1 124.7 453.8 121.7 456.2 122.5 459.3"/>
        <polygon class="cls-2" points="146.2 458.9 145 464.2 149.3 464.9 149.5 460.5 146.2 458.9"/>
        <polygon class="cls-2" points="159.6 458.1 158.1 464.5 163.4 465.3 163.6 460 159.6 458.1"/>
        <polygon class="cls-2" points="137.1 468.9 130.6 468.8 130.9 474.2 136.1 473.2 137.1 468.9"/>
        <polygon class="cls-2" points="189.9 512.6 183.3 512.6 183.7 517.9 188.9 517 189.9 512.6"/>
        <polygon class="cls-2" points="151.3 478.4 154.7 481.9 157.3 479 154.2 476.7 151.3 478.4"/>
        <polygon class="cls-2" points="172.3 485.1 175.7 488.6 178.3 485.7 175.2 483.5 172.3 485.1"/>
        <polygon class="cls-2" points="316.5 532.3 317.4 535.6 320.1 535.9 320.5 531.9 316.5 532.3"/>
        <polygon class="cls-2" points="211.9 502.7 209.1 504.6 209.6 507.2 213.6 506.4 211.9 502.7"/>
        <polygon class="cls-2" points="220 447.6 224.3 445.3 222.2 442 219.2 444.4 220 447.6"/>
        <polygon class="cls-2" points="243.7 447.2 242.5 452.4 246.8 453.1 247 448.8 243.7 447.2"/>
        <polygon class="cls-2" points="248.8 466.6 252.2 470.1 254.8 467.2 251.7 465 248.8 466.6"/>
        <polygon class="cls-2" points="229.9 475.1 227.1 476.9 227.6 479.6 231.6 478.7 229.9 475.1"/>
        <polygon class="cls-2" points="146.1 440.3 147.9 443.5 150.3 442.6 147.8 439.1 146.1 440.3"/>
        <polygon class="cls-2" points="175.9 466.1 177.7 469.2 180 468.4 177.5 464.9 175.9 466.1"/>
        <polygon class="cls-2" points="254.9 482.7 256.8 485.9 259.1 485.1 256.6 481.6 254.9 482.7"/>
        <polygon class="cls-2" points="152.6 495.3 147.9 501.1 154.4 505.6 154.9 498.8 152.6 495.3"/>
        <polygon class="cls-2" points="186.7 452 191.4 454.6 193.2 450.6 189.1 449.3 186.7 452"/>
        <polygon class="cls-2" points="168.4 441.6 174.2 444.7 176.4 439.9 171.4 438.2 168.4 441.6"/>
        <polygon class="cls-2" points="193.8 463.5 192 469.8 197.2 470.9 197.7 465.6 193.8 463.5"/>
        <polygon class="cls-2" points="209 516.7 207.3 523.1 212.5 524.1 213 518.9 209 516.7"/>
        <polygon class="cls-2" points="221.4 461.9 214.8 461.8 215.2 467.2 220.4 466.2 221.4 461.9"/>
        <polygon class="cls-2" points="239.4 520.1 232.8 520.1 233.2 525.4 238.4 524.5 239.4 520.1"/>
        <polygon class="cls-2" points="236.9 488.3 232.2 494.1 238.7 498.6 239.2 491.8 236.9 488.3"/>
        <polygon class="cls-2" points="266.9 446.4 262.2 452.2 268.7 456.7 269.2 449.9 266.9 446.4"/>
        <polygon class="cls-2" points="202.6 483.2 198.4 485.7 200.7 488.9 203.6 486.3 202.6 483.2"/>
        <polygon class="cls-2" points="179.9 503.3 178 500.2 175.7 501.2 178.3 504.5 179.9 503.3"/>
        <polygon class="cls-2" points="129.9 443 134.3 436.9 127.6 432.7 127.4 439.6 129.9 443"/>
        <polygon class="cls-2" points="424.1 437.2 425.4 444.5 419.4 445.2 419.4 439.2 424.1 437.2"/>
        <polygon class="cls-2" points="412.6 458.1 407.8 460.6 406 456.7 410.2 455.3 412.6 458.1"/>
        <polygon class="cls-2" points="409.8 444.9 404 448.1 401.8 443.2 406.9 441.6 409.8 444.9"/>
        <polygon class="cls-2" points="405.5 469.5 407.2 475.8 402 476.9 401.5 471.6 405.5 469.5"/>
        <polygon class="cls-2" points="392.5 458.4 388.2 456.1 390.3 452.8 393.3 455.2 392.5 458.4"/>
        <polygon class="cls-2" points="368.8 457.9 370 463.2 365.7 463.9 365.5 459.5 368.8 457.9"/>
        <polygon class="cls-2" points="355.4 457.1 356.9 463.5 351.6 464.3 351.4 459 355.4 457.1"/>
        <polygon class="cls-2" points="377.9 467.9 384.5 467.9 384.1 473.2 378.9 472.2 377.9 467.9"/>
        <polygon class="cls-2" points="325.1 511.6 331.7 511.6 331.4 516.9 326.1 516 325.1 511.6"/>
        <polygon class="cls-2" points="363.7 477.4 360.4 480.9 357.7 478 360.9 475.7 363.7 477.4"/>
        <polygon class="cls-2" points="342.7 484.1 339.4 487.6 336.7 484.7 339.9 482.5 342.7 484.1"/>
        <polygon class="cls-2" points="382.6 485.8 385.4 487.7 384.9 490.3 380.9 489.5 382.6 485.8"/>
        <polygon class="cls-2" points="303.1 501.7 305.9 503.6 305.4 506.2 301.4 505.4 303.1 501.7"/>
        <polygon class="cls-2" points="295 446.6 290.7 444.3 292.8 441 295.8 443.4 295 446.6"/>
        <polygon class="cls-2" points="269.4 465.6 270.6 470.8 266.3 471.5 266.1 467.2 269.4 465.6"/>
        <polygon class="cls-2" points="285.1 474.1 287.9 475.9 287.4 478.6 283.4 477.7 285.1 474.1"/>
        <polygon class="cls-2" points="368.9 439.3 367.1 442.5 364.7 441.7 367.2 438.2 368.9 439.3"/>
        <polygon class="cls-2" points="339.2 465.1 337.3 468.2 335 467.4 337.5 463.9 339.2 465.1"/>
        <polygon class="cls-2" points="362.4 494.3 367.1 500.2 360.6 504.7 360.1 497.8 362.4 494.3"/>
        <polygon class="cls-2" points="328.3 451.1 323.6 453.6 321.8 449.7 325.9 448.3 328.3 451.1"/>
        <polygon class="cls-2" points="321.2 462.5 323 468.8 317.8 469.9 317.3 464.6 321.2 462.5"/>
        <polygon class="cls-2" points="306 515.7 307.7 522.1 302.5 523.2 302 517.9 306 515.7"/>
        <polygon class="cls-2" points="293.6 460.9 300.2 460.9 299.9 466.2 294.6 465.2 293.6 460.9"/>
        <polygon class="cls-2" points="275.6 519.1 282.2 519.1 281.9 524.4 276.6 523.5 275.6 519.1"/>
        <polygon class="cls-2" points="278.2 487.3 282.8 493.2 276.3 497.7 275.8 490.8 278.2 487.3"/>
        <polygon class="cls-2" points="312.4 482.2 316.6 484.7 314.3 487.9 311.4 485.3 312.4 482.2"/>
        <polygon class="cls-2" points="335.1 502.3 337.1 499.2 339.4 500.2 336.7 503.6 335.1 502.3"/>
        <polygon class="cls-2" points="344.1 447.7 339.7 441.6 346.4 437.4 346.6 444.3 344.1 447.7"/>
        <polygon class="cls-2" points="258.6 517.2 254.2 511.2 260.9 507 261.1 513.8 258.6 517.2"/>
      </g>
    </g>
  </g>
</svg>
