<svg id="Layer_1" data-name="Layer 1" xmlns="http://www.w3.org/2000/svg" width="640" height="640" viewBox="0 0 640 640">
  <defs>
    <style>
      .cls-1 {
        fill: #78583d;
      }

      .cls-2 {
        fill: #896a52;
      }
    </style>
  </defs>
  <title>terrarium-geo-soil</title>
  <g id="GEO">
    <g id="SOIL">
      <path class="cls-1" d="M155.3,409.1s-1.5-3.1,15.3,0a170.2,170.2,0,0,0,32.1,2.5s48.4,5.6,63.7,2,44.9,0,61.7,2,66.8,1.5,79-1,41.8-6.6,46.9-3.6,30.6-2.5,30.6-2.5L417.3,536H223.1Z"/>
      <g>
        <polygon class="cls-2" points="273.9 523.8 280.4 527.3 282.9 521.8 277.2 520 273.9 523.8"/>
        <polygon class="cls-2" points="319.8 525.7 323.8 522 320.6 519 318 522.5 319.8 525.7"/>
        <polygon class="cls-2" points="299.2 528.4 304 523.9 300.1 520.3 296.9 524.5 299.2 528.4"/>
        <polygon class="cls-2" points="332.9 522.5 338.4 526.2 341.1 521.6 336.2 519.5 332.9 522.5"/>
        <polygon class="cls-2" points="181.4 439.1 185.7 436.9 183.6 433.6 180.6 436 181.4 439.1"/>
        <polygon class="cls-2" points="195.1 441.2 193.9 446.5 198.2 447.1 198.4 442.8 195.1 441.2"/>
        <polygon class="cls-2" points="208.5 440.3 207 446.8 212.3 447.6 212.5 442.3 208.5 440.3"/>
        <polygon class="cls-2" points="222.5 497.1 215.9 497.1 216.3 502.4 221.5 501.5 222.5 497.1"/>
        <polygon class="cls-2" points="242.7 500.5 236.1 500.5 236.4 505.8 241.7 504.9 242.7 500.5"/>
        <polygon class="cls-2" points="200.2 460.7 203.5 464.1 206.2 461.3 203 459 200.2 460.7"/>
        <polygon class="cls-2" points="221.2 467.4 224.5 470.9 227.2 468 224 465.7 221.2 467.4"/>
        <polygon class="cls-2" points="365.4 514.6 366.3 517.8 369 518.2 369.4 514.2 365.4 514.6"/>
        <polygon class="cls-2" points="260.8 485 258 486.8 258.5 489.5 262.5 488.7 260.8 485"/>
        <polygon class="cls-2" points="268.9 429.9 273.2 427.6 271.1 424.3 268.1 426.7 268.9 429.9"/>
        <polygon class="cls-2" points="292.6 429.4 291.4 434.7 295.7 435.4 295.9 431 292.6 429.4"/>
        <polygon class="cls-2" points="297.7 448.9 301 452.4 303.7 449.5 300.5 447.2 297.7 448.9"/>
        <polygon class="cls-2" points="278.8 457.3 276 459.2 276.5 461.8 280.5 461 278.8 457.3"/>
        <polygon class="cls-2" points="195 422.6 196.8 425.8 199.2 424.9 196.7 421.4 195 422.6"/>
        <polygon class="cls-2" points="224.7 448.3 226.6 451.5 228.9 450.7 226.4 447.2 224.7 448.3"/>
        <polygon class="cls-2" points="303.8 465 305.7 468.2 308 467.3 305.5 463.8 303.8 465"/>
        <polygon class="cls-2" points="206.5 477.1 201.8 482.9 208.3 487.4 208.8 480.6 206.5 477.1"/>
        <polygon class="cls-2" points="235.6 434.3 240.3 436.9 242.1 432.9 238 431.6 235.6 434.3"/>
        <polygon class="cls-2" points="247.3 516.1 252.1 518.6 253.9 514.7 249.7 513.3 247.3 516.1"/>
        <polygon class="cls-2" points="217.3 423.9 223.1 427 225.3 422.2 220.3 420.5 217.3 423.9"/>
        <polygon class="cls-2" points="242.7 445.7 240.9 452.1 246.1 453.2 246.6 447.9 242.7 445.7"/>
        <polygon class="cls-2" points="257.9 499 256.1 505.3 261.4 506.4 261.9 501.1 257.9 499"/>
        <polygon class="cls-2" points="270.3 444.1 263.7 444.1 264 449.4 269.3 448.5 270.3 444.1"/>
        <polygon class="cls-2" points="288.3 502.4 281.7 502.4 282 507.7 287.3 506.7 288.3 502.4"/>
        <polygon class="cls-2" points="285.7 470.6 281.1 476.4 287.6 480.9 288.1 474.1 285.7 470.6"/>
        <polygon class="cls-2" points="315.7 428.7 311.1 434.5 317.6 439 318.1 432.2 315.7 428.7"/>
        <polygon class="cls-2" points="251.5 465.5 247.3 467.9 249.5 471.1 252.5 468.6 251.5 465.5"/>
        <polygon class="cls-2" points="228.8 485.6 226.8 482.5 224.5 483.4 227.2 486.8 228.8 485.6"/>
        <polygon class="cls-2" points="178.8 425.2 183.2 419.2 176.4 415 176.3 421.8 178.8 425.2"/>
        <polygon class="cls-2" points="473 419.4 474.3 426.8 468.3 427.4 468.3 421.4 473 419.4"/>
        <polygon class="cls-2" points="461.5 440.3 456.7 442.9 454.9 438.9 459 437.6 461.5 440.3"/>
        <polygon class="cls-2" points="458.7 427.2 452.9 430.3 450.7 425.5 455.7 423.8 458.7 427.2"/>
        <polygon class="cls-2" points="454.3 451.8 456.1 458.1 450.9 459.2 450.4 453.9 454.3 451.8"/>
        <polygon class="cls-2" points="441.4 440.6 437.1 438.4 439.2 435.1 442.2 437.5 441.4 440.6"/>
        <polygon class="cls-2" points="417.7 440.2 418.9 445.5 414.6 446.1 414.4 441.8 417.7 440.2"/>
        <polygon class="cls-2" points="404.3 439.3 405.8 445.8 400.5 446.6 400.3 441.3 404.3 439.3"/>
        <polygon class="cls-2" points="426.8 450.1 433.3 450.1 433 455.4 427.8 454.5 426.8 450.1"/>
        <polygon class="cls-2" points="374 493.9 380.6 493.9 380.2 499.2 375 498.3 374 493.9"/>
        <polygon class="cls-2" points="412.6 459.7 409.2 463.1 406.6 460.3 409.7 458 412.6 459.7"/>
        <polygon class="cls-2" points="391.6 466.4 388.2 469.9 385.6 467 388.7 464.7 391.6 466.4"/>
        <polygon class="cls-2" points="431.5 468.1 434.3 469.9 433.8 472.6 429.8 471.8 431.5 468.1"/>
        <polygon class="cls-2" points="352 484 354.8 485.9 354.3 488.5 350.3 487.7 352 484"/>
        <polygon class="cls-2" points="343.9 428.9 339.6 426.6 341.7 423.3 344.7 425.7 343.9 428.9"/>
        <polygon class="cls-2" points="318.3 447.8 319.5 453.1 315.2 453.8 315 449.4 318.3 447.8"/>
        <polygon class="cls-2" points="232.3 517.6 233.5 522.8 229.2 523.5 229 519.2 232.3 517.6"/>
        <polygon class="cls-2" points="334 456.4 336.8 458.2 336.3 460.9 332.3 460 334 456.4"/>
        <polygon class="cls-2" points="417.8 421.6 416 424.8 413.6 423.9 416.1 420.4 417.8 421.6"/>
        <polygon class="cls-2" points="388 447.4 386.2 450.5 383.9 449.7 386.4 446.2 388 447.4"/>
        <polygon class="cls-2" points="411.3 476.6 416 482.4 409.5 486.9 409 480.1 411.3 476.6"/>
        <polygon class="cls-2" points="377.2 433.3 372.5 435.9 370.7 431.9 374.8 430.6 377.2 433.3"/>
        <polygon class="cls-2" points="370.1 444.8 371.9 451.1 366.7 452.2 366.2 446.9 370.1 444.8"/>
        <polygon class="cls-2" points="354.8 498 356.6 504.3 351.4 505.4 350.9 500.2 354.8 498"/>
        <polygon class="cls-2" points="342.5 443.1 349.1 443.1 348.7 448.4 343.5 447.5 342.5 443.1"/>
        <polygon class="cls-2" points="427 509.3 424 504.8 420.5 507.4 423.5 510.6 427 509.3"/>
        <polygon class="cls-2" points="419.3 493.3 414.5 493.3 414.8 497.2 418.6 496.5 419.3 493.3"/>
        <polygon class="cls-2" points="409.3 526.1 408.3 518.7 400.6 520.3 405.2 525.3 409.3 526.1"/>
        <polygon class="cls-2" points="356.6 528.3 361.1 526.8 362.1 530.5 358.3 531.1 356.6 528.3"/>
        <polygon class="cls-2" points="405.9 508.9 401.3 506.2 403.8 502.6 407.1 505.5 405.9 508.9"/>
        <polygon class="cls-2" points="389 514.4 385.7 515.2 384.1 513 387.5 510.7 389 514.4"/>
        <polygon class="cls-2" points="392.6 529.7 388.1 534.5 384.5 530.6 388.8 527.5 392.6 529.7"/>
        <polygon class="cls-2" points="324.5 501.4 331.1 501.4 330.7 506.7 325.5 505.8 324.5 501.4"/>
        <polygon class="cls-2" points="327 469.6 331.7 475.4 325.2 479.9 324.7 473.1 327 469.6"/>
        <polygon class="cls-2" points="361.3 464.5 365.4 467 363.2 470.2 360.3 467.6 361.3 464.5"/>
        <polygon class="cls-2" points="384 484.6 385.9 481.5 388.2 482.5 385.6 485.8 384 484.6"/>
        <polygon class="cls-2" points="393 430 388.6 423.9 395.3 419.7 395.5 426.6 393 430"/>
        <polygon class="cls-2" points="307.5 499.5 303.1 493.4 309.8 489.2 310 496.1 307.5 499.5"/>
      </g>
    </g>
  </g>
</svg>
