<svg id="Layer_1" data-name="Layer 1" xmlns="http://www.w3.org/2000/svg" width="640" height="640" viewBox="0 0 640 640">
  <defs>
    <style>
      .cls-1 {
        fill: #78583d;
      }

      .cls-2 {
        fill: #896a52;
      }
    </style>
  </defs>
  <title>terrarium-dome-soil</title>
  <g id="DOME">
    <g id="SOIL">
      <path class="cls-1" d="M167.5,479.6s4.5-4.3,34.5,0,35.1,5.7,46.5,4.3,30.8-1.9,43.5,0c35.7,5.2,27,0,60,0s43.1,5.9,57.7,4.6,20.7-3.8,30.7-3.8,25,1.9,30.3,0l1,65.9s-51.4,20.9-150,20.4-154.3-20.4-154.3-20.4v-71Z"/>
      <g>
        <polygon class="cls-2" points="182.1 508.8 180.7 515.2 185.9 516.1 186.2 510.8 182.1 508.8"/>
        <polygon class="cls-2" points="173.9 529.1 177.2 532.6 179.8 529.7 176.7 527.5 173.9 529.1"/>
        <polygon class="cls-2" points="194.9 535.9 198.2 539.4 200.8 536.5 197.7 534.2 194.9 535.9"/>
        <polygon class="cls-2" points="234.5 553.5 231.6 555.3 232.1 558 236.1 557.2 234.5 553.5"/>
        <polygon class="cls-2" points="242.6 498.4 246.8 496.1 244.7 492.8 241.7 495.2 242.6 498.4"/>
        <polygon class="cls-2" points="266.2 497.9 265 503.2 269.4 503.9 269.5 499.5 266.2 497.9"/>
        <polygon class="cls-2" points="271.4 517.4 274.7 520.9 277.3 518 274.2 515.7 271.4 517.4"/>
        <polygon class="cls-2" points="252.5 525.8 249.6 527.7 250.1 530.3 254.1 529.5 252.5 525.8"/>
        <polygon class="cls-2" points="198.4 516.8 200.2 520 202.5 519.2 200 515.7 198.4 516.8"/>
        <polygon class="cls-2" points="277.5 533.5 279.3 536.7 281.6 535.8 279.1 532.3 277.5 533.5"/>
        <polygon class="cls-2" points="209.2 502.8 213.9 505.4 215.7 501.4 211.6 500 209.2 502.8"/>
        <polygon class="cls-2" points="212 489.7 217.8 492.8 220 488 214.9 486.3 212 489.7"/>
        <polygon class="cls-2" points="216.3 514.2 214.5 520.6 219.8 521.6 220.3 516.4 216.3 514.2"/>
        <polygon class="cls-2" points="406.6 553.5 404.8 559.8 410 560.9 410.5 555.6 406.6 553.5"/>
        <polygon class="cls-2" points="243.9 512.6 237.3 512.6 237.7 517.9 242.9 517 243.9 512.6"/>
        <polygon class="cls-2" points="289.6 554.9 283 554.8 283.3 560.2 288.6 559.2 289.6 554.9"/>
        <polygon class="cls-2" points="262.7 547.4 259.4 551.5 263.9 554.7 264.3 549.9 262.7 547.4"/>
        <polygon class="cls-2" points="289.4 497.2 284.7 503 291.2 507.5 291.7 500.7 289.4 497.2"/>
        <polygon class="cls-2" points="225.1 534 221 536.4 223.2 539.6 226.1 537.1 225.1 534"/>
        <polygon class="cls-2" points="202.4 554.1 200.5 551 198.2 551.9 200.8 555.3 202.4 554.1"/>
        <polygon class="cls-2" points="356.7 488.6 354.1 493.3 358 495.2 359.4 491.1 356.7 488.6"/>
        <polygon class="cls-2" points="467 521.6 461.2 518.4 458.9 523.2 464 524.9 467 521.6"/>
        <polygon class="cls-2" points="366.8 494.4 369 498.7 372.3 496.7 370 493.6 366.8 494.4"/>
        <polygon class="cls-2" points="186.6 483 183.1 483.8 183.2 486.3 187.3 484.9 186.6 483"/>
        <polygon class="cls-2" points="450.4 517.2 446.8 518.1 447 520.6 451 519.2 450.4 517.2"/>
        <polygon class="cls-2" points="466.1 536.9 462.3 540.7 465.6 543.6 468.1 540 466.1 536.9"/>
        <polygon class="cls-2" points="460.5 492.2 454.9 488.7 452.4 493.4 457.3 495.4 460.5 492.2"/>
        <polygon class="cls-2" points="433.2 532.7 436.7 531.6 436.4 529.2 432.4 530.8 433.2 532.7"/>
        <polygon class="cls-2" points="193.4 499.4 197.8 493.4 191.1 489.2 190.9 496 193.4 499.4"/>
        <polygon class="cls-2" points="450.6 499.9 451.9 507.2 445.9 507.9 445.9 501.9 450.6 499.9"/>
        <polygon class="cls-2" points="434.1 511 431.6 512.4 430.6 510.3 432.8 509.6 434.1 511"/>
        <polygon class="cls-2" points="432.3 495.7 426.5 498.8 424.3 494 429.4 492.3 432.3 495.7"/>
        <polygon class="cls-2" points="421.6 520.2 423.4 526.6 418.2 527.7 417.7 522.4 421.6 520.2"/>
        <polygon class="cls-2" points="415 509.1 410.7 506.9 412.8 503.5 415.8 505.9 415 509.1"/>
        <polygon class="cls-2" points="391.3 508.7 392.5 513.9 388.2 514.6 388 510.3 391.3 508.7"/>
        <polygon class="cls-2" points="377.9 507.8 379.4 514.2 374.1 515.1 373.9 509.8 377.9 507.8"/>
        <polygon class="cls-2" points="400.4 518.6 407 518.6 406.6 523.9 401.4 523 400.4 518.6"/>
        <polygon class="cls-2" points="347.6 562.4 354.2 562.4 353.9 567.7 348.7 566.7 347.6 562.4"/>
        <polygon class="cls-2" points="386.2 528.1 382.9 531.6 380.2 528.8 383.4 526.5 386.2 528.1"/>
        <polygon class="cls-2" points="365.2 534.9 361.9 538.4 359.2 535.5 362.4 533.2 365.2 534.9"/>
        <polygon class="cls-2" points="405.1 536.6 407.9 538.4 407.4 541.1 403.4 540.2 405.1 536.6"/>
        <polygon class="cls-2" points="325.6 552.5 328.4 554.3 327.9 557 323.9 556.2 325.6 552.5"/>
        <polygon class="cls-2" points="317.5 497.4 313.2 495.1 315.3 491.8 318.3 494.2 317.5 497.4"/>
        <polygon class="cls-2" points="291.9 516.3 293.1 521.6 288.8 522.2 288.6 517.9 291.9 516.3"/>
        <polygon class="cls-2" points="307.6 524.8 310.4 526.7 309.9 529.3 305.9 528.5 307.6 524.8"/>
        <polygon class="cls-2" points="391.4 495.1 389.6 498.2 387.3 497.4 389.8 493.9 391.4 495.1"/>
        <polygon class="cls-2" points="361.7 515.8 359.8 519 357.5 518.2 360 514.7 361.7 515.8"/>
        <polygon class="cls-2" points="384.9 545.1 389.6 550.9 383.1 555.4 382.6 548.6 384.9 545.1"/>
        <polygon class="cls-2" points="350.9 501.8 346.1 504.4 344.3 500.4 348.4 499.1 350.9 501.8"/>
        <polygon class="cls-2" points="343.7 513.2 345.5 519.6 340.3 520.7 339.8 515.4 343.7 513.2"/>
        <polygon class="cls-2" points="450.5 535.8 452.3 542.2 447 543.2 446.5 538 450.5 535.8"/>
        <polygon class="cls-2" points="316.1 511.6 322.7 511.6 322.4 516.9 317.2 516 316.1 511.6"/>
        <polygon class="cls-2" points="426.5 540.9 433.1 540.9 432.7 546.2 427.5 545.2 426.5 540.9"/>
        <polygon class="cls-2" points="300.7 538.1 305.3 543.9 298.8 548.4 298.3 541.6 300.7 538.1"/>
        <polygon class="cls-2" points="334.9 533 339.1 535.4 336.9 538.6 333.9 536.1 334.9 533"/>
        <polygon class="cls-2" points="357.6 553.1 359.6 550 361.9 550.9 359.2 554.3 357.6 553.1"/>
        <polygon class="cls-2" points="245.8 550.3 241.4 544.3 248.1 540.1 248.3 546.9 245.8 550.3"/>
      </g>
    </g>
  </g>
</svg>
