<svg id="Layer_1" data-name="Layer 1" xmlns="http://www.w3.org/2000/svg" width="640" height="640" viewBox="0 0 640 640">
  <defs>
    <style>
      .cls-1 {
        fill: #a6a8ab;
      }
    </style>
  </defs>
  <title>terrarium-geo-frame</title>
  <g id="GEO">
    <g id="FRAME">
      <path class="cls-1" d="M418.8,538.4H221.2l-91-171.1,91-170.9,98.5-13.2h0.3l99,13.1,0.5,0.9,90.5,170Zm-195.3-4H416.4l88.9-167.1L416.3,200l-96.7-12.8-96,12.8-89,167.3Z"/>
      <polygon class="cls-1" points="223.1 538.3 221.7 534.5 316.7 499.1 506.5 365.6 508.8 368.9 318.6 502.7 318.4 502.8 223.1 538.3"/>
      <polygon class="cls-1" points="417 538.3 316.7 502.7 131.2 368.9 133.6 365.7 318.6 499.1 418.3 534.5 417 538.3"/>
      <polygon class="cls-1" points="321.5 267 320.4 266.3 221.3 199.8 223.5 196.5 321.5 262.2 416.5 196.5 418.8 199.8 321.5 267"/>
      <polygon class="cls-1" points="133.3 369.3 132.9 365.4 187.4 360.3 320.3 263 322.7 266.2 188.9 364.2 133.3 369.3"/>
      <polygon class="cls-1" points="192.8 412 186.1 362.2 186.2 361.8 221.9 198.9 225.8 199.8 190.2 362.3 196.8 411.4 192.8 412"/>
      <g>
        <polygon class="cls-1" points="506.1 369.3 453.6 364.2 319.8 266.2 322.2 263 455.1 360.3 506.5 365.4 506.1 369.3"/>
        <polygon class="cls-1" points="449.7 408.9 445.7 408.4 452.3 362.3 415.2 199.8 419.1 198.9 456.4 362.2 449.7 408.9"/>
      </g>
    </g>
  </g>
</svg>
