<svg id="Layer_1" data-name="Layer 1" xmlns="http://www.w3.org/2000/svg" width="640" height="640" viewBox="0 0 640 640">
  <defs>
    <style>
      .cls-1 {
        fill: #a6a8ab;
      }
    </style>
  </defs>
  <title>terrarium-dome-frame</title>
  <g id="DOME">
    <g id="FRAME">
      <path class="cls-1" d="M321.7,573c-61.6,0-100.4-5.6-122.1-10.2-23.7-5.1-32.8-10.2-33.1-10.4l-1-.6v-1.2c0.3-14.6.5-36.7,0.8-58.2s0.5-43.6.8-58.2l1.3-71.7c0.1-7.3,0-15-.2-22.4-0.4-19.8-.8-40.2,3.9-59.1,7.5-30.5,26.9-56.2,55.9-74.3,26.4-16.5,59.2-25.5,92.4-25.5s66.5,9.3,92.9,26.2c29.1,18.6,48,44.9,54.7,75.9,4,18.6,3.6,38.5,3.2,57.9-0.2,7.7-.3,15.6-0.2,23.1l1.3,72.3c0.2,10,.4,27.5.5,44.4s0.4,34.4.5,44.4c0,0.5.2,2,.3,3.8,1.7,18.4,1.2,21.9-.8,23.2h0c-0.3.2-8.3,5.4-31.1,10.5C421,567.4,383.3,573,321.7,573ZM169.4,549.4c6.6,3.1,46.2,19.6,152.3,19.6,110.5,0,145.1-17.9,148.6-19.9,0.8-2.6-.3-15.4-0.7-19.7-0.2-2.3-.3-3.5-0.3-4.1-0.2-10-.4-27.5-0.5-44.4s-0.4-34.4-.5-44.4l-1.3-72.3c-0.1-7.6,0-15.6.2-23.3,0.4-19.1.8-38.8-3.1-56.9-6.4-30-24.7-55.4-52.9-73.4-25.8-16.5-58-25.5-90.7-25.5S255.8,194,230,210.1c-28.1,17.6-46.9,42.4-54.2,71.9-4.5,18.4-4.1,38.6-3.7,58.1,0.2,7.4.3,15.1,0.2,22.5L171,434.3c-0.3,14.6-.5,36.7-0.8,58.2S169.7,534.8,169.4,549.4Zm300.8-.1h0Z"/>
      <path class="cls-1" d="M320,185.2c-10.5,0-19-8.2-19-18.3s8.5-18.3,19-18.3,19,8.2,19,18.3S330.5,185.2,320,185.2Zm0-32.6c-8.3,0-15,6.4-15,14.3s6.7,14.3,15,14.3,15-6.4,15-14.3S328.3,152.5,320,152.5Z"/>
    </g>
  </g>
</svg>
