<svg id="Layer_1" data-name="Layer 1" xmlns="http://www.w3.org/2000/svg" width="640" height="640" viewBox="0 0 640 640">
  <defs>
    <style>
      .cls-1 {
        fill: #a6a8ab;
      }
    </style>
  </defs>
  <title>terrarium-bowl-frame</title>
  <g id="BOWL">
    <g id="FRAME">
      <path class="cls-1" d="M320,592.4c-90.6,0-164.4-60.5-164.4-134.9,0-39.5,15.2-81.4,40.5-112,21.3-25.7,60.1-56.3,123.7-56.3,54.9,0,99.2,19.5,128.3,56.4,23.1,29.3,36.3,70.1,36.3,111.9C484.4,531.8,410.6,592.4,320,592.4Zm-0.2-299c-61.9,0-99.7,29.8-120.4,54.8-24.8,29.9-39.6,70.7-39.6,109.3,0,72.1,71.8,130.7,160.1,130.7s160.1-58.6,160.1-130.7c0-40.9-12.9-80.7-35.4-109.3a136.2,136.2,0,0,0-49.4-39.3C373.6,298.5,348.2,293.4,319.8,293.4Z"/>
      <path class="cls-1" d="M323.4,351.9c-49.2,0-87.7-13.3-87.7-30.2s39.7-32.3,86.6-32.3,88.7,14.8,88.7,32.3S372.6,351.9,323.4,351.9Zm-1.1-58.4c-22.2,0-43.2,3.3-59.2,9.2-14.5,5.4-23.2,12.4-23.2,19,0,12.6,33.5,26,83.5,26s83.5-13.4,83.5-26c0-6.5-9-13.5-24.2-18.9S344.4,293.5,322.4,293.5Z"/>
      <g>
        <rect class="cls-1" x="240.9" y="307.1" width="2.1" height="1.06" transform="translate(-127.2 437.4) rotate(-71.2)"/>
        <path class="cls-1" d="M244.1,302.8l-1-.3,1.4-4,1,0.3Zm2.7-8-1-.3,1.4-4,1,0.3Zm2.7-8-1-.3,1.4-4,1,0.3Zm2.7-8-1-.3,1.4-4,1,0.3Zm2.7-8-1-.3,1.4-4,1,0.3Zm2.7-8-1-.3,1.4-4,1,0.3Zm2.7-8-1-.3,1.4-4,1,0.3Zm2.7-8-1-.3,1.4-4,1,0.3Zm2.7-8-1-.3,1.4-4,1,0.3Zm2.7-8-1-.3,1.4-4,1,0.3Zm2.7-8-1-.3,1.4-4,1,0.3Zm2.7-8-1-.3,1.4-4,1,0.3Zm2.7-8-1-.3,1.4-4,1,0.3Zm2.7-8-1-.3,1.4-4,1,0.3Zm2.7-8-1-.3,1.4-4,1,0.3Zm2.7-8-1-.3,1.4-4,1,0.3Zm2.7-8-1-.3,1.4-4,1,0.3Zm2.7-8-1-.3,1.4-4,1,0.3Zm2.7-8-1-.3,1.4-4,1,0.3Zm2.7-8-1-.3,1.4-4,1,0.3Zm2.7-8-1-.3,1.4-4,1,0.3Zm2.7-8-1-.3,1.4-4,1,0.3Zm2.7-8-1-.3,1.4-4,1,0.3Zm2.7-8-1-.3,1.4-4,1,0.3Zm2.7-8-1-.3,1.4-4,1,0.3Zm2.7-8-1-.3,1.4-4,1,0.3Zm2.7-8-1-.3,1.4-4,1,0.3Zm2.7-8-1-.3,1.4-4,1,0.3Zm2.7-8-1-.3,1.4-4,1,0.3Z"/>
        <polygon class="cls-1" points="323.2 70.6 322.2 70.3 323.4 66.8 324.6 70.3 323.6 70.6 323.4 70.1 323.2 70.6"/>
        <path class="cls-1" d="M405.1,307.1l-1.4-3.9,1-.3,1.4,3.9Zm-2.7-7.9-1.4-3.9,1-.3,1.4,3.9Zm-2.7-7.9-1.4-3.9,1-.3,1.4,3.9Zm-2.7-7.9-1.4-3.9,1-.3,1.4,3.9Zm-2.7-7.9-1.4-3.9,1-.3,1.4,3.9Zm-2.7-7.9-1.4-3.9,1-.3,1.4,3.9Zm-2.7-7.9-1.4-3.9,1-.3,1.4,3.9Zm-2.7-7.9-1.4-3.9,1-.3,1.4,3.9Zm-2.7-7.9-1.4-3.9,1-.3,1.4,3.9Zm-2.7-7.9-1.4-3.9,1-.3,1.4,3.9Zm-2.7-7.9-1.4-3.9,1-.3,1.4,3.9Zm-2.7-7.9-1.4-3.9,1-.3,1.4,3.9Zm-2.7-7.9-1.4-3.9,1-.3,1.4,3.9Zm-2.7-7.9-1.4-3.9,1-.3,1.4,3.9Zm-2.7-7.9-1.4-3.9,1-.3,1.4,3.9Zm-2.7-7.9-1.4-3.9,1-.3,1.4,3.9Zm-2.7-7.9-1.4-3.9,1-.3,1.4,3.9Zm-2.7-7.9-1.4-3.9,1-.3,1.4,3.9Zm-2.7-7.9-1.4-3.9,1-.3,1.4,3.9Zm-2.7-7.9-1.4-3.9,1-.3,1.4,3.9Zm-2.7-7.9-1.4-3.9,1-.3,1.4,3.9Zm-2.7-7.9-1.4-3.9,1-.3,1.4,3.9Zm-2.7-7.9-1.4-3.9,1-.3,1.4,3.9Zm-2.7-7.9-1.4-3.9,1-.3,1.4,3.9Zm-2.7-7.9-1.4-3.9,1-.3,1.4,3.9Zm-2.7-7.9-1.4-3.9,1-.3,1.4,3.9Zm-2.7-7.9-1.4-3.9,1-.3,1.4,3.9Zm-2.7-7.9-1.4-3.9,1-.3,1.4,3.9ZM329,86.4l-1.4-3.9,1-.3L330,86Zm-2.7-7.9L325,74.6l1-.3,1.4,3.9Z"/>
        <rect class="cls-1" x="406.8" y="310.8" width="1.1" height="2.12" transform="translate(-79.4 149.8) rotate(-19)"/>
      </g>
      <path class="cls-1" d="M323.4,69.5a10.9,10.9,0,1,1,10.9-10.9A10.9,10.9,0,0,1,323.4,69.5Zm0-19.7a8.8,8.8,0,1,0,8.8,8.8A8.8,8.8,0,0,0,323.4,49.7Z"/>
    </g>
  </g>
</svg>
