<svg id="Layer_1" data-name="Layer 1" xmlns="http://www.w3.org/2000/svg" width="640" height="640" viewBox="0 0 640 640">
  <defs>
    <style>
      .cls-1 {
        fill: #a6a8ab;
      }

      .cls-2 {
        fill: #a3846f;
      }

      .cls-3 {
        fill: #ba9983;
      }
    </style>
  </defs>
  <title>terrarium-bottle-frame</title>
  <g id="BOTTLE">
    <g id="FRAME">
      <g>
        <path class="cls-1" d="M268.8,556.8c-77.1,0-146.7-53.4-164.2-131.6-9.4-42.1-1.3-86.4,22.1-121.5,19.6-29.2,48.4-51.5,83.5-64.3a193.7,193.7,0,0,1,105.5-7.5l8.9,2a164.1,164.1,0,0,0,20.2,3.9c46.7,5,87.1-29.7,122.7-60.3l10.9-9.3,2.6,3.1-10.8,9.3c-34.4,29.6-77.3,66.4-125.7,61.2a167.3,167.3,0,0,1-20.7-4l-8.8-2a189.6,189.6,0,0,0-103.3,7.4c-34.3,12.5-62.4,34.2-81.5,62.8-22.9,34.2-30.7,77.3-21.6,118.4,19.7,88.4,107.6,144.3,196,124.6,42.8-9.5,82.1-36.4,107.9-73.8,19.7-28.5,29.9-62.2,28.6-94.8-0.2-4.4-.5-8.9-0.9-13.3-0.9-10.5-1.8-21.3.1-31.9,5.8-33.6,35.3-55.8,61.3-75.4,5.4-4,10.4-7.9,15.2-11.7l2.6-2.1c3.8-3,7.7-6.2,11.7-9.1l2.4,3.2c-3.9,2.9-7.8,6-11.5,9l-2.6,2.1c-4.9,3.9-10,7.7-15.3,11.8-25.4,19.2-54.2,40.9-59.8,72.9-1.7,10.1-.9,20.7,0,30.9,0.4,4.4.7,9,.9,13.5,1.3,33.5-9.1,68-29.3,97.3-26.3,38.2-66.6,65.6-110.3,75.4A168.2,168.2,0,0,1,268.8,556.8Z"/>
        <path class="cls-1" d="M533.4,239.9l-2.3-3.3c1.6-1.1,2.3-5.3-.5-13.6s-7.8-17.5-14.5-26.7c-15-20.9-29.5-29.9-33.3-27.2l-2.3-3.3c8.1-5.8,26.1,10.2,38.9,28.1,6.9,9.6,12.2,19.5,15,27.8S537.1,237.3,533.4,239.9Z"/>
        <g id="CORK">
          <g>
            <path class="cls-2" d="M462.8,203.8s-6.3,7.4,10,27.6,23,15.4,23,15.4l44-32.5s-14.3-6-23.3-19.6-8.7-23.6-8.7-23.6Z"/>
            <path class="cls-2" d="M493.5,249.4c-3.9,0-11-2.7-22.3-16.7-16.9-21-10.7-29.3-9.9-30.2l0.2-.2,48.4-35.2v4.1c0,0.1-.1,9.6,8.4,22.4s22.3,18.8,22.4,18.8l3.2,1.4L497,248.4A5.8,5.8,0,0,1,493.5,249.4Zm-29.2-44.2c-0.6,1.1-3.4,8.2,10.1,25s20.2,15.1,20.2,15l41.4-30.5c-4.8-2.6-14.3-8.6-21.2-18.8s-8.1-16.7-8.8-21Z"/>
          </g>
          <g>
            <ellipse class="cls-3" cx="525.6" cy="191.3" rx="8.2" ry="26.9" transform="translate(-8.2 358.3) rotate(-37.4)"/>
            <path class="cls-3" d="M540.1,215.2c-6,0-15.3-8.2-22.6-17.7a69.9,69.9,0,0,1-9.9-17.1c-2.8-7.5-1.3-10.7.5-12.1s5.2-2,11.8,2.7a70,70,0,0,1,13.9,14.1c8.7,11.4,14.7,25.1,9.4,29.1A4.9,4.9,0,0,1,540.1,215.2Zm-28.9-43.9-0.7.2c-0.6.5-.9,2.8,0.8,7.5a65.9,65.9,0,0,0,9.3,16c9.8,12.8,18.4,17.3,20,16s-0.4-10.7-10.2-23.5a65.9,65.9,0,0,0-13-13.2C514.4,172.1,512.3,171.4,511.2,171.4Z"/>
          </g>
        </g>
        <path class="cls-1" d="M529.4,241.2c-3.5,0-8-2.1-13.4-6.1-7-5.3-14.6-13.6-21.5-23.2s-12.2-19.5-15-27.8-2.8-15.4.9-18.1l2.3,3.3c-1.6,1.1-2.3,5.3.5,13.6s7.8,17.5,14.5,26.7,14,17.2,20.7,22.3,11.1,6,12.7,4.8l2.3,3.3A6.8,6.8,0,0,1,529.4,241.2Z"/>
      </g>
      <path class="cls-1" d="M288.5,486c-44.4,0-83.8-28.4-93.2-70.6-11-49.3,23.2-99.1,76.3-110.9s105.2,18.7,116.2,68h0c11,49.3-23.2,99.1-76.3,110.9A105.7,105.7,0,0,1,288.5,486Zm6.1-180.1a101.7,101.7,0,0,0-22.1,2.4c-50.9,11.3-83.8,59-73.3,106.2s60.5,76.3,111.4,65,83.8-59,73.3-106.2h0C374.9,333.1,337.2,305.9,294.6,305.9Z"/>
    </g>
  </g>
</svg>
