<svg id="Layer_1" data-name="Layer 1" xmlns="http://www.w3.org/2000/svg" width="640" height="640" viewBox="0 0 640 640">
  <defs>
    <style>
      .cls-1 {
        fill: #78583d;
      }

      .cls-2 {
        fill: #896a52;
      }
    </style>
  </defs>
  <title>terrarium-bowl-soil</title>
  <g id="BOWL">
    <g id="SOIL">
      <path class="cls-1" d="M166.7,501.7s9.5-2.8,15.7-2.8,28,4.5,38.7,2.2,40.9-3.4,56.6-1.1,38.1,5,46,4.5,16.8-2.2,26.3-2.8,28.6,3.4,36.4,2.2,35.3-7.8,54.9-3.9,32.5,0.6,32.5.6-31.4,84.1-145.2,89.1S171.8,516.8,166.7,501.7Z"/>
      <g>
        <polygon class="cls-2" points="181.4 505.7 180.3 511.9 185.3 512.5 185.3 507.4 181.4 505.7"/>
        <polygon class="cls-2" points="191.1 523.3 195.1 525.5 196.6 522.1 193.1 521 191.1 523.3"/>
        <polygon class="cls-2" points="193.4 512.3 198.3 514.9 200.1 510.8 195.9 509.4 193.4 512.3"/>
        <polygon class="cls-2" points="197.1 532.9 195.6 538.2 199.9 539.1 200.4 534.7 197.1 532.9"/>
        <polygon class="cls-2" points="208 523.5 211.6 521.6 209.8 518.9 207.3 520.9 208 523.5"/>
        <polygon class="cls-2" points="227.9 523.2 226.9 527.6 230.5 528.2 230.7 524.5 227.9 523.2"/>
        <polygon class="cls-2" points="239.1 522.5 237.9 527.9 242.3 528.6 242.5 524.1 239.1 522.5"/>
        <polygon class="cls-2" points="220.2 531.5 214.7 531.5 215 536 219.4 535.2 220.2 531.5"/>
        <polygon class="cls-2" points="264.6 568.3 259.1 568.3 259.4 572.8 263.7 572 264.6 568.3"/>
        <polygon class="cls-2" points="232.2 539.6 235 542.5 237.2 540.1 234.6 538.1 232.2 539.6"/>
        <polygon class="cls-2" points="249.8 545.2 252.6 548.2 254.8 545.7 252.2 543.8 249.8 545.2"/>
        <polygon class="cls-2" points="216.3 546.6 213.9 548.2 214.3 550.4 217.7 549.7 216.3 546.6"/>
        <polygon class="cls-2" points="283.1 560 280.8 561.6 281.2 563.8 284.5 563.1 283.1 560"/>
        <polygon class="cls-2" points="290 513.7 293.5 511.8 291.8 509 289.2 511 290 513.7"/>
        <polygon class="cls-2" points="309.9 513.3 308.8 517.7 312.5 518.3 312.6 514.7 309.9 513.3"/>
        <polygon class="cls-2" points="314.2 529.7 317 532.6 319.2 530.2 316.5 528.3 314.2 529.7"/>
        <polygon class="cls-2" points="298.3 536.8 295.9 538.3 296.3 540.5 299.7 539.8 298.3 536.8"/>
        <polygon class="cls-2" points="227.8 507.6 229.3 510.2 231.3 509.5 229.2 506.6 227.8 507.6"/>
        <polygon class="cls-2" points="252.8 529.2 254.3 531.9 256.3 531.2 254.2 528.2 252.8 529.2"/>
        <polygon class="cls-2" points="319.3 543.2 320.8 545.9 322.8 545.2 320.7 542.2 319.3 543.2"/>
        <polygon class="cls-2" points="233.3 553.8 229.3 558.7 234.8 562.5 235.2 556.7 233.3 553.8"/>
        <polygon class="cls-2" points="261.9 517.4 265.9 519.6 267.4 516.2 263.9 515.1 261.9 517.4"/>
        <polygon class="cls-2" points="264.2 506.4 269.1 509 271 504.9 266.7 503.6 264.2 506.4"/>
        <polygon class="cls-2" points="267.9 527 266.4 532.3 270.8 533.3 271.2 528.8 267.9 527"/>
        <polygon class="cls-2" points="280.7 571.8 279.2 577.1 283.6 578 284 573.6 280.7 571.8"/>
        <polygon class="cls-2" points="291.1 525.7 285.5 525.6 285.8 530.1 290.2 529.3 291.1 525.7"/>
        <polygon class="cls-2" points="306.2 574.6 300.7 574.6 301 579.1 305.4 578.3 306.2 574.6"/>
        <polygon class="cls-2" points="304.1 547.9 300.2 552.8 305.6 556.6 306 550.8 304.1 547.9"/>
        <polygon class="cls-2" points="329.3 512.7 325.4 517.6 330.8 521.4 331.3 515.6 329.3 512.7"/>
        <polygon class="cls-2" points="275.3 543.6 271.8 545.7 273.7 548.4 276.1 546.2 275.3 543.6"/>
        <polygon class="cls-2" points="256.2 560.5 254.6 557.9 252.6 558.7 254.9 561.6 256.2 560.5"/>
        <polygon class="cls-2" points="248.6 514.6 252.3 509.5 246.7 506 246.5 511.7 248.6 514.6"/>
        <polygon class="cls-2" points="461.5 504.9 462.6 511.1 457.6 511.6 457.6 506.6 461.5 504.9"/>
        <polygon class="cls-2" points="451.8 522.5 447.8 524.6 446.3 521.3 449.8 520.2 451.8 522.5"/>
        <polygon class="cls-2" points="449.5 511.4 444.6 514.1 442.8 510 447 508.6 449.5 511.4"/>
        <polygon class="cls-2" points="445.8 532.1 447.3 537.4 442.9 538.3 442.5 533.9 445.8 532.1"/>
        <polygon class="cls-2" points="434.9 522.7 431.3 520.8 433.1 518 435.6 520.1 434.9 522.7"/>
        <polygon class="cls-2" points="415 522.4 416 526.8 412.4 527.4 412.2 523.7 415 522.4"/>
        <polygon class="cls-2" points="403.8 521.6 405 527 400.6 527.7 400.4 523.3 403.8 521.6"/>
        <polygon class="cls-2" points="422.6 530.7 428.2 530.7 427.9 535.2 423.5 534.4 422.6 530.7"/>
        <polygon class="cls-2" points="378.3 567.5 383.8 567.5 383.5 572 379.1 571.2 378.3 567.5"/>
        <polygon class="cls-2" points="410.7 538.7 407.9 541.6 405.7 539.2 408.3 537.3 410.7 538.7"/>
        <polygon class="cls-2" points="393 544.4 390.3 547.3 388 544.9 390.7 543 393 544.4"/>
        <polygon class="cls-2" points="426.6 545.8 429 547.4 428.6 549.6 425.2 548.9 426.6 545.8"/>
        <polygon class="cls-2" points="359.8 559.2 362.1 560.7 361.7 563 358.4 562.3 359.8 559.2"/>
        <polygon class="cls-2" points="352.9 512.8 349.4 510.9 351.1 508.2 353.7 510.2 352.9 512.8"/>
        <polygon class="cls-2" points="331.4 528.8 332.5 533.2 328.8 533.8 328.7 530.1 331.4 528.8"/>
        <polygon class="cls-2" points="344.6 535.9 347 537.5 346.6 539.7 343.2 539 344.6 535.9"/>
        <polygon class="cls-2" points="415.1 506.7 413.6 509.4 411.6 508.7 413.7 505.7 415.1 506.7"/>
        <polygon class="cls-2" points="390.1 528.4 388.5 531 386.6 530.3 388.7 527.4 390.1 528.4"/>
        <polygon class="cls-2" points="409.6 553 413.6 557.9 408.1 561.6 407.7 555.9 409.6 553"/>
        <polygon class="cls-2" points="381 516.6 377 518.7 375.5 515.4 378.9 514.3 381 516.6"/>
        <polygon class="cls-2" points="375 526.2 376.5 531.5 372.1 532.4 371.7 528 375 526.2"/>
        <polygon class="cls-2" points="362.2 571 363.7 576.3 359.3 577.2 358.9 572.8 362.2 571"/>
        <polygon class="cls-2" points="351.8 524.8 357.3 524.8 357 529.3 352.7 528.5 351.8 524.8"/>
        <polygon class="cls-2" points="336.7 573.8 342.2 573.8 341.9 578.3 337.5 577.5 336.7 573.8"/>
        <polygon class="cls-2" points="338.8 547.1 342.7 552 337.3 555.8 336.8 550 338.8 547.1"/>
        <polygon class="cls-2" points="367.6 542.8 371.1 544.8 369.2 547.5 366.8 545.4 367.6 542.8"/>
        <polygon class="cls-2" points="386.7 559.7 388.3 557.1 390.3 557.9 388 560.7 386.7 559.7"/>
        <polygon class="cls-2" points="394.3 513.7 390.6 508.7 396.2 505.1 396.4 510.9 394.3 513.7"/>
        <polygon class="cls-2" points="322.4 572.2 318.7 567.1 324.3 563.6 324.5 569.3 322.4 572.2"/>
      </g>
    </g>
  </g>
</svg>
