<svg id="Layer_1" data-name="Layer 1" xmlns="http://www.w3.org/2000/svg" width="920" height="700" viewBox="0 0 920 700">
  <defs>
    <style>
      .cls-1, .cls-8 {
        fill: #424242;
      }

      .cls-2 {
        fill: #78583d;
      }

      .cls-3 {
        fill: #896a52;
      }

      .cls-4 {
        fill: #a6a8ab;
      }

      .cls-5 {
        fill: #a3846f;
      }

      .cls-6 {
        fill: #ba9983;
      }

      .cls-7 {
        opacity: 0.7;
      }

      .cls-8 {
        font-size: 26px;
        font-family: Georgia;
      }

      .cls-9 {
        font-size: 16px;
        fill: #d207d8;
        font-family: Helvetica;
      }
    </style>
  </defs>
  <title>succulent-garden-instructions</title>
  <path class="cls-1" d="M908.5,9.9V690.1H11.5V9.9H908.5m14-14H-2.5V704.1H922.5V-4.1h0Z"/>
  <g>
    <g id="BOTTLE">
      <g id="SOIL">
        <path class="cls-2" d="M349.2,183.7s4.7-3.3,18.4-2.4,19.4,3.8,24.6,3.3,18.9-.5,18.9-0.5,14.2,3.3,19.4,2.4,13.7-3.3,27.9-3.3,20.3,1.4,30.2.9,18.9-2.8,24.6-1.9a18.9,18.9,0,0,0,9.9-.9s-16.5,59.1-78.5,67.6S350.6,199.3,349.2,183.7Z"/>
        <g>
          <polygon class="cls-3" points="410.7 242.7 414.2 244.6 415.5 241.7 412.5 240.7 410.7 242.7"/>
          <polygon class="cls-3" points="435.1 243.7 437.2 241.8 435.5 240.2 434.1 242 435.1 243.7"/>
          <polygon class="cls-3" points="424.1 245.2 426.7 242.8 424.6 240.8 422.9 243.1 424.1 245.2"/>
          <polygon class="cls-3" points="442 242 444.9 244 446.4 241.5 443.8 240.4 442 242"/>
          <polygon class="cls-3" points="356.4 199.1 358.6 197.9 357.5 196.2 355.9 197.4 356.4 199.1"/>
          <polygon class="cls-3" points="368.9 198.9 368.3 201.7 370.6 202 370.7 199.7 368.9 198.9"/>
          <polygon class="cls-3" points="376 198.4 375.2 201.8 378 202.3 378.2 199.5 376 198.4"/>
          <polygon class="cls-3" points="364.1 204.2 360.6 204.2 360.8 207 363.6 206.5 364.1 204.2"/>
          <polygon class="cls-3" points="392.1 227.4 388.6 227.4 388.8 230.2 391.6 229.7 392.1 227.4"/>
          <polygon class="cls-3" points="371.6 209.2 373.4 211.1 374.8 209.5 373.1 208.3 371.6 209.2"/>
          <polygon class="cls-3" points="382.8 212.8 384.5 214.6 385.9 213.1 384.3 211.9 382.8 212.8"/>
          <polygon class="cls-3" points="459.3 237.8 459.7 239.6 461.2 239.8 461.4 237.6 459.3 237.8"/>
          <polygon class="cls-3" points="403.8 222.1 402.3 223.1 402.6 224.5 404.7 224.1 403.8 222.1"/>
          <polygon class="cls-3" points="408.1 192.9 410.3 191.7 409.2 189.9 407.6 191.2 408.1 192.9"/>
          <polygon class="cls-3" points="420.6 192.7 420 195.5 422.3 195.8 422.4 193.5 420.6 192.7"/>
          <polygon class="cls-3" points="423.4 203 425.1 204.8 426.5 203.3 424.9 202.1 423.4 203"/>
          <polygon class="cls-3" points="413.3 207.5 411.8 208.4 412.1 209.8 414.2 209.4 413.3 207.5"/>
          <polygon class="cls-3" points="368.9 189 369.8 190.7 371.1 190.3 369.7 188.4 368.9 189"/>
          <polygon class="cls-3" points="384.6 202.7 385.6 204.4 386.9 203.9 385.5 202.1 384.6 202.7"/>
          <polygon class="cls-3" points="426.6 211.5 427.6 213.2 428.8 212.8 427.5 210.9 426.6 211.5"/>
          <polygon class="cls-3" points="372.3 218.2 369.8 221.3 373.3 223.7 373.6 220.1 372.3 218.2"/>
          <polygon class="cls-3" points="390.4 195.2 392.9 196.6 393.9 194.5 391.7 193.8 390.4 195.2"/>
          <polygon class="cls-3" points="380.7 189.7 383.8 191.4 384.9 188.8 382.3 187.9 380.7 189.7"/>
          <polygon class="cls-3" points="394.2 201.3 393.2 204.7 396 205.2 396.3 202.4 394.2 201.3"/>
          <polygon class="cls-3" points="402.3 229.6 401.3 232.9 404.1 233.5 404.3 230.7 402.3 229.6"/>
          <polygon class="cls-3" points="408.8 200.5 405.3 200.4 405.5 203.3 408.3 202.8 408.8 200.5"/>
          <polygon class="cls-3" points="418.3 231.4 414.9 231.3 415 234.2 417.8 233.7 418.3 231.4"/>
          <polygon class="cls-3" points="417 214.5 414.5 217.6 418 220 418.2 216.3 417 214.5"/>
          <polygon class="cls-3" points="432.9 192.3 430.4 195.3 433.9 197.7 434.2 194.1 432.9 192.3"/>
          <polygon class="cls-3" points="398.8 211.8 396.6 213.1 397.8 214.8 399.4 213.4 398.8 211.8"/>
          <polygon class="cls-3" points="386.8 222.4 385.8 220.8 384.5 221.3 386 223.1 386.8 222.4"/>
          <polygon class="cls-3" points="360.3 190.4 362.6 187.2 359 185 358.9 188.6 360.3 190.4"/>
          <polygon class="cls-3" points="516.3 187.4 517 191.2 513.9 191.6 513.9 188.4 516.3 187.4"/>
          <polygon class="cls-3" points="510.2 198.4 507.7 199.8 506.8 197.7 508.9 197 510.2 198.4"/>
          <polygon class="cls-3" points="508.8 191.5 505.7 193.1 504.5 190.6 507.2 189.7 508.8 191.5"/>
          <polygon class="cls-3" points="506.5 204.5 507.4 207.9 504.6 208.4 504.4 205.6 506.5 204.5"/>
          <polygon class="cls-3" points="499.6 198.6 497.3 197.4 498.4 195.6 500 196.9 499.6 198.6"/>
          <polygon class="cls-3" points="487 198.4 487.6 201.2 485.3 201.5 485.2 199.2 487 198.4"/>
          <polygon class="cls-3" points="479.9 197.9 480.7 201.3 477.9 201.8 477.8 198.9 479.9 197.9"/>
          <polygon class="cls-3" points="491.8 203.6 495.3 203.6 495.1 206.5 492.4 206 491.8 203.6"/>
          <polygon class="cls-3" points="463.8 226.9 467.3 226.8 467.1 229.7 464.4 229.2 463.8 226.9"/>
          <polygon class="cls-3" points="484.3 208.7 482.5 210.5 481.1 209 482.8 207.8 484.3 208.7"/>
          <polygon class="cls-3" points="473.1 212.3 471.4 214.1 470 212.6 471.6 211.4 473.1 212.3"/>
          <polygon class="cls-3" points="494.3 213.2 495.8 214.1 495.5 215.6 493.4 215.1 494.3 213.2"/>
          <polygon class="cls-3" points="452.1 221.6 453.6 222.6 453.4 224 451.3 223.6 452.1 221.6"/>
          <polygon class="cls-3" points="447.8 192.4 445.6 191.2 446.7 189.4 448.3 190.7 447.8 192.4"/>
          <polygon class="cls-3" points="434.3 202.4 434.9 205.2 432.6 205.6 432.5 203.3 434.3 202.4"/>
          <polygon class="cls-3" points="442.6 206.9 444.1 207.9 443.8 209.3 441.7 208.9 442.6 206.9"/>
          <polygon class="cls-3" points="487.1 188.5 486.1 190.2 484.8 189.7 486.2 187.9 487.1 188.5"/>
          <polygon class="cls-3" points="471.3 202.2 470.3 203.8 469.1 203.4 470.4 201.5 471.3 202.2"/>
          <polygon class="cls-3" points="483.6 217.7 486.1 220.8 482.6 223.2 482.4 219.5 483.6 217.7"/>
          <polygon class="cls-3" points="465.5 194.7 463 196.1 462.1 194 464.2 193.3 465.5 194.7"/>
          <polygon class="cls-3" points="461.8 200.8 462.7 204.1 459.9 204.7 459.7 201.9 461.8 200.8"/>
          <polygon class="cls-3" points="453.7 229 454.6 232.4 451.8 233 451.6 230.2 453.7 229"/>
          <polygon class="cls-3" points="447.1 199.9 450.6 199.9 450.4 202.7 447.7 202.2 447.1 199.9"/>
          <polygon class="cls-3" points="437.6 230.8 441.1 230.8 440.9 233.6 438.1 233.1 437.6 230.8"/>
          <polygon class="cls-3" points="438.9 214 441.4 217.1 437.9 219.4 437.7 215.8 438.9 214"/>
          <polygon class="cls-3" points="457.1 211.3 459.3 212.6 458.1 214.3 456.6 212.9 457.1 211.3"/>
          <polygon class="cls-3" points="469.1 221.9 470.2 220.3 471.4 220.8 470 222.6 469.1 221.9"/>
          <polygon class="cls-3" points="473.9 192.9 471.6 189.7 475.1 187.5 475.2 191.1 473.9 192.9"/>
          <polygon class="cls-3" points="428.6 229.8 426.2 226.6 429.8 224.4 429.9 228 428.6 229.8"/>
        </g>
      </g>
      <g id="FRAME">
        <g>
          <path class="cls-4" d="M434,250.8A89.4,89.4,0,0,1,346.9,181a83.6,83.6,0,0,1,11.7-64.4C369,101,384.3,89.2,402.9,82.4a102.7,102.7,0,0,1,56-4l4.7,1.1a87.1,87.1,0,0,0,10.7,2.1c24.8,2.7,46.2-15.7,65.1-32l5.8-4.9,1.4,1.6-5.8,4.9c-18.3,15.7-41,35.2-66.7,32.5a88.7,88.7,0,0,1-11-2.1l-4.7-1.1a100.6,100.6,0,0,0-54.8,3.9c-18.2,6.6-33.1,18.2-43.3,33.3A81.5,81.5,0,0,0,349,180.5a87.2,87.2,0,0,0,104,66.1c22.7-5.1,43.6-19.3,57.2-39.1,10.4-15.1,15.8-33,15.2-50.3-0.1-2.3-.3-4.7-0.5-7-0.5-5.6-.9-11.3,0-16.9,3.1-17.8,18.7-29.6,32.5-40l8.1-6.2,1.4-1.1c2-1.6,4.1-3.3,6.2-4.8l1.3,1.7c-2.1,1.5-4.1,3.2-6.1,4.8l-1.4,1.1-8.1,6.3c-13.5,10.2-28.8,21.7-31.7,38.7-0.9,5.4-.5,11,0,16.4,0.2,2.3.4,4.8,0.5,7.1,0.7,17.8-4.9,36.1-15.6,51.6-14,20.2-35.3,34.8-58.5,40A89.3,89.3,0,0,1,434,250.8Z"/>
          <path class="cls-4" d="M574.3,82.7L573.1,81c0.8-.6,1.2-2.8-0.3-7.2a57.2,57.2,0,0,0-7.7-14.2c-7.9-11.1-15.7-15.9-17.7-14.4l-1.2-1.7c4.3-3.1,13.8,5.4,20.7,14.9a59.4,59.4,0,0,1,8,14.7C576.5,78,576.3,81.3,574.3,82.7Z"/>
          <g id="CORK">
            <g>
              <path class="cls-5" d="M536.9,63.6s-3.4,3.9,5.3,14.7,12.2,8.2,12.2,8.2l23.3-17.2a31.1,31.1,0,0,1-12.4-10.4c-4.8-7.2-4.6-12.5-4.6-12.5Z"/>
              <path class="cls-5" d="M553.2,87.7c-2.1,0-5.9-1.5-11.8-8.9-8.9-11.1-5.7-15.5-5.3-16h0.1l25.7-18.7v2.2s-0.1,5.1,4.5,11.9a30.2,30.2,0,0,0,11.9,10l1.7,0.7L555,87.2A3.1,3.1,0,0,1,553.2,87.7ZM537.7,64.3c-0.3.6-1.8,4.3,5.3,13.2s10.7,8,10.7,8l21.9-16.2a31.9,31.9,0,0,1-11.2-10,28.1,28.1,0,0,1-4.6-11.1Z"/>
            </g>
            <g>
              <ellipse class="cls-6" cx="570.2" cy="56.9" rx="4.4" ry="14.3" transform="translate(82.5 357.8) rotate(-37.4)"/>
              <path class="cls-6" d="M577.9,69.6c-3.2,0-8.1-4.3-12-9.4a37.1,37.1,0,0,1-5.3-9.1c-1.5-4-.7-5.7.3-6.4s2.8-1,6.2,1.4a37.1,37.1,0,0,1,7.4,7.5c4.6,6.1,7.8,13.3,5,15.5A2.6,2.6,0,0,1,577.9,69.6ZM562.6,46.4h-0.4c-0.3.2-.5,1.5,0.4,4a34.9,34.9,0,0,0,5,8.5c5.2,6.8,9.7,9.2,10.6,8.5s-0.2-5.7-5.4-12.5a35,35,0,0,0-6.9-7A6.8,6.8,0,0,0,562.6,46.4Z"/>
            </g>
          </g>
          <path class="cls-4" d="M572.2,83.4c-1.9,0-4.3-1.1-7.1-3.3a59.4,59.4,0,0,1-11.4-12.3,59.4,59.4,0,0,1-8-14.7c-1.6-4.9-1.5-8.2.5-9.6l1.2,1.7c-0.8.6-1.2,2.8,0.3,7.2a57.2,57.2,0,0,0,7.7,14.2,57.2,57.2,0,0,0,11,11.8c3.7,2.8,5.9,3.2,6.7,2.6l1.2,1.7A3.6,3.6,0,0,1,572.2,83.4Z"/>
        </g>
        <path class="cls-4" d="M444.4,213.2c-23.5,0-44.5-15.1-49.4-37.4-5.8-26.2,12.3-52.6,40.5-58.8s55.8,9.9,61.6,36.1h0c5.8,26.2-12.3,52.6-40.5,58.8A56.1,56.1,0,0,1,444.4,213.2Zm3.2-95.5a53.9,53.9,0,0,0-11.7,1.3c-27,6-44.5,31.3-38.9,56.3s32.1,40.5,59.1,34.5,44.5-31.3,38.9-56.3h0C490.3,132.1,470.2,117.7,447.7,117.7Z"/>
      </g>
    </g>
    <g id="HOUSE" class="cls-7">
      <g id="SOIL-2" data-name="SOIL">
        <path class="cls-2" d="M654.9,336.2a58.7,58.7,0,0,0,26.2.6c14.3-3,25,1.2,25,1.2s16.1,3.6,26.8,1.8,14.9-1.2,29.8-.6,23.8-1.2,29.2-1.2,14.3,2.4,27.4,1.8,14.6-2.6,14.6-2.6l0.8,40.3H655V336.2Z"/>
        <g>
          <polygon class="cls-3" points="660.6 362.9 660 366.3 662.8 366.7 662.8 363.8 660.6 362.9"/>
          <polygon class="cls-3" points="659.2 373.8 661.4 375 662.3 373.1 660.3 372.4 659.2 373.8"/>
          <polygon class="cls-3" points="657.9 340.8 660.6 342.3 661.7 340 659.3 339.2 657.9 340.8"/>
          <polygon class="cls-3" points="657.3 353.5 656.5 356.5 658.9 357 659.2 354.5 657.3 353.5"/>
          <polygon class="cls-3" points="663.5 348.2 665.5 347.1 664.5 345.5 663.1 346.7 663.5 348.2"/>
          <polygon class="cls-3" points="674.8 348 674.2 350.5 676.2 350.8 676.3 348.8 674.8 348"/>
          <polygon class="cls-3" points="681.1 347.6 680.4 350.6 682.9 351 683.1 348.5 681.1 347.6"/>
          <polygon class="cls-3" points="670.4 352.7 667.3 352.7 667.5 355.2 670 354.8 670.4 352.7"/>
          <polygon class="cls-3" points="695.5 373.5 692.4 373.5 692.6 376.1 695.1 375.6 695.5 373.5"/>
          <polygon class="cls-3" points="677.2 357.3 678.8 358.9 680 357.5 678.5 356.5 677.2 357.3"/>
          <polygon class="cls-3" points="687.2 360.5 688.8 362.1 690 360.8 688.5 359.7 687.2 360.5"/>
          <polygon class="cls-3" points="668.2 361.3 666.9 362.1 667.1 363.4 669 363 668.2 361.3"/>
          <polygon class="cls-3" points="706 368.8 704.7 369.7 704.9 371 706.8 370.6 706 368.8"/>
          <polygon class="cls-3" points="709.9 342.6 711.9 341.5 710.9 339.9 709.5 341.1 709.9 342.6"/>
          <polygon class="cls-3" points="721.2 342.4 720.6 344.9 722.7 345.2 722.7 343.2 721.2 342.4"/>
          <polygon class="cls-3" points="723.6 351.7 725.2 353.3 726.4 351.9 725 350.9 723.6 351.7"/>
          <polygon class="cls-3" points="714.6 355.7 713.3 356.5 713.5 357.8 715.4 357.4 714.6 355.7"/>
          <polygon class="cls-3" points="674.7 339.1 675.6 340.6 676.7 340.2 675.5 338.6 674.7 339.1"/>
          <polygon class="cls-3" points="688.9 351.4 689.7 352.9 690.9 352.5 689.7 350.8 688.9 351.4"/>
          <polygon class="cls-3" points="726.5 359.3 727.4 360.8 728.5 360.4 727.3 358.8 726.5 359.3"/>
          <polygon class="cls-3" points="677.8 365.3 675.6 368.1 678.7 370.2 678.9 367 677.8 365.3"/>
          <polygon class="cls-3" points="694 344.7 696.3 345.9 697.1 344 695.2 343.4 694 344.7"/>
          <polygon class="cls-3" points="669.4 373 671.7 374.2 672.5 372.3 670.6 371.6 669.4 373"/>
          <polygon class="cls-3" points="695.3 338.5 698.1 340 699.1 337.7 696.8 336.9 695.3 338.5"/>
          <polygon class="cls-3" points="697.4 350.2 696.6 353.2 699 353.7 699.3 351.2 697.4 350.2"/>
          <polygon class="cls-3" points="788 368.8 787.1 371.9 789.6 372.4 789.8 369.9 788 368.8"/>
          <polygon class="cls-3" points="710.5 349.4 707.4 349.4 707.6 351.9 710.1 351.5 710.5 349.4"/>
          <polygon class="cls-3" points="732.3 369.5 729.1 369.5 729.3 372 731.8 371.6 732.3 369.5"/>
          <polygon class="cls-3" points="719.5 365.9 717.9 367.9 720.1 369.4 720.2 367.1 719.5 365.9"/>
          <polygon class="cls-3" points="732.2 342 730 344.8 733.1 346.9 733.3 343.7 732.2 342"/>
          <polygon class="cls-3" points="701.6 359.6 699.6 360.7 700.7 362.2 702.1 361 701.6 359.6"/>
          <polygon class="cls-3" points="690.8 369.1 689.9 367.6 688.8 368.1 690 369.7 690.8 369.1"/>
          <polygon class="cls-3" points="831.6 342.5 829.4 341.3 828.5 343.1 830.4 343.8 831.6 342.5"/>
          <polygon class="cls-3" points="818.6 353.6 815.9 352.1 814.8 354.4 817.2 355.2 818.6 353.6"/>
          <polygon class="cls-3" points="828.8 347.3 826.8 348.4 827.8 349.9 829.2 348.8 828.8 347.3"/>
          <polygon class="cls-3" points="823 356 820.9 357.1 821.9 358.6 823.3 357.5 823 356"/>
          <polygon class="cls-3" points="809.6 371.7 809.2 370.2 807.9 370.1 807.7 372 809.6 371.7"/>
          <polygon class="cls-3" points="831.2 360.2 829.5 360.6 829.6 361.8 831.5 361.1 831.2 360.2"/>
          <polygon class="cls-3" points="808.8 351.6 807.1 352 807.2 353.2 809.1 352.5 808.8 351.6"/>
          <polygon class="cls-3" points="820.9 345.6 818.9 342.7 816 345.1 819 346.2 820.9 345.6"/>
          <polygon class="cls-3" points="818.2 361 816.4 362.8 818 364.1 819.1 362.4 818.2 361"/>
          <polygon class="cls-3" points="830 368.7 827.3 367 826.1 369.3 828.5 370.2 830 368.7"/>
          <polygon class="cls-3" points="823.7 375.3 824.6 372.3 822.1 371.8 821.8 374.3 823.7 375.3"/>
          <polygon class="cls-3" points="819.8 370.1 819.2 367.9 817.5 368.4 818.2 370.1 819.8 370.1"/>
          <polygon class="cls-3" points="800.6 358.9 802.3 358.4 802.2 357.3 800.3 358 800.6 358.9"/>
          <polygon class="cls-3" points="686.5 343.1 688.6 340.2 685.4 338.2 685.3 341.5 686.5 343.1"/>
          <polygon class="cls-3" points="808.9 343.3 809.6 346.8 806.7 347.1 806.7 344.3 808.9 343.3"/>
          <polygon class="cls-3" points="801.1 348.6 799.9 349.3 799.4 348.3 800.5 347.9 801.1 348.6"/>
          <polygon class="cls-3" points="800.2 341.3 797.5 342.8 796.4 340.5 798.8 339.7 800.2 341.3"/>
          <polygon class="cls-3" points="795.1 353 796 356 793.5 356.5 793.3 354 795.1 353"/>
          <polygon class="cls-3" points="792 347.7 790 346.6 790.9 345.1 792.4 346.2 792 347.7"/>
          <polygon class="cls-3" points="780.7 347.5 781.3 350 779.2 350.3 779.1 348.3 780.7 347.5"/>
          <polygon class="cls-3" points="774.3 347.1 775 350.2 772.5 350.6 772.4 348 774.3 347.1"/>
          <polygon class="cls-3" points="785 352.2 788.2 352.2 788 354.8 785.5 354.3 785 352.2"/>
          <polygon class="cls-3" points="759.9 373.1 763.1 373.1 762.9 375.6 760.4 375.1 759.9 373.1"/>
          <polygon class="cls-3" points="778.3 356.8 776.7 358.4 775.4 357.1 776.9 356 778.3 356.8"/>
          <polygon class="cls-3" points="768.3 360 766.7 361.6 765.4 360.3 766.9 359.2 768.3 360"/>
          <polygon class="cls-3" points="787.3 360.8 788.6 361.7 788.4 362.9 786.5 362.5 787.3 360.8"/>
          <polygon class="cls-3" points="749.4 368.4 750.8 369.2 750.5 370.5 748.6 370.1 749.4 368.4"/>
          <polygon class="cls-3" points="745.6 342.1 743.5 341.1 744.5 339.5 746 340.6 745.6 342.1"/>
          <polygon class="cls-3" points="733.4 351.1 734 353.6 731.9 354 731.8 351.9 733.4 351.1"/>
          <polygon class="cls-3" points="740.9 355.2 742.2 356.1 742 357.3 740.1 356.9 740.9 355.2"/>
          <polygon class="cls-3" points="780.8 341 779.9 342.5 778.8 342.2 780 340.5 780.8 341"/>
          <polygon class="cls-3" points="766.6 350.9 765.7 352.4 764.6 352 765.8 350.4 766.6 350.9"/>
          <polygon class="cls-3" points="777.7 364.8 779.9 367.6 776.8 369.8 776.6 366.5 777.7 364.8"/>
          <polygon class="cls-3" points="761.4 344.2 759.2 345.5 758.3 343.6 760.3 342.9 761.4 344.2"/>
          <polygon class="cls-3" points="758.1 349.7 758.9 352.7 756.4 353.2 756.2 350.7 758.1 349.7"/>
          <polygon class="cls-3" points="808.9 360.4 809.7 363.4 807.2 364 807 361.5 808.9 360.4"/>
          <polygon class="cls-3" points="744.9 348.9 748.1 348.9 747.9 351.4 745.4 351 744.9 348.9"/>
          <polygon class="cls-3" points="797.4 362.8 800.6 362.8 800.4 365.4 797.9 364.9 797.4 362.8"/>
          <polygon class="cls-3" points="737.6 361.5 739.8 364.3 736.7 366.4 736.5 363.2 737.6 361.5"/>
          <polygon class="cls-3" points="753.9 359.1 755.8 360.2 754.8 361.8 753.4 360.6 753.9 359.1"/>
          <polygon class="cls-3" points="764.7 368.6 765.6 367.2 766.7 367.6 765.4 369.2 764.7 368.6"/>
          <polygon class="cls-3" points="800.2 373.9 798.1 371 801.3 369 801.4 372.3 800.2 373.9"/>
          <polygon class="cls-3" points="711.4 367.3 709.4 364.4 712.5 362.4 712.6 365.7 711.4 367.3"/>
        </g>
      </g>
      <path id="FRAME-2" data-name="FRAME" class="cls-4" d="M834.9,259.6l-91.2-39.4-0.4-.2-0.4.2-88.1,39.4H654V378.3H835.6V259.6h-0.8Zm-4.8,0H816.9l-53.3-28.5Zm-86.8-37.4,69.9,37.4H675.8ZM723.5,231l-51.6,28.6H659.4ZM833.7,376.4H655.9V261.5h15.2v76.3h1.9V261.5H815v78.2h1.9V261.5h16.8V376.4Z"/>
    </g>
    <g id="GEO" class="cls-7">
      <g id="SOIL-3" data-name="SOIL">
        <path class="cls-2" d="M101.9,322.5s-0.7-1.5,7.4,0a82.1,82.1,0,0,0,15.5,1.2s23.4,2.7,30.7,1,21.6,0,29.7,1,32.2,0.7,38.1-.5,20.2-3.2,22.6-1.7,14.8-1.2,14.8-1.2l-32.5,61.5H134.6Z"/>
        <g>
          <polygon class="cls-3" points="159.1 377.8 162.3 379.5 163.5 376.8 160.7 375.9 159.1 377.8"/>
          <polygon class="cls-3" points="181.3 378.7 183.2 376.9 181.6 375.5 180.4 377.2 181.3 378.7"/>
          <polygon class="cls-3" points="171.3 380 173.7 377.8 171.8 376.1 170.2 378.1 171.3 380"/>
          <polygon class="cls-3" points="187.6 377.2 190.2 378.9 191.5 376.7 189.2 375.7 187.6 377.2"/>
          <polygon class="cls-3" points="114.5 336.9 116.6 335.9 115.6 334.3 114.1 335.4 114.5 336.9"/>
          <polygon class="cls-3" points="121.1 338 120.6 340.5 122.6 340.8 122.7 338.7 121.1 338"/>
          <polygon class="cls-3" points="127.6 337.5 126.9 340.6 129.4 341 129.5 338.5 127.6 337.5"/>
          <polygon class="cls-3" points="134.4 364.9 131.2 364.9 131.4 367.5 133.9 367 134.4 364.9"/>
          <polygon class="cls-3" points="144.1 366.6 140.9 366.6 141.1 369.1 143.6 368.7 144.1 366.6"/>
          <polygon class="cls-3" points="123.6 347.3 125.2 349 126.5 347.6 125 346.5 123.6 347.3"/>
          <polygon class="cls-3" points="133.7 350.6 135.3 352.3 136.6 350.9 135.1 349.8 133.7 350.6"/>
          <polygon class="cls-3" points="203.3 373.3 203.7 374.9 205 375.1 205.2 373.1 203.3 373.3"/>
          <polygon class="cls-3" points="152.8 359.1 151.5 360 151.7 361.3 153.6 360.8 152.8 359.1"/>
          <polygon class="cls-3" points="156.7 332.5 158.8 331.4 157.8 329.8 156.3 331 156.7 332.5"/>
          <polygon class="cls-3" points="168.2 332.3 167.6 334.8 169.7 335.1 169.8 333.1 168.2 332.3"/>
          <polygon class="cls-3" points="170.6 341.7 172.2 343.3 173.5 342 172 340.9 170.6 341.7"/>
          <polygon class="cls-3" points="161.5 345.7 160.1 346.6 160.4 347.9 162.3 347.5 161.5 345.7"/>
          <polygon class="cls-3" points="121.1 329 122 330.5 123.1 330.1 121.9 328.4 121.1 329"/>
          <polygon class="cls-3" points="135.4 341.4 136.3 342.9 137.4 342.5 136.2 340.8 135.4 341.4"/>
          <polygon class="cls-3" points="173.6 349.4 174.5 351 175.6 350.6 174.4 348.9 173.6 349.4"/>
          <polygon class="cls-3" points="126.6 355.3 124.4 358.1 127.5 360.2 127.8 356.9 126.6 355.3"/>
          <polygon class="cls-3" points="140.7 334.6 142.9 335.9 143.8 334 141.8 333.3 140.7 334.6"/>
          <polygon class="cls-3" points="146.3 374.1 148.6 375.3 149.5 373.4 147.5 372.7 146.3 374.1"/>
          <polygon class="cls-3" points="131.8 329.6 134.6 331.1 135.7 328.8 133.3 328 131.8 329.6"/>
          <polygon class="cls-3" points="144.1 340.1 143.2 343.2 145.7 343.7 146 341.2 144.1 340.1"/>
          <polygon class="cls-3" points="151.4 365.8 150.6 368.9 153.1 369.4 153.3 366.9 151.4 365.8"/>
          <polygon class="cls-3" points="157.4 339.4 154.2 339.4 154.4 341.9 156.9 341.5 157.4 339.4"/>
          <polygon class="cls-3" points="166.1 367.5 162.9 367.5 163.1 370 165.6 369.6 166.1 367.5"/>
          <polygon class="cls-3" points="164.8 352.1 162.6 354.9 165.7 357.1 166 353.8 164.8 352.1"/>
          <polygon class="cls-3" points="179.3 331.9 177.1 334.7 180.2 336.9 180.4 333.6 179.3 331.9"/>
          <polygon class="cls-3" points="148.3 349.7 146.3 350.8 147.4 352.4 148.8 351.2 148.3 349.7"/>
          <polygon class="cls-3" points="137.4 359.4 136.4 357.9 135.3 358.3 136.6 360 137.4 359.4"/>
          <polygon class="cls-3" points="113.3 330.3 115.4 327.3 112.1 325.3 112.1 328.6 113.3 330.3"/>
          <polygon class="cls-3" points="255.1 327.5 255.8 331 252.9 331.3 252.9 328.4 255.1 327.5"/>
          <polygon class="cls-3" points="249.6 337.5 247.3 338.8 246.4 336.9 248.4 336.2 249.6 337.5"/>
          <polygon class="cls-3" points="248.3 331.2 245.5 332.7 244.4 330.4 246.8 329.6 248.3 331.2"/>
          <polygon class="cls-3" points="246.2 343 247 346.1 244.5 346.6 244.3 344.1 246.2 343"/>
          <polygon class="cls-3" points="239.9 337.7 237.8 336.6 238.8 335 240.3 336.2 239.9 337.7"/>
          <polygon class="cls-3" points="228.5 337.5 229.1 340 227 340.3 226.9 338.2 228.5 337.5"/>
          <polygon class="cls-3" points="222 337.1 222.7 340.2 220.2 340.6 220.1 338 222 337.1"/>
          <polygon class="cls-3" points="232.9 342.3 236 342.3 235.9 344.8 233.3 344.4 232.9 342.3"/>
          <polygon class="cls-3" points="207.4 363.4 210.6 363.4 210.4 365.9 207.9 365.5 207.4 363.4"/>
          <polygon class="cls-3" points="226 346.9 224.4 348.5 223.1 347.2 224.6 346.1 226 346.9"/>
          <polygon class="cls-3" points="215.9 350.1 214.3 351.8 213 350.4 214.5 349.3 215.9 350.1"/>
          <polygon class="cls-3" points="235.1 350.9 236.5 351.8 236.2 353.1 234.3 352.7 235.1 350.9"/>
          <polygon class="cls-3" points="196.8 358.6 198.1 359.5 197.9 360.8 196 360.4 196.8 358.6"/>
          <polygon class="cls-3" points="192.9 332 190.8 330.9 191.8 329.3 193.3 330.5 192.9 332"/>
          <polygon class="cls-3" points="180.5 341.2 181.1 343.7 179 344 179 341.9 180.5 341.2"/>
          <polygon class="cls-3" points="139.1 374.8 139.7 377.3 137.6 377.7 137.5 375.6 139.1 374.8"/>
          <polygon class="cls-3" points="188.1 345.3 189.5 346.1 189.2 347.4 187.3 347 188.1 345.3"/>
          <polygon class="cls-3" points="228.5 328.5 227.6 330 226.5 329.6 227.7 327.9 228.5 328.5"/>
          <polygon class="cls-3" points="214.2 340.9 213.3 342.4 212.2 342 213.4 340.4 214.2 340.9"/>
          <polygon class="cls-3" points="225.4 355 227.6 357.8 224.5 360 224.3 356.7 225.4 355"/>
          <polygon class="cls-3" points="209 334.2 206.7 335.4 205.8 333.5 207.8 332.8 209 334.2"/>
          <polygon class="cls-3" points="205.5 339.7 206.4 342.7 203.9 343.2 203.6 340.7 205.5 339.7"/>
          <polygon class="cls-3" points="198.2 365.4 199 368.4 196.5 368.9 196.3 366.4 198.2 365.4"/>
          <polygon class="cls-3" points="192.2 338.9 195.4 338.9 195.2 341.4 192.7 341 192.2 338.9"/>
          <polygon class="cls-3" points="233 370.8 231.5 368.6 229.8 369.9 231.3 371.4 233 370.8"/>
          <polygon class="cls-3" points="229.3 363.1 227 363.1 227.1 365 228.9 364.6 229.3 363.1"/>
          <polygon class="cls-3" points="224.4 378.9 224 375.3 220.2 376.1 222.5 378.5 224.4 378.9"/>
          <polygon class="cls-3" points="199 380 201.2 379.2 201.7 381 199.8 381.3 199 380"/>
          <polygon class="cls-3" points="222.8 370.6 220.6 369.3 221.8 367.6 223.4 368.9 222.8 370.6"/>
          <polygon class="cls-3" points="214.6 373.3 213 373.7 212.3 372.6 213.9 371.5 214.6 373.3"/>
          <polygon class="cls-3" points="216.4 380.7 214.2 383 212.5 381.1 214.5 379.6 216.4 380.7"/>
          <polygon class="cls-3" points="183.5 367 186.7 367 186.6 369.5 184 369.1 183.5 367"/>
          <polygon class="cls-3" points="184.8 351.7 187 354.5 183.9 356.6 183.6 353.3 184.8 351.7"/>
          <polygon class="cls-3" points="201.3 349.2 203.3 350.4 202.2 351.9 200.8 350.7 201.3 349.2"/>
          <polygon class="cls-3" points="212.2 358.9 213.2 357.4 214.3 357.9 213 359.5 212.2 358.9"/>
          <polygon class="cls-3" points="216.6 332.5 214.5 329.6 217.7 327.6 217.8 330.9 216.6 332.5"/>
          <polygon class="cls-3" points="175.3 366.1 173.2 363.1 176.5 361.1 176.5 364.4 175.3 366.1"/>
        </g>
      </g>
      <g id="FRAME-3" data-name="FRAME">
        <path class="cls-4" d="M229,384.8H133.7L89.8,302.3l43.9-82.4,47.5-6.4h0.1l47.8,6.3,0.2,0.4,43.6,82Zm-94.2-1.9h93l42.9-80.6-42.9-80.7-46.6-6.2-46.3,6.2L92,302.3Z"/>
        <polygon class="cls-4" points="134.6 384.8 133.9 383 179.8 365.9 271.3 301.5 272.4 303.1 180.7 367.6 180.6 367.7 134.6 384.8"/>
        <polygon class="cls-4" points="228.1 384.8 179.8 367.6 90.3 303.1 91.5 301.5 180.7 365.9 228.8 382.9 228.1 384.8"/>
        <polygon class="cls-4" points="182.1 254 181.5 253.6 133.8 221.6 134.8 220 182.1 251.6 227.9 220 229 221.5 182.1 254"/>
        <polygon class="cls-4" points="91.3 303.3 91.1 301.4 117.4 298.9 181.5 252 182.7 253.6 118.1 300.8 91.3 303.3"/>
        <polygon class="cls-4" points="120 323.9 116.8 299.8 116.8 299.7 134.1 221.1 135.9 221.5 118.8 299.9 121.9 323.6 120 323.9"/>
        <g>
          <polygon class="cls-4" points="271.1 303.3 245.8 300.8 181.3 253.6 182.4 252 246.5 298.9 271.3 301.4 271.1 303.3"/>
          <polygon class="cls-4" points="243.9 322.4 242 322.1 245.2 299.9 227.3 221.5 229.1 221.1 247.1 299.8 243.9 322.4"/>
        </g>
      </g>
    </g>
    <g id="BOWL" class="cls-7">
      <g id="SOIL-4" data-name="SOIL">
        <path class="cls-2" d="M251.5,595.2a34.7,34.7,0,0,1,7.6-1.4c3,0,13.5,2.2,18.7,1.1s19.7-1.6,27.3-.5,18.4,2.4,22.2,2.2,8.1-1.1,12.7-1.4,13.8,1.6,17.6,1.1,17-3.8,26.5-1.9,15.7,0.3,15.7.3-15.1,40.5-70,43S254,602.5,251.5,595.2Z"/>
        <g>
          <polygon class="cls-3" points="258.6 597.1 258.1 600.1 260.5 600.4 260.5 598 258.6 597.1"/>
          <polygon class="cls-3" points="263.3 605.6 265.2 606.7 265.9 605.1 264.3 604.5 263.3 605.6"/>
          <polygon class="cls-3" points="264.4 600.3 266.8 601.6 267.7 599.6 265.6 598.9 264.4 600.3"/>
          <polygon class="cls-3" points="266.2 610.3 265.5 612.8 267.6 613.3 267.8 611.1 266.2 610.3"/>
          <polygon class="cls-3" points="271.4 605.7 273.2 604.8 272.3 603.5 271.1 604.5 271.4 605.7"/>
          <polygon class="cls-3" points="281 605.6 280.6 607.7 282.3 608 282.4 606.2 281 605.6"/>
          <polygon class="cls-3" points="286.5 605.2 285.9 607.8 288 608.2 288.1 606 286.5 605.2"/>
          <polygon class="cls-3" points="277.4 609.6 274.7 609.6 274.8 611.7 277 611.4 277.4 609.6"/>
          <polygon class="cls-3" points="298.7 627.3 296.1 627.3 296.2 629.5 298.3 629.1 298.7 627.3"/>
          <polygon class="cls-3" points="283.1 613.5 284.5 614.9 285.5 613.7 284.3 612.8 283.1 613.5"/>
          <polygon class="cls-3" points="291.6 616.2 293 617.6 294 616.4 292.8 615.5 291.6 616.2"/>
          <polygon class="cls-3" points="275.5 616.9 274.3 617.6 274.5 618.7 276.1 618.4 275.5 616.9"/>
          <polygon class="cls-3" points="307.7 623.3 306.5 624.1 306.7 625.2 308.4 624.8 307.7 623.3"/>
          <polygon class="cls-3" points="311 601 312.7 600.1 311.9 598.7 310.6 599.7 311 601"/>
          <polygon class="cls-3" points="320.6 600.8 320.1 602.9 321.8 603.2 321.9 601.5 320.6 600.8"/>
          <polygon class="cls-3" points="322.7 608.7 324 610.1 325.1 608.9 323.8 608 322.7 608.7"/>
          <polygon class="cls-3" points="315 612.1 313.8 612.9 314 613.9 315.7 613.6 315 612.1"/>
          <polygon class="cls-3" points="281 598 281.7 599.3 282.7 599 281.7 597.6 281 598"/>
          <polygon class="cls-3" points="293.1 608.5 293.8 609.8 294.8 609.4 293.7 608 293.1 608.5"/>
          <polygon class="cls-3" points="325.1 615.2 325.9 616.5 326.8 616.2 325.8 614.8 325.1 615.2"/>
          <polygon class="cls-3" points="283.6 620.3 281.7 622.7 284.4 624.5 284.6 621.7 283.6 620.3"/>
          <polygon class="cls-3" points="297.4 602.8 299.4 603.8 300.1 602.2 298.4 601.7 297.4 602.8"/>
          <polygon class="cls-3" points="298.6 597.5 300.9 598.7 301.8 596.8 299.8 596.1 298.6 597.5"/>
          <polygon class="cls-3" points="300.3 607.4 299.6 610 301.7 610.4 301.9 608.3 300.3 607.4"/>
          <polygon class="cls-3" points="306.5 629 305.8 631.6 307.9 632 308.1 629.9 306.5 629"/>
          <polygon class="cls-3" points="311.5 606.8 308.9 606.8 309 608.9 311.1 608.5 311.5 606.8"/>
          <polygon class="cls-3" points="318.8 630.4 316.1 630.4 316.3 632.5 318.4 632.1 318.8 630.4"/>
          <polygon class="cls-3" points="317.8 617.5 315.9 619.9 318.5 621.7 318.7 618.9 317.8 617.5"/>
          <polygon class="cls-3" points="330 600.5 328.1 602.9 330.7 604.7 330.9 601.9 330 600.5"/>
          <polygon class="cls-3" points="303.9 615.4 302.2 616.4 303.1 617.7 304.3 616.7 303.9 615.4"/>
          <polygon class="cls-3" points="294.7 623.6 293.9 622.3 293 622.7 294.1 624.1 294.7 623.6"/>
          <polygon class="cls-3" points="291.1 601.4 292.8 599 290.1 597.3 290 600 291.1 601.4"/>
          <polygon class="cls-3" points="393.7 596.7 394.2 599.7 391.8 600 391.8 597.6 393.7 596.7"/>
          <polygon class="cls-3" points="389 605.2 387.1 606.3 386.4 604.7 388.1 604.1 389 605.2"/>
          <polygon class="cls-3" points="387.9 599.9 385.6 601.2 384.7 599.2 386.7 598.5 387.9 599.9"/>
          <polygon class="cls-3" points="386.2 609.9 386.9 612.4 384.8 612.9 384.6 610.7 386.2 609.9"/>
          <polygon class="cls-3" points="380.9 605.3 379.2 604.4 380 603.1 381.2 604.1 380.9 605.3"/>
          <polygon class="cls-3" points="371.3 605.2 371.8 607.3 370 607.6 369.9 605.8 371.3 605.2"/>
          <polygon class="cls-3" points="365.9 604.8 366.5 607.4 364.3 607.8 364.2 605.6 365.9 604.8"/>
          <polygon class="cls-3" points="375 609.2 377.6 609.2 377.5 611.3 375.4 611 375 609.2"/>
          <polygon class="cls-3" points="353.6 626.9 356.3 626.9 356.1 629.1 354 628.7 353.6 626.9"/>
          <polygon class="cls-3" points="369.2 613.1 367.9 614.5 366.8 613.3 368.1 612.4 369.2 613.1"/>
          <polygon class="cls-3" points="360.7 615.8 359.3 617.2 358.3 616 359.6 615.1 360.7 615.8"/>
          <polygon class="cls-3" points="376.9 616.5 378 617.2 377.8 618.3 376.2 618 376.9 616.5"/>
          <polygon class="cls-3" points="344.6 622.9 345.8 623.7 345.6 624.8 344 624.4 344.6 622.9"/>
          <polygon class="cls-3" points="341.4 600.6 339.6 599.7 340.5 598.3 341.7 599.3 341.4 600.6"/>
          <polygon class="cls-3" points="331 608.3 331.5 610.4 329.7 610.7 329.7 608.9 331 608.3"/>
          <polygon class="cls-3" points="337.3 611.7 338.5 612.5 338.3 613.5 336.7 613.2 337.3 611.7"/>
          <polygon class="cls-3" points="371.3 597.6 370.6 598.9 369.6 598.6 370.7 597.2 371.3 597.6"/>
          <polygon class="cls-3" points="359.3 608.1 358.5 609.4 357.6 609 358.6 607.6 359.3 608.1"/>
          <polygon class="cls-3" points="368.7 619.9 370.6 622.3 368 624.1 367.8 621.3 368.7 619.9"/>
          <polygon class="cls-3" points="354.9 602.4 353 603.4 352.2 601.8 353.9 601.3 354.9 602.4"/>
          <polygon class="cls-3" points="352 607 352.7 609.6 350.6 610 350.4 607.9 352 607"/>
          <polygon class="cls-3" points="345.8 628.6 346.5 631.2 344.4 631.6 344.2 629.5 345.8 628.6"/>
          <polygon class="cls-3" points="340.8 606.4 343.5 606.4 343.3 608.5 341.2 608.1 340.8 606.4"/>
          <polygon class="cls-3" points="333.5 630 336.2 630 336 632.1 333.9 631.7 333.5 630"/>
          <polygon class="cls-3" points="334.5 617.1 336.4 619.5 333.8 621.3 333.6 618.5 334.5 617.1"/>
          <polygon class="cls-3" points="348.4 615 350.1 616 349.2 617.3 348 616.3 348.4 615"/>
          <polygon class="cls-3" points="357.6 623.2 358.4 621.9 359.4 622.3 358.3 623.7 357.6 623.2"/>
          <polygon class="cls-3" points="361.3 601 359.5 598.6 362.2 596.9 362.3 599.6 361.3 601"/>
          <polygon class="cls-3" points="326.6 629.2 324.8 626.8 327.6 625 327.6 627.8 326.6 629.2"/>
        </g>
      </g>
      <g id="FRAME-4" data-name="FRAME">
        <path class="cls-4" d="M325.5,638.9c-43.7,0-79.3-29.2-79.3-65.1a87.2,87.2,0,0,1,19.6-54c10.3-12.4,29-27.2,59.6-27.2,26.5,0,47.9,9.4,61.9,27.2,11.1,14.1,17.5,33.8,17.5,54C404.7,609.7,369.2,638.9,325.5,638.9Zm-0.1-144.2c-29.9,0-48.1,14.4-58.1,26.4a85.1,85.1,0,0,0-19.1,52.7c0,34.8,34.6,63,77.2,63s77.2-28.3,77.2-63c0-19.7-6.2-38.9-17.1-52.7a65.7,65.7,0,0,0-23.8-19C351.3,497.2,339.1,494.7,325.4,494.7Z"/>
        <path class="cls-4" d="M327.1,523c-23.7,0-42.3-6.4-42.3-14.6s19.1-15.6,41.8-15.6,42.8,7.1,42.8,15.6S350.8,523,327.1,523Zm-0.5-28.1c-10.7,0-20.9,1.6-28.6,4.4s-11.2,6-11.2,9.1c0,6.1,16.2,12.5,40.3,12.5s40.3-6.5,40.3-12.5c0-3.1-4.4-6.5-11.7-9.1S337.2,494.8,326.6,494.8Z"/>
        <g>
          <rect class="cls-4" x="287.3" y="501.3" width="1" height="0.51" transform="translate(-279.8 612.3) rotate(-71.2)"/>
          <path class="cls-4" d="M288.9,499.3l-0.5-.2,0.7-1.9,0.5,0.2Zm1.3-3.9-0.5-.2,0.7-1.9,0.5,0.2Zm1.3-3.9-0.5-.2,0.7-1.9,0.5,0.2Zm1.3-3.9-0.5-.2,0.7-1.9,0.5,0.2Zm1.3-3.9-0.5-.2,0.7-1.9,0.5,0.2Zm1.3-3.9-0.5-.2,0.7-1.9,0.5,0.2Zm1.3-3.9-0.5-.2,0.7-1.9,0.5,0.2Zm1.3-3.9-0.5-.2,0.7-1.9,0.5,0.2Zm1.3-3.9-0.5-.2,0.7-1.9,0.5,0.2Zm1.3-3.9-0.5-.2,0.7-1.9,0.5,0.2Zm1.3-3.9-0.5-.2,0.7-1.9,0.5,0.2Zm1.3-3.9-0.5-.2,0.7-1.9,0.5,0.2Zm1.3-3.9-0.5-.2,0.7-1.9,0.5,0.2Zm1.3-3.9-0.5-.2,0.7-1.9,0.5,0.2Zm1.3-3.9-0.5-.2,0.7-1.9,0.5,0.2Zm1.3-3.9-0.5-.2,0.7-1.9,0.5,0.2Zm1.3-3.9-0.5-.2,0.7-1.9,0.5,0.2Zm1.3-3.9-0.5-.2,0.7-1.9,0.5,0.2Zm1.3-3.9-0.5-.2,0.7-1.9,0.5,0.2Zm1.3-3.9-0.5-.2,0.7-1.9,0.5,0.2Zm1.3-3.9-0.5-.2,0.7-1.9,0.5,0.2Zm1.3-3.9L316,418l0.7-1.9,0.5,0.2Zm1.3-3.9-0.5-.2,0.7-1.9,0.5,0.2Zm1.3-3.9-0.5-.2,0.7-1.9,0.5,0.2Zm1.3-3.9-0.5-.2,0.7-1.9,0.5,0.2Zm1.3-3.9-0.5-.2,0.7-1.9,0.5,0.2Zm1.3-3.9-0.5-.2,0.7-1.9,0.5,0.2Zm1.3-3.9-0.5-.2,0.7-1.9,0.5,0.2Zm1.3-3.9-0.5-.2,0.7-1.9,0.5,0.2Z"/>
          <polygon class="cls-4" points="327 387.3 326.5 387.1 327.1 385.5 327.7 387.1 327.2 387.3 327.1 387 327 387.3"/>
          <path class="cls-4" d="M366.5,501.3l-0.7-1.9,0.5-.2,0.7,1.9Zm-1.3-3.8-0.7-1.9,0.5-.2,0.7,1.9Zm-1.3-3.8-0.7-1.9,0.5-.2,0.7,1.9Zm-1.3-3.8-0.7-1.9,0.5-.2,0.7,1.9Zm-1.3-3.8-0.7-1.9,0.5-.2,0.7,1.9Zm-1.3-3.8-0.7-1.9,0.5-.2,0.7,1.9Zm-1.3-3.8-0.7-1.9,0.5-.2,0.7,1.9Zm-1.3-3.8-0.7-1.9,0.5-.2,0.7,1.9Zm-1.3-3.8-0.7-1.9,0.5-.2,0.7,1.9Zm-1.3-3.8-0.7-1.9,0.5-.2,0.7,1.9Zm-1.3-3.8-0.7-1.9,0.5-.2,0.7,1.9Zm-1.3-3.8-0.7-1.9,0.5-.2,0.7,1.9Zm-1.3-3.8-0.7-1.9,0.5-.2,0.7,1.9Zm-1.3-3.8-0.7-1.9,0.5-.2,0.7,1.9Zm-1.3-3.8-0.7-1.9,0.5-.2,0.7,1.9Zm-1.3-3.8-0.7-1.9,0.5-.2,0.7,1.9Zm-1.3-3.8-0.7-1.9,0.5-.2,0.7,1.9Zm-1.3-3.8-0.7-1.9,0.5-.2,0.7,1.9Zm-1.3-3.8-0.7-1.9,0.5-.2,0.7,1.9Zm-1.3-3.8-0.7-1.9,0.5-.2,0.7,1.9Zm-1.3-3.8-0.7-1.9,0.5-.2,0.7,1.9Zm-1.3-3.8-0.7-1.9,0.5-.2,0.7,1.9Zm-1.3-3.8-0.7-1.9,0.5-.2,0.7,1.9Zm-1.3-3.8-0.7-1.9,0.5-.2,0.7,1.9Zm-1.3-3.8-0.7-1.9,0.5-.2,0.7,1.9Zm-1.3-3.8-0.7-1.9,0.5-.2,0.7,1.9Zm-1.3-3.8-0.7-1.9,0.5-.2,0.7,1.9Zm-1.3-3.8-0.7-1.9,0.5-.2,0.7,1.9Zm-1.3-3.8-0.7-1.9,0.5-.2,0.7,1.9Zm-1.3-3.8-0.7-1.9,0.5-.2,0.7,1.9Z"/>
          <rect class="cls-4" x="367.3" y="503.1" width="0.5" height="1.02" transform="translate(-144.1 147.3) rotate(-19)"/>
        </g>
        <path class="cls-4" d="M327.1,386.8a5.3,5.3,0,1,1,5.3-5.3A5.3,5.3,0,0,1,327.1,386.8Zm0-9.5a4.3,4.3,0,1,0,4.3,4.3A4.3,4.3,0,0,0,327.1,377.2Z"/>
      </g>
    </g>
    <g id="DOME" class="cls-7">
      <g id="SOIL-5" data-name="SOIL">
        <path class="cls-2" d="M531.1,585.9s2.2-2.1,16.6,0,16.9,2.7,22.4,2.1,14.9-.9,21,0c17.2,2.5,13,0,28.9,0s20.8,2.8,27.8,2.2,10-1.9,14.8-1.9,12.1,0.9,14.6,0l0.5,31.8S653,630.2,605.5,630s-74.4-9.8-74.4-9.8V585.9Z"/>
        <g>
          <polygon class="cls-3" points="538.2 600 537.5 603.1 540 603.5 540.1 600.9 538.2 600"/>
          <polygon class="cls-3" points="534.2 609.8 535.8 611.5 537 610.1 535.5 609 534.2 609.8"/>
          <polygon class="cls-3" points="544.3 613 545.9 614.7 547.2 613.3 545.7 612.2 544.3 613"/>
          <polygon class="cls-3" points="563.4 621.5 562 622.4 562.3 623.7 564.2 623.3 563.4 621.5"/>
          <polygon class="cls-3" points="567.3 594.9 569.4 593.8 568.4 592.2 566.9 593.4 567.3 594.9"/>
          <polygon class="cls-3" points="578.7 594.7 578.1 597.3 580.2 597.6 580.3 595.5 578.7 594.7"/>
          <polygon class="cls-3" points="581.2 604.1 582.8 605.8 584.1 604.4 582.6 603.3 581.2 604.1"/>
          <polygon class="cls-3" points="572.1 608.2 570.7 609.1 571 610.3 572.9 609.9 572.1 608.2"/>
          <polygon class="cls-3" points="546 603.8 546.9 605.4 548 605 546.8 603.3 546 603.8"/>
          <polygon class="cls-3" points="584.1 611.9 585 613.4 586.1 613 584.9 611.3 584.1 611.9"/>
          <polygon class="cls-3" points="551.2 597.1 553.5 598.3 554.4 596.4 552.4 595.7 551.2 597.1"/>
          <polygon class="cls-3" points="552.5 590.7 555.3 592.3 556.4 589.9 554 589.1 552.5 590.7"/>
          <polygon class="cls-3" points="554.6 602.6 553.8 605.6 556.3 606.2 556.5 603.6 554.6 602.6"/>
          <polygon class="cls-3" points="646.4 621.5 645.5 624.6 648.1 625.1 648.3 622.6 646.4 621.5"/>
          <polygon class="cls-3" points="568 601.8 564.8 601.8 564.9 604.4 567.5 603.9 568 601.8"/>
          <polygon class="cls-3" points="590 622.2 586.8 622.2 587 624.7 589.5 624.3 590 622.2"/>
          <polygon class="cls-3" points="577 618.6 575.4 620.6 577.6 622.1 577.8 619.8 577 618.6"/>
          <polygon class="cls-3" points="589.9 594.4 587.6 597.2 590.8 599.3 591 596 589.9 594.4"/>
          <polygon class="cls-3" points="558.9 612.1 556.9 613.3 558 614.8 559.4 613.6 558.9 612.1"/>
          <polygon class="cls-3" points="548 621.8 547 620.3 545.9 620.8 547.2 622.4 548 621.8"/>
          <polygon class="cls-3" points="622.4 590.2 621.1 592.5 623 593.4 623.7 591.4 622.4 590.2"/>
          <polygon class="cls-3" points="675.5 606.1 672.8 604.6 671.7 606.9 674.1 607.7 675.5 606.1"/>
          <polygon class="cls-3" points="627.2 593 628.3 595.1 629.9 594.1 628.8 592.6 627.2 593"/>
          <polygon class="cls-3" points="540.3 587.5 538.6 587.9 538.7 589.1 540.7 588.4 540.3 587.5"/>
          <polygon class="cls-3" points="667.5 604 665.8 604.5 665.9 605.7 667.8 605 667.5 604"/>
          <polygon class="cls-3" points="675.1 613.5 673.3 615.4 674.9 616.7 676.1 615 675.1 613.5"/>
          <polygon class="cls-3" points="672.4 592 669.7 590.3 668.5 592.6 670.9 593.5 672.4 592"/>
          <polygon class="cls-3" points="659.2 611.5 660.9 611 660.8 609.8 658.9 610.6 659.2 611.5"/>
          <polygon class="cls-3" points="543.6 595.4 545.7 592.5 542.5 590.5 542.4 593.8 543.6 595.4"/>
          <polygon class="cls-3" points="667.6 595.7 668.3 599.2 665.4 599.5 665.4 596.6 667.6 595.7"/>
          <polygon class="cls-3" points="659.7 601 658.5 601.7 658 600.7 659 600.3 659.7 601"/>
          <polygon class="cls-3" points="658.8 593.6 656 595.2 655 592.8 657.4 592 658.8 593.6"/>
          <polygon class="cls-3" points="653.7 605.5 654.5 608.5 652 609.1 651.8 606.5 653.7 605.5"/>
          <polygon class="cls-3" points="650.5 600.1 648.4 599 649.4 597.4 650.9 598.6 650.5 600.1"/>
          <polygon class="cls-3" points="639 599.9 639.6 602.5 637.5 602.8 637.4 600.7 639 599.9"/>
          <polygon class="cls-3" points="632.6 599.5 633.3 602.6 630.8 603 630.6 600.4 632.6 599.5"/>
          <polygon class="cls-3" points="643.4 604.7 646.6 604.7 646.4 607.3 643.9 606.8 643.4 604.7"/>
          <polygon class="cls-3" points="618 625.8 621.2 625.8 621 628.4 618.5 627.9 618 625.8"/>
          <polygon class="cls-3" points="636.6 609.3 635 611 633.7 609.6 635.2 608.5 636.6 609.3"/>
          <polygon class="cls-3" points="626.4 612.6 624.8 614.2 623.6 612.8 625.1 611.7 626.4 612.6"/>
          <polygon class="cls-3" points="645.7 613.4 647.1 614.3 646.8 615.5 644.9 615.1 645.7 613.4"/>
          <polygon class="cls-3" points="607.3 621 608.7 621.9 608.5 623.2 606.5 622.8 607.3 621"/>
          <polygon class="cls-3" points="603.4 594.5 601.4 593.4 602.4 591.8 603.9 592.9 603.4 594.5"/>
          <polygon class="cls-3" points="591.1 603.6 591.7 606.1 589.6 606.5 589.5 604.4 591.1 603.6"/>
          <polygon class="cls-3" points="598.7 607.7 600 608.6 599.8 609.9 597.9 609.5 598.7 607.7"/>
          <polygon class="cls-3" points="639.1 593.4 638.2 594.9 637.1 594.5 638.3 592.8 639.1 593.4"/>
          <polygon class="cls-3" points="624.8 603.4 623.9 604.9 622.7 604.5 623.9 602.8 624.8 603.4"/>
          <polygon class="cls-3" points="636 617.5 638.2 620.3 635.1 622.5 634.8 619.2 636 617.5"/>
          <polygon class="cls-3" points="619.5 596.6 617.2 597.8 616.4 595.9 618.4 595.3 619.5 596.6"/>
          <polygon class="cls-3" points="616.1 602.1 617 605.2 614.4 605.7 614.2 603.1 616.1 602.1"/>
          <polygon class="cls-3" points="667.6 613 668.4 616.1 665.9 616.6 665.7 614 667.6 613"/>
          <polygon class="cls-3" points="602.8 601.3 606 601.3 605.8 603.9 603.3 603.4 602.8 601.3"/>
          <polygon class="cls-3" points="656 615.4 659.2 615.4 659 618 656.5 617.5 656 615.4"/>
          <polygon class="cls-3" points="595.3 614.1 597.6 616.9 594.4 619.1 594.2 615.8 595.3 614.1"/>
          <polygon class="cls-3" points="611.9 611.6 613.9 612.8 612.8 614.4 611.4 613.1 611.9 611.6"/>
          <polygon class="cls-3" points="622.8 621.3 623.7 619.8 624.8 620.3 623.6 621.9 622.8 621.3"/>
          <polygon class="cls-3" points="568.9 620 566.7 617.1 570 615 570.1 618.3 568.9 620"/>
        </g>
      </g>
      <g id="FRAME-5" data-name="FRAME">
        <path class="cls-4" d="M605.5,630.9c-29.7,0-48.4-2.7-58.9-4.9s-15.8-4.9-16-5l-0.5-.3v-0.6c0.1-7,.3-17.7.4-28.1s0.3-21,.4-28.1l0.6-34.6c0.1-3.5,0-7.2-.1-10.8-0.2-9.5-.4-19.4,1.9-28.5,3.6-14.7,13-27.1,27-35.8S588.8,442,604.8,442s32.1,4.5,44.8,12.6,23.2,21.6,26.4,36.6c1.9,8.9,1.7,18.6,1.5,27.9-0.1,3.7-.1,7.5-0.1,11.1l0.6,34.9c0.1,4.8.2,13.3,0.3,21.4s0.2,16.6.3,21.4c0,0.2.1,1,.2,1.8,0.8,8.9.6,10.6-.4,11.2h0c-0.2.1-4,2.6-15,5.1S635.2,630.9,605.5,630.9ZM532,619.6c3.2,1.5,22.3,9.5,73.4,9.5,53.3,0,70-8.6,71.7-9.6s-0.2-7.4-.4-9.5-0.2-1.7-.2-2c-0.1-4.8-.2-13.3-0.3-21.4s-0.2-16.6-.3-21.4l-0.6-34.9c-0.1-3.7,0-7.5.1-11.2,0.2-9.2.4-18.7-1.5-27.5-3.1-14.5-11.9-26.7-25.5-35.4s-28-12.3-43.8-12.3-31.1,4.3-43.5,12-22.6,20.5-26.1,34.7c-2.2,8.9-2,18.6-1.8,28,0.1,3.6.1,7.3,0.1,10.9L532.8,564c-0.1,7-.3,17.7-0.4,28.1S532.2,612.5,532,619.6Zm145.1,0h0Z"/>
        <path class="cls-4" d="M604.7,443.9a8.8,8.8,0,1,1,9.2-8.8A9,9,0,0,1,604.7,443.9Zm0-15.7a6.9,6.9,0,1,0,7.2,6.9A7.1,7.1,0,0,0,604.7,428.2Z"/>
      </g>
    </g>
  </g>
  <text class="cls-8" transform="translate(327.9 336.5)">choose your terrarium</text>
  <text class="cls-9" transform="translate(561.9 129.5)">terrariums on hover:<tspan x="0" y="19.2">opacity up to 100%</tspan><tspan x="0" y="38.4">scale up by 10%</tspan></text>
</svg>
