<svg id="Layer_1" data-name="Layer 1" xmlns="http://www.w3.org/2000/svg" width="920" height="700" viewBox="0 0 920 700">
  <defs>
    <style>
      .cls-1, .cls-5, .cls-92 {
        fill: #424242;
      }

      .cls-2 {
        fill: #dcedc8;
      }

      .cls-3 {
        fill: #fff;
      }

      .cls-14, .cls-4, .cls-87, .cls-89 {
        fill: none;
        stroke-miterlimit: 10;
      }

      .cls-4 {
        stroke: #424242;
        stroke-width: 0.8px;
      }

      .cls-5, .cls-90, .cls-92 {
        font-size: 14px;
      }

      .cls-5, .cls-90 {
        font-family: Georgia;
      }

      .cls-6 {
        fill: #78583d;
      }

      .cls-7 {
        fill: #896a52;
      }

      .cls-8 {
        fill: #05331f;
      }

      .cls-9 {
        fill: #17592d;
      }

      .cls-10 {
        fill: #126b36;
      }

      .cls-11 {
        fill: #1f4f26;
      }

      .cls-12 {
        fill: #106433;
      }

      .cls-13 {
        fill: #a6ce39;
        opacity: 0.6;
      }

      .cls-14 {
        stroke: #1f4f26;
        stroke-linecap: round;
        stroke-width: 2px;
      }

      .cls-15 {
        fill: #a82642;
      }

      .cls-16 {
        fill: #3fadad;
      }

      .cls-17 {
        fill: #25af95;
      }

      .cls-18 {
        fill: #0d8f6e;
      }

      .cls-19 {
        fill: #0f8a92;
      }

      .cls-20 {
        fill: #1ea099;
      }

      .cls-21 {
        fill: #499fb2;
      }

      .cls-22 {
        fill: #218b88;
      }

      .cls-23 {
        fill: #35a48e;
      }

      .cls-24 {
        fill: #3abec2;
      }

      .cls-25 {
        fill: #218c8f;
      }

      .cls-26 {
        fill: #1f9995;
      }

      .cls-27 {
        fill: #a6a8ab;
      }

      .cls-28 {
        fill: #a3846f;
      }

      .cls-29 {
        fill: #ba9983;
      }

      .cls-30 {
        font-size: 16px;
        font-family: Helvetica;
      }

      .cls-30, .cls-88 {
        fill: #d207d8;
      }

      .cls-31 {
        opacity: 0.8;
      }

      .cls-32 {
        fill: #bed075;
      }

      .cls-33 {
        fill: #aeb557;
      }

      .cls-34 {
        fill: #bdc55b;
      }

      .cls-35 {
        fill: #4f8e4f;
      }

      .cls-36 {
        fill: #9bb351;
      }

      .cls-37 {
        fill: #95c168;
      }

      .cls-38 {
        fill: #f17e9a;
      }

      .cls-39 {
        fill: #f7b3c0;
      }

      .cls-40 {
        fill: #f59fb0;
      }

      .cls-41 {
        fill: #7260a4;
      }

      .cls-42 {
        fill: #997bb7;
      }

      .cls-43 {
        fill: #c5dc80;
      }

      .cls-44 {
        fill: #bca0cb;
      }

      .cls-45 {
        fill: #698142;
      }

      .cls-46 {
        fill: #85a057;
      }

      .cls-47 {
        fill: #2b5a2c;
      }

      .cls-48 {
        fill: #419b46;
      }

      .cls-49 {
        fill: #bd539e;
      }

      .cls-50 {
        fill: #9633ff;
      }

      .cls-51 {
        fill: #feba97;
      }

      .cls-52 {
        fill: #475478;
      }

      .cls-53 {
        fill: #282f39;
      }

      .cls-54 {
        fill: #768f0b;
      }

      .cls-55 {
        fill: #352e24;
      }

      .cls-56 {
        fill: #717c05;
      }

      .cls-57 {
        fill: #ffa780;
      }

      .cls-58 {
        fill: #c6c6c6;
      }

      .cls-59 {
        fill: #eaeaea;
      }

      .cls-60 {
        fill: #ff483c;
      }

      .cls-61 {
        fill: #c8a6ee;
      }

      .cls-62 {
        fill: #b98fe2;
      }

      .cls-63 {
        fill: #b995e8;
      }

      .cls-64 {
        fill: #af70d1;
      }

      .cls-65 {
        fill: #cdabf2;
      }

      .cls-66 {
        fill: #965cb7;
      }

      .cls-67 {
        fill: #85a;
      }

      .cls-68 {
        fill: #ac6eca;
      }

      .cls-69 {
        fill: #bf92de;
      }

      .cls-70 {
        fill: #e5b1f6;
      }

      .cls-71 {
        fill: #cca9ee;
      }

      .cls-72 {
        fill: #ae72d2;
      }

      .cls-73 {
        fill: #975db6;
      }

      .cls-74 {
        fill: #cba7f0;
      }

      .cls-75 {
        fill: #d2b5f7;
      }

      .cls-76 {
        fill: #b88ee1;
      }

      .cls-77 {
        fill: #8a55ab;
      }

      .cls-78 {
        fill: #e2b5fb;
      }

      .cls-79 {
        fill: #aa74d8;
      }

      .cls-80 {
        fill: #b78de2;
      }

      .cls-81 {
        fill: #e0b6fb;
      }

      .cls-82 {
        fill: #cba8ed;
      }

      .cls-83 {
        fill: #dbb1f4;
      }

      .cls-84 {
        fill: #b48fdf;
      }

      .cls-85 {
        fill: #7b4a84;
      }

      .cls-86 {
        fill: #895391;
      }

      .cls-87 {
        stroke: #d207d8;
      }

      .cls-89 {
        stroke: #a6a8ab;
      }

      .cls-91 {
        font-weight: 700;
      }

      .cls-92 {
        font-family: FontAwesome;
      }
    </style>
  </defs>
  <title>succulent-garden-instructions</title>
  <rect class="cls-1" x="0.9" width="920" height="700"/>
  <rect class="cls-2" x="11.5" y="10" width="347.4" height="680"/>
  <rect class="cls-3" x="370.8" y="10" width="538.2" height="680.28"/>
  <g>
    <rect class="cls-4" x="753" y="624" width="141.7" height="50.52"/>
    <text class="cls-5" transform="translate(793.4 652.8)">start over</text>
  </g>
  <g id="BOTTLE">
    <g id="SOIL">
      <path class="cls-6" d="M433.4,439.7s8.9-6.2,34.8-4.5,36.6,7.1,46.4,6.2,35.7-.9,35.7-0.9,26.8,6.2,36.6,4.5,25.9-6.2,52.6-6.2,38.3,2.7,57.1,1.8,35.7-5.4,46.4-3.6a35.6,35.6,0,0,0,18.7-1.8s-31.2,111.5-148,127.5S436.1,469.1,433.4,439.7Z"/>
      <g>
        <polygon class="cls-7" points="549.4 550.9 556 554.5 558.5 549 552.8 547.1 549.4 550.9"/>
        <polygon class="cls-7" points="595.4 552.8 599.4 549.1 596.2 546.1 593.6 549.6 595.4 552.8"/>
        <polygon class="cls-7" points="574.8 555.5 579.6 551 575.7 547.4 572.5 551.6 574.8 555.5"/>
        <polygon class="cls-7" points="608.5 549.6 614 553.3 616.7 548.7 611.8 546.6 608.5 549.6"/>
        <polygon class="cls-7" points="446.9 468.7 451.1 466.4 449.1 463.1 446 465.5 446.9 468.7"/>
        <polygon class="cls-7" points="470.6 468.2 469.4 473.5 473.7 474.2 473.9 469.8 470.6 468.2"/>
        <polygon class="cls-7" points="484 467.4 482.5 473.8 487.8 474.6 488 469.3 484 467.4"/>
        <polygon class="cls-7" points="461.5 478.2 454.9 478.2 455.3 483.5 460.5 482.5 461.5 478.2"/>
        <polygon class="cls-7" points="514.3 522 507.7 522 508.1 527.3 513.3 526.3 514.3 522"/>
        <polygon class="cls-7" points="475.7 487.7 479 491.2 481.7 488.3 478.5 486 475.7 487.7"/>
        <polygon class="cls-7" points="496.7 494.5 500.1 498 502.7 495.1 499.6 492.8 496.7 494.5"/>
        <polygon class="cls-7" points="641.1 541.7 641.9 545 644.6 545.3 645.1 541.3 641.1 541.7"/>
        <polygon class="cls-7" points="536.4 512.1 533.5 513.9 534 516.6 538 515.8 536.4 512.1"/>
        <polygon class="cls-7" points="544.5 456.9 548.7 454.6 546.7 451.3 543.6 453.7 544.5 456.9"/>
        <polygon class="cls-7" points="568.2 456.5 567 461.7 571.3 462.4 571.5 458.1 568.2 456.5"/>
        <polygon class="cls-7" points="573.3 476 576.6 479.4 579.3 476.6 576.1 474.3 573.3 476"/>
        <polygon class="cls-7" points="554.4 484.4 551.5 486.2 552 488.9 556.1 488.1 554.4 484.4"/>
        <polygon class="cls-7" points="470.5 449.6 472.3 452.8 474.6 451.9 472.1 448.4 470.5 449.6"/>
        <polygon class="cls-7" points="500.3 475.4 502.1 478.6 504.4 477.7 501.9 474.2 500.3 475.4"/>
        <polygon class="cls-7" points="579.4 492.1 581.2 495.2 583.6 494.4 581.1 490.9 579.4 492.1"/>
        <polygon class="cls-7" points="477 504.7 472.3 510.5 478.8 515 479.3 508.2 477 504.7"/>
        <polygon class="cls-7" points="511.1 461.4 515.8 463.9 517.6 459.9 513.5 458.6 511.1 461.4"/>
        <polygon class="cls-7" points="492.8 450.9 498.6 454 500.8 449.2 495.8 447.5 492.8 450.9"/>
        <polygon class="cls-7" points="518.2 472.8 516.4 479.1 521.6 480.2 522.1 474.9 518.2 472.8"/>
        <polygon class="cls-7" points="533.5 526.1 531.7 532.4 536.9 533.5 537.4 528.2 533.5 526.1"/>
        <polygon class="cls-7" points="545.8 471.2 539.2 471.2 539.6 476.5 544.8 475.5 545.8 471.2"/>
        <polygon class="cls-7" points="563.8 529.5 557.2 529.5 557.6 534.8 562.8 533.8 563.8 529.5"/>
        <polygon class="cls-7" points="561.3 497.7 556.6 503.5 563.1 508 563.6 501.2 561.3 497.7"/>
        <polygon class="cls-7" points="591.3 455.7 586.7 461.5 593.2 466 593.7 459.2 591.3 455.7"/>
        <polygon class="cls-7" points="527 492.5 522.9 495 525.1 498.2 528 495.7 527 492.5"/>
        <polygon class="cls-7" points="504.3 512.7 502.3 509.6 500.1 510.5 502.7 513.9 504.3 512.7"/>
        <polygon class="cls-7" points="454.2 452.3 458.6 446.2 451.9 442 451.7 448.9 454.2 452.3"/>
        <polygon class="cls-7" points="748.7 446.5 750 453.8 744 454.5 744 448.5 748.7 446.5"/>
        <polygon class="cls-7" points="737.2 467.4 732.5 469.9 730.6 466 734.8 464.6 737.2 467.4"/>
        <polygon class="cls-7" points="734.4 454.2 728.6 457.4 726.4 452.5 731.5 450.9 734.4 454.2"/>
        <polygon class="cls-7" points="730.1 478.8 731.9 485.1 726.6 486.2 726.1 481 730.1 478.8"/>
        <polygon class="cls-7" points="717.1 467.7 712.8 465.4 714.9 462.1 717.9 464.5 717.1 467.7"/>
        <polygon class="cls-7" points="693.4 467.3 694.6 472.5 690.3 473.2 690.1 468.8 693.4 467.3"/>
        <polygon class="cls-7" points="680 466.4 681.4 472.8 676.2 473.6 675.9 468.3 680 466.4"/>
        <polygon class="cls-7" points="702.5 477.2 709.1 477.2 708.7 482.5 703.5 481.6 702.5 477.2"/>
        <polygon class="cls-7" points="649.7 521 656.3 521 655.9 526.3 650.7 525.4 649.7 521"/>
        <polygon class="cls-7" points="688.2 486.7 684.9 490.2 682.3 487.3 685.4 485 688.2 486.7"/>
        <polygon class="cls-7" points="667.2 493.5 663.9 497 661.3 494.1 664.4 491.8 667.2 493.5"/>
        <polygon class="cls-7" points="707.2 495.2 710 497 709.5 499.7 705.5 498.8 707.2 495.2"/>
        <polygon class="cls-7" points="627.6 511.1 630.4 512.9 629.9 515.6 625.9 514.8 627.6 511.1"/>
        <polygon class="cls-7" points="619.5 455.9 615.2 453.6 617.3 450.3 620.3 452.7 619.5 455.9"/>
        <polygon class="cls-7" points="593.9 474.9 595.1 480.1 590.8 480.8 590.6 476.5 593.9 474.9"/>
        <polygon class="cls-7" points="609.6 483.4 612.4 485.2 611.9 487.9 607.9 487.1 609.6 483.4"/>
        <polygon class="cls-7" points="693.5 448.6 691.6 451.8 689.3 451 691.8 447.5 693.5 448.6"/>
        <polygon class="cls-7" points="663.7 474.4 661.9 477.6 659.5 476.7 662 473.2 663.7 474.4"/>
        <polygon class="cls-7" points="687 503.7 691.6 509.5 685.1 514 684.6 507.2 687 503.7"/>
        <polygon class="cls-7" points="652.9 460.4 648.1 462.9 646.3 459 650.4 457.6 652.9 460.4"/>
        <polygon class="cls-7" points="645.7 471.8 647.5 478.1 642.3 479.2 641.8 473.9 645.7 471.8"/>
        <polygon class="cls-7" points="630.5 525.1 632.3 531.4 627 532.5 626.5 527.2 630.5 525.1"/>
        <polygon class="cls-7" points="618.1 470.2 624.7 470.2 624.4 475.5 619.1 474.6 618.1 470.2"/>
        <polygon class="cls-7" points="600.1 528.5 606.7 528.5 606.3 533.8 601.1 532.9 600.1 528.5"/>
        <polygon class="cls-7" points="602.6 496.7 607.3 502.5 600.8 507 600.3 500.2 602.6 496.7"/>
        <polygon class="cls-7" points="636.9 491.6 641.1 494 638.9 497.2 635.9 494.7 636.9 491.6"/>
        <polygon class="cls-7" points="659.6 511.7 661.6 508.6 663.9 509.5 661.2 512.9 659.6 511.7"/>
        <polygon class="cls-7" points="668.7 457 664.3 450.9 671 446.7 671.2 453.6 668.7 457"/>
        <polygon class="cls-7" points="583.1 526.6 578.7 520.5 585.4 516.3 585.6 523.2 583.1 526.6"/>
      </g>
    </g>
    <g>
      <g>
        <path class="cls-8" d="M465.5,408.4S448.7,380,436,376.3c0,0-1.6,19.5,16.6,54.9l11,27.1s8.9-27.7,7.3-38.3S465.5,408.4,465.5,408.4Z"/>
        <path class="cls-9" d="M490.1,410s9.1-33.7,29.9-43.1c0,0,1.7,34.2-25.5,88.3C494.4,455.2,488,415.9,490.1,410Z"/>
        <path class="cls-10" d="M488.4,460.7l3.7,0.3s3.3-34,0-60.9-11.7-36.5-11.7-36.5-6.9,4-7.7,31,14.4,66.1,14.4,66.1h1.3Z"/>
        <path class="cls-11" d="M468.3,460.3s-7.2-45.7-3.7-66.6S478,408.1,478,408.1s11.7,49.2,9,52.5C487.1,460.7,476.5,464,468.3,460.3Z"/>
        <path class="cls-12" d="M537,413.2s-45.1,4.9-52.8,48.5c0,0,10.1,1.3,17.8-4.3S535.3,424.2,537,413.2Z"/>
        <path class="cls-12" d="M459.1,460.3s-21.2-24.9-25.4-36.3c0,0-.8-4,0.2-3.8s21.9,3,39.7,41.3C473.5,461.5,465.2,462.5,459.1,460.3Z"/>
        <polygon class="cls-13" points="488.1 461.4 517.9 423.9 492.2 460.9 488.1 461.4"/>
        <polygon class="cls-13" points="495.1 434.6 511.1 384 500.4 427.8 495.1 434.6"/>
        <polygon class="cls-13" points="482.6 389.1 485.6 441.6 480.2 416.5 482.6 389.1"/>
        <polygon class="cls-13" points="471.7 407.3 474.2 461 479.9 461.3 471.7 407.3"/>
        <polygon class="cls-13" points="441.3 392.7 463.8 429.4 464.3 441.2 441.3 392.7"/>
        <polygon class="cls-13" points="436.9 424.9 472 461.3 466.5 461.5 436.9 424.9"/>
      </g>
      <path class="cls-14" d="M474.5,300.7s-23.6,19.6-8,46.8c10.3,21.4,17.4,24.1,9.8,58.9"/>
      <path class="cls-14" d="M484.2,438.9s-3-17.7,4-34.1,17.4-35.5,9-57.2c0,0-5.4-12.7-4-18.4"/>
      <g>
        <path class="cls-15" d="M475.6,300s10.4-2.9,12,4-4.6,7.3-8.3,2.9S475.6,300,475.6,300Z"/>
        <path class="cls-15" d="M477,298.7a12.9,12.9,0,0,0,3.2-4c1.2-2.5,1.2-4.7-1.7-5.8a1.9,1.9,0,0,0-2.8,1.1c-1,1.9-.8,4-0.7,6a29.6,29.6,0,0,1,.5,3.8Z"/>
        <path class="cls-15" d="M477.1,299.2c0-.1,7.5-0.3,8-0.3a2.3,2.3,0,0,0,1-.2c1-.6,1.1-2.6.8-3.6s-4.2-4.7-6.5.3C478.9,298.7,477.1,299.2,477.1,299.2Z"/>
      </g>
      <g>
        <path class="cls-15" d="M493.7,328s-1.4-6.6-5.8-6-2.7,4.9.9,5.8S493.7,328,493.7,328Z"/>
        <path class="cls-15" d="M494,326.7a7.4,7.4,0,0,1,1.8-3.4c1.3-1.7,2.8-2.9,4.6-1.2a1.5,1.5,0,0,1,.3,2.3,8.3,8.3,0,0,1-3.9,2.6,22.9,22.9,0,0,0-2.8,1v-1.4Z"/>
        <path class="cls-15" d="M493.8,327.3s-1.2-3.8-2.6-4.8-0.1-3.7,1.8-3.8,4,1.8,3.6,2.7a8.2,8.2,0,0,1-1.6,2.5A6.4,6.4,0,0,0,493.8,327.3Z"/>
      </g>
    </g>
    <g>
      <path class="cls-16" d="M599.2,461.8s-8.6-1.2-22,3.3l-13.4,4.5s12.8,2.8,24.4-1.6S599.2,461.8,599.2,461.8Z"/>
      <path class="cls-17" d="M528.2,446.6s-5.5-8.2-.8-21.6c0,0,20.7,7.5,19.9,22.6C547.3,447.7,541.3,453.3,528.2,446.6Z"/>
      <path class="cls-18" d="M545.7,410.3s-11,20,1.3,30.8,10.2-10.4,7.6-17.8S545.7,410.3,545.7,410.3Z"/>
      <path class="cls-19" d="M558.8,416.5s15.5,16.5,7.3,27.8c0,0-9.4,1.2-10-8.7A57.6,57.6,0,0,1,558.8,416.5Z"/>
      <path class="cls-20" d="M580.9,414.1s-11.5,10.3-12.8,23.7,9.4,10.4,12.1,7.7,5.8-7,4.7-16.9S580.9,414.1,580.9,414.1Z"/>
      <path class="cls-21" d="M592.9,428.5s-17,12.7-18.1,20.4,9.7,10.1,14.7,4.7S596.3,439.5,592.9,428.5Z"/>
      <path class="cls-22" d="M564.1,463.5A121.9,121.9,0,0,1,601,450.8s-7.9,20.9-37.2,18.8C563.8,469.6,557,466.7,564.1,463.5Z"/>
      <path class="cls-23" d="M569.8,452.2S584.8,442,600,441.6c0,0-3.7,22.3-36.2,28C563.8,469.6,556.5,458.8,569.8,452.2Z"/>
      <path class="cls-24" d="M536.3,434.1s-5.2,8.2-2.4,14.3,14.4,9.4,14.4,9.4,2.1-11.7-5.2-18.6S536.3,434.1,536.3,434.1Z"/>
      <path class="cls-24" d="M578,425.6s-13.9,8-13.9,21.6,10.5,7.1,10.5,7.1S587.4,444.6,578,425.6Z"/>
      <path class="cls-25" d="M513.8,453.3s8.9,12.7,23.6,14.3,8.9-4.4,8.9-4.4S545,451.3,513.8,453.3Z"/>
      <path class="cls-16" d="M523.7,445.4s-0.5,16,13.6,22.1a40.6,40.6,0,0,0,26.5,2.1S552,451.5,523.7,445.4Z"/>
      <path class="cls-26" d="M542.9,426.5s22,11.7,26.5,21.9-5.5,21.2-5.5,21.2-13.4,1-21-17.2A43.3,43.3,0,0,1,542.9,426.5Z"/>
    </g>
    <g id="FRAME">
      <g>
        <path class="cls-27" d="M593.3,566.2c-77.1,0-146.9-53.4-164.3-131.8-9.4-42.2-1.3-86.5,22.2-121.6,19.6-29.3,48.5-51.5,83.6-64.3A193.9,193.9,0,0,1,640.4,241l8.9,2a164.3,164.3,0,0,0,20.2,3.9c46.8,5,87.2-29.7,122.8-60.3l10.9-9.3,2.6,3.1-10.9,9.3c-34.5,29.6-77.3,66.5-125.8,61.3a167.4,167.4,0,0,1-20.7-4l-8.8-2a189.8,189.8,0,0,0-103.4,7.4c-34.3,12.5-62.5,34.3-81.6,62.8-22.9,34.2-30.7,77.4-21.6,118.5C452.6,522,540.6,577.9,629.1,558.2c42.8-9.5,82.2-36.4,108-73.8,19.7-28.5,29.9-62.3,28.6-94.9-0.2-4.4-.5-8.9-0.9-13.3-0.9-10.5-1.8-21.3.1-31.9,5.8-33.6,35.3-55.8,61.4-75.5,5.4-4,10.4-7.9,15.3-11.7l2.6-2.1c3.8-3.1,7.7-6.2,11.7-9.1l2.4,3.2c-3.9,2.9-7.8,6-11.5,9l-2.6,2.1c-4.9,3.9-10,7.8-15.4,11.8-25.5,19.2-54.3,40.9-59.8,73-1.8,10.1-.9,20.7,0,30.9,0.4,4.4.7,9,.9,13.5,1.3,33.5-9.2,68.1-29.4,97.4-26.4,38.2-66.6,65.7-110.4,75.5A168.4,168.4,0,0,1,593.3,566.2Z"/>
        <path class="cls-27" d="M858.1,249l-2.3-3.3c1.6-1.1,2.3-5.3-.5-13.6s-7.8-17.5-14.5-26.8c-15-20.9-29.5-29.9-33.4-27.2l-2.3-3.3c8.1-5.8,26.1,10.2,39,28.1,6.9,9.6,12.2,19.5,15.1,27.8S861.9,246.4,858.1,249Z"/>
        <g id="CORK">
          <g>
            <path class="cls-28" d="M787.5,212.9s-6.3,7.4,10,27.7,23,15.4,23,15.4l44-32.5s-14.3-6-23.4-19.6-8.8-23.6-8.8-23.6Z"/>
            <path class="cls-28" d="M818.2,258.5c-3.9,0-11-2.8-22.3-16.7-16.9-21-10.7-29.3-9.9-30.2l0.2-.2,48.4-35.2v4.1c0,0.1-.1,9.6,8.4,22.4s22.3,18.8,22.5,18.8l3.2,1.4-46.9,34.6A5.8,5.8,0,0,1,818.2,258.5ZM789,214.3c-0.6,1.1-3.5,8.2,10.1,25s20.2,15.1,20.2,15l41.4-30.5c-4.8-2.6-14.4-8.6-21.2-18.8s-8.1-16.7-8.8-21Z"/>
          </g>
          <g>
            <ellipse class="cls-29" cx="850.3" cy="200.4" rx="8.2" ry="26.9" transform="translate(52.9 557.3) rotate(-37.4)"/>
            <path class="cls-29" d="M864.9,224.3c-6,0-15.3-8.2-22.6-17.7a70,70,0,0,1-9.9-17.1c-2.8-7.5-1.3-10.7.5-12.1s5.2-2,11.8,2.7a70,70,0,0,1,13.9,14.1c8.7,11.4,14.8,25.1,9.4,29.2A4.9,4.9,0,0,1,864.9,224.3Zm-28.9-43.9-0.7.2c-0.6.5-.9,2.9,0.8,7.5a65.9,65.9,0,0,0,9.4,16.1c9.8,12.8,18.4,17.3,20,16s-0.4-10.8-10.2-23.6a65.9,65.9,0,0,0-13-13.2C839.1,181.1,837,180.4,835.9,180.4Z"/>
          </g>
        </g>
        <path class="cls-27" d="M854.1,250.3c-3.5,0-8.1-2.1-13.4-6.1-7-5.3-14.6-13.6-21.5-23.2s-12.2-19.5-15.1-27.8-2.8-15.4.9-18.1l2.3,3.3c-1.6,1.1-2.3,5.3.5,13.6s7.8,17.5,14.5,26.8,14,17.2,20.7,22.3,11.1,6,12.7,4.9l2.3,3.3A6.8,6.8,0,0,1,854.1,250.3Z"/>
      </g>
      <path class="cls-27" d="M613,495.3c-44.4,0-83.9-28.4-93.3-70.6-11-49.4,23.3-99.2,76.4-111s105.3,18.7,116.3,68.1h0c11,49.4-23.3,99.2-76.4,111A105.8,105.8,0,0,1,613,495.3Zm6.1-180.2a101.8,101.8,0,0,0-22.1,2.5c-51,11.4-83.9,59-73.4,106.3s60.6,76.4,111.5,65.1,83.9-59,73.4-106.3h0C699.5,342.3,661.7,315.1,619.1,315.1Z"/>
    </g>
  </g>
  <text class="cls-30" transform="translate(400.4 42.5)">on hover:<tspan x="0" y="19.2">• font-weight bold</tspan><tspan x="0" y="57.6">on click:</tspan><tspan x="0" y="76.8">• bring forwards = z-index +1</tspan><tspan x="0" y="96">• send backwards = z-index -1</tspan><tspan x="0" y="115.2">• grow 5% = scale 105%</tspan><tspan x="0" y="134.4">• shrink 5% = scale 95%</tspan></text>
  <circle class="cls-3" cx="104.6" cy="101.5" r="50.7"/>
  <circle class="cls-3" cx="271.6" cy="101.5" r="50.7"/>
  <g class="cls-31">
    <path class="cls-32" d="M311.2,118c-0.3,18.3-18.4,32.9-40.5,32.5s-39.8-15.5-39.5-33.8,18.5-35,40.5-34.7S311.5,99.7,311.2,118Z"/>
    <path class="cls-33" d="M262.7,83c-5.9,2.1-11.6,8.2-15.2,13.1a37.3,37.3,0,0,0-7.3,21.3c-0.4,23.6,19.7,31.6,19.7,31.6a39.6,39.6,0,0,0,9,1.2s-13.9-11.9-13.5-37,16.3-31.2,16.4-31.2a11.9,11.9,0,0,1-2.9,0,22.3,22.3,0,0,0-6.2.9h-0.1Z"/>
    <path class="cls-34" d="M262.7,83s-30,4.7-31.6,33c-1.7,30.2,30.1,34,33.5,34,0,0-22.2-5.1-23.7-32.6C240.9,117.5,239,96.7,262.7,83Z"/>
    <path class="cls-35" d="M264,84.4a2.1,2.1,0,0,0,1.3,1.8l0.5-.3S265.7,84.9,264,84.4Z"/>
    <path class="cls-35" d="M261.8,86.4s0.2,1.9,1.7,2.2l0.6-.4S263.9,87,261.8,86.4Z"/>
    <path class="cls-35" d="M259,89.8s0.6,2,2.4,2l0.6-.6S261.4,90,259,89.8Z"/>
    <path class="cls-35" d="M257.4,92.7s0.9,1.9,2.6,1.8l0.5-.7S259.9,92.6,257.4,92.7Z"/>
    <path class="cls-35" d="M255.4,97.6s1.4,1.6,3,.9l0.3-.8S257.7,96.8,255.4,97.6Z"/>
    <path class="cls-35" d="M253.7,103.6s1.6,1.4,3.1.5l0.2-.8S255.8,102.4,253.7,103.6Z"/>
    <path class="cls-35" d="M252.5,108.4s1.6,1.4,3.1.5l0.2-.8S254.7,107.3,252.5,108.4Z"/>
    <path class="cls-35" d="M252.4,114.5s1.9,0.9,3.1-.3v-0.8S254.2,112.8,252.4,114.5Z"/>
    <path class="cls-35" d="M252.5,119.4s1.9,0.9,3.1-.3v-0.8S254.3,117.8,252.5,119.4Z"/>
    <path class="cls-35" d="M252.9,123.7s1.9,0.9,3.1-.3v-0.8S254.7,122.1,252.9,123.7Z"/>
    <path class="cls-35" d="M253.9,128.5s2.1,0.5,3-.9l-0.2-.8S255.3,126.6,253.9,128.5Z"/>
    <path class="cls-35" d="M254.8,133s2.1,0.5,3-.9l-0.2-.8S256.3,131.1,254.8,133Z"/>
    <path class="cls-35" d="M256.3,136.8s2.1,0.5,3-.9l-0.2-.8S257.7,134.9,256.3,136.8Z"/>
    <path class="cls-35" d="M258.2,140.7s2.1,0.5,3-.9l-0.2-.8S259.6,138.8,258.2,140.7Z"/>
    <path class="cls-35" d="M261.1,145.4s2.1,0.3,2.9-1.2l-0.3-.7S262.3,143.3,261.1,145.4Z"/>
    <path class="cls-35" d="M264.4,148a2.2,2.2,0,0,0,2.1-.9l-0.2-.5S265.3,146.5,264.4,148Z"/>
    <path class="cls-35" d="M241.9,90.8a2.1,2.1,0,0,0,1.7,1.5l0.4-.4S243.7,90.9,241.9,90.8Z"/>
    <path class="cls-35" d="M238.8,94.2a2.2,2.2,0,0,0,1.9,1.3l0.4-.5S240.6,94.2,238.8,94.2Z"/>
    <path class="cls-35" d="M234.7,98.6s0.8,2,2.5,1.9l0.5-.6S237.1,98.6,234.7,98.6Z"/>
    <path class="cls-35" d="M231.9,103.1s1.1,1.8,2.8,1.5l0.4-.7S234.3,102.8,231.9,103.1Z"/>
    <path class="cls-35" d="M229.7,109.1s1.4,1.6,3,1l0.3-.8S232,108.3,229.7,109.1Z"/>
    <path class="cls-35" d="M228.7,113.6s1.3,1.7,2.9,1.1l0.3-.8S231,113,228.7,113.6Z"/>
    <path class="cls-35" d="M228.1,119.5s1.9,0.9,3.1-.3v-0.8S229.9,117.9,228.1,119.5Z"/>
    <path class="cls-35" d="M229,123.6s1.9,0.9,3.1-.3v-0.8S230.8,122,229,123.6Z"/>
    <path class="cls-35" d="M230,128.1s2.1,0.5,3-.9l-0.2-.8S231.4,126.2,230,128.1Z"/>
    <path class="cls-35" d="M231.7,132s2.1,0.5,3-.9l-0.2-.8S233.1,130.1,231.7,132Z"/>
    <path class="cls-35" d="M234.1,135.7s2.1,0.5,3-.9l-0.2-.8S235.5,133.7,234.1,135.7Z"/>
    <path class="cls-35" d="M237,138.8s1.7,0,2.1-1.3l-0.3-.5S237.7,137.1,237,138.8Z"/>
    <path class="cls-35" d="M239.6,141.1a2,2,0,0,0,1.7-1.3l-0.3-.4A2.1,2.1,0,0,0,239.6,141.1Z"/>
    <path class="cls-35" d="M242.4,143.2a2.2,2.2,0,0,0,2.1-.9l-0.2-.5S243.3,141.7,242.4,143.2Z"/>
    <path class="cls-35" d="M256.2,85a2.1,2.1,0,0,0,1.3,1.8l0.5-.3S257.9,85.5,256.2,85Z"/>
    <path class="cls-35" d="M252.6,86.9s0.2,1.9,1.7,2.2l0.6-.4S254.7,87.5,252.6,86.9Z"/>
    <path class="cls-35" d="M249.3,90.1s0.6,2,2.4,2l0.6-.6S251.7,90.3,249.3,90.1Z"/>
    <path class="cls-35" d="M246.1,93.7s0.9,1.9,2.6,1.8l0.5-.7S248.6,93.7,246.1,93.7Z"/>
    <path class="cls-35" d="M243.8,98s1.4,1.6,3,.9l0.3-.8S246.1,97.2,243.8,98Z"/>
    <path class="cls-35" d="M241.5,101.8s1.1,1.8,2.8,1.4l0.4-.7S243.9,101.4,241.5,101.8Z"/>
    <path class="cls-35" d="M239.2,106.6s1.4,1.6,3,1l0.3-.8S241.6,105.8,239.2,106.6Z"/>
    <path class="cls-35" d="M238.4,112.3s1.9,0.9,3.1-.3v-0.8S240.2,110.7,238.4,112.3Z"/>
    <path class="cls-35" d="M238.1,117.3s1.9,0.9,3.1-.3v-0.8S239.9,115.7,238.1,117.3Z"/>
    <path class="cls-35" d="M238.7,122.5s1.6,1.4,3.1.6l0.2-.8S240.8,121.5,238.7,122.5Z"/>
    <path class="cls-35" d="M239.5,127s1.8,1.2,3.1.1v-0.8S241.4,125.7,239.5,127Z"/>
    <path class="cls-35" d="M241.2,131.9s2.1,0.5,3-.9l-0.2-.8S242.6,130,241.2,131.9Z"/>
    <path class="cls-35" d="M242.9,136.1s2.1,0.5,3-.9l-0.2-.8S244.3,134.2,242.9,136.1Z"/>
    <path class="cls-35" d="M245.1,139.5s2,0.8,3.1-.5v-0.8S246.7,137.8,245.1,139.5Z"/>
    <path class="cls-35" d="M247.8,143.3s2.1,0.3,2.9-1.2l-0.3-.7S249,141.2,247.8,143.3Z"/>
    <path class="cls-35" d="M252.8,145.8a2.2,2.2,0,0,0,2.1-.9l-0.2-.5S253.7,144.3,252.8,145.8Z"/>
    <path class="cls-36" d="M280.8,83.3c5.8,2.3,11.3,8.5,14.8,13.6a37.3,37.3,0,0,1,6.6,21.6c-0.4,23.6-20.7,31-20.7,31a39.6,39.6,0,0,1-9,.9s14.2-11.4,14.6-36.6-15.3-31.7-15.4-31.7a11.9,11.9,0,0,0,2.9.1,22.3,22.3,0,0,1,6.2,1.1h0.1Z"/>
    <path class="cls-37" d="M280.8,83.3s29.8,5.6,30.6,34c0.8,30.2-31.2,33-34.6,33,0,0,22.3-4.4,24.7-31.8C301.5,118.4,304,97.7,280.8,83.3Z"/>
    <path class="cls-35" d="M279.4,84.6a2.1,2.1,0,0,1-1.4,1.7l-0.5-.3S277.7,85.1,279.4,84.6Z"/>
    <path class="cls-35" d="M281.6,86.7s-0.2,1.9-1.8,2.2l-0.6-.4S279.5,87.3,281.6,86.7Z"/>
    <path class="cls-35" d="M284.2,90.2s-0.7,2-2.4,2l-0.5-.6S281.8,90.3,284.2,90.2Z"/>
    <path class="cls-35" d="M285.7,93.1s-0.9,1.9-2.6,1.7l-0.5-.7S283.3,93,285.7,93.1Z"/>
    <path class="cls-35" d="M287.6,98.1s-1.5,1.5-3,.8l-0.2-.8S285.3,97.2,287.6,98.1Z"/>
    <path class="cls-35" d="M289.1,104.1s-1.6,1.3-3.1.4v-0.8S287,102.9,289.1,104.1Z"/>
    <path class="cls-35" d="M290.2,109s-1.6,1.3-3.1.4v-0.8S288,107.8,290.2,109Z"/>
    <path class="cls-35" d="M290.1,115s-1.9.8-3.1-.4v-0.8S288.3,113.3,290.1,115Z"/>
    <path class="cls-35" d="M289.8,120s-1.9.8-3.1-.4v-0.8S288.1,118.3,289.8,120Z"/>
    <path class="cls-35" d="M289.3,124.3s-1.9.8-3.1-.4v-0.8S287.6,122.6,289.3,124.3Z"/>
    <path class="cls-35" d="M288.1,129.1s-2.1.4-3-1l0.3-.8S286.8,127.1,288.1,129.1Z"/>
    <path class="cls-35" d="M287.1,133.5s-2.1.4-3-1l0.3-.8S285.7,131.6,287.1,133.5Z"/>
    <path class="cls-35" d="M285.5,137.3s-2.1.4-3-1l0.3-.8S284.1,135.4,285.5,137.3Z"/>
    <path class="cls-35" d="M283.4,141.1s-2.1.4-3-1l0.3-.8S282.1,139.2,283.4,141.1Z"/>
    <path class="cls-35" d="M280.4,145.7s-2.1.2-2.9-1.3l0.3-.7S279.2,143.6,280.4,145.7Z"/>
    <path class="cls-35" d="M277,148.2a2.2,2.2,0,0,1-2.1-.9l0.3-.5S276.2,146.7,277,148.2Z"/>
    <path class="cls-35" d="M301.3,91.7a2.1,2.1,0,0,1-1.8,1.5l-0.4-.5S299.5,91.8,301.3,91.7Z"/>
    <path class="cls-35" d="M304.3,95.2a2.2,2.2,0,0,1-2,1.3L302,96S302.5,95.1,304.3,95.2Z"/>
    <path class="cls-35" d="M308.3,99.8s-0.9,1.9-2.6,1.8l-0.5-.7S305.9,99.7,308.3,99.8Z"/>
    <path class="cls-35" d="M310.9,104.4s-1.1,1.8-2.8,1.4l-0.4-.7S308.5,103.9,310.9,104.4Z"/>
    <path class="cls-35" d="M312.9,110.4s-1.4,1.6-3,.9l-0.3-.8S310.6,109.6,312.9,110.4Z"/>
    <path class="cls-35" d="M313.8,115s-1.4,1.6-3,1l-0.3-.8S311.5,114.2,313.8,115Z"/>
    <path class="cls-35" d="M314.2,120.9s-1.9.8-3.1-.4v-0.8S312.5,119.2,314.2,120.9Z"/>
    <path class="cls-35" d="M313.2,124.9s-1.9.8-3.1-.4v-0.8S311.5,123.2,313.2,124.9Z"/>
    <path class="cls-35" d="M312,129.4s-2.1.4-3-1l0.3-.8S310.7,127.4,312,129.4Z"/>
    <path class="cls-35" d="M310.2,133.2s-2.1.4-3-1l0.3-.8S308.9,131.3,310.2,133.2Z"/>
    <path class="cls-35" d="M307.7,136.8s-2.1.4-3-1l0.3-.8S306.3,134.9,307.7,136.8Z"/>
    <path class="cls-35" d="M304.7,139.9s-1.7-.1-2.1-1.3l0.4-.5S304.1,138.1,304.7,139.9Z"/>
    <path class="cls-35" d="M302.1,142a2,2,0,0,1-1.7-1.3l0.3-.4A2.1,2.1,0,0,1,302.1,142Z"/>
    <path class="cls-35" d="M299.2,144.1a2.2,2.2,0,0,1-2.1-.9l0.3-.5S298.4,142.6,299.2,144.1Z"/>
    <path class="cls-35" d="M287.2,85.5a2.1,2.1,0,0,1-1.4,1.7l-0.5-.3S285.5,85.9,287.2,85.5Z"/>
    <path class="cls-35" d="M290.7,87.5s-0.2,1.9-1.8,2.2l-0.6-.4S288.6,88,290.7,87.5Z"/>
    <path class="cls-35" d="M294,90.8s-0.7,2-2.4,2l-0.5-.6S291.5,90.9,294,90.8Z"/>
    <path class="cls-35" d="M297,94.5s-0.9,1.9-2.6,1.7l-0.5-.7S294.6,94.4,297,94.5Z"/>
    <path class="cls-35" d="M299.2,98.9s-1.5,1.5-3,.8l-0.2-.8S296.9,98,299.2,98.9Z"/>
    <path class="cls-35" d="M301.4,102.7s-1.2,1.8-2.8,1.3l-0.4-.7S299,102.2,301.4,102.7Z"/>
    <path class="cls-35" d="M303.5,107.6s-1.4,1.6-3,.9l-0.3-.8S301.2,106.8,303.5,107.6Z"/>
    <path class="cls-35" d="M304.1,113.4s-1.9.8-3.1-.4v-0.8S302.4,111.7,304.1,113.4Z"/>
    <path class="cls-35" d="M304.3,118.3s-1.9.8-3.1-.4v-0.8S302.5,116.6,304.3,118.3Z"/>
    <path class="cls-35" d="M303.6,123.5s-1.6,1.4-3.1.5v-0.8S301.4,122.4,303.6,123.5Z"/>
    <path class="cls-35" d="M302.6,128s-1.9,1.1-3.1,0v-0.8S300.7,126.6,302.6,128Z"/>
    <path class="cls-35" d="M300.8,132.8s-2.1.4-3-1l0.3-.8S299.4,130.8,300.8,132.8Z"/>
    <path class="cls-35" d="M298.9,137s-2.1.4-3-1l0.3-.8S297.6,135,298.9,137Z"/>
    <path class="cls-35" d="M296.6,140.3s-2,.7-3.1-0.6l0.2-.8S295,138.5,296.6,140.3Z"/>
    <path class="cls-35" d="M293.8,144s-2.1.2-2.9-1.3l0.3-.7S292.7,141.9,293.8,144Z"/>
    <path class="cls-35" d="M288.7,146.3a2.2,2.2,0,0,1-2.1-.9l0.3-.5S287.8,144.8,288.7,146.3Z"/>
    <path class="cls-38" d="M263.7,69.9s-2.7,5-1.1,6.7,6,0.5,6.5-1.4S265.7,69.9,263.7,69.9Z"/>
    <path class="cls-38" d="M281.5,71.1s-5.5,1.6-5.2,4.3,4,4.3,5.1,3.5S283.5,73,281.5,71.1Z"/>
    <path class="cls-39" d="M265.8,84.1s-3.2,2.1-7.1-2.7-4.1-8.2-4.1-8.2,8.8-.6,11.2,1.6S268.6,82.6,265.8,84.1Z"/>
    <path class="cls-39" d="M279.1,84.9s3,2.5,7.3-1.9,5-7.7,5-7.7-8.7-1.6-11.3.3S274.6,81.7,279.1,84.9Z"/>
    <path class="cls-40" d="M271.7,85.1s5.2,0.3,6.9-4.4-5.9-12.4-5.9-12.4-8.2,6.8-7,11.6,6.3,5.2,6.3,5.2"/>
    <path class="cls-38" d="M272.8,73.4s-7.6,3.5-5.5,8,8.3,3.4,9.7.7S274.9,74.1,272.8,73.4Z"/>
  </g>
  <circle class="cls-3" cx="104.6" cy="233.5" r="50.7"/>
  <g class="cls-31">
    <path class="cls-41" d="M95,244s1.6-13.1,6.9-22.4,4.8-23.3,4.8-23.3,14.2,30.4,10.4,49.6c-2.4,12.3-11.8,16.1-11.8,16.1Z"/>
    <path class="cls-42" d="M70.3,192.1s7.6,36.6,22,49,13,22.9,13,22.9a27.4,27.4,0,0,1,11.2-19.5c10.8-8.1,17.3-38.6,17.3-38.6s6.8,43.6-2.2,59.1-34.2,11-34.2,11S79,273.3,74.3,251.4,70,226.7,70.3,192.1Z"/>
    <path class="cls-41" d="M43.3,237.5s11.5-2.2,29.8,12.6c0,0,5,3.7,9.6,5s21.6,6,23.2,16.8c0,0,6.4-14.8,28.1-25.8s32.5-11.8,32.5-11.8-21,7.6-26.8,26.2-25.8,21.1-25.8,21.1-19.3,3-34.5-6.4S67.2,246.1,43.3,237.5Z"/>
    <polygon class="cls-43" points="57.4 241.7 57.3 242.4 57.7 243 57 242.9 56.4 243.3 56.5 242.6 56.1 242 56.8 242.1 57.4 241.7"/>
    <polygon class="cls-43" points="62.5 249.4 62.4 250.2 62.8 250.8 62.1 250.6 61.4 251 61.6 250.3 61.2 249.7 61.9 249.9 62.5 249.4"/>
    <polygon class="cls-43" points="71.3 250.4 71.2 251.2 71.6 251.8 70.9 251.6 70.3 252.1 70.4 251.3 70 250.7 70.7 250.9 71.3 250.4"/>
    <polygon class="cls-43" points="69.5 260.6 69.4 261.3 69.8 261.9 69.1 261.8 68.4 262.2 68.6 261.5 68.2 260.9 68.9 261 69.5 260.6"/>
    <polygon class="cls-43" points="77.2 257.1 77.5 257.8 78.2 258.1 77.5 258.4 77.2 259.1 76.9 258.4 76.2 258.1 76.9 257.8 77.2 257.1"/>
    <polygon class="cls-43" points="88.4 267.7 88.7 268.3 89.4 268.6 88.7 268.9 88.4 269.6 88.1 268.9 87.4 268.7 88.1 268.4 88.4 267.7"/>
    <polygon class="cls-43" points="76.5 259.4 76.4 259.9 76.7 260.3 76.2 260.2 75.9 260.5 76 260 75.7 259.6 76.1 259.7 76.5 259.4"/>
    <polygon class="cls-43" points="74.7 264.6 74.3 265.2 74.4 265.9 73.8 265.4 73.1 265.5 73.5 265 73.4 264.2 74 264.7 74.7 264.6"/>
    <polygon class="cls-43" points="86.9 258.8 86.7 259.5 87.1 260.1 86.4 260 85.8 260.4 86 259.7 85.5 259.1 86.3 259.2 86.9 258.8"/>
    <polygon class="cls-43" points="82.9 264 82.2 263.8 81.5 264.1 81.8 263.4 81.5 262.7 82.2 263 82.8 262.7 82.6 263.4 82.9 264"/>
    <polygon class="cls-43" points="82.3 271.9 82.1 272.7 82.6 273.3 81.8 273.1 81.2 273.6 81.4 272.8 81 272.2 81.7 272.4 82.3 271.9"/>
    <polygon class="cls-43" points="76.1 269.2 76 269.9 76.4 270.5 75.7 270.4 75 270.8 75.2 270.1 74.8 269.5 75.5 269.6 76.1 269.2"/>
    <polygon class="cls-43" points="81.2 267.2 81.1 267.6 81.4 268 80.9 267.9 80.5 268.2 80.6 267.7 80.4 267.4 80.8 267.5 81.2 267.2"/>
    <polygon class="cls-43" points="101.8 276.3 102 275.7 101.7 275 102.4 275.3 103.1 274.9 102.8 275.6 103.1 276.3 102.4 276 101.8 276.3"/>
    <polygon class="cls-43" points="103.8 275.2 104.2 274.9 104.3 274.4 104.6 274.8 105 274.9 104.6 275.2 104.6 275.6 104.3 275.2 103.8 275.2"/>
    <polygon class="cls-43" points="93.2 280.3 93.9 280.2 94.4 279.6 94.5 280.4 95.1 280.8 94.3 280.9 93.9 281.5 93.8 280.8 93.2 280.3"/>
    <polygon class="cls-43" points="107.9 278.1 108.5 277.7 108.6 277 109 277.6 109.7 277.7 109.1 278.1 109 278.9 108.6 278.3 107.9 278.1"/>
    <polygon class="cls-43" points="87 275 87.3 275.7 88 275.9 87.3 276.2 87.1 276.9 86.8 276.3 86.1 276 86.8 275.7 87 275"/>
    <polygon class="cls-43" points="95.4 276.1 96.1 275.7 96.2 274.9 96.6 275.6 97.3 275.7 96.7 276.1 96.6 276.8 96.2 276.2 95.4 276.1"/>
    <polygon class="cls-43" points="90.4 273.9 90.8 273.7 90.9 273.2 91.1 273.6 91.6 273.7 91.2 273.9 91.1 274.4 90.9 274 90.4 273.9"/>
    <polygon class="cls-43" points="77 252.4 76.9 252.9 77.2 253.3 76.7 253.2 76.4 253.4 76.5 253 76.2 252.6 76.6 252.7 77 252.4"/>
    <polygon class="cls-43" points="91.4 257.9 91.6 258.3 92 258.5 91.6 258.7 91.4 259.1 91.2 258.7 90.8 258.5 91.2 258.3 91.4 257.9"/>
    <polygon class="cls-43" points="102.7 266.3 103 266.7 103.5 266.7 103.2 267 103.2 267.5 102.9 267.1 102.4 267.1 102.7 266.8 102.7 266.3"/>
    <polygon class="cls-43" points="70.1 255.3 70 255.8 70.2 256.2 69.8 256.1 69.4 256.4 69.5 255.9 69.2 255.5 69.7 255.6 70.1 255.3"/>
    <polygon class="cls-43" points="65 246.8 64.9 247.2 65.2 247.6 64.7 247.5 64.4 247.8 64.5 247.3 64.2 246.9 64.6 247 65 246.8"/>
    <polygon class="cls-43" points="96.5 265.9 96.3 266.6 96.8 267.2 96 267 95.4 267.5 95.6 266.7 95.2 266.1 95.9 266.3 96.5 265.9"/>
    <polygon class="cls-43" points="100.2 280 99.7 280.6 99.8 281.3 99.3 280.8 98.5 280.9 99 280.4 98.9 279.6 99.5 280.1 100.2 280"/>
    <polygon class="cls-43" points="95.2 270.8 95.1 271.2 95.4 271.6 94.9 271.5 94.6 271.8 94.7 271.3 94.4 270.9 94.8 271 95.2 270.8"/>
    <polygon class="cls-43" points="90.2 262.2 90.1 262.6 90.4 263 89.9 262.9 89.5 263.2 89.6 262.7 89.3 262.3 89.8 262.4 90.2 262.2"/>
    <polygon class="cls-44" points="92.8 256.4 93.1 257.1 93.8 257.3 93.1 257.6 92.9 258.3 92.6 257.7 91.9 257.4 92.6 257.1 92.8 256.4"/>
    <polygon class="cls-44" points="89.7 244.5 89.5 245.2 89.9 245.8 89.2 245.7 88.6 246.1 88.8 245.4 88.3 244.8 89.1 244.9 89.7 244.5"/>
    <polygon class="cls-44" points="83.4 252.6 84 252.5 84.3 252.1 84.4 252.7 84.9 253 84.3 253.1 83.9 253.6 83.9 253 83.4 252.6"/>
    <polygon class="cls-44" points="78.2 249.1 78.5 249.7 79.2 250 78.5 250.3 78.3 251 78 250.3 77.3 250.1 78 249.8 78.2 249.1"/>
    <polygon class="cls-44" points="86.9 249.7 87.3 249.5 87.4 249 87.6 249.4 88.1 249.5 87.7 249.7 87.6 250.2 87.4 249.8 86.9 249.7"/>
    <polygon class="cls-44" points="81.6 248 82 247.7 82.1 247.3 82.3 247.7 82.8 247.7 82.4 248 82.3 248.5 82.1 248.1 81.6 248"/>
    <polygon class="cls-44" points="95.9 246.6 96 247.1 96.5 247.3 96 247.4 95.9 247.9 95.7 247.4 95.3 247.3 95.7 247.1 95.9 246.6"/>
    <polygon class="cls-44" points="100.9 254.6 100.8 255.3 101.2 255.9 100.5 255.8 99.9 256.2 100 255.5 99.6 254.9 100.3 255 100.9 254.6"/>
    <polygon class="cls-44" points="88.6 253.7 88.3 254.1 88.3 254.5 88 254.2 87.5 254.3 87.8 253.9 87.7 253.5 88.1 253.8 88.6 253.7"/>
    <polygon class="cls-44" points="99.7 259.5 99.6 260 99.9 260.3 99.4 260.3 99 260.5 99.1 260.1 98.8 259.7 99.3 259.8 99.7 259.5"/>
    <polygon class="cls-44" points="94.6 250.9 94.5 251.4 94.8 251.8 94.3 251.7 94 251.9 94.1 251.5 93.8 251.1 94.3 251.2 94.6 250.9"/>
    <polygon class="cls-43" points="107.2 275.6 107.4 276 107.8 276.2 107.4 276.3 107.2 276.8 107 276.3 106.6 276.2 107 276 107.2 275.6"/>
    <polygon class="cls-43" points="106 279.8 105.9 280.3 106.1 280.7 105.7 280.6 105.3 280.8 105.4 280.4 105.1 280 105.6 280.1 106 279.8"/>
    <polygon class="cls-43" points="114.7 278.8 114.9 279.5 115.6 279.8 114.9 280 114.5 280.7 114.3 280 113.7 279.6 114.4 279.4 114.7 278.8"/>
    <polygon class="cls-43" points="120 272.2 120.5 272.6 121.3 272.5 120.8 273.1 120.9 273.9 120.3 273.4 119.6 273.5 120.1 272.9 120 272.2"/>
    <polygon class="cls-43" points="120.4 274.5 120.6 275 121 275.2 120.5 275.3 120.3 275.7 120.2 275.3 119.8 275.1 120.2 274.9 120.4 274.5"/>
    <polygon class="cls-43" points="129.3 269.2 129.5 269.9 130.2 270.3 129.5 270.5 129.1 271.1 128.9 270.4 128.3 270.1 129 269.9 129.3 269.2"/>
    <polygon class="cls-43" points="128.2 275.7 127.5 275.8 127 276.4 126.9 275.6 126.3 275.2 127.1 275.1 127.5 274.5 127.6 275.2 128.2 275.7"/>
    <polygon class="cls-43" points="133 266.3 133.3 266.6 133.8 266.6 133.5 266.9 133.5 267.4 133.2 267.1 132.7 267.2 133 266.8 133 266.3"/>
    <polygon class="cls-43" points="133.8 270.7 134 271.1 134.4 271.4 133.9 271.5 133.7 271.9 133.6 271.5 133.2 271.2 133.6 271.1 133.8 270.7"/>
    <polygon class="cls-43" points="51.5 239.2 51.4 239.7 51.6 240.1 51.2 240 50.8 240.2 50.9 239.8 50.6 239.4 51.1 239.5 51.5 239.2"/>
    <polygon class="cls-43" points="154.9 237.9 155 238.6 154.5 239.2 155.2 239.1 155.8 239.6 155.7 238.9 156.2 238.3 155.4 238.4 154.9 237.9"/>
    <polygon class="cls-43" points="148.8 243.1 148.9 243.8 148.4 244.4 149.2 244.3 149.7 244.7 149.7 244 150.1 243.4 149.4 243.5 148.8 243.1"/>
    <polygon class="cls-43" points="141.2 243.7 141.3 244.5 140.9 245 141.6 244.9 142.2 245.4 142.1 244.7 142.5 244.1 141.8 244.2 141.2 243.7"/>
    <polygon class="cls-43" points="141.5 253.5 141.6 254.2 141.2 254.8 141.9 254.7 142.5 255.2 142.4 254.4 142.8 253.9 142.1 254 141.5 253.5"/>
    <polygon class="cls-43" points="134.9 249.9 134.5 250.6 133.8 250.8 134.5 251.1 134.7 251.8 135 251.2 135.7 251 135.1 250.6 134.9 249.9"/>
    <polygon class="cls-43" points="122.9 259.5 122.5 260.1 121.8 260.3 122.4 260.7 122.6 261.4 123 260.8 123.7 260.6 123.1 260.2 122.9 259.5"/>
    <polygon class="cls-43" points="135.3 252.3 135.4 252.7 135.1 253.1 135.6 253 135.9 253.3 135.9 252.9 136.2 252.5 135.7 252.6 135.3 252.3"/>
    <polygon class="cls-43" points="136.7 257.5 137.1 258.2 137 258.9 137.6 258.5 138.3 258.6 137.9 258 138 257.3 137.4 257.7 136.7 257.5"/>
    <polygon class="cls-43" points="125.1 250.8 125.2 251.5 124.7 252.1 125.4 252 126 252.5 125.9 251.7 126.4 251.2 125.7 251.2 125.1 250.8"/>
    <polygon class="cls-43" points="128.6 256.3 129.3 256.1 129.9 256.5 129.7 255.8 130.1 255.1 129.4 255.3 128.8 255 129 255.7 128.6 256.3"/>
    <polygon class="cls-43" points="128.6 264.3 128.7 265 128.2 265.6 128.9 265.5 129.5 265.9 129.4 265.2 129.9 264.6 129.1 264.7 128.6 264.3"/>
    <polygon class="cls-43" points="134.9 262 135 262.7 134.6 263.3 135.3 263.2 135.9 263.7 135.8 263 136.3 262.4 135.5 262.5 134.9 262"/>
    <polygon class="cls-43" points="130 259.6 130.1 260.1 129.8 260.4 130.3 260.4 130.6 260.7 130.6 260.2 130.9 259.8 130.4 259.9 130 259.6"/>
    <polygon class="cls-43" points="107.8 270.3 107.6 269.6 108 268.9 107.3 269.1 106.6 268.8 106.8 269.5 106.5 270.1 107.2 269.9 107.8 270.3"/>
    <polygon class="cls-43" points="117 271.7 116.3 271.6 115.9 270.9 115.7 271.7 115.1 272.1 115.8 272.2 116.2 272.8 116.4 272.1 117 271.7"/>
    <polygon class="cls-43" points="123.6 266.9 123.3 267.6 122.5 267.7 123.2 268.1 123.4 268.8 123.7 268.2 124.4 268 123.8 267.6 123.6 266.9"/>
    <polygon class="cls-44" points="84.6 240.2 85.2 240.6 85.9 240.4 85.5 241 85.7 241.7 85.1 241.3 84.4 241.5 84.8 240.9 84.6 240.2"/>
    <polygon class="cls-44" points="104.6 263.9 104.1 264.5 104.2 265.2 103.6 264.7 102.9 264.8 103.4 264.3 103.3 263.5 103.8 264 104.6 263.9"/>
    <polygon class="cls-44" points="85.2 235.6 85.7 235.6 86 235.2 86 235.7 86.3 236 85.9 236 85.6 236.4 85.5 235.9 85.2 235.6"/>
    <polygon class="cls-44" points="76.3 246.6 76.7 246.9 77.2 246.7 76.9 247.2 77.1 247.6 76.7 247.4 76.2 247.5 76.4 247.1 76.3 246.6"/>
    <polygon class="cls-44" points="75.6 217.8 76.1 218.3 76.2 219 76.7 218.4 77.4 218.4 76.8 217.9 76.8 217.2 76.3 217.7 75.6 217.8"/>
    <polygon class="cls-44" points="75.1 222.5 75.3 223.2 75 223.8 75.7 223.6 76.3 224 76.1 223.3 76.5 222.6 75.8 222.8 75.1 222.5"/>
    <polygon class="cls-44" points="73.2 237.7 73.4 238.4 73 239 73.7 238.8 74.3 239.2 74.1 238.5 74.5 237.9 73.8 238.1 73.2 237.7"/>
    <polygon class="cls-44" points="77.1 223.8 77.5 224.1 77.5 224.6 77.8 224.2 78.3 224.2 77.9 223.9 77.9 223.4 77.6 223.8 77.1 223.8"/>
    <polygon class="cls-44" points="70.7 204.7 71.4 204.8 71.8 205.5 72 204.7 72.6 204.3 71.9 204.2 71.5 203.6 71.3 204.3 70.7 204.7"/>
    <polygon class="cls-44" points="71.3 216.4 71.8 216.9 71.9 217.6 72.3 217 73.1 217 72.5 216.5 72.5 215.8 72 216.4 71.3 216.4"/>
    <polygon class="cls-44" points="75.1 231.4 75.4 230.8 76.2 230.6 75.5 230.2 75.4 229.5 75 230.2 74.3 230.3 74.9 230.7 75.1 231.4"/>
    <polygon class="cls-44" points="80.6 237.2 81.1 237.6 81.2 238.4 81.7 237.8 82.4 237.7 81.8 237.3 81.8 236.5 81.3 237.1 80.6 237.2"/>
    <polygon class="cls-44" points="79.9 228.3 80.5 228.8 80.5 229.5 81 228.9 81.7 228.9 81.1 228.4 81.1 227.7 80.6 228.3 79.9 228.3"/>
    <polygon class="cls-44" points="78.4 232.8 78.7 233.1 78.8 233.6 79.1 233.2 79.6 233.2 79.2 232.9 79.1 232.4 78.9 232.8 78.4 232.8"/>
    <polygon class="cls-44" points="78.9 242.5 79.1 243.2 78.7 243.8 79.4 243.7 80 244.1 79.8 243.3 80.2 242.7 79.5 242.9 78.9 242.5"/>
    <polygon class="cls-44" points="109.9 254.9 110 255.7 109.6 256.3 110.3 256.1 111 256.5 110.8 255.8 111.2 255.2 110.5 255.3 109.9 254.9"/>
    <polygon class="cls-44" points="131.2 245 130.9 245.7 130.2 245.9 130.9 246.2 131.1 246.9 131.4 246.2 132.1 246 131.4 245.7 131.2 245"/>
    <polygon class="cls-44" points="122.5 245.6 122.1 245.4 122 244.9 121.8 245.3 121.3 245.4 121.7 245.7 121.8 246.1 122 245.7 122.5 245.6"/>
    <polygon class="cls-44" points="126.6 246 125.7 246.2 125 245.7 125.2 246.6 124.7 247.4 125.6 247.2 126.4 247.7 126.1 246.8 126.6 246"/>
    <polygon class="cls-44" points="124 239.8 123.3 240.2 122.6 240 123 240.6 122.8 241.3 123.4 241 124.2 241.2 123.8 240.5 124 239.8"/>
    <polygon class="cls-44" points="115.1 250.5 114.6 250.5 114.3 250.1 114.2 250.6 113.9 250.9 114.4 250.9 114.7 251.3 114.7 250.8 115.1 250.5"/>
    <polygon class="cls-44" points="134.1 239.5 133.6 239.8 133.2 239.7 133.4 240.1 133.3 240.5 133.7 240.3 134.2 240.4 133.9 240 134.1 239.5"/>
    <polygon class="cls-44" points="133.8 213.7 133.3 214.2 133.2 214.9 132.8 214.3 132 214.3 132.6 213.8 132.6 213.1 133.1 213.7 133.8 213.7"/>
    <polygon class="cls-44" points="134.3 218.4 134.1 219.1 134.4 219.7 133.7 219.5 133.1 219.9 133.3 219.2 132.9 218.6 133.6 218.8 134.3 218.4"/>
    <polygon class="cls-44" points="134.2 232.9 134 233.6 134.4 234.3 133.7 234.1 133.1 234.5 133.3 233.7 132.9 233.1 133.6 233.3 134.2 232.9"/>
    <polygon class="cls-44" points="132.3 219.8 131.9 220.1 131.9 220.5 131.6 220.2 131.1 220.1 131.5 219.8 131.5 219.3 131.8 219.7 132.3 219.8"/>
    <polygon class="cls-44" points="119 247.3 118.4 247.8 118.3 248.5 117.9 247.9 117.1 247.9 117.7 247.4 117.8 246.7 118.2 247.2 119 247.3"/>
    <polygon class="cls-44" points="134.3 227.3 134 226.7 133.2 226.5 133.9 226.2 134 225.4 134.4 226.1 135.1 226.2 134.5 226.6 134.3 227.3"/>
    <polygon class="cls-44" points="128.8 233.1 128.3 233.6 128.2 234.3 127.7 233.7 127 233.7 127.6 233.2 127.6 232.5 128.1 233 128.8 233.1"/>
    <polygon class="cls-44" points="116.6 254.8 116 255.3 116 256 115.5 255.4 114.8 255.4 115.3 254.9 115.4 254.2 115.8 254.8 116.6 254.8"/>
    <polygon class="cls-44" points="131 228.7 130.7 229 130.6 229.5 130.3 229.1 129.8 229.1 130.2 228.8 130.3 228.3 130.6 228.7 131 228.7"/>
    <polygon class="cls-44" points="130.5 238.4 130.3 239.1 130.7 239.8 130 239.6 129.4 240 129.6 239.3 129.2 238.6 129.9 238.8 130.5 238.4"/>
    <polygon class="cls-43" points="115.1 267.3 114.5 266.8 114.5 266.1 114 266.7 113.3 266.7 113.9 267.2 113.9 267.9 114.4 267.4 115.1 267.3"/>
    <polygon class="cls-43" points="120.3 265.6 119.9 265.3 119.9 264.8 119.6 265.2 119.1 265.2 119.5 265.5 119.6 266 119.8 265.6 120.3 265.6"/>
    <polygon class="cls-43" points="135.4 245.2 135.5 245.7 135.2 246 135.6 246 136 246.3 135.9 245.8 136.2 245.4 135.8 245.5 135.4 245.2"/>
    <polygon class="cls-44" points="120.6 249.5 120.4 249.9 119.9 250.1 120.4 250.3 120.5 250.7 120.7 250.3 121.2 250.2 120.8 250 120.6 249.5"/>
    <polygon class="cls-44" points="107.1 265.9 107.6 266 107.9 266.4 107.9 265.9 108.3 265.7 107.8 265.6 107.6 265.2 107.5 265.7 107.1 265.9"/>
    <polygon class="cls-44" points="111.8 258.4 112.3 258.2 112.7 258.4 112.5 258 112.7 257.6 112.3 257.7 111.9 257.5 112 258 111.8 258.4"/>
    <polygon class="cls-44" points="107.2 261.7 107.2 261.2 107.6 260.9 107.1 260.9 106.8 260.5 106.8 261 106.4 261.3 106.9 261.3 107.2 261.7"/>
    <polygon class="cls-43" points="142.1 248.7 142.2 249.2 141.9 249.5 142.3 249.5 142.7 249.8 142.6 249.3 142.9 249 142.5 249 142.1 248.7"/>
    <polygon class="cls-43" points="147.8 240.6 147.9 241 147.6 241.4 148.1 241.3 148.4 241.6 148.4 241.2 148.7 240.8 148.2 240.9 147.8 240.6"/>
    <polygon class="cls-43" points="112.3 261.1 112.4 261.8 112 262.4 112.7 262.3 113.3 262.8 113.2 262 113.6 261.4 112.9 261.5 112.3 261.1"/>
    <polygon class="cls-43" points="110.1 270.8 110.5 271.4 110.3 272.1 110.9 271.7 111.7 271.9 111.2 271.3 111.4 270.6 110.8 271 110.1 270.8"/>
    <polygon class="cls-43" points="115.8 262 115.8 262.5 115.5 262.8 116 262.8 116.4 263.1 116.3 262.6 116.6 262.2 116.1 262.3 115.8 262"/>
    <polygon class="cls-43" points="121.5 253.9 121.6 254.3 121.3 254.7 121.7 254.6 122.1 254.9 122 254.5 122.3 254.1 121.9 254.2 121.5 253.9"/>
    <polygon class="cls-43" points="161.6 235.6 161.6 236 161.3 236.4 161.8 236.3 162.2 236.6 162.1 236.2 162.4 235.8 161.9 235.9 161.6 235.6"/>
    <g>
      <polygon class="cls-43" points="103.2 246.8 102.5 246.6 102.1 246 102 246.7 101.4 247.1 102.1 247.3 102.5 247.9 102.6 247.2 103.2 246.8"/>
      <polygon class="cls-43" points="101.1 247.9 100.7 248.1 100.3 247.9 100.5 248.3 100.3 248.8 100.7 248.6 101.1 248.8 101 248.3 101.1 247.9"/>
      <polygon class="cls-43" points="99.6 237.7 98.9 238 98.2 237.7 98.5 238.3 98.2 239 98.9 238.7 99.6 239 99.3 238.3 99.6 237.7"/>
      <polygon class="cls-43" points="97.2 241.9 97.6 242.6 97.4 243.3 98 242.9 98.7 243.1 98.3 242.4 98.5 241.7 97.9 242.1 97.2 241.9"/>
      <polygon class="cls-43" points="99.5 233 99 232.9 98.8 232.5 98.7 233 98.3 233.3 98.8 233.3 99 233.7 99.1 233.3 99.5 233"/>
      <polygon class="cls-43" points="105.9 253.9 105.5 254.1 105 253.9 105.2 254.3 105.1 254.8 105.5 254.6 105.9 254.8 105.7 254.3 105.9 253.9"/>
      <polygon class="cls-43" points="107.9 203.1 107.7 203.3 107.6 203.5 107.5 203.3 107.2 203.3 107.4 203.1 107.5 202.9 107.6 203.1 107.9 203.1"/>
      <polygon class="cls-43" points="108.2 210.5 107.6 210.9 107.4 211.7 107 211 106.3 210.9 106.9 210.5 107.1 209.8 107.5 210.4 108.2 210.5"/>
      <polygon class="cls-43" points="111.7 212.3 111.1 212.7 111 213.4 110.6 212.8 109.8 212.6 110.5 212.2 110.6 211.5 111 212.1 111.7 212.3"/>
      <polygon class="cls-43" points="107.1 218.8 106.5 219.2 106.3 219.9 105.9 219.3 105.2 219.2 105.8 218.8 106 218.1 106.4 218.7 107.1 218.8"/>
      <polygon class="cls-43" points="111.7 222.2 111.4 222.8 111.7 223.5 111 223.2 110.4 223.6 110.6 222.9 110.3 222.2 111 222.5 111.7 222.2"/>
      <polygon class="cls-43" points="111.2 236.5 110.9 237.2 111.2 237.8 110.5 237.6 109.9 237.9 110.2 237.2 109.8 236.5 110.5 236.8 111.2 236.5"/>
      <polygon class="cls-43" points="108.9 222.3 108.5 222.5 108.4 223 108.2 222.6 107.7 222.5 108.1 222.2 108.2 221.8 108.4 222.2 108.9 222.3"/>
      <polygon class="cls-43" points="103.9 224.6 103.2 224.6 102.7 225.2 102.7 224.5 102.1 224 102.8 223.9 103.3 223.4 103.4 224.1 103.9 224.6"/>
      <polygon class="cls-43" points="116.5 229.2 115.9 229.6 115.8 230.4 115.4 229.7 114.6 229.6 115.3 229.2 115.4 228.5 115.8 229.1 116.5 229.2"/>
      <polygon class="cls-43" points="110 230 109.7 229.3 109 229.1 109.7 228.8 110 228.1 110.3 228.8 111 229 110.3 229.3 110 230"/>
      <polygon class="cls-43" points="103.9 235.1 103.3 235.5 103.1 236.2 102.8 235.6 102 235.5 102.7 235.1 102.8 234.3 103.2 235 103.9 235.1"/>
      <polygon class="cls-43" points="101.6 228.7 101 229.1 100.8 229.9 100.4 229.2 99.7 229.1 100.3 228.7 100.5 228 100.9 228.6 101.6 228.7"/>
      <polygon class="cls-43" points="106.6 231 106.2 231.3 106.1 231.7 105.8 231.3 105.4 231.2 105.8 231 105.9 230.5 106.1 230.9 106.6 231"/>
      <polygon class="cls-43" points="105.5 248.8 106.1 249.2 106.8 249.1 106.3 249.7 106.4 250.4 105.8 250 105.1 250.1 105.6 249.5 105.5 248.8"/>
      <polygon class="cls-43" points="105.2 239.9 105 240.6 105.3 241.3 104.6 241 104 241.3 104.2 240.6 103.9 240 104.6 240.2 105.2 239.9"/>
      <polygon class="cls-43" points="110.1 247.4 110.8 247.6 111.4 247.2 111.3 247.9 111.7 248.5 111 248.3 110.4 248.8 110.5 248 110.1 247.4"/>
      <polygon class="cls-43" points="108.1 242.3 108.6 242.4 109 242.1 108.9 242.6 109.2 243 108.7 242.9 108.3 243.2 108.4 242.7 108.1 242.3"/>
      <polygon class="cls-43" points="112.9 217.8 112.5 218.1 112.4 218.6 112.2 218.2 111.7 218.1 112.1 217.8 112.2 217.3 112.4 217.8 112.9 217.8"/>
      <polygon class="cls-43" points="107.3 214.8 106.9 215 106.8 215.5 106.6 215.1 106.1 215 106.5 214.8 106.6 214.3 106.9 214.7 107.3 214.8"/>
      <polygon class="cls-43" points="109.5 207.1 109.1 207.3 109.1 207.8 108.8 207.4 108.3 207.3 108.7 207.1 108.8 206.6 109.1 207 109.5 207.1"/>
      <polygon class="cls-43" points="116.7 239.3 116.1 239.7 116 240.4 115.6 239.8 114.8 239.7 115.5 239.3 115.6 238.5 116 239.2 116.7 239.3"/>
      <polygon class="cls-43" points="113.8 243.6 113.4 243.8 113.3 244.3 113 243.9 112.6 243.8 113 243.5 113.1 243.1 113.3 243.5 113.8 243.6"/>
      <polygon class="cls-43" points="116.4 234 116 234.2 115.9 234.7 115.7 234.3 115.2 234.2 115.6 233.9 115.7 233.5 116 233.9 116.4 234"/>
    </g>
  </g>
  <circle class="cls-3" cx="104.6" cy="444" r="50.7"/>
  <g class="cls-31">
    <g>
      <path class="cls-45" d="M92.2,431.8s9.5-3.7,22.2,8.9c0,0-12.2,12.5-23.2,4.6S92.2,431.8,92.2,431.8Z"/>
      <path class="cls-45" d="M111.1,496.5a1.4,1.4,0,0,1-1.2-1.1c-0.2-.9-5.1-21.5-0.3-42.4a124.7,124.7,0,0,1,6-18.8c2.9-7.6,5.3-13.6,4.9-25.2-0.1-4-1.2-8.8-2.4-14.3-3-13.6-7.2-32.1-.3-54.8a1.4,1.4,0,1,1,2.8.8c-6.7,21.9-2.6,40.1.4,53.3,1.3,5.7,2.4,10.6,2.5,14.8,0.4,12.2-2,18.4-5.1,26.3a122.2,122.2,0,0,0-5.9,18.4c-4.6,20.2.2,40.9,0.3,41.1a1.4,1.4,0,0,1-1.1,1.7h-0.5Z"/>
      <path class="cls-45" d="M119.8,323s-6.2,5.6-1.6,19.5c0,0,13.5-4.3,11.8-15.2S119.8,323,119.8,323Z"/>
      <path class="cls-45" d="M131.2,344.9s-6.2-2.1-13.9,6.4c0,0,8.1,7.6,14.9,2.2S131.2,344.9,131.2,344.9Z"/>
      <path class="cls-45" d="M138.5,364.8s-9.7-3.2-21.9,10c0,0,12.8,11.9,23.5,3.5S138.5,364.8,138.5,364.8Z"/>
      <path class="cls-45" d="M102.1,349.1s7.1-.5,13,10.4c0,0-10.6,5.8-16.3-1.6S102.1,349.1,102.1,349.1Z"/>
      <path class="cls-45" d="M95.4,375.2s8.2-5.1,22.2,4.3c0,0-9,13.7-20.7,8.5S95.4,375.2,95.4,375.2Z"/>
      <path class="cls-45" d="M104,418s6.5-3.1,16.2,5.2c0,0-7.9,9.4-16.1,4.5S104,418,104,418Z"/>
      <path class="cls-45" d="M92.4,396.6s10.6-6.6,28.8,5.5c0,0-11.7,17.8-26.8,11S92.4,396.6,92.4,396.6Z"/>
      <path class="cls-45" d="M93.1,453.3s8-1.8,16.5,9.8c0,0-11.2,8.4-18.9.8S93.1,453.3,93.1,453.3Z"/>
      <path class="cls-45" d="M98.7,474.9s4.9-1.1,10.1,6c0,0-6.8,5.1-11.5.5S98.7,474.9,98.7,474.9Z"/>
      <path class="cls-45" d="M130,453.3s-7.9-4.3-20.5,5.3c0,0,9.2,12.3,19.8,6.7S130,453.3,130,453.3Z"/>
      <path class="cls-45" d="M121.7,482.3s-7,.5-12.8-10.3c0,0,10.4-5.8,16.1,1.6S121.7,482.3,121.7,482.3Z"/>
      <path class="cls-45" d="M145,386.5s-11.1-3.9-25.2,11.1c0,0,14.4,13.9,26.8,4.4S145,386.5,145,386.5Z"/>
      <path class="cls-45" d="M145.8,430.1s-11.2-6.5-29.7,6.8c0,0,12.8,18.1,28.2,10.4S145.8,430.1,145.8,430.1Z"/>
      <path class="cls-45" d="M141.9,411s-7.7-5.3-19.7,4.3c0,0,9.1,14.1,19.1,8.7S141.9,411,141.9,411Z"/>
    </g>
    <g>
      <path class="cls-46" d="M89.4,370.3s1.9,5.5-5.4,12.4c0,0-6.9-7.1-2.2-13.2S89.4,370.3,89.4,370.3Z"/>
      <path class="cls-46" d="M64.2,381s7.8-3.5,19,6.4c0,0-9.6,11-19.2,5S64.2,381,64.2,381Z"/>
      <path class="cls-46" d="M68.3,417.6s5.6-4.3,16.5,1.7c0,0-5.7,10.6-14.5,7.5S68.3,417.6,68.3,417.6Z"/>
      <path class="cls-46" d="M82.1,474s6.2-3.4,16.1,4.1c0,0-7.2,9.7-15.5,5.3S82.1,474,82.1,474Z"/>
      <path class="cls-46" d="M108.3,481.6s-3.4-.8-7.2,4.1c0,0,4.8,3.7,8.2.5S108.3,481.6,108.3,481.6Z"/>
      <path class="cls-46" d="M117.4,461s-7.8-3.5-19,6.6c0,0,9.7,11,19.3,4.8S117.4,461,117.4,461Z"/>
      <path class="cls-46" d="M113.7,435.2s-9.2-2.2-19.3,11c0,0,12.7,9.9,21.9,1.3S113.7,435.2,113.7,435.2Z"/>
      <path class="cls-46" d="M101.5,403.2s-8.2-2-17.3,9.8c0,0,11.4,8.9,19.6,1.2S101.5,403.2,101.5,403.2Z"/>
      <path class="cls-46" d="M98.6,390.7s-5.6-4-16.1,2.1c0,0,5.9,10.2,14.5,6.9S98.6,390.7,98.6,390.7Z"/>
      <path class="cls-46" d="M67.4,434.5s6.9-6.9,23-.8c0,0-5.8,15.7-18.5,13.1S67.4,434.5,67.4,434.5Z"/>
      <path class="cls-46" d="M70.1,452.1s9.9-6.4,27.2,4.9c0,0-10.8,16.9-25.1,10.7S70.1,452.1,70.1,452.1Z"/>
      <path class="cls-46" d="M60.4,398.9s8.5-5.2,22.9,4.6c0,0-9.4,14.2-21.4,8.6S60.4,398.9,60.4,398.9Z"/>
      <path class="cls-46" d="M102.1,423.3s-5.9-1.4-12.4,7c0,0,8.2,6.4,14,.9S102.1,423.3,102.1,423.3Z"/>
      <path class="cls-46" d="M106.1,495.8a1.1,1.1,0,0,1-.7-0.2c-0.3-.2-8.1-5.7-8.2-28.6-0.1-14.3-3.6-22.8-7.3-31.8A111.8,111.8,0,0,1,84,419c-4.8-19.4-1.2-38.3-1.2-38.5a1.1,1.1,0,0,1,2.1.4c0,0.2-3.5,18.7,1.1,37.6a110,110,0,0,0,5.6,16.1c3.8,9.2,7.4,17.9,7.5,32.6,0.1,17.2,4.8,25,7.3,26.8A1.1,1.1,0,0,1,106.1,495.8Z"/>
    </g>
  </g>
  <circle class="cls-3" cx="271.6" cy="233.5" r="50.7"/>
  <g class="cls-31">
    <path class="cls-47" d="M252.8,212s-1.1-25.2,12.3-27.4,16.2,18.7,16.2,18.7-1.1,42.2-8.6,43.2-13.3,3.2-13.3-1.8S252.8,212,252.8,212Z"/>
    <path class="cls-48" d="M265.1,247.6s1.1-38.9-15.9-36,0.4,55.9.4,55.9,6.5,14.8,14.1,14.4,13,2.9,18.7-5.8,25.6-51.2,18.7-68.8-26.7-10.8-31.3,6.5A146.1,146.1,0,0,0,265.1,247.6Z"/>
    <path class="cls-49" d="M303.9,201.4h-0.3l-4,1.2,3.2-2a0.2,0.2,0,0,0,.1-0.3h-0.3l-3.4,2.1,2.1-2.5a0.2,0.2,0,0,0,0-.3H301l-2.9,3.4h0v0.3a0.2,0.2,0,0,0,.2.2h4.9a0.2,0.2,0,0,0,0-.4H299l4.7-1.4A0.2,0.2,0,0,0,303.9,201.4Z"/>
    <path class="cls-49" d="M293.4,263.4a0.2,0.2,0,0,0,0-.3l-3.2-2.7,3.5,1.5h0.3a0.2,0.2,0,0,0-.1-0.3l-3.7-1.6,3.2,0.3a0.2,0.2,0,0,0,0-.4l-4.5-.5h-0.4a0.2,0.2,0,0,0-.1.3l2.6,4.1h0.3a0.2,0.2,0,0,0,.1-0.3l-2.1-3.3,3.8,3.1h0.3Z"/>
    <path class="cls-49" d="M283.2,198.2a0.2,0.2,0,0,0-.2.2l0.5,3.6-1.3-2.9h-0.2a0.2,0.2,0,0,0-.1.2l1.4,3.1-1.8-2.1h-0.2a0.2,0.2,0,0,0,0,.2l2.5,2.9h0.5l0.7-4.1h0a0.2,0.2,0,0,0-.1-0.2h-0.2l-0.6,3.3-0.6-4.2Z"/>
    <path class="cls-49" d="M273.4,205.2a0.3,0.3,0,0,0-.1.3l2.8,4.3-3.5-3h-0.4a0.2,0.2,0,0,0,0,.4l3.7,3.1-3.6-1.6a0.3,0.3,0,1,0-.2.5l5,2.2h0.5a0.3,0.3,0,0,0,.2-0.3l-1.6-5.7h0a0.3,0.3,0,0,0-.5.1l1.3,4.6-3.3-5A0.3,0.3,0,0,0,273.4,205.2Z"/>
    <path class="cls-49" d="M264.5,226.6a0.3,0.3,0,0,0,0,.4l3.8,3.4-4.1-2a0.3,0.3,0,1,0-.2.5l4.4,2.1-3.9-.6a0.3,0.3,0,1,0-.1.5l5.4,0.8h0.5a0.3,0.3,0,0,0,.1-0.3l-2.9-5.1h-0.3a0.3,0.3,0,0,0-.1.3l2.4,4.1-4.5-4h-0.4Z"/>
    <path class="cls-49" d="M261.2,227.2h-0.3l-2.9,3.3,1.7-3.6a0.2,0.2,0,0,0-.1-0.3h-0.3l-1.8,3.8,0.5-3.4a0.2,0.2,0,0,0-.4-0.1l-0.7,4.7h0a0.2,0.2,0,0,0,0,.2,0.2,0.2,0,0,0,0,.2h0.3l4.4-2.6h0a0.2,0.2,0,0,0,.1-0.3h-0.3l-3.6,2.1,3.5-3.9A0.2,0.2,0,0,0,261.2,227.2Z"/>
    <path class="cls-49" d="M291.3,230.6a0.3,0.3,0,0,1,.1.3l-2.8,4.3,3.5-3h0.4a0.2,0.2,0,0,1,0,.4l-3.7,3.1,3.6-1.6a0.3,0.3,0,0,1,.2.5l-5,2.2h-0.5a0.3,0.3,0,0,1-.2-0.3l1.6-5.7h0a0.3,0.3,0,0,1,.5.1l-1.3,4.6,3.3-5A0.3,0.3,0,0,1,291.3,230.6Z"/>
    <path class="cls-49" d="M276.7,245.3a0.3,0.3,0,0,1-.1-0.4l2.8-5.6-3.8,4.1a0.3,0.3,0,0,1-.4-0.4l4.1-4.3-4.2,2.4a0.3,0.3,0,0,1-.3-0.5l5.8-3.3h0l0.3-.2H281a0.3,0.3,0,0,1,.3.4l-1.1,7.1h0a0.3,0.3,0,0,1-.6-0.1l0.9-5.8-3.3,6.6A0.3,0.3,0,0,1,276.7,245.3Z"/>
    <path class="cls-49" d="M260.3,250.9a0.2,0.2,0,0,1,.2-0.2l4.3,0.7-3.7-2a0.3,0.3,0,0,1-.1-0.4,0.2,0.2,0,0,1,.3-0.1l3.9,2.1-2.7-2.8a0.3,0.3,0,0,1-.1-0.4,0.2,0.2,0,0,1,.3,0l3.8,3.8h0l0.2,0.2V252a0.3,0.3,0,0,1-.1.3l-4.7,1.2h0a0.2,0.2,0,0,1-.3-0.2,0.3,0.3,0,0,1,.1-0.3l3.8-.9-5-.8A0.3,0.3,0,0,1,260.3,250.9Z"/>
    <path class="cls-49" d="M304.8,216.4a0.2,0.2,0,0,0-.1-0.3l-4-1.1h3.8a0.2,0.2,0,1,0,0-.4h-4l3.1-1a0.2,0.2,0,0,0,.1-0.3h-0.3l-4.3,1.4h-0.4a0.2,0.2,0,0,0,.1.3l4,2.7h0.3a0.2,0.2,0,0,0-.1-0.3l-3.3-2.2,4.8,1.3h0.3Z"/>
    <path class="cls-49" d="M281.1,214.2h0.3l2.9,3.1-1.7-3.5a0.2,0.2,0,0,1,.1-0.3H283l1.8,3.7-0.5-3.4a0.2,0.2,0,0,1,.2-0.3,0.2,0.2,0,0,1,.2.2l0.7,4.7h0a0.2,0.2,0,0,1,0,.2,0.2,0.2,0,0,1,0,.2h-0.3l-4.3-2.2h0a0.2,0.2,0,0,1-.1-0.3H281l3.5,1.8-3.4-3.6A0.2,0.2,0,0,1,281.1,214.2Z"/>
    <path class="cls-49" d="M265.4,242.8h0.3l4,1.5-3.1-2.4a0.2,0.2,0,0,1,0-.3h0.3l3.2,2.5-2-2.8a0.2,0.2,0,0,1,0-.3h0.3l2.7,3.9h0v0.4a0.2,0.2,0,0,1-.2.2h-4.9a0.2,0.2,0,0,1-.2-0.2,0.2,0.2,0,0,1,.2-0.2h3.9l-4.7-1.8A0.2,0.2,0,0,1,265.4,242.8Z"/>
    <path class="cls-49" d="M246.3,257.3a0.2,0.2,0,0,1,0-.3l3-3-3.4,1.8h-0.3a0.2,0.2,0,0,1,.1-0.3l3.6-1.9-3.4.6-0.3-.2a0.2,0.2,0,0,1,.2-0.2l4.7-.8h0.4a0.2,0.2,0,0,1,.1.3l-2.1,4.4h-0.3a0.2,0.2,0,0,1-.1-0.3l1.7-3.5-3.5,3.5h-0.3Z"/>
    <path class="cls-49" d="M292.6,218.2a0.2,0.2,0,0,1,.1.3l-1.5,3.9,2.4-3H294a0.2,0.2,0,0,1,0,.3l-2.6,3.2,2.9-1.9h0.3a0.2,0.2,0,0,1,0,.3l-3.9,2.7h-0.4a0.2,0.2,0,0,1-.2-0.2l0.2-4.9h0a0.2,0.2,0,0,1,.2-0.2,0.2,0.2,0,0,1,.2.2v3.9l1.8-4.6h0.3Z"/>
    <path class="cls-49" d="M289.6,204.4l-0.2.2-0.9,4.1-0.3-3.8a0.2,0.2,0,0,0-.4,0l0.3,4-1.2-3h-0.3a0.2,0.2,0,0,0-.1.3l1.6,4.2h0a0.2,0.2,0,0,0,.1.2h0.4l2.4-4.2h0a0.2,0.2,0,0,0-.1-0.3h-0.3l-2,3.4,1.1-4.8A0.2,0.2,0,0,0,289.6,204.4Z"/>
    <path class="cls-49" d="M272.8,270.9h-0.3l-3.2,2.7,2-3.2a0.2,0.2,0,0,0-.1-0.3H271l-2.2,3.3,0.9-3.1a0.2,0.2,0,0,0-.1-0.3h-0.3l-1.2,4.3h0a0.2,0.2,0,0,0-.1.2,0.2,0.2,0,0,0,0,.2h0.3l4.5-1.9h0a0.2,0.2,0,0,0,.1-0.3h-0.3l-3.6,1.5,3.7-3.2A0.2,0.2,0,0,0,272.8,270.9Z"/>
    <path class="cls-49" d="M257.8,268.3h0.3l4-1.3-3.1,2.1a0.2,0.2,0,0,0-.1.3h0.3l3.3-2.2-2.1,2.5a0.2,0.2,0,0,0,0,.3h0.3l2.8-3.5h0v-0.3a0.2,0.2,0,0,0-.2-0.2h-4.9a0.2,0.2,0,0,0,0,.4h3.9l-4.7,1.5A0.2,0.2,0,0,0,257.8,268.3Z"/>
    <path class="cls-49" d="M276.5,223.3a0.3,0.3,0,0,0-.1.4l2.7,4.7-3.5-3.3a0.3,0.3,0,1,0-.4.4l3.7,3.5-3.8-1.9a0.3,0.3,0,0,0-.2.5l5.2,2.6h0.5a0.3,0.3,0,0,0,.2-0.3l-1.3-6.1h0a0.3,0.3,0,0,0-.5.1l1.1,4.9-3.2-5.5A0.3,0.3,0,0,0,276.5,223.3Z"/>
    <path class="cls-49" d="M237.7,238.3a0.3,0.3,0,0,0,.3.2l5.3-1-4.3,2.2a0.3,0.3,0,1,0,.2.5l4.6-2.3-3,2.9a0.3,0.3,0,0,0,.4.4l4.2-4h0l0.2-.2v-0.2a0.3,0.3,0,0,0-.2-0.3l-6.2-.8h0a0.3,0.3,0,0,0-.1.5l5,0.6-6.3,1.2A0.3,0.3,0,0,0,237.7,238.3Z"/>
    <path class="cls-49" d="M303.6,227.7a0.2,0.2,0,0,0,0-.3l-3.4-2.4,3.6,1.2H304a0.2,0.2,0,0,0-.1-0.3l-3.8-1.3h3.3a0.2,0.2,0,0,0,0-.4h-4.9a0.2,0.2,0,0,0,0,.3l2.9,3.9h0.3a0.2,0.2,0,0,0,0-.3l-2.3-3.1,4,2.9h0.3Z"/>
    <path class="cls-49" d="M256.2,261.7a0.2,0.2,0,0,0,.2-0.2l-0.6-4.2,1.6,3.4h0.3a0.2,0.2,0,0,0,.1-0.3L256,257l2.2,2.4h0.3a0.2,0.2,0,0,0,0-.3l-3-3.3h0l-0.2-.2h-0.1l-0.2.2-0.8,4.8h0a0.2,0.2,0,0,0,.2.2l0.2-.2,0.6-3.9,0.8,4.9Z"/>
    <path class="cls-49" d="M242.6,246.6h0.3l3.9-1.4-3,2.2a0.2,0.2,0,0,0,0,.3H244l3.2-2.4-1.9,2.6a0.2,0.2,0,0,0,0,.3h0.3l2.7-3.6h0v-0.3a0.2,0.2,0,0,0-.2-0.2l-4.9.2h0a0.2,0.2,0,0,0,0,.4h3.9l-4.6,1.7A0.2,0.2,0,0,0,242.6,246.6Z"/>
    <path class="cls-49" d="M279.4,269.9a0.2,0.2,0,0,0,.1-0.3l-1.3-4,2.1,3.1h0.3a0.2,0.2,0,0,0,.1-0.3l-2.2-3.3,2.6,2h0.3a0.2,0.2,0,0,0,0-.3l-3.5-2.8h-0.3a0.2,0.2,0,0,0-.2.2V269h0a0.2,0.2,0,0,0,.4,0V265l1.5,4.7h0.3Z"/>
    <path class="cls-49" d="M256.6,246.8h-0.2l-2.9,1.9,2.1-2.8a0.3,0.3,0,0,0,0-.3h-0.2l-2.2,2.9,1.1-3.1a0.3,0.3,0,0,0-.1-0.3h-0.2l-1.6,4.3h0a0.2,0.2,0,0,0-.1.2,0.3,0.3,0,0,0,0,.2,0.2,0.2,0,0,0,.2.2l3.9-.5h0a0.2,0.2,0,0,0,.1-0.3,0.2,0.2,0,0,0-.2-0.2l-3.1.4,3.5-2.3A0.3,0.3,0,0,0,256.6,246.8Z"/>
    <path class="cls-49" d="M267,219.2h2.7l-2.3-.5v-0.2h0.2l2.4,0.6-1.7-1a0.1,0.1,0,0,1,0-.2h0.2l2.4,1.4h0.2a0.1,0.1,0,0,1-.1.2l-2.8,1.1h-0.2a0.1,0.1,0,0,1,.1-0.2l2.3-.9-3.1.2H267Z"/>
    <path class="cls-49" d="M262.7,218.2a0.1,0.1,0,0,1,0,.2l-1.6,2.1,1.9-1.4h0.2a0.1,0.1,0,0,1,0,.2l-2,1.4,1.9-.6h0.2a0.1,0.1,0,0,1-.1.2l-2.6.9h-0.2a0.1,0.1,0,0,1-.1-0.2l1-2.8h0.2a0.1,0.1,0,0,1,.1.2l-0.8,2.3,1.9-2.4h0.2Z"/>
    <path class="cls-49" d="M263.2,237.8a0.2,0.2,0,0,1,0,.3l-2.6,3.4,3.1-2.3h0.3a0.2,0.2,0,0,1,0,.3l-3.3,2.4,3.2-1.1h0.3a0.2,0.2,0,0,1-.1.3l-4.4,1.5h-0.4a0.2,0.2,0,0,1-.1-0.3l1.7-4.7h0.3a0.2,0.2,0,0,1,.1.3l-1.4,3.8,3.1-4h0.3Z"/>
    <path class="cls-49" d="M246.9,234.4a0.2,0.2,0,0,1,0-.3l2.3-2.8-2.7,1.9h-0.2a0.2,0.2,0,0,1,0-.2l2.9-2-2.7.9h-0.2a0.2,0.2,0,0,1,.1-0.2l3.7-1.2h0.3a0.2,0.2,0,0,1,.1.2l-1.5,3.9h-0.2a0.2,0.2,0,0,1-.1-0.2l1.2-3.2-2.7,3.3h-0.3Z"/>
    <path class="cls-49" d="M248,220.3h0.2l2.1,2.5-1.1-2.9a0.2,0.2,0,0,1,.1-0.3h0.2l1.2,3-0.2-2.8a0.2,0.2,0,0,1,.2-0.2h0.2l0.3,3.9h0a0.2,0.2,0,0,1,0,.2,0.2,0.2,0,0,1,0,.2h-0.2l-3.3-1.8h0a0.2,0.2,0,0,1,0-.2h0.2l2.6,1.4-2.5-3A0.2,0.2,0,0,1,248,220.3Z"/>
    <path class="cls-49" d="M255.9,240.7a0.2,0.2,0,0,0,.1-0.2l-1.7-2.8,2.4,2h0.3a0.1,0.1,0,0,0,0-.2l-2.5-2.1,2.6,1.1h0.3a0.1,0.1,0,0,0-.1-0.2l-3.6-1.5h-0.3a0.2,0.2,0,0,0-.2.2l0.6,3.7H254a0.2,0.2,0,0,0,.2-0.2l-0.5-3,2,3.3h0.3Z"/>
    <path class="cls-49" d="M256.9,211.9a0.1,0.1,0,0,1,.1.2l-1,2.4,1.4-1.8h0.2a0.1,0.1,0,0,1,0,.2l-1.5,1.9,1.7-1.2H258a0.1,0.1,0,0,1,0,.2l-2.3,1.6h-0.3l0.2-3h0.3v2.4l1.1-2.8h0.2Z"/>
    <path class="cls-49" d="M239.4,217.2h0.3l3.4,2-2.4-2.6a0.2,0.2,0,0,1,0-.3h0.3l2.6,2.7-1.3-2.8a0.2,0.2,0,0,1,.1-0.3h0.3l1.9,3.8h0a0.2,0.2,0,0,1,.1.2,0.2,0.2,0,0,1,0,.2h-0.2l-4.5-1h0a0.2,0.2,0,0,1-.1-0.2h0.2l3.6,0.8-4-2.4A0.2,0.2,0,0,1,239.4,217.2Z"/>
    <path class="cls-49" d="M239.1,227.5l0.2-.2,3.9,0.8-3.1-1.6a0.2,0.2,0,0,1-.1-0.3h0.3l3.3,1.7-2.2-2.2a0.2,0.2,0,0,1,0-.3h0.3l3,3h0l0.2,0.2h0.1a0.2,0.2,0,0,1-.2.2l-4.5.6h0l-0.2-.2a0.2,0.2,0,0,1,.2-0.2l3.7-.4-4.6-.9A0.2,0.2,0,0,1,239.1,227.5Z"/>
    <path class="cls-49" d="M247.8,209a0.2,0.2,0,0,0-.2.2v4l-0.9-3.4h-0.2a0.2,0.2,0,0,0-.1.2l1,3.6-1.6-2.6h-0.3a0.2,0.2,0,0,0-.1.3l2.3,3.6h0v0.2H248l1.5-4.3h0a0.2,0.2,0,0,0-.1-0.2h-0.2l-1.2,3.5v-4.7A0.2,0.2,0,0,0,247.8,209Z"/>
    <path class="cls-50" d="M261.1,182.3a0.2,0.2,0,0,0-.2.2l0.4,3.9-1.4-3.3h-0.3a0.2,0.2,0,0,0-.1.3l1.4,3.5-2-2.4h-0.3a0.2,0.2,0,0,0,0,.3l2.7,3.3h0V188H262l0.9-4.5h0a0.2,0.2,0,0,0-.2-0.2h-0.2l-0.8,3.6-0.5-4.6Z"/>
    <path class="cls-50" d="M278.8,195.7h-0.3l-2.3,3,1.2-3.2a0.2,0.2,0,0,0-.1-0.2h-0.2l-1.3,3.3,0.2-2.9a0.2,0.2,0,0,0-.2-0.2l-0.2.2-0.3,4h0a0.2,0.2,0,0,0,0,.2,0.2,0.2,0,0,0,0,.2h0.3l3.6-2.5h0a0.2,0.2,0,0,0,0-.3H279l-2.9,2,2.7-3.5A0.2,0.2,0,0,0,278.8,195.7Z"/>
    <path class="cls-50" d="M278,187.9h-0.3l-3,2.6,1.9-3a0.2,0.2,0,0,0-.1-0.3h-0.3l-2,3.1,0.8-2.9a0.2,0.2,0,0,0-.1-0.2h-0.2l-1.2,4.1h0a0.2,0.2,0,0,0-.1.2,0.2,0.2,0,0,0,0,.2h0.3l4.2-1.8h0a0.2,0.2,0,0,0,.1-0.3h-0.3l-3.4,1.4,3.5-3A0.2,0.2,0,0,0,278,187.9Z"/>
    <path class="cls-50" d="M260.4,196l-0.2.2-0.8,3.9-0.3-3.5-0.2-.2a0.2,0.2,0,0,0-.2.2l0.3,3.7-1.2-2.8h-0.3a0.2,0.2,0,0,0-.1.3l1.6,3.9h0a0.2,0.2,0,0,0,.1.2h0.4l2.2-4h0a0.2,0.2,0,0,0-.1-0.3h-0.3l-1.8,3.2,0.9-4.6A0.2,0.2,0,0,0,260.4,196Z"/>
    <path class="cls-50" d="M263.8,212.7a0.3,0.3,0,0,0,.1-0.4l-2.6-4.6,3.4,3.3a0.3,0.3,0,0,0,.4-0.4l-3.6-3.5,3.7,1.9a0.3,0.3,0,1,0,.2-0.5l-5.1-2.6h-0.5a0.3,0.3,0,0,0-.2.3l1.3,6h0a0.3,0.3,0,0,0,.5-0.1l-1-4.8,3.1,5.4A0.3,0.3,0,0,0,263.8,212.7Z"/>
    <path class="cls-50" d="M264,191.2h0.3l3,2.6-1.9-3a0.2,0.2,0,0,1,.1-0.3h0.3l2,3.1-0.8-2.9a0.2,0.2,0,0,1,.1-0.2h0.2l1.2,4.1h0a0.2,0.2,0,0,1,.1.2,0.2,0.2,0,0,1,0,.2h-0.3l-4.2-1.8h0a0.2,0.2,0,0,1-.1-0.3h0.3l3.4,1.4-3.5-3A0.2,0.2,0,0,1,264,191.2Z"/>
    <path class="cls-50" d="M251.3,202a0.2,0.2,0,0,0,0,.2l2.1,2.3-2.3-1.5H251a0.2,0.2,0,0,0,.1.2l2.5,1.6-2.2-.6h-0.2a0.2,0.2,0,0,0,.1.2l3.1,0.9h0.3a0.1,0.1,0,0,0,.1-0.2L253,202h-0.2a0.1,0.1,0,0,0-.1.2l1.3,2.7-2.5-2.8h-0.2Z"/>
    <path class="cls-50" d="M262.9,215.3a0.2,0.2,0,0,0,0,.2l2.1,2.3-2.3-1.5h-0.2a0.2,0.2,0,0,0,.1.2l2.5,1.6-2.2-.6h-0.2a0.2,0.2,0,0,0,.1.2l3.1,0.9h0.3a0.1,0.1,0,0,0,.1-0.2l-1.7-3.3h-0.2a0.1,0.1,0,0,0-.1.2l1.3,2.7-2.5-2.8h-0.2Z"/>
    <path class="cls-50" d="M270.1,199.3h-0.3l-3,3.4,1.7-3.9a0.3,0.3,0,0,0-.1-0.3,0.2,0.2,0,0,0-.3.1l-1.8,4.1,0.4-3.9a0.3,0.3,0,0,0-.2-0.3,0.2,0.2,0,0,0-.3.2l-0.6,5.3h0a0.3,0.3,0,0,0,0,.3,0.3,0.3,0,0,0,0,.2,0.2,0.2,0,0,0,.3.1l4.6-2.4h0a0.2,0.2,0,0,0,.1-0.3,0.2,0.2,0,0,0-.3-0.1l-3.7,1.9,3.6-4A0.3,0.3,0,0,0,270.1,199.3Z"/>
    <path class="cls-49" d="M295.6,252.1a0.2,0.2,0,0,0,.2-0.3l-1.6-4.8,2.7,3.7h0.4a0.2,0.2,0,0,0,.1-0.3l-2.9-3.9,3.3,2.4h0.4a0.2,0.2,0,0,0,0-.3l-4.5-3.3h0l-0.2-.2h-0.2a0.3,0.3,0,0,0-.3.2V251h0a0.3,0.3,0,0,0,.3.2,0.3,0.3,0,0,0,.3-0.2v-4.7l1.9,5.6A0.3,0.3,0,0,0,295.6,252.1Z"/>
    <path class="cls-49" d="M283.5,257.4a0.3,0.3,0,0,1-.3-0.2l-1.1-5.4-0.5,5a0.3,0.3,0,0,1-.3.3,0.3,0.3,0,0,1-.3-0.3l0.6-5.3-1.8,4.1a0.3,0.3,0,0,1-.4.2,0.3,0.3,0,0,1-.2-0.3l2.4-5.7h0a0.3,0.3,0,0,1,.1-0.3v-0.2a0.3,0.3,0,0,1,.4.1l3.2,5.5h0a0.3,0.3,0,0,1-.1.4,0.3,0.3,0,0,1-.4-0.1l-2.6-4.4,1.3,6.4A0.3,0.3,0,0,1,283.5,257.4Z"/>
    <path class="cls-49" d="M268.3,259.4h0.3l2.9-3.4-1.6,3.7a0.2,0.2,0,0,0,.1.3h0.3L272,256l-0.4,3.6a0.2,0.2,0,0,0,.2.3,0.2,0.2,0,0,0,.2-0.2l0.5-4.9h0a0.2,0.2,0,0,0,0-.3,0.2,0.2,0,0,0,0-.2h-0.3l-4.4,2.5h0a0.2,0.2,0,0,0-.1.3h0.3l3.6-2-3.4,4A0.2,0.2,0,0,0,268.3,259.4Z"/>
  </g>
  <circle class="cls-3" cx="266.1" cy="450.1" r="55.8"/>
  <circle class="cls-3" cx="104.6" cy="598.5" r="50.7"/>
  <g class="cls-31">
    <path class="cls-51" d="M82.1,625.8s-0.6,4.6,3,7c0,0,2.4-3.2,2.1-5.3S82.8,624,82.1,625.8Z"/>
    <path class="cls-51" d="M125.5,625.8s0.6,4.6-3,7c0,0-2.4-3.2-2.1-5.3S124.8,624,125.5,625.8Z"/>
    <g>
      <path class="cls-52" d="M86.6,634.2s2,12,3.1,14h14.2V635.6Z"/>
      <path class="cls-53" d="M89.6,648.2c0-4,3.2-6.3,7.2-6.3s7.2,2.3,7.2,6.3"/>
      <path class="cls-52" d="M121.1,634.2s-2,12-3.1,14H103.8V635.6Z"/>
      <path class="cls-53" d="M118.1,648.2c0-4-3.2-6.3-7.2-6.3s-7.2,2.3-7.2,6.3"/>
    </g>
    <path class="cls-54" d="M126.4,625.9l0.4-5h-1.4c0-1.7-4.3-10.6-4.3-10.6-3.3,7.7-15.9,6.4-17.2,6.3h-0.1c-1.3.1-13.9,1.4-17.2-6.3,0,0-4.3,8.9-4.3,10.6H80.9l0.4,5h4.3l0.7,2.8-1.5,5.4a167.8,167.8,0,0,0,19,1.5h0.1a167.8,167.8,0,0,0,19-1.5l-1.5-5.4,0.7-2.8h4.3Z"/>
    <path class="cls-55" d="M121.8,622.6l-18,.9-18-.9a11.2,11.2,0,0,0,.2,6.1l17.5,0.8h0.4l17.5-.8A11.2,11.2,0,0,0,121.8,622.6Z"/>
    <polygon class="cls-56" points="80.9 620.9 85.9 620.9 85.4 625.9 81.3 625.9 80.9 620.9"/>
    <polygon class="cls-56" points="122 620.9 126.9 620.9 126.5 625.9 122.4 625.9 122 620.9"/>
    <path class="cls-51" d="M118.5,577c0.7-2.4-.6-6.7-0.6-6.7a35,35,0,0,0-14.2-2.1,35,35,0,0,0-14.2,2.1s-1.3,4.3-.6,6.7c0,0-3.7,0-3,4.7s3.9,4.3,3.9,4.3,4.1,9.4,13.5,9.8h0.7c9.4-.4,13.5-9.8,13.5-9.8s3.2,0.4,3.9-4.3S118.5,577,118.5,577Z"/>
    <ellipse class="cls-57" cx="103.9" cy="583" rx="7.8" ry="5.9"/>
    <path class="cls-58" d="M89.6,570.3s-2.4,2.6-.6,6.7a10.4,10.4,0,0,1,.7,7.2s-7.8,8.5-6,18.1,4.9,11.9,6.6,13.4,8.1,3.3,8.1,8.2a10,10,0,0,0,1.1-3.2s4.2,1.1,3.5,6.6a7.8,7.8,0,0,0,2-4.7c0-2.7.3-4.7,1.7-3.1a1.6,1.6,0,0,1,0,2,8.8,8.8,0,0,1,5.3-3.8,15.2,15.2,0,0,0,10.5-9.1c2.5-5.7,4-12.4-1.1-20.4,0,0-3.5-3.5-3.3-5.3s1.4-5.6,1.4-7.5a11.8,11.8,0,0,0-.3-2.9l1.4,1.5-1.1-3.3s-1.4-2-2.6-.8-0.3,6.1-.3,7.4,1,5,.6,6.8-1.6,5.6-4.3,7.8-3.7,2.5-3.7,2.5a14.3,14.3,0,0,0-10.2.3s-7-2.9-8-10.3c0,0,.5-5.9.4-7s0.1-7.8.1-7.8S90,569.4,89.6,570.3Z"/>
    <g>
      <path class="cls-59" d="M103.9,589s-4.4-4.2-7.2-1.2-5.2.8-4.6-.3a2.7,2.7,0,0,1,1.8-1.2s-2.8-2-3.7,1.5a3.8,3.8,0,0,0,3.5,5.1C95.4,592.8,100.7,593,103.9,589Z"/>
      <path class="cls-59" d="M103.9,589s4.4-4.2,7.2-1.2,5.2,0.8,4.6-.3a2.7,2.7,0,0,0-1.8-1.2s2.8-2,3.7,1.5a3.8,3.8,0,0,1-3.5,5.1C112.5,592.8,107.1,593,103.9,589Z"/>
    </g>
    <g>
      <path class="cls-59" d="M105.7,576s0.9-5.8,8.2-4.4c0,0,3.1,1,3.5,3.9A10.2,10.2,0,0,0,105.7,576Z"/>
      <path class="cls-59" d="M101.9,576s-0.9-5.8-8.2-4.4c0,0-3.1,1-3.5,3.9A10.2,10.2,0,0,1,101.9,576Z"/>
    </g>
    <path class="cls-60" d="M88.1,571l12.8-41.9s0.8-2.8,2.8-2.7,3.2,3.2,3.2,3.2l12.5,41.1A48.9,48.9,0,0,0,88.1,571Z"/>
  </g>
  <circle class="cls-3" cx="265.6" cy="598.5" r="50.7"/>
  <g class="cls-31">
    <polygon class="cls-61" points="260.5 584.5 251.2 602.5 260.7 610.6 260.5 584.5"/>
    <polygon class="cls-62" points="268.3 601.8 260.7 610.6 260.5 584.5 268.3 601.8"/>
    <polygon class="cls-63" points="260.7 610.6 263.7 635.4 258.5 635.7 260.4 617.1 253.6 606.9 251.2 602.5 260.7 610.6"/>
    <polygon class="cls-64" points="270.8 615.1 262.8 608.1 260.7 610.6 263.7 635.4 269.5 635.5 270.8 615.1"/>
    <polygon class="cls-65" points="268.3 601.8 274.9 605.1 270.8 615.1 262.8 608.1 268.3 601.8"/>
    <polygon class="cls-66" points="260.5 584.5 280.4 599.7 274.9 605.1 268.3 601.8 260.5 584.5"/>
    <polygon class="cls-67" points="280.4 599.7 280.4 604.7 276.9 609 276 630.5 269.5 635.5 270.8 615.1 274.9 605.1 280.4 599.7"/>
    <polygon class="cls-68" points="280.4 604.7 292 604.9 293.5 611.1 287.1 612.5 276.9 609 280.4 604.7"/>
    <polygon class="cls-69" points="253.6 606.9 246.3 606.9 242.2 608.8 239.6 612.4 246.8 612.7 253.6 606.9"/>
    <polygon class="cls-70" points="237.8 617.5 243.9 618.9 246.8 612.7 239.6 612.4 237.8 617.5"/>
    <polygon class="cls-71" points="237.2 636.9 238.9 631.2 237.8 617.5 243.9 618.9 244.1 636.9 243 643.8 237.2 636.9"/>
    <polygon class="cls-72" points="244.1 636.9 249 637.3 252.7 621.6 246.8 612.7 243.9 618.9 244.1 636.9"/>
    <polygon class="cls-73" points="251.9 642.9 249 637.3 252.7 621.6 246.8 612.7 253.6 606.9 260.4 617.1 258.5 635.7 258.2 638.1 251.9 642.9"/>
    <polygon class="cls-74" points="276.5 618.7 276.9 609 279.9 610.1 282.4 619.7 276.5 618.7"/>
    <polygon class="cls-75" points="287.3 614.2 282.4 619.7 279.9 610.1 287.1 612.5 287.3 614.2"/>
    <polygon class="cls-76" points="295.5 618.1 293.5 611.1 287.1 612.5 288.3 620.4 295.5 618.1"/>
    <polygon class="cls-77" points="294.2 633 295.5 618.1 288.3 620.4 287.4 625.5 287.2 634.4 294.2 633"/>
    <polygon class="cls-78" points="281.2 625.2 287.4 625.5 288.3 620.4 287.3 614.2 282.4 619.7 281.2 625.2"/>
    <polygon class="cls-75" points="281 634.3 281.2 625.2 282.4 619.7 276.5 618.7 276 630.5 281 634.3"/>
    <polygon class="cls-79" points="269.5 635.5 275.8 636.8 281 634.3 276 630.5 269.5 635.5"/>
    <polygon class="cls-80" points="281.2 625.2 287.4 625.5 287.2 634.4 281 634.3 281.2 625.2"/>
    <polygon class="cls-81" points="285.2 639.7 276.3 642.5 275.8 636.8 281 634.3 287.2 634.4 285.2 639.7"/>
    <polygon class="cls-82" points="258.2 638.1 265.5 638.9 269.5 635.5 263.7 635.4 258.5 635.7 258.2 638.1"/>
    <polygon class="cls-83" points="251.9 642.9 262.3 643.2 265.5 638.9 258.2 638.1 251.9 642.9"/>
    <polygon class="cls-84" points="269.8 643.2 276.3 642.5 275.8 636.8 269.5 635.5 265.5 638.9 269.8 643.2"/>
    <polygon class="cls-85" points="251.9 642.9 256.4 645.4 267.4 645.3 269.9 644.5 280.4 644.4 286.3 641.3 294 639 296 632.7 294.3 631.8 294.2 633 287.2 634.4 285.2 639.7 276.3 642.5 269.8 643.2 265.5 638.9 262.3 643.2 251.9 642.9"/>
    <polygon class="cls-86" points="243 643.8 251.9 642.9 249 637.3 244.1 636.9 243 643.8"/>
  </g>
  <g>
    <path class="cls-87" d="M479.2,32.6c22.1-6.2,148.7-38.2,305.1-1.3"/>
    <circle class="cls-88" cx="479.4" cy="32.6" r="3.8" transform="translate(9.4 132.7) rotate(-15.9)"/>
    <circle class="cls-88" cx="784.1" cy="31.3" r="3.8" transform="translate(579.5 788.9) rotate(-77.2)"/>
  </g>
  <g>
    <rect class="cls-89" x="637" y="16" width="266" height="123"/>
    <text class="cls-90" transform="translate(772 44.7)"><tspan class="cls-91">bring forwards</tspan><tspan x="0" y="24">send backwards</tspan><tspan x="0" y="48">grow by 5%</tspan><tspan x="0" y="72">shrink by 5%</tspan></text>
    <text class="cls-92" transform="translate(748 45.4)"><tspan x="0" y="24"></tspan><tspan x="0" y="48"></tspan><tspan x="0" y="72"></tspan></text>
    <g class="cls-31">
      <path class="cls-16" d="M720.2,113.8s-6.5-.9-16.6,2.5l-10.1,3.4s9.7,2.1,18.3-1.2S720.2,113.8,720.2,113.8Z"/>
      <path class="cls-17" d="M666.8,102.4s-4.1-6.2-.6-16.2c0,0,15.6,5.6,15,17C681.2,103.2,676.6,107.4,666.8,102.4Z"/>
      <path class="cls-18" d="M680,75.1s-8.3,15.1,1,23.2,7.7-7.9,5.7-13.4A28.3,28.3,0,0,0,680,75.1Z"/>
      <path class="cls-19" d="M689.9,79.8s11.6,12.4,5.5,20.9c0,0-7.1.9-7.5-6.5A43.4,43.4,0,0,1,689.9,79.8Z"/>
      <path class="cls-20" d="M706.4,78s-8.7,7.7-9.7,17.8,7.1,7.9,9.1,5.8,4.3-5.2,3.5-12.7S706.4,78,706.4,78Z"/>
      <path class="cls-21" d="M715.5,88.8s-12.8,9.6-13.6,15.3,7.3,7.6,11,3.5S718,97.1,715.5,88.8Z"/>
      <path class="cls-22" d="M693.8,115.1a91.7,91.7,0,0,1,27.8-9.6s-5.9,15.7-28,14.1C693.6,119.7,688.5,117.5,693.8,115.1Z"/>
      <path class="cls-23" d="M698.1,106.6s11.2-7.7,22.7-8c0,0-2.8,16.8-27.2,21.1C693.6,119.7,688.1,111.6,698.1,106.6Z"/>
      <path class="cls-24" d="M672.9,93s-3.9,6.2-1.8,10.7,10.8,7.1,10.8,7.1,1.6-8.8-3.9-14S672.9,93,672.9,93Z"/>
      <path class="cls-24" d="M704.2,86.6s-10.4,6-10.4,16.2,7.9,5.4,7.9,5.4S711.3,100.9,704.2,86.6Z"/>
      <path class="cls-25" d="M655.9,107.4s6.7,9.6,17.7,10.7,6.7-3.3,6.7-3.3S679.4,106,655.9,107.4Z"/>
      <path class="cls-16" d="M663.4,101.5s-0.4,12,10.3,16.6a30.6,30.6,0,0,0,19.9,1.6S684.7,106.1,663.4,101.5Z"/>
      <path class="cls-26" d="M677.8,87.2s16.6,8.8,19.9,16.5-4.1,16-4.1,16-10.1.8-15.8-13A32.6,32.6,0,0,1,677.8,87.2Z"/>
    </g>
  </g>
</svg>
