<svg id="Layer_1" data-name="Layer 1" xmlns="http://www.w3.org/2000/svg" width="920" height="700" viewBox="0 0 920 700">
  <defs>
    <style>
      .cls-1, .cls-84, .cls-87 {
        fill: #424242;
      }

      .cls-2 {
        fill: #dcedc8;
      }

      .cls-3 {
        fill: #fff;
      }

      .cls-4 {
        fill: #78583d;
      }

      .cls-5 {
        fill: #896a52;
      }

      .cls-6 {
        fill: #2b5a2c;
      }

      .cls-7 {
        fill: #419b46;
      }

      .cls-8 {
        fill: #bd539e;
      }

      .cls-9 {
        fill: #9633ff;
      }

      .cls-10 {
        fill: #05331f;
      }

      .cls-11 {
        fill: #17592d;
      }

      .cls-12 {
        fill: #126b36;
      }

      .cls-13 {
        fill: #1f4f26;
      }

      .cls-14 {
        fill: #106433;
      }

      .cls-15 {
        fill: #a6ce39;
        opacity: 0.6;
      }

      .cls-16, .cls-83, .cls-85 {
        fill: none;
        stroke-miterlimit: 10;
      }

      .cls-16 {
        stroke: #1f4f26;
        stroke-linecap: round;
        stroke-width: 2px;
      }

      .cls-17 {
        fill: #a82642;
      }

      .cls-18 {
        fill: #698142;
      }

      .cls-19 {
        fill: #85a057;
      }

      .cls-20 {
        fill: #7260a4;
      }

      .cls-21 {
        fill: #997bb7;
      }

      .cls-22 {
        fill: #c5dc80;
      }

      .cls-23 {
        fill: #bca0cb;
      }

      .cls-24 {
        fill: #3fadad;
      }

      .cls-25 {
        fill: #25af95;
      }

      .cls-26 {
        fill: #0d8f6e;
      }

      .cls-27 {
        fill: #0f8a92;
      }

      .cls-28 {
        fill: #1ea099;
      }

      .cls-29 {
        fill: #499fb2;
      }

      .cls-30 {
        fill: #218b88;
      }

      .cls-31 {
        fill: #35a48e;
      }

      .cls-32 {
        fill: #3abec2;
      }

      .cls-33 {
        fill: #218c8f;
      }

      .cls-34 {
        fill: #1f9995;
      }

      .cls-35 {
        fill: #bed075;
      }

      .cls-36 {
        fill: #aeb557;
      }

      .cls-37 {
        fill: #bdc55b;
      }

      .cls-38 {
        fill: #4f8e4f;
      }

      .cls-39 {
        fill: #9bb351;
      }

      .cls-40 {
        fill: #95c168;
      }

      .cls-41 {
        fill: #f17e9a;
      }

      .cls-42 {
        fill: #f7b3c0;
      }

      .cls-43 {
        fill: #f59fb0;
      }

      .cls-44 {
        fill: #feba97;
      }

      .cls-45 {
        fill: #475478;
      }

      .cls-46 {
        fill: #282f39;
      }

      .cls-47 {
        fill: #768f0b;
      }

      .cls-48 {
        fill: #352e24;
      }

      .cls-49 {
        fill: #717c05;
      }

      .cls-50 {
        fill: #ffa780;
      }

      .cls-51 {
        fill: #c6c6c6;
      }

      .cls-52 {
        fill: #eaeaea;
      }

      .cls-53 {
        fill: #ff483c;
      }

      .cls-54 {
        fill: #a6a8ab;
      }

      .cls-55 {
        fill: #a3846f;
      }

      .cls-56 {
        fill: #ba9983;
      }

      .cls-57 {
        fill: #c8a6ee;
      }

      .cls-58 {
        fill: #b98fe2;
      }

      .cls-59 {
        fill: #b995e8;
      }

      .cls-60 {
        fill: #af70d1;
      }

      .cls-61 {
        fill: #cdabf2;
      }

      .cls-62 {
        fill: #965cb7;
      }

      .cls-63 {
        fill: #85a;
      }

      .cls-64 {
        fill: #ac6eca;
      }

      .cls-65 {
        fill: #bf92de;
      }

      .cls-66 {
        fill: #e5b1f6;
      }

      .cls-67 {
        fill: #cca9ee;
      }

      .cls-68 {
        fill: #ae72d2;
      }

      .cls-69 {
        fill: #975db6;
      }

      .cls-70 {
        fill: #cba7f0;
      }

      .cls-71 {
        fill: #d2b5f7;
      }

      .cls-72 {
        fill: #b88ee1;
      }

      .cls-73 {
        fill: #8a55ab;
      }

      .cls-74 {
        fill: #e2b5fb;
      }

      .cls-75 {
        fill: #aa74d8;
      }

      .cls-76 {
        fill: #b78de2;
      }

      .cls-77 {
        fill: #e0b6fb;
      }

      .cls-78 {
        fill: #cba8ed;
      }

      .cls-79 {
        fill: #dbb1f4;
      }

      .cls-80 {
        fill: #b48fdf;
      }

      .cls-81 {
        fill: #7b4a84;
      }

      .cls-82 {
        fill: #895391;
      }

      .cls-83 {
        stroke: #424242;
        stroke-width: 0.8px;
      }

      .cls-84, .cls-86, .cls-87 {
        font-size: 14px;
      }

      .cls-84, .cls-86 {
        font-family: Georgia;
      }

      .cls-85 {
        stroke: #a6a8ab;
      }

      .cls-87 {
        font-family: FontAwesome;
      }

      .cls-88 {
        opacity: 0.8;
      }
    </style>
  </defs>
  <title>succulent-garden-instructions</title>
  <rect class="cls-1" x="0.9" width="920" height="700"/>
  <rect class="cls-2" x="11.5" y="10" width="347.4" height="680"/>
  <rect class="cls-3" x="370.8" y="10" width="538.2" height="680.28"/>
  <g id="BOTTLE">
    <g id="SOIL">
      <path class="cls-4" d="M428.4,439.7s8.9-6.2,34.8-4.5,36.6,7.1,46.4,6.2,35.7-.9,35.7-0.9,26.8,6.2,36.6,4.5,25.9-6.2,52.6-6.2,38.3,2.7,57.1,1.8,35.7-5.4,46.4-3.6a35.6,35.6,0,0,0,18.7-1.8s-31.2,111.5-148,127.5S431.1,469.1,428.4,439.7Z"/>
      <g>
        <polygon class="cls-5" points="544.4 550.9 551 554.5 553.5 549 547.8 547.1 544.4 550.9"/>
        <polygon class="cls-5" points="590.4 552.8 594.4 549.1 591.2 546.1 588.6 549.6 590.4 552.8"/>
        <polygon class="cls-5" points="569.8 555.5 574.6 551 570.7 547.4 567.5 551.6 569.8 555.5"/>
        <polygon class="cls-5" points="603.5 549.6 609 553.3 611.7 548.7 606.8 546.6 603.5 549.6"/>
        <polygon class="cls-5" points="441.9 468.7 446.1 466.4 444.1 463.1 441 465.5 441.9 468.7"/>
        <polygon class="cls-5" points="465.6 468.2 464.4 473.5 468.7 474.2 468.9 469.8 465.6 468.2"/>
        <polygon class="cls-5" points="479 467.4 477.5 473.8 482.8 474.6 483 469.3 479 467.4"/>
        <polygon class="cls-5" points="456.5 478.2 449.9 478.2 450.3 483.5 455.5 482.5 456.5 478.2"/>
        <polygon class="cls-5" points="509.3 522 502.7 522 503.1 527.3 508.3 526.3 509.3 522"/>
        <polygon class="cls-5" points="470.7 487.7 474 491.2 476.7 488.3 473.5 486 470.7 487.7"/>
        <polygon class="cls-5" points="491.7 494.5 495.1 498 497.7 495.1 494.6 492.8 491.7 494.5"/>
        <polygon class="cls-5" points="636.1 541.7 636.9 545 639.6 545.3 640.1 541.3 636.1 541.7"/>
        <polygon class="cls-5" points="531.4 512.1 528.5 513.9 529 516.6 533 515.8 531.4 512.1"/>
        <polygon class="cls-5" points="539.5 456.9 543.7 454.6 541.7 451.3 538.6 453.7 539.5 456.9"/>
        <polygon class="cls-5" points="563.2 456.5 562 461.7 566.3 462.4 566.5 458.1 563.2 456.5"/>
        <polygon class="cls-5" points="568.3 476 571.6 479.4 574.3 476.6 571.1 474.3 568.3 476"/>
        <polygon class="cls-5" points="549.4 484.4 546.5 486.2 547 488.9 551.1 488.1 549.4 484.4"/>
        <polygon class="cls-5" points="465.5 449.6 467.3 452.8 469.6 451.9 467.1 448.4 465.5 449.6"/>
        <polygon class="cls-5" points="495.3 475.4 497.1 478.6 499.4 477.7 496.9 474.2 495.3 475.4"/>
        <polygon class="cls-5" points="574.4 492.1 576.2 495.2 578.6 494.4 576.1 490.9 574.4 492.1"/>
        <polygon class="cls-5" points="472 504.7 467.3 510.5 473.8 515 474.3 508.2 472 504.7"/>
        <polygon class="cls-5" points="506.1 461.4 510.8 463.9 512.6 459.9 508.5 458.6 506.1 461.4"/>
        <polygon class="cls-5" points="487.8 450.9 493.6 454 495.8 449.2 490.8 447.5 487.8 450.9"/>
        <polygon class="cls-5" points="513.2 472.8 511.4 479.1 516.6 480.2 517.1 474.9 513.2 472.8"/>
        <polygon class="cls-5" points="528.5 526.1 526.7 532.4 531.9 533.5 532.4 528.2 528.5 526.1"/>
        <polygon class="cls-5" points="540.8 471.2 534.2 471.2 534.6 476.5 539.8 475.5 540.8 471.2"/>
        <polygon class="cls-5" points="558.8 529.5 552.2 529.5 552.6 534.8 557.8 533.8 558.8 529.5"/>
        <polygon class="cls-5" points="556.3 497.7 551.6 503.5 558.1 508 558.6 501.2 556.3 497.7"/>
        <polygon class="cls-5" points="586.3 455.7 581.7 461.5 588.2 466 588.7 459.2 586.3 455.7"/>
        <polygon class="cls-5" points="522 492.5 517.9 495 520.1 498.2 523 495.7 522 492.5"/>
        <polygon class="cls-5" points="499.3 512.7 497.3 509.6 495.1 510.5 497.7 513.9 499.3 512.7"/>
        <polygon class="cls-5" points="449.2 452.3 453.6 446.2 446.9 442 446.7 448.9 449.2 452.3"/>
        <polygon class="cls-5" points="743.7 446.5 745 453.8 739 454.5 739 448.5 743.7 446.5"/>
        <polygon class="cls-5" points="732.2 467.4 727.5 469.9 725.6 466 729.8 464.6 732.2 467.4"/>
        <polygon class="cls-5" points="729.4 454.2 723.6 457.4 721.4 452.5 726.5 450.9 729.4 454.2"/>
        <polygon class="cls-5" points="725.1 478.8 726.9 485.1 721.6 486.2 721.1 481 725.1 478.8"/>
        <polygon class="cls-5" points="712.1 467.7 707.8 465.4 709.9 462.1 712.9 464.5 712.1 467.7"/>
        <polygon class="cls-5" points="688.4 467.3 689.6 472.5 685.3 473.2 685.1 468.8 688.4 467.3"/>
        <polygon class="cls-5" points="675 466.4 676.4 472.8 671.2 473.6 670.9 468.3 675 466.4"/>
        <polygon class="cls-5" points="697.5 477.2 704.1 477.2 703.7 482.5 698.5 481.6 697.5 477.2"/>
        <polygon class="cls-5" points="644.7 521 651.3 521 650.9 526.3 645.7 525.4 644.7 521"/>
        <polygon class="cls-5" points="683.2 486.7 679.9 490.2 677.3 487.3 680.4 485 683.2 486.7"/>
        <polygon class="cls-5" points="662.2 493.5 658.9 497 656.3 494.1 659.4 491.8 662.2 493.5"/>
        <polygon class="cls-5" points="702.2 495.2 705 497 704.5 499.7 700.5 498.8 702.2 495.2"/>
        <polygon class="cls-5" points="622.6 511.1 625.4 512.9 624.9 515.6 620.9 514.8 622.6 511.1"/>
        <polygon class="cls-5" points="614.5 455.9 610.2 453.6 612.3 450.3 615.3 452.7 614.5 455.9"/>
        <polygon class="cls-5" points="588.9 474.9 590.1 480.1 585.8 480.8 585.6 476.5 588.9 474.9"/>
        <polygon class="cls-5" points="604.6 483.4 607.4 485.2 606.9 487.9 602.9 487.1 604.6 483.4"/>
        <polygon class="cls-5" points="688.5 448.6 686.6 451.8 684.3 451 686.8 447.5 688.5 448.6"/>
        <polygon class="cls-5" points="658.7 474.4 656.9 477.6 654.5 476.7 657 473.2 658.7 474.4"/>
        <polygon class="cls-5" points="682 503.7 686.6 509.5 680.1 514 679.6 507.2 682 503.7"/>
        <polygon class="cls-5" points="647.9 460.4 643.1 462.9 641.3 459 645.4 457.6 647.9 460.4"/>
        <polygon class="cls-5" points="640.7 471.8 642.5 478.1 637.3 479.2 636.8 473.9 640.7 471.8"/>
        <polygon class="cls-5" points="625.5 525.1 627.3 531.4 622 532.5 621.5 527.2 625.5 525.1"/>
        <polygon class="cls-5" points="613.1 470.2 619.7 470.2 619.4 475.5 614.1 474.6 613.1 470.2"/>
        <polygon class="cls-5" points="595.1 528.5 601.7 528.5 601.3 533.8 596.1 532.9 595.1 528.5"/>
        <polygon class="cls-5" points="597.6 496.7 602.3 502.5 595.8 507 595.3 500.2 597.6 496.7"/>
        <polygon class="cls-5" points="631.9 491.6 636.1 494 633.9 497.2 630.9 494.7 631.9 491.6"/>
        <polygon class="cls-5" points="654.6 511.7 656.6 508.6 658.9 509.5 656.2 512.9 654.6 511.7"/>
        <polygon class="cls-5" points="663.7 457 659.3 450.9 666 446.7 666.2 453.6 663.7 457"/>
        <polygon class="cls-5" points="578.1 526.6 573.7 520.5 580.4 516.3 580.6 523.2 578.1 526.6"/>
      </g>
    </g>
    <g>
      <path class="cls-6" d="M529.5,355.4s-1.4-33.4,16.2-36.2S567.2,344,567.2,344s-1.4,55.8-11.4,57.2-17.6,4.3-17.6-2.4S529.5,355.4,529.5,355.4Z"/>
      <path class="cls-7" d="M545.7,402.6s1.4-51.5-21-47.7,0.5,73.9.5,73.9,8.6,19.5,18.6,19.1,17.2,3.8,24.8-7.6,33.9-67.7,24.8-91.1-35.3-14.3-41.5,8.6A193.3,193.3,0,0,0,545.7,402.6Z"/>
      <path class="cls-8" d="M597.1,341.4a0.3,0.3,0,0,0-.3-0.2l-5.3,1.6,4.2-2.7a0.3,0.3,0,1,0-.3-0.5l-4.4,2.8,2.8-3.3a0.3,0.3,0,0,0-.4-0.4l-3.8,4.5h0a0.3,0.3,0,0,0-.2.2v0.2a0.3,0.3,0,0,0,.3.3l6.4,0.2h0a0.3,0.3,0,0,0,0-.5l-5.2-.2,6.3-1.8A0.3,0.3,0,0,0,597.1,341.4Z"/>
      <path class="cls-8" d="M583.3,423.5a0.3,0.3,0,0,0,0-.4l-4.3-3.5,4.6,1.9a0.3,0.3,0,0,0,.2-0.5l-4.9-2.1,4.3,0.4a0.3,0.3,0,0,0,.1-0.5l-5.9-.6h-0.5a0.3,0.3,0,0,0-.1.4l3.5,5.4h0a0.3,0.3,0,0,0,.5-0.3l-2.8-4.4,5.1,4.2A0.3,0.3,0,0,0,583.3,423.5Z"/>
      <path class="cls-8" d="M569.7,337.3a0.2,0.2,0,0,0-.2.3l0.6,4.7-1.7-3.9h-0.3a0.2,0.2,0,0,0-.1.3l1.8,4.1-2.4-2.8H567a0.2,0.2,0,0,0,0,.3l3.3,3.8h0l0.2,0.2h0.2a0.2,0.2,0,0,0,.3-0.2l1-5.4h0a0.2,0.2,0,0,0-.5-0.1l-0.8,4.4-0.8-5.5A0.2,0.2,0,0,0,569.7,337.3Z"/>
      <path class="cls-8" d="M556.7,346.5a0.3,0.3,0,0,0-.1.5l3.7,5.7-4.6-3.9a0.3,0.3,0,0,0-.4.5l4.9,4.2-4.8-2.1a0.3,0.3,0,0,0-.3.6l6.7,2.9h0.6a0.3,0.3,0,0,0,.2-0.4l-2.1-7.5h0a0.3,0.3,0,0,0-.6.2l1.7,6.1-4.4-6.7A0.3,0.3,0,0,0,556.7,346.5Z"/>
      <path class="cls-8" d="M545,374.8a0.3,0.3,0,0,0,0,.5l5,4.5-5.5-2.6a0.3,0.3,0,0,0-.3.6l5.8,2.8-5.2-.8a0.3,0.3,0,0,0-.1.7l7.2,1.1h0.7a0.3,0.3,0,0,0,.1-0.5l-3.9-6.8h0a0.3,0.3,0,0,0-.6.3l3.1,5.5-5.9-5.4A0.3,0.3,0,0,0,545,374.8Z"/>
      <path class="cls-8" d="M540.6,375.6a0.3,0.3,0,0,0-.4,0l-3.9,4.4,2.2-4.8a0.3,0.3,0,0,0-.5-0.2l-2.4,5.1,0.6-4.5a0.3,0.3,0,0,0-.6-0.1l-0.9,6.2h0a0.3,0.3,0,0,0,0,.3,0.3,0.3,0,0,0,0,.2,0.3,0.3,0,0,0,.4.1l5.9-3.5h0a0.3,0.3,0,0,0-.3-0.5l-4.7,2.8,4.6-5.2A0.3,0.3,0,0,0,540.6,375.6Z"/>
      <path class="cls-8" d="M580.5,380.1a0.3,0.3,0,0,1,.1.5l-3.7,5.7,4.6-3.9a0.3,0.3,0,1,1,.4.5L577,387l4.8-2.1a0.3,0.3,0,1,1,.3.6l-6.7,2.9h-0.6a0.3,0.3,0,0,1-.2-0.4l2.1-7.5h0a0.3,0.3,0,0,1,.6.2l-1.7,6.1,4.4-6.7A0.3,0.3,0,0,1,580.5,380.1Z"/>
      <path class="cls-8" d="M561.1,399.5a0.4,0.4,0,0,1-.2-0.5l3.7-7.4-5.1,5.4a0.4,0.4,0,0,1-.6-0.6l5.4-5.7-5.6,3.2a0.4,0.4,0,0,1-.4-0.7l7.7-4.4h0a0.4,0.4,0,0,1,.4-0.2h0.3a0.4,0.4,0,0,1,.3.5l-1.5,9.4h0a0.4,0.4,0,0,1-.8-0.1l1.2-7.6-4.4,8.7A0.4,0.4,0,0,1,561.1,399.5Z"/>
      <path class="cls-8" d="M539.4,407a0.3,0.3,0,0,1,.3-0.3l5.7,0.9-4.8-2.6a0.4,0.4,0,0,1-.2-0.5,0.2,0.2,0,0,1,.3-0.2l5.1,2.8-3.6-3.7a0.4,0.4,0,0,1-.1-0.5,0.2,0.2,0,0,1,.4,0l5,5.1h0a0.3,0.3,0,0,1,.3.3l0.2,0.2a0.3,0.3,0,0,1-.2.4l-6.3,1.5h0a0.3,0.3,0,0,1-.3-0.3,0.3,0.3,0,0,1,.2-0.4l5.1-1.2-6.7-1.1A0.4,0.4,0,0,1,539.4,407Z"/>
      <path class="cls-8" d="M598.3,361.3a0.3,0.3,0,0,0-.2-0.3l-5.4-1.5h5a0.3,0.3,0,1,0,0-.5h-5.3l4.1-1.3a0.3,0.3,0,0,0-.2-0.5l-5.7,1.8h-0.5a0.3,0.3,0,0,0,.1.4l5.4,3.5h0a0.3,0.3,0,0,0,.3-0.5l-4.3-2.9,6.3,1.8A0.3,0.3,0,0,0,598.3,361.3Z"/>
      <path class="cls-8" d="M566.9,358.4a0.3,0.3,0,0,1,.4,0l3.8,4.1-2.2-4.6a0.3,0.3,0,0,1,.1-0.4,0.3,0.3,0,0,1,.4.1l2.4,4.9-0.7-4.5a0.3,0.3,0,0,1,.2-0.4,0.3,0.3,0,0,1,.3.2l0.9,6.2h0a0.3,0.3,0,0,1,0,.3,0.3,0.3,0,0,1,0,.2,0.3,0.3,0,0,1-.4.1l-5.7-2.9h0a0.3,0.3,0,0,1-.1-0.4,0.3,0.3,0,0,1,.4-0.1l4.6,2.4-4.5-4.8A0.3,0.3,0,0,1,566.9,358.4Z"/>
      <path class="cls-8" d="M546.2,396.3a0.3,0.3,0,0,1,.3-0.2l5.2,2-4-3.2a0.3,0.3,0,0,1-.1-0.4,0.3,0.3,0,0,1,.4-0.1l4.3,3.3-2.6-3.8a0.3,0.3,0,0,1,.1-0.4,0.3,0.3,0,0,1,.4.1l3.6,5.2h0a0.3,0.3,0,0,1,.2.3v0.2a0.3,0.3,0,0,1-.3.3h-6.4a0.3,0.3,0,0,1-.3-0.3,0.3,0.3,0,0,1,.3-0.3h5.2l-6.2-2.3A0.3,0.3,0,0,1,546.2,396.3Z"/>
      <path class="cls-8" d="M520.9,415.4a0.3,0.3,0,0,1,0-.4l4-3.9-4.6,2.4a0.3,0.3,0,0,1-.4-0.1,0.3,0.3,0,0,1,.1-0.4l4.8-2.5-4.5.8a0.3,0.3,0,0,1-.4-0.2,0.3,0.3,0,0,1,.2-0.3l6.2-1.1h0.6a0.3,0.3,0,0,1,.2.4l-2.8,5.8h0a0.3,0.3,0,0,1-.4.1,0.3,0.3,0,0,1-.2-0.4l2.2-4.7-4.7,4.6A0.3,0.3,0,0,1,520.9,415.4Z"/>
      <path class="cls-8" d="M582.2,363.7a0.3,0.3,0,0,1,.2.4l-2,5.2,3.2-4a0.3,0.3,0,0,1,.4-0.1,0.3,0.3,0,0,1,.1.4l-3.4,4.2,3.8-2.5a0.3,0.3,0,0,1,.4.1,0.3,0.3,0,0,1-.1.4l-5.2,3.5h0l-0.3.2h-0.2a0.3,0.3,0,0,1-.3-0.3l0.2-6.4h0a0.3,0.3,0,0,1,.3-0.3,0.3,0.3,0,0,1,.3.3l-0.2,5.2,2.4-6.1A0.3,0.3,0,0,1,582.2,363.7Z"/>
      <path class="cls-8" d="M578.2,345.5a0.3,0.3,0,0,0-.3.2l-1.2,5.4-0.4-5a0.3,0.3,0,0,0-.5,0l0.4,5.3-1.6-4a0.3,0.3,0,0,0-.5.2l2.1,5.5h0a0.3,0.3,0,0,0,.1.3v0.2a0.3,0.3,0,0,0,.4-0.1l3.2-5.5h0a0.3,0.3,0,0,0-.5-0.3l-2.6,4.5,1.4-6.4A0.3,0.3,0,0,0,578.2,345.5Z"/>
      <path class="cls-8" d="M555.9,433.4a0.3,0.3,0,0,0-.4,0l-4.2,3.6,2.7-4.2a0.3,0.3,0,0,0-.5-0.3l-2.9,4.4,1.2-4.2a0.3,0.3,0,0,0-.5-0.1l-1.6,5.7h0a0.3,0.3,0,0,0-.1.3,0.3,0.3,0,0,0,0,.2,0.3,0.3,0,0,0,.4.1l5.9-2.5h0a0.3,0.3,0,0,0-.2-0.5l-4.8,2,5-4.3A0.3,0.3,0,0,0,555.9,433.4Z"/>
      <path class="cls-8" d="M536.1,429.9a0.3,0.3,0,0,0,.3.2l5.3-1.7-4.1,2.8a0.3,0.3,0,0,0,.3.5l4.4-2.9-2.7,3.3a0.3,0.3,0,0,0,.4.3l3.8-4.6h0a0.3,0.3,0,0,0,.2-0.2v-0.2a0.3,0.3,0,0,0-.3-0.3h-6.4a0.3,0.3,0,0,0,0,.5h5.2l-6.2,1.9A0.3,0.3,0,0,0,536.1,429.9Z"/>
      <path class="cls-8" d="M560.8,370.4a0.4,0.4,0,0,0-.1.5l3.6,6.2-4.7-4.4a0.4,0.4,0,0,0-.5.5l4.9,4.7-5-2.5a0.4,0.4,0,0,0-.3.6l6.9,3.4h0l0.4,0.2h0.3a0.4,0.4,0,0,0,.3-0.4l-1.8-8.1h0a0.4,0.4,0,0,0-.7.2l1.4,6.5-4.3-7.3A0.4,0.4,0,0,0,560.8,370.4Z"/>
      <path class="cls-8" d="M509.5,390.3a0.4,0.4,0,0,0,.4.3l7-1.3-5.7,2.9a0.4,0.4,0,1,0,.3.6l6.1-3.1-4,3.9a0.4,0.4,0,0,0,.5.5l5.5-5.3h0a0.3,0.3,0,0,0,.3-0.3l0.2-.2a0.4,0.4,0,0,0-.3-0.4l-8.2-1.1h0a0.4,0.4,0,0,0-.1.7l6.6,0.9-8.3,1.6A0.4,0.4,0,0,0,509.5,390.3Z"/>
      <path class="cls-8" d="M596.7,376.3a0.3,0.3,0,0,0-.1-0.4l-4.5-3.2,4.7,1.6a0.3,0.3,0,0,0,.2-0.5l-5-1.7h4.3a0.3,0.3,0,1,0,0-.5l-5.9-.2h-0.5a0.3,0.3,0,0,0-.1.4l3.8,5.2h0a0.3,0.3,0,0,0,.4-0.3l-3.1-4.2,5.3,3.8A0.3,0.3,0,0,0,596.7,376.3Z"/>
      <path class="cls-8" d="M533.9,421.3a0.3,0.3,0,0,0,.2-0.3l-0.9-5.5,2.1,4.5a0.3,0.3,0,1,0,.5-0.2l-2.2-4.8,2.9,3.2a0.3,0.3,0,1,0,.4-0.4l-4-4.4h0l-0.2-.2h-0.2a0.3,0.3,0,0,0-.3.2l-1,6.3h0a0.3,0.3,0,0,0,.5.1l0.8-5.1,1,6.5A0.3,0.3,0,0,0,533.9,421.3Z"/>
      <path class="cls-8" d="M516,401.3a0.3,0.3,0,0,0,.3.2l5.2-1.9-4,3a0.3,0.3,0,0,0,.3.4l4.2-3.1-2.6,3.5a0.3,0.3,0,0,0,.4.3l3.5-4.8h0a0.3,0.3,0,0,0,.2-0.2v-0.2a0.3,0.3,0,0,0-.3-0.3l-6.4.2h0a0.3,0.3,0,0,0,0,.5l5.2-.2-6.1,2.2A0.3,0.3,0,0,0,516,401.3Z"/>
      <path class="cls-8" d="M564.7,432.1a0.3,0.3,0,0,0,.2-0.3l-1.7-5.3,2.8,4.1a0.3,0.3,0,1,0,.4-0.3l-3-4.3,3.4,2.7a0.3,0.3,0,0,0,.3-0.4l-4.6-3.7h0l-0.2-.2h-0.2a0.3,0.3,0,0,0-.3.3v6.4h0a0.3,0.3,0,0,0,.5,0v-5.2l2,6.2A0.3,0.3,0,0,0,564.7,432.1Z"/>
      <path class="cls-8" d="M534.5,401.5a0.2,0.2,0,0,0-.3-0.2l-3.9,2.6,2.8-3.7a0.4,0.4,0,0,0,0-.4,0.2,0.2,0,0,0-.3,0l-2.9,3.9,1.5-4.2a0.4,0.4,0,0,0-.1-0.4,0.2,0.2,0,0,0-.3.1l-2.1,5.7h0a0.3,0.3,0,0,0-.1.3,0.4,0.4,0,0,0,0,.2,0.3,0.3,0,0,0,.3.3l5.1-.7h0a0.3,0.3,0,0,0,.2-0.3,0.3,0.3,0,0,0-.3-0.3l-4.1.6,4.6-3A0.4,0.4,0,0,0,534.5,401.5Z"/>
      <path class="cls-8" d="M548.3,365l0.2-.2,3.4-.2-3-.7a0.2,0.2,0,0,1-.1-0.2h0.2l3.2,0.7-2.3-1.3a0.2,0.2,0,0,1-.1-0.2H550l3.2,1.9h0.3a0.2,0.2,0,0,1-.1.2l-3.7,1.4h-0.2a0.2,0.2,0,0,1,.1-0.2l3-1.2-4,.2Z"/>
      <path class="cls-8" d="M542.6,363.7a0.2,0.2,0,0,1,0,.2l-2.1,2.7,2.5-1.8h0.2a0.2,0.2,0,0,1,0,.2l-2.6,1.9,2.5-.9h0.2a0.2,0.2,0,0,1-.1.2l-3.5,1.2h-0.3a0.2,0.2,0,0,1-.1-0.2l1.3-3.7h0.2a0.2,0.2,0,0,1,.1.2l-1.1,3,2.5-3.2h0.2Z"/>
      <path class="cls-8" d="M543.3,389.6a0.3,0.3,0,0,1,0,.4l-3.5,4.5,4.2-3a0.3,0.3,0,1,1,.3.5l-4.4,3.2,4.2-1.4a0.3,0.3,0,1,1,.2.5l-5.8,2H538a0.3,0.3,0,0,1-.2-0.4l2.2-6.2h0a0.3,0.3,0,0,1,.5.2l-1.8,5,4.1-5.3A0.3,0.3,0,0,1,543.3,389.6Z"/>
      <path class="cls-8" d="M521.6,385.1a0.2,0.2,0,0,1,0-.3l3.1-3.8-3.6,2.5h-0.3a0.2,0.2,0,0,1,.1-0.3l3.8-2.6-3.6,1.1a0.2,0.2,0,1,1-.1-0.5l4.9-1.5h0.5a0.2,0.2,0,0,1,.1.3l-2,5.2h-0.3a0.2,0.2,0,0,1-.1-0.3l1.6-4.2-3.6,4.4h-0.3Z"/>
      <path class="cls-8" d="M523.2,366.5h0.3l2.8,3.3-1.5-3.8a0.3,0.3,0,0,1,.1-0.3,0.2,0.2,0,0,1,.3.1l1.6,4-0.3-3.8a0.3,0.3,0,0,1,.2-0.3,0.2,0.2,0,0,1,.2.2l0.4,5.2h0a0.2,0.2,0,0,1,0,.3,0.3,0.3,0,0,1,0,.2H527l-4.3-2.4h0a0.2,0.2,0,0,1-.1-0.3h0.3l3.5,1.9-3.3-3.9A0.3,0.3,0,0,1,523.2,366.5Z"/>
      <path class="cls-8" d="M533.6,393.4a0.2,0.2,0,0,0,.1-0.3l-2.3-3.7,3.1,2.6h0.4a0.2,0.2,0,0,0,0-.3l-3.3-2.8,3.5,1.5h0.3a0.2,0.2,0,0,0-.1-0.3l-4.8-2h-0.5a0.2,0.2,0,0,0-.2.3l0.8,4.9h0l0.3,0.2a0.2,0.2,0,0,0,.2-0.3l-0.7-3.9,2.7,4.4h0.3Z"/>
      <path class="cls-8" d="M535,355.4a0.2,0.2,0,0,1,.1.2l-1.3,3.2,1.9-2.4h0.2a0.2,0.2,0,0,1,0,.2l-2,2.6,2.2-1.5h0.2a0.2,0.2,0,0,1,0,.2l-3,2.1H533l-0.2-.2,0.2-4h0l0.2-.2,0.2,0.2-0.2,3.2,1.5-3.8H535Z"/>
      <path class="cls-8" d="M511.8,362.4a0.3,0.3,0,0,1,.4-0.1l4.5,2.6-3.2-3.4a0.3,0.3,0,0,1,.4-0.4l3.4,3.6-1.8-3.6a0.3,0.3,0,0,1,.5-0.2l2.5,5h0a0.3,0.3,0,0,1,.1.3,0.3,0.3,0,0,1,.1.2,0.3,0.3,0,0,1-.3.2l-5.9-1.3h0a0.3,0.3,0,0,1,.1-0.5l4.8,1-5.3-3.1A0.3,0.3,0,0,1,511.8,362.4Z"/>
      <path class="cls-8" d="M511.4,376a0.3,0.3,0,0,1,.3-0.2l5.1,1-4.2-2.2a0.3,0.3,0,1,1,.2-0.5l4.4,2.3-2.9-2.8a0.3,0.3,0,0,1,.4-0.4l4,3.9h0l0.2,0.2v0.2a0.3,0.3,0,0,1-.2.3l-6,.7h0a0.3,0.3,0,0,1-.1-0.5l4.8-.6-6-1.2A0.3,0.3,0,0,1,511.4,376Z"/>
      <path class="cls-8" d="M522.9,351.5a0.3,0.3,0,0,0-.3.3V357l-1.2-4.5a0.3,0.3,0,0,0-.5.1l1.3,4.8-2.2-3.4a0.3,0.3,0,0,0-.4.3l3,4.7h0a0.3,0.3,0,0,0,.2.2l0.2,0.2a0.3,0.3,0,0,0,.3-0.2l2-5.7h0a0.3,0.3,0,0,0-.5-0.2L523,358v-6.2A0.3,0.3,0,0,0,522.9,351.5Z"/>
      <path class="cls-9" d="M540.5,316.1a0.3,0.3,0,0,0-.2.3l0.6,5.2-1.8-4.3a0.3,0.3,0,0,0-.5.2l1.9,4.6-2.6-3.1a0.3,0.3,0,1,0-.4.3l3.6,4.3h0l0.2,0.2h0.2a0.3,0.3,0,0,0,.3-0.2l1.3-5.9h0a0.3,0.3,0,0,0-.5-0.1l-1,4.8-0.6-6.1A0.3,0.3,0,0,0,540.5,316.1Z"/>
      <path class="cls-9" d="M563.9,333.9h-0.3l-3.1,4,1.6-4.2a0.2,0.2,0,1,0-.5-0.2l-1.7,4.4,0.3-3.9a0.2,0.2,0,1,0-.5,0l-0.4,5.3h0a0.2,0.2,0,0,0,0,.3,0.2,0.2,0,0,0,0,.2h0.3l4.8-3.3h0a0.2,0.2,0,0,0,.1-0.3h-0.3l-3.9,2.6,3.6-4.7A0.2,0.2,0,0,0,563.9,333.9Z"/>
      <path class="cls-9" d="M562.8,323.6a0.3,0.3,0,0,0-.4,0l-4,3.4L561,323a0.3,0.3,0,0,0-.4-0.3l-2.7,4.2L559,323a0.3,0.3,0,1,0-.5-0.1l-1.5,5.4h0a0.3,0.3,0,0,0-.1.3,0.3,0.3,0,0,0,0,.2,0.3,0.3,0,0,0,.3.1l5.6-2.3h0a0.3,0.3,0,0,0-.2-0.5l-4.5,1.9,4.7-4A0.3,0.3,0,0,0,562.8,323.6Z"/>
      <path class="cls-9" d="M539.5,334.3a0.3,0.3,0,0,0-.3.2l-1,5.1-0.4-4.7a0.3,0.3,0,0,0-.5,0l0.5,4.9-1.5-3.8a0.3,0.3,0,1,0-.5.2l2.1,5.2h0a0.3,0.3,0,0,0,.1.3V342a0.3,0.3,0,0,0,.3-0.1l2.9-5.3h0a0.3,0.3,0,0,0-.5-0.2l-2.4,4.3,1.2-6A0.3,0.3,0,0,0,539.5,334.3Z"/>
      <path class="cls-9" d="M544.1,356.4a0.3,0.3,0,0,0,.1-0.5l-3.5-6.1,4.6,4.4a0.3,0.3,0,0,0,.5-0.5l-4.8-4.6,4.9,2.5a0.3,0.3,0,1,0,.3-0.6l-6.7-3.4h0l-0.3-.2h-0.3a0.3,0.3,0,0,0-.3.4l1.7,7.9h0a0.3,0.3,0,0,0,.7-0.2l-1.3-6.4,4.1,7.2A0.3,0.3,0,0,0,544.1,356.4Z"/>
      <path class="cls-9" d="M544.4,328a0.3,0.3,0,0,1,.4,0l4,3.4-2.6-3.9a0.3,0.3,0,1,1,.4-0.3l2.7,4.2-1.1-3.9a0.3,0.3,0,1,1,.5-0.1l1.5,5.4h0a0.3,0.3,0,0,1,.1.3,0.3,0.3,0,0,1,0,.2,0.3,0.3,0,0,1-.3.1l-5.6-2.3h0a0.3,0.3,0,0,1,.2-0.5l4.5,1.9-4.7-4A0.3,0.3,0,0,1,544.4,328Z"/>
      <path class="cls-9" d="M527.6,342.2a0.2,0.2,0,0,0,0,.3l2.8,3.1-3.1-2h-0.3a0.2,0.2,0,0,0,.1.3l3.3,2.1-2.9-.8h-0.2a0.2,0.2,0,0,0,.2.2l4,1.2h0.4a0.2,0.2,0,0,0,.1-0.3l-2.2-4.4h-0.3a0.2,0.2,0,0,0-.1.3l1.8,3.5-3.3-3.7h-0.3Z"/>
      <path class="cls-9" d="M542.9,359.8a0.2,0.2,0,0,0,0,.3l2.8,3.1-3.1-2h-0.3a0.2,0.2,0,0,0,.1.3l3.3,2.1-2.9-.8h-0.2a0.2,0.2,0,0,0,.2.2l4,1.2h0.4a0.2,0.2,0,0,0,.1-0.3l-2.2-4.4h-0.3a0.2,0.2,0,0,0-.1.3l1.8,3.5-3.3-3.7h-0.3Z"/>
      <path class="cls-9" d="M552.4,338.7a0.3,0.3,0,0,0-.4,0l-4,4.5,2.2-5.2a0.4,0.4,0,0,0-.2-0.5,0.3,0.3,0,0,0-.4.1l-2.4,5.5,0.6-5.1a0.4,0.4,0,0,0-.3-0.4,0.3,0.3,0,0,0-.3.2l-0.8,7.1h0a0.3,0.3,0,0,0,0,.4,0.4,0.4,0,0,0,0,.3,0.3,0.3,0,0,0,.4.2l6.1-3.2h0a0.3,0.3,0,0,0,.1-0.4,0.3,0.3,0,0,0-.4-0.2l-4.9,2.5,4.7-5.3A0.4,0.4,0,0,0,552.4,338.7Z"/>
      <path class="cls-8" d="M586.1,408.6a0.3,0.3,0,0,0,.2-0.4l-2.2-6.3,3.6,4.9a0.4,0.4,0,0,0,.5.1,0.3,0.3,0,0,0,.1-0.4l-3.8-5.2,4.4,3.2a0.4,0.4,0,0,0,.5,0,0.3,0.3,0,0,0-.1-0.5l-6-4.4h0l-0.3-.2h-0.3a0.3,0.3,0,0,0-.4.3v7.6h0a0.3,0.3,0,0,0,.4.3,0.3,0.3,0,0,0,.4-0.3V401l2.5,7.4A0.4,0.4,0,0,0,586.1,408.6Z"/>
      <path class="cls-8" d="M570.1,415.6a0.4,0.4,0,0,1-.4-0.3l-1.4-7.2-0.7,6.6a0.4,0.4,0,0,1-.4.4,0.3,0.3,0,0,1-.3-0.4l0.8-7-2.4,5.4a0.4,0.4,0,0,1-.5.2,0.3,0.3,0,0,1-.2-0.5l3.2-7.5h0a0.4,0.4,0,0,1,.2-0.4l0.2-.3a0.4,0.4,0,0,1,.5.1l4.3,7.2h0a0.4,0.4,0,0,1-.2.5,0.4,0.4,0,0,1-.5-0.1l-3.4-5.8,1.7,8.4A0.4,0.4,0,0,1,570.1,415.6Z"/>
      <path class="cls-8" d="M550,418.2a0.3,0.3,0,0,0,.4,0l3.8-4.5-2.1,4.9a0.3,0.3,0,0,0,.2.4,0.3,0.3,0,0,0,.4-0.1l2.3-5.2-0.5,4.7a0.3,0.3,0,0,0,.3.4,0.3,0.3,0,0,0,.3-0.2l0.7-6.5h0a0.3,0.3,0,0,0,0-.3,0.3,0.3,0,0,0,0-.3,0.3,0.3,0,0,0-.4-0.1l-5.8,3.3h0a0.3,0.3,0,0,0-.1.4,0.3,0.3,0,0,0,.4.1l4.7-2.7-4.5,5.2A0.3,0.3,0,0,0,550,418.2Z"/>
    </g>
    <g>
      <g>
        <path class="cls-10" d="M465.5,408.4S448.7,380,436,376.3c0,0-1.6,19.5,16.6,54.9l11,27.1s8.9-27.7,7.3-38.3S465.5,408.4,465.5,408.4Z"/>
        <path class="cls-11" d="M490.1,410s9.1-33.7,29.9-43.1c0,0,1.7,34.2-25.5,88.3C494.4,455.2,488,415.9,490.1,410Z"/>
        <path class="cls-12" d="M488.4,460.7l3.7,0.3s3.3-34,0-60.9-11.7-36.5-11.7-36.5-6.9,4-7.7,31,14.4,66.1,14.4,66.1h1.3Z"/>
        <path class="cls-13" d="M468.3,460.3s-7.2-45.7-3.7-66.6S478,408.1,478,408.1s11.7,49.2,9,52.5C487.1,460.7,476.5,464,468.3,460.3Z"/>
        <path class="cls-14" d="M537,413.2s-45.1,4.9-52.8,48.5c0,0,10.1,1.3,17.8-4.3S535.3,424.2,537,413.2Z"/>
        <path class="cls-14" d="M459.1,460.3s-21.2-24.9-25.4-36.3c0,0-.8-4,0.2-3.8s21.9,3,39.7,41.3C473.5,461.5,465.2,462.5,459.1,460.3Z"/>
        <polygon class="cls-15" points="488.1 461.4 517.9 423.9 492.2 460.9 488.1 461.4"/>
        <polygon class="cls-15" points="495.1 434.6 511.1 384 500.4 427.8 495.1 434.6"/>
        <polygon class="cls-15" points="482.6 389.1 485.6 441.6 480.2 416.5 482.6 389.1"/>
        <polygon class="cls-15" points="471.7 407.3 474.2 461 479.9 461.3 471.7 407.3"/>
        <polygon class="cls-15" points="441.3 392.7 463.8 429.4 464.3 441.2 441.3 392.7"/>
        <polygon class="cls-15" points="436.9 424.9 472 461.3 466.5 461.5 436.9 424.9"/>
      </g>
      <path class="cls-16" d="M474.5,300.7s-23.6,19.6-8,46.8c10.3,21.4,17.4,24.1,9.8,58.9"/>
      <path class="cls-16" d="M484.2,438.9s-3-17.7,4-34.1,17.4-35.5,9-57.2c0,0-5.4-12.7-4-18.4"/>
      <g>
        <path class="cls-17" d="M475.6,300s10.4-2.9,12,4-4.6,7.3-8.3,2.9S475.6,300,475.6,300Z"/>
        <path class="cls-17" d="M477,298.7a12.9,12.9,0,0,0,3.2-4c1.2-2.5,1.2-4.7-1.7-5.8a1.9,1.9,0,0,0-2.8,1.1c-1,1.9-.8,4-0.7,6a29.6,29.6,0,0,1,.5,3.8Z"/>
        <path class="cls-17" d="M477.1,299.2c0-.1,7.5-0.3,8-0.3a2.3,2.3,0,0,0,1-.2c1-.6,1.1-2.6.8-3.6s-4.2-4.7-6.5.3C478.9,298.7,477.1,299.2,477.1,299.2Z"/>
      </g>
      <g>
        <path class="cls-17" d="M493.7,328s-1.4-6.6-5.8-6-2.7,4.9.9,5.8S493.7,328,493.7,328Z"/>
        <path class="cls-17" d="M494,326.7a7.4,7.4,0,0,1,1.8-3.4c1.3-1.7,2.8-2.9,4.6-1.2a1.5,1.5,0,0,1,.3,2.3,8.3,8.3,0,0,1-3.9,2.6,22.9,22.9,0,0,0-2.8,1v-1.4Z"/>
        <path class="cls-17" d="M493.8,327.3s-1.2-3.8-2.6-4.8-0.1-3.7,1.8-3.8,4,1.8,3.6,2.7a8.2,8.2,0,0,1-1.6,2.5A6.4,6.4,0,0,0,493.8,327.3Z"/>
      </g>
    </g>
    <g>
      <g>
        <path class="cls-18" d="M682.4,384.3s12-4.7,28.1,11.3c0,0-15.4,15.8-29.3,5.8S682.4,384.3,682.4,384.3Z"/>
        <path class="cls-18" d="M706.3,466.2a1.8,1.8,0,0,1-1.5-1.4c-0.3-1.1-6.4-27.2-.4-53.7a157.7,157.7,0,0,1,7.6-23.8c3.7-9.6,6.7-17.2,6.2-31.9-0.2-5-1.5-11.1-3.1-18.1-3.8-17.1-9.1-40.6-.4-69.3a1.8,1.8,0,1,1,3.5,1.1c-8.4,27.7-3.3,50.7.5,67.4,1.6,7.2,3,13.4,3.2,18.7,0.5,15.4-2.6,23.3-6.5,33.3a154.5,154.5,0,0,0-7.4,23.3c-5.8,25.6.3,51.8,0.4,52a1.8,1.8,0,0,1-1.3,2.2h-0.6Z"/>
        <path class="cls-18" d="M717.3,246.7s-7.8,7.1-2.1,24.6c0,0,17.1-5.4,15-19.2S717.3,246.7,717.3,246.7Z"/>
        <path class="cls-18" d="M731.8,274.4s-7.8-2.6-17.6,8.1c0,0,10.3,9.6,18.9,2.8S731.8,274.4,731.8,274.4Z"/>
        <path class="cls-18" d="M740.9,299.6s-12.3-4.1-27.7,12.7c0,0,16.2,15.1,29.7,4.4S740.9,299.6,740.9,299.6Z"/>
        <path class="cls-18" d="M694.9,279.7s8.9-.7,16.4,13.2c0,0-13.4,7.4-20.7-2S694.9,279.7,694.9,279.7Z"/>
        <path class="cls-18" d="M686.4,312.7s10.3-6.5,28.1,5.4c0,0-11.4,17.4-26.1,10.7S686.4,312.7,686.4,312.7Z"/>
        <path class="cls-18" d="M697.4,366.9s8.3-3.9,20.5,6.5c0,0-10,11.9-20.4,5.6S697.4,366.9,697.4,366.9Z"/>
        <path class="cls-18" d="M682.7,339.7s13.4-8.4,36.4,7c0,0-14.8,22.5-33.9,13.9S682.7,339.7,682.7,339.7Z"/>
        <path class="cls-18" d="M683.5,411.5s10.1-2.2,20.9,12.4c0,0-14.1,10.6-24,1.1S683.5,411.5,683.5,411.5Z"/>
        <path class="cls-18" d="M690.6,438.8s6.1-1.4,12.7,7.5c0,0-8.6,6.5-14.6.7S690.6,438.8,690.6,438.8Z"/>
        <path class="cls-18" d="M730.2,411.5s-10-5.5-26,6.7c0,0,11.7,15.6,25.1,8.5S730.2,411.5,730.2,411.5Z"/>
        <path class="cls-18" d="M719.7,448.1s-8.8.7-16.2-13c0,0,13.2-7.3,20.4,2S719.7,448.1,719.7,448.1Z"/>
        <path class="cls-18" d="M749.2,327s-14-4.9-31.9,14.1c0,0,18.3,17.5,33.9,5.6S749.2,327,749.2,327Z"/>
        <path class="cls-18" d="M750.1,382.1s-14.2-8.2-37.6,8.6c0,0,16.2,22.9,35.7,13.2S750.1,382.1,750.1,382.1Z"/>
        <path class="cls-18" d="M745.3,358s-9.7-6.6-24.9,5.4c0,0,11.5,17.8,24.2,11S745.3,358,745.3,358Z"/>
      </g>
      <g>
        <path class="cls-19" d="M678.9,306.6s2.4,6.9-6.9,15.7c0,0-8.7-9-2.8-16.7S678.9,306.6,678.9,306.6Z"/>
        <path class="cls-19" d="M647,320.1s9.8-4.5,24.1,8.1c0,0-12.1,13.9-24.3,6.3S647,320.1,647,320.1Z"/>
        <path class="cls-19" d="M652.2,366.3s7.1-5.4,20.9,2.1c0,0-7.2,13.4-18.4,9.5S652.2,366.3,652.2,366.3Z"/>
        <path class="cls-19" d="M669.7,437.7s7.8-4.3,20.3,5.1c0,0-9.1,12.2-19.6,6.7S669.7,437.7,669.7,437.7Z"/>
        <path class="cls-19" d="M702.7,447.3s-4.3-1-9.1,5.2c0,0,6,4.7,10.3.6S702.7,447.3,702.7,447.3Z"/>
        <path class="cls-19" d="M714.2,421.3s-9.9-4.4-24.1,8.4c0,0,12.3,13.9,24.4,6.1S714.2,421.3,714.2,421.3Z"/>
        <path class="cls-19" d="M709.6,388.5s-11.6-2.8-24.4,13.9c0,0,16.1,12.6,27.7,1.7S709.6,388.5,709.6,388.5Z"/>
        <path class="cls-19" d="M694.2,348.1s-10.4-2.5-21.8,12.4c0,0,14.4,11.2,24.8,1.5S694.2,348.1,694.2,348.1Z"/>
        <path class="cls-19" d="M690.5,332.4s-7.1-5.1-20.4,2.7c0,0,7.5,12.9,18.3,8.8S690.5,332.4,690.5,332.4Z"/>
        <path class="cls-19" d="M651,387.7s8.7-8.8,29.1-1.1c0,0-7.3,19.8-23.4,16.6S651,387.7,651,387.7Z"/>
        <path class="cls-19" d="M654.5,409.9s12.5-8.1,34.4,6.2c0,0-13.7,21.4-31.7,13.5S654.5,409.9,654.5,409.9Z"/>
        <path class="cls-19" d="M642.2,342.7s10.7-6.6,29,5.8c0,0-11.9,17.9-27.1,10.9S642.2,342.7,642.2,342.7Z"/>
        <path class="cls-19" d="M694.9,373.5s-7.5-1.8-15.7,8.9c0,0,10.3,8.1,17.7,1.1S694.9,373.5,694.9,373.5Z"/>
        <path class="cls-19" d="M699.9,465.3a1.3,1.3,0,0,1-.9-0.2c-0.4-.3-10.2-7.2-10.4-36.1-0.1-18-4.6-28.8-9.3-40.2a141.4,141.4,0,0,1-7.3-20.7c-6.1-24.5-1.5-48.4-1.5-48.7a1.4,1.4,0,0,1,2.7.5c0,0.2-4.5,23.6,1.4,47.5a139.1,139.1,0,0,0,7.1,20.3c4.8,11.6,9.4,22.6,9.5,41.2,0.1,21.7,6.1,31.7,9.2,33.9A1.4,1.4,0,0,1,699.9,465.3Z"/>
      </g>
    </g>
    <g>
      <path class="cls-20" d="M620.9,406.8s2.2-17.4,9.1-29.9,6.4-31.1,6.4-31.1,18.9,40.5,13.9,66.2c-3.2,16.5-15.8,21.5-15.8,21.5Z"/>
      <path class="cls-21" d="M588,337.7s10.1,48.8,29.3,65.3,17.3,30.5,17.3,30.5,0.5-15.1,14.9-25.9,23.1-51.4,23.1-51.4,9.1,58.1-2.9,78.8S624,449.6,624,449.6s-24.5-3.6-30.7-32.9S587.5,383.8,588,337.7Z"/>
      <path class="cls-20" d="M551.9,398.2s15.4-2.9,39.7,16.8c0,0,6.7,5,12.8,6.7s28.8,8,30.9,22.4c0,0,8.5-19.7,37.5-34.4S716.2,394,716.2,394s-28,10.1-35.7,34.9-34.4,28.2-34.4,28.2-25.8,4-46-8.5S583.8,409.7,551.9,398.2Z"/>
      <polygon class="cls-22" points="570.8 403.8 570.6 404.8 571.1 405.6 570.2 405.4 569.4 405.9 569.6 405 569 404.2 570 404.4 570.8 403.8"/>
      <polygon class="cls-22" points="577.5 414.1 577.3 415.1 577.9 415.9 576.9 415.7 576.1 416.2 576.3 415.3 575.8 414.5 576.7 414.7 577.5 414.1"/>
      <polygon class="cls-22" points="589.3 415.5 589.1 416.4 589.7 417.2 588.7 417 587.9 417.6 588.1 416.6 587.5 415.8 588.5 416 589.3 415.5"/>
      <polygon class="cls-22" points="586.9 429 586.7 430 587.2 430.8 586.3 430.6 585.4 431.1 585.6 430.2 585.1 429.4 586 429.6 586.9 429"/>
      <polygon class="cls-22" points="597.1 424.4 597.5 425.3 598.4 425.6 597.5 426 597.2 426.9 596.8 426 595.8 425.7 596.7 425.3 597.1 424.4"/>
      <polygon class="cls-22" points="612 438.4 612.4 439.3 613.3 439.7 612.4 440.1 612.1 441 611.7 440.1 610.8 439.8 611.7 439.4 612 438.4"/>
      <polygon class="cls-22" points="596.2 427.4 596.1 428.1 596.5 428.6 595.8 428.5 595.3 428.8 595.5 428.2 595.1 427.7 595.7 427.8 596.2 427.4"/>
      <polygon class="cls-22" points="593.8 434.3 593.2 435.1 593.3 436.1 592.6 435.4 591.6 435.6 592.2 434.8 592.1 433.8 592.9 434.5 593.8 434.3"/>
      <polygon class="cls-22" points="610 426.6 609.8 427.6 610.4 428.4 609.4 428.2 608.6 428.7 608.8 427.8 608.2 427 609.2 427.2 610 426.6"/>
      <polygon class="cls-22" points="604.7 433.6 603.8 433.2 602.9 433.7 603.3 432.7 602.8 431.9 603.7 432.2 604.6 431.8 604.3 432.7 604.7 433.6"/>
      <polygon class="cls-22" points="603.9 444.1 603.7 445.1 604.3 445.9 603.3 445.7 602.5 446.3 602.7 445.3 602.1 444.5 603.1 444.7 603.9 444.1"/>
      <polygon class="cls-22" points="595.7 440.4 595.5 441.4 596 442.2 595.1 442 594.2 442.6 594.5 441.6 593.9 440.8 594.9 441 595.7 440.4"/>
      <polygon class="cls-22" points="602.5 437.8 602.3 438.4 602.7 438.9 602.1 438.8 601.6 439.1 601.7 438.5 601.3 438 602 438.1 602.5 437.8"/>
      <polygon class="cls-22" points="629.9 450 630.2 449.1 629.8 448.2 630.7 448.5 631.6 448.1 631.3 449 631.7 449.9 630.8 449.6 629.9 450"/>
      <polygon class="cls-22" points="632.6 448.4 633.2 448.1 633.3 447.4 633.6 448 634.2 448.1 633.7 448.4 633.6 449 633.3 448.5 632.6 448.4"/>
      <polygon class="cls-22" points="618.5 455.3 619.4 455.2 620 454.4 620.1 455.4 620.9 456 619.9 456.1 619.4 456.9 619.2 455.9 618.5 455.3"/>
      <polygon class="cls-22" points="638 452.4 638.8 451.8 639 450.9 639.5 451.7 640.5 451.8 639.7 452.4 639.5 453.4 639 452.5 638 452.4"/>
      <polygon class="cls-22" points="610.2 448.2 610.6 449.1 611.5 449.4 610.6 449.8 610.3 450.8 609.9 449.9 609 449.6 609.9 449.1 610.2 448.2"/>
      <polygon class="cls-22" points="621.4 449.6 622.3 449.1 622.4 448.1 623 448.9 623.9 449.1 623.1 449.7 623 450.6 622.4 449.8 621.4 449.6"/>
      <polygon class="cls-22" points="614.7 446.8 615.2 446.4 615.3 445.8 615.7 446.3 616.3 446.4 615.8 446.8 615.7 447.4 615.3 446.9 614.7 446.8"/>
      <polygon class="cls-22" points="596.9 418.1 596.8 418.7 597.1 419.2 596.5 419.1 596 419.4 596.1 418.8 595.8 418.3 596.4 418.4 596.9 418.1"/>
      <polygon class="cls-22" points="616.1 425.4 616.3 426 616.9 426.2 616.3 426.5 616.1 427 615.8 426.5 615.3 426.2 615.8 426 616.1 425.4"/>
      <polygon class="cls-22" points="631.1 436.7 631.6 437.1 632.2 437.1 631.7 437.5 631.8 438.2 631.3 437.7 630.7 437.7 631.1 437.3 631.1 436.7"/>
      <polygon class="cls-22" points="587.6 422 587.5 422.6 587.9 423.1 587.2 423 586.7 423.4 586.8 422.8 586.5 422.2 587.1 422.4 587.6 422"/>
      <polygon class="cls-22" points="580.9 410.6 580.8 411.2 581.1 411.7 580.5 411.6 580 411.9 580.1 411.3 579.8 410.8 580.4 410.9 580.9 410.6"/>
      <polygon class="cls-22" points="622.8 436 622.6 437 623.2 437.8 622.2 437.6 621.4 438.1 621.6 437.2 621.1 436.4 622 436.6 622.8 436"/>
      <polygon class="cls-22" points="627.8 454.9 627.1 455.6 627.3 456.6 626.5 456 625.5 456.1 626.2 455.3 626 454.4 626.8 455 627.8 454.9"/>
      <polygon class="cls-22" points="621.2 442.5 621 443.2 621.4 443.7 620.8 443.5 620.2 443.9 620.4 443.3 620 442.8 620.6 442.9 621.2 442.5"/>
      <polygon class="cls-22" points="614.4 431.1 614.3 431.7 614.7 432.2 614 432.1 613.5 432.5 613.7 431.8 613.3 431.3 613.9 431.5 614.4 431.1"/>
      <polygon class="cls-23" points="617.9 423.4 618.3 424.3 619.3 424.7 618.4 425.1 618 426 617.6 425.1 616.7 424.8 617.6 424.4 617.9 423.4"/>
      <polygon class="cls-23" points="613.7 407.5 613.5 408.5 614.1 409.3 613.1 409.1 612.3 409.7 612.5 408.7 612 407.9 612.9 408.1 613.7 407.5"/>
      <polygon class="cls-23" points="605.3 418.3 606.2 418.3 606.6 417.6 606.7 418.4 607.4 418.9 606.6 419 606.1 419.6 606 418.8 605.3 418.3"/>
      <polygon class="cls-23" points="598.4 413.6 598.8 414.5 599.8 414.8 598.9 415.2 598.6 416.2 598.2 415.3 597.2 415 598.1 414.6 598.4 413.6"/>
      <polygon class="cls-23" points="610.1 414.5 610.6 414.2 610.7 413.5 611 414.1 611.7 414.2 611.1 414.5 611 415.1 610.7 414.6 610.1 414.5"/>
      <polygon class="cls-23" points="603 412.2 603.5 411.8 603.6 411.2 604 411.7 604.6 411.8 604.1 412.2 604 412.8 603.6 412.3 603 412.2"/>
      <polygon class="cls-23" points="622 410.4 622.2 411 622.8 411.2 622.2 411.4 622 412 621.8 411.4 621.2 411.2 621.8 411 622 410.4"/>
      <polygon class="cls-23" points="628.8 421 628.6 422 629.1 422.8 628.2 422.6 627.4 423.1 627.6 422.2 627 421.4 628 421.6 628.8 421"/>
      <polygon class="cls-23" points="612.3 419.8 611.9 420.3 612 420.9 611.5 420.5 610.8 420.6 611.2 420.1 611.2 419.5 611.6 419.9 612.3 419.8"/>
      <polygon class="cls-23" points="627.1 427.5 627 428.1 627.3 428.7 626.7 428.5 626.2 428.9 626.3 428.3 626 427.8 626.6 427.9 627.1 427.5"/>
      <polygon class="cls-23" points="620.4 416.1 620.2 416.7 620.6 417.2 620 417.1 619.5 417.5 619.6 416.8 619.2 416.3 619.8 416.4 620.4 416.1"/>
      <polygon class="cls-22" points="637.1 448.9 637.3 449.5 637.9 449.8 637.3 450 637.1 450.6 636.9 450 636.3 449.8 636.9 449.5 637.1 448.9"/>
      <polygon class="cls-22" points="635.4 454.6 635.3 455.2 635.7 455.8 635.1 455.6 634.5 456 634.7 455.4 634.3 454.9 634.9 455 635.4 454.6"/>
      <polygon class="cls-22" points="647.1 453.2 647.4 454.2 648.3 454.6 647.3 454.9 646.9 455.8 646.6 454.8 645.7 454.4 646.7 454.1 647.1 453.2"/>
      <polygon class="cls-22" points="654.1 444.4 654.9 445.1 655.9 444.9 655.2 445.7 655.4 446.7 654.6 446.1 653.6 446.2 654.2 445.4 654.1 444.4"/>
      <polygon class="cls-22" points="654.8 447.6 654.9 448.2 655.5 448.5 654.9 448.6 654.6 449.2 654.4 448.6 653.9 448.3 654.5 448.1 654.8 447.6"/>
      <polygon class="cls-22" points="666.6 440.5 666.9 441.4 667.7 441.9 666.8 442.2 666.3 443 666.1 442.1 665.2 441.6 666.2 441.4 666.6 440.5"/>
      <polygon class="cls-22" points="665.1 449.1 664.1 449.2 663.5 450 663.4 449 662.6 448.5 663.6 448.3 664.2 447.5 664.3 448.5 665.1 449.1"/>
      <polygon class="cls-22" points="671.5 436.6 671.9 437.1 672.6 437 672.2 437.5 672.2 438.1 671.7 437.7 671.1 437.7 671.5 437.3 671.5 436.6"/>
      <polygon class="cls-22" points="672.6 442.4 672.8 443.1 673.3 443.4 672.7 443.5 672.4 444.1 672.3 443.5 671.7 443.2 672.3 443 672.6 442.4"/>
      <polygon class="cls-22" points="562.8 400.5 562.7 401.1 563 401.6 562.4 401.5 561.9 401.8 562 401.2 561.7 400.7 562.3 400.8 562.8 400.5"/>
      <polygon class="cls-22" points="700.7 398.8 700.8 399.7 700.1 400.5 701.1 400.4 701.9 401 701.8 400 702.4 399.3 701.4 399.4 700.7 398.8"/>
      <polygon class="cls-22" points="692.6 405.6 692.7 406.6 692.1 407.3 693.1 407.2 693.8 407.9 693.7 406.9 694.3 406.1 693.3 406.2 692.6 405.6"/>
      <polygon class="cls-22" points="682.5 406.5 682.6 407.5 682 408.2 683 408.1 683.7 408.8 683.6 407.8 684.2 407 683.2 407.1 682.5 406.5"/>
      <polygon class="cls-22" points="682.9 419.5 683 420.5 682.4 421.3 683.3 421.2 684.1 421.8 684 420.8 684.6 420 683.6 420.2 682.9 419.5"/>
      <polygon class="cls-22" points="674 414.8 673.5 415.6 672.6 415.9 673.5 416.3 673.7 417.3 674.2 416.4 675.1 416.2 674.3 415.7 674 414.8"/>
      <polygon class="cls-22" points="658 427.5 657.5 428.4 656.6 428.7 657.4 429.1 657.7 430.1 658.2 429.2 659.1 429 658.2 428.5 658 427.5"/>
      <polygon class="cls-22" points="674.6 417.9 674.7 418.5 674.3 419 674.9 418.9 675.4 419.3 675.3 418.7 675.7 418.2 675.1 418.3 674.6 417.9"/>
      <polygon class="cls-22" points="676.4 424.9 677 425.7 676.8 426.7 677.6 426.1 678.6 426.4 678 425.5 678.2 424.6 677.4 425.1 676.4 424.9"/>
      <polygon class="cls-22" points="660.9 415.9 661.1 416.9 660.4 417.6 661.4 417.5 662.2 418.1 662.1 417.2 662.7 416.4 661.7 416.5 660.9 415.9"/>
      <polygon class="cls-22" points="665.6 423.3 666.6 423 667.4 423.5 667.2 422.6 667.7 421.7 666.7 422 665.9 421.5 666.2 422.4 665.6 423.3"/>
      <polygon class="cls-22" points="665.6 433.9 665.7 434.9 665.1 435.6 666.1 435.5 666.8 436.1 666.7 435.1 667.3 434.4 666.3 434.5 665.6 433.9"/>
      <polygon class="cls-22" points="674.1 430.9 674.2 431.9 673.6 432.6 674.6 432.5 675.3 433.1 675.2 432.1 675.8 431.4 674.9 431.5 674.1 430.9"/>
      <polygon class="cls-22" points="667.5 427.7 667.6 428.3 667.2 428.8 667.8 428.7 668.3 429.1 668.2 428.5 668.6 428 668 428.1 667.5 427.7"/>
      <polygon class="cls-22" points="637.9 441.9 637.6 440.9 638.2 440.1 637.2 440.4 636.4 439.9 636.6 440.8 636.1 441.7 637.1 441.4 637.9 441.9"/>
      <polygon class="cls-22" points="650.2 443.8 649.2 443.6 648.7 442.8 648.5 443.8 647.7 444.3 648.6 444.5 649.1 445.3 649.3 444.3 650.2 443.8"/>
      <polygon class="cls-22" points="659 437.4 658.5 438.3 657.6 438.5 658.4 439 658.6 440 659.1 439.1 660.1 438.9 659.2 438.4 659 437.4"/>
      <polygon class="cls-23" points="606.9 401.8 607.8 402.3 608.7 402 608.2 402.9 608.5 403.8 607.7 403.3 606.7 403.6 607.2 402.8 606.9 401.8"/>
      <polygon class="cls-23" points="633.6 433.4 633 434.2 633.1 435.2 632.3 434.5 631.4 434.7 632 433.9 631.9 432.9 632.6 433.5 633.6 433.4"/>
      <polygon class="cls-23" points="607.8 395.7 608.4 395.6 608.8 395.1 608.8 395.8 609.3 396.2 608.7 396.2 608.3 396.7 608.2 396.1 607.8 395.7"/>
      <polygon class="cls-23" points="595.9 410.4 596.5 410.7 597.1 410.5 596.8 411.1 596.9 411.7 596.4 411.4 595.8 411.5 596.1 411 595.9 410.4"/>
      <polygon class="cls-23" points="594.9 371.9 595.7 372.6 595.8 373.5 596.4 372.8 597.4 372.7 596.6 372.1 596.5 371.1 595.9 371.9 594.9 371.9"/>
      <polygon class="cls-23" points="594.4 378.2 594.6 379.1 594.1 379.9 595.1 379.7 595.9 380.2 595.7 379.2 596.2 378.4 595.2 378.7 594.4 378.2"/>
      <polygon class="cls-23" points="591.7 398.5 592 399.4 591.5 400.3 592.4 400 593.3 400.5 593 399.6 593.5 398.7 592.6 399 591.7 398.5"/>
      <polygon class="cls-23" points="597 380 597.5 380.4 597.5 381 597.9 380.5 598.5 380.5 598 380.1 598 379.4 597.6 379.9 597 380"/>
      <polygon class="cls-23" points="588.5 354.4 589.4 354.6 590 355.5 590.1 354.5 591 354 590 353.8 589.5 353 589.3 353.9 588.5 354.4"/>
      <polygon class="cls-23" points="589.2 370.1 590 370.7 590 371.7 590.6 370.9 591.6 370.8 590.9 370.2 590.8 369.2 590.2 370 589.2 370.1"/>
      <polygon class="cls-23" points="594.3 390.1 594.8 389.3 595.7 389 594.9 388.5 594.7 387.6 594.2 388.4 593.2 388.6 594.1 389.1 594.3 390.1"/>
      <polygon class="cls-23" points="601.6 397.8 602.4 398.4 602.5 399.4 603.1 398.6 604.1 398.5 603.3 397.9 603.2 396.9 602.6 397.7 601.6 397.8"/>
      <polygon class="cls-23" points="600.7 386 601.5 386.6 601.5 387.6 602.2 386.8 603.1 386.7 602.4 386.1 602.3 385.1 601.7 385.9 600.7 386"/>
      <polygon class="cls-23" points="598.7 391.9 599.2 392.3 599.2 393 599.6 392.5 600.3 392.4 599.8 392 599.7 391.4 599.3 391.9 598.7 391.9"/>
      <polygon class="cls-23" points="599.4 404.9 599.6 405.8 599.1 406.7 600 406.4 600.8 407 600.6 406 601.1 405.2 600.2 405.4 599.4 404.9"/>
      <polygon class="cls-23" points="640.7 421.4 640.9 422.4 640.3 423.2 641.3 423 642.1 423.6 641.9 422.6 642.5 421.8 641.5 422 640.7 421.4"/>
      <polygon class="cls-23" points="669.1 408.2 668.7 409.1 667.8 409.4 668.7 409.8 669 410.7 669.4 409.8 670.3 409.5 669.4 409.1 669.1 408.2"/>
      <polygon class="cls-23" points="657.5 409.1 657 408.7 656.9 408.1 656.5 408.6 655.9 408.7 656.4 409.1 656.5 409.7 656.9 409.2 657.5 409.1"/>
      <polygon class="cls-23" points="663 409.5 661.8 409.8 660.8 409.2 661.1 410.4 660.5 411.4 661.6 411.1 662.7 411.7 662.4 410.6 663 409.5"/>
      <polygon class="cls-23" points="659.5 401.3 658.6 401.8 657.7 401.5 658.2 402.4 657.9 403.3 658.8 402.8 659.7 403.1 659.2 402.3 659.5 401.3"/>
      <polygon class="cls-23" points="647.6 415.6 646.9 415.5 646.5 415 646.5 415.7 646 416.1 646.7 416.1 647.1 416.6 647.1 416 647.6 415.6"/>
      <polygon class="cls-23" points="672.9 400.9 672.4 401.3 671.8 401.1 672.1 401.6 671.9 402.2 672.4 401.9 673.1 402.1 672.7 401.5 672.9 400.9"/>
      <polygon class="cls-23" points="672.6 366.5 671.9 367.1 671.8 368.1 671.2 367.3 670.2 367.3 671 366.6 671 365.7 671.6 366.4 672.6 366.5"/>
      <polygon class="cls-23" points="673.2 372.7 672.9 373.7 673.4 374.5 672.5 374.2 671.6 374.8 671.9 373.8 671.4 373 672.3 373.2 673.2 372.7"/>
      <polygon class="cls-23" points="673.1 392.1 672.9 393.1 673.4 393.9 672.4 393.6 671.6 394.2 671.8 393.2 671.3 392.4 672.3 392.6 673.1 392.1"/>
      <polygon class="cls-23" points="670.6 374.6 670.1 374.9 670 375.6 669.6 375.1 669 375 669.5 374.6 669.6 374 670 374.5 670.6 374.6"/>
      <polygon class="cls-23" points="652.8 411.3 652 411.9 651.9 412.9 651.3 412.1 650.3 412 651.1 411.4 651.2 410.4 651.8 411.2 652.8 411.3"/>
      <polygon class="cls-23" points="673.3 384.7 672.8 383.8 671.8 383.6 672.7 383.1 672.9 382.1 673.4 383 674.3 383.2 673.5 383.7 673.3 384.7"/>
      <polygon class="cls-23" points="666 392.3 665.2 392.9 665.1 393.9 664.5 393.2 663.5 393.1 664.3 392.5 664.4 391.5 665 392.3 666 392.3"/>
      <polygon class="cls-23" points="649.6 421.3 648.9 421.9 648.8 422.9 648.2 422.1 647.2 422.1 647.9 421.4 648 420.5 648.6 421.2 649.6 421.3"/>
      <polygon class="cls-23" points="668.9 386.5 668.4 386.9 668.3 387.5 667.9 387 667.3 387 667.8 386.6 667.8 386 668.2 386.5 668.9 386.5"/>
      <polygon class="cls-23" points="668.2 399.4 668 400.4 668.5 401.2 667.5 401 666.7 401.5 667 400.6 666.4 399.7 667.4 400 668.2 399.4"/>
      <polygon class="cls-22" points="647.7 437.9 646.9 437.3 646.8 436.3 646.2 437.1 645.2 437.2 646 437.8 646.1 438.8 646.7 438 647.7 437.9"/>
      <polygon class="cls-22" points="654.6 435.6 654.1 435.2 654 434.6 653.7 435.1 653 435.2 653.5 435.5 653.6 436.2 654 435.7 654.6 435.6"/>
      <polygon class="cls-22" points="674.7 408.5 674.8 409.1 674.4 409.6 675 409.5 675.5 409.9 675.4 409.3 675.8 408.8 675.2 408.9 674.7 408.5"/>
      <polygon class="cls-23" points="655 414.2 654.7 414.8 654.1 415 654.7 415.2 654.9 415.8 655.1 415.3 655.7 415.1 655.2 414.8 655 414.2"/>
      <polygon class="cls-23" points="637 436.1 637.6 436.2 638 436.8 638.1 436.1 638.6 435.8 638 435.7 637.6 435.1 637.5 435.8 637 436.1"/>
      <polygon class="cls-23" points="643.3 426.1 643.9 425.9 644.5 426.1 644.2 425.5 644.5 425 643.9 425.2 643.3 424.9 643.6 425.5 643.3 426.1"/>
      <polygon class="cls-23" points="637.1 430.4 637.1 429.8 637.6 429.4 637 429.3 636.6 428.9 636.5 429.5 636.1 429.9 636.7 429.9 637.1 430.4"/>
      <polygon class="cls-22" points="683.6 413.2 683.7 413.8 683.3 414.3 683.9 414.2 684.4 414.6 684.3 414 684.7 413.5 684.1 413.6 683.6 413.2"/>
      <polygon class="cls-22" points="691.3 402.3 691.3 402.9 690.9 403.4 691.6 403.3 692.1 403.7 692 403.1 692.4 402.6 691.8 402.7 691.3 402.3"/>
      <polygon class="cls-22" points="644 429.6 644.1 430.6 643.5 431.4 644.4 431.2 645.2 431.9 645.1 430.9 645.7 430.1 644.7 430.3 644 429.6"/>
      <polygon class="cls-22" points="640.9 442.6 641.5 443.4 641.3 444.4 642.1 443.8 643 444 642.5 443.2 642.7 442.3 641.9 442.8 640.9 442.6"/>
      <polygon class="cls-22" points="648.5 430.9 648.6 431.5 648.2 432 648.8 431.9 649.3 432.3 649.2 431.7 649.6 431.2 649 431.3 648.5 430.9"/>
      <polygon class="cls-22" points="656.2 420 656.2 420.6 655.8 421.1 656.5 421.1 657 421.5 656.9 420.8 657.3 420.3 656.6 420.4 656.2 420"/>
      <polygon class="cls-22" points="709.6 395.6 709.7 396.2 709.2 396.7 709.9 396.7 710.4 397.1 710.3 396.4 710.7 395.9 710.1 396 709.6 395.6"/>
      <g>
        <polygon class="cls-22" points="631.8 410.6 630.9 410.4 630.4 409.5 630.2 410.5 629.3 411 630.3 411.2 630.8 412.1 631 411.1 631.8 410.6"/>
        <polygon class="cls-22" points="629 412.1 628.4 412.3 627.9 412.1 628.1 412.6 627.9 413.2 628.5 413 629 413.2 628.8 412.6 629 412.1"/>
        <polygon class="cls-22" points="627 398.4 626.1 398.8 625.2 398.4 625.6 399.3 625.2 400.2 626.1 399.8 627 400.2 626.6 399.3 627 398.4"/>
        <polygon class="cls-22" points="623.7 404.1 624.2 405 624 405.9 624.8 405.4 625.8 405.6 625.3 404.8 625.5 403.8 624.7 404.4 623.7 404.1"/>
        <polygon class="cls-22" points="626.9 392.2 626.2 392.1 625.9 391.6 625.8 392.2 625.3 392.6 625.9 392.7 626.2 393.2 626.3 392.6 626.9 392.2"/>
        <polygon class="cls-22" points="635.4 420.1 634.8 420.3 634.2 420.1 634.5 420.6 634.3 421.2 634.8 421 635.4 421.2 635.2 420.6 635.4 420.1"/>
        <polygon class="cls-22" points="638 352.4 637.7 352.6 637.7 352.9 637.5 352.6 637.1 352.6 637.4 352.4 637.5 352 637.7 352.3 638 352.4"/>
        <polygon class="cls-22" points="638.4 362.3 637.6 362.8 637.4 363.8 636.9 362.9 635.9 362.7 636.7 362.2 636.9 361.2 637.5 362.1 638.4 362.3"/>
        <polygon class="cls-22" points="643.2 364.6 642.3 365.1 642.1 366.1 641.6 365.2 640.6 365 641.5 364.5 641.7 363.6 642.2 364.4 643.2 364.6"/>
        <polygon class="cls-22" points="637 373.3 636.1 373.8 636 374.8 635.4 374 634.5 373.8 635.3 373.3 635.5 372.3 636 373.1 637 373.3"/>
        <polygon class="cls-22" points="643.1 377.8 642.7 378.7 643.1 379.6 642.2 379.2 641.3 379.6 641.7 378.7 641.3 377.8 642.2 378.2 643.1 377.8"/>
        <polygon class="cls-22" points="642.4 396.9 642.1 397.8 642.5 398.7 641.6 398.3 640.7 398.7 641 397.8 640.6 396.9 641.6 397.3 642.4 396.9"/>
        <polygon class="cls-22" points="639.4 377.9 638.8 378.2 638.7 378.8 638.4 378.3 637.8 378.2 638.3 377.9 638.4 377.2 638.8 377.8 639.4 377.9"/>
        <polygon class="cls-22" points="632.8 381 631.8 381 631.2 381.8 631.1 380.8 630.3 380.2 631.3 380.1 631.9 379.4 632 380.3 632.8 381"/>
        <polygon class="cls-22" points="649.6 387.2 648.7 387.7 648.5 388.7 648 387.8 647 387.7 647.9 387.1 648.1 386.2 648.6 387 649.6 387.2"/>
        <polygon class="cls-22" points="640.9 388.2 640.5 387.3 639.6 387 640.5 386.6 640.8 385.7 641.2 386.6 642.1 386.9 641.2 387.3 640.9 388.2"/>
        <polygon class="cls-22" points="632.7 395 631.9 395.5 631.7 396.5 631.2 395.7 630.2 395.5 631 395 631.2 394 631.8 394.8 632.7 395"/>
        <polygon class="cls-22" points="629.6 386.5 628.8 387.1 628.6 388 628.1 387.2 627.1 387 628 386.5 628.1 385.5 628.7 386.3 629.6 386.5"/>
        <polygon class="cls-22" points="636.3 389.6 635.8 389.9 635.6 390.5 635.3 390 634.7 389.9 635.2 389.5 635.3 388.9 635.7 389.4 636.3 389.6"/>
        <polygon class="cls-22" points="634.8 413.2 635.6 413.9 636.6 413.7 635.9 414.5 636.1 415.5 635.3 414.8 634.3 415 635 414.2 634.8 413.2"/>
        <polygon class="cls-22" points="634.5 401.4 634.2 402.3 634.6 403.2 633.7 402.9 632.8 403.3 633.1 402.4 632.7 401.5 633.6 401.9 634.5 401.4"/>
        <polygon class="cls-22" points="641 411.4 641.9 411.7 642.7 411.1 642.5 412.1 643.1 412.9 642.1 412.7 641.3 413.2 641.5 412.3 641 411.4"/>
        <polygon class="cls-22" points="638.3 404.6 639 404.8 639.5 404.4 639.3 405 639.7 405.5 639.1 405.4 638.6 405.8 638.7 405.1 638.3 404.6"/>
        <polygon class="cls-22" points="644.7 372 644.2 372.3 644 373 643.7 372.4 643.1 372.3 643.6 372 643.7 371.3 644.1 371.9 644.7 372"/>
        <polygon class="cls-22" points="637.3 367.9 636.8 368.3 636.6 368.9 636.3 368.3 635.7 368.2 636.2 367.9 636.3 367.3 636.7 367.8 637.3 367.9"/>
        <polygon class="cls-22" points="640.2 357.7 639.7 358 639.6 358.6 639.2 358.1 638.6 358 639.2 357.6 639.3 357 639.6 357.6 640.2 357.7"/>
        <polygon class="cls-22" points="649.8 400.6 649 401.1 648.8 402.1 648.3 401.3 647.3 401.1 648.1 400.6 648.3 399.6 648.8 400.4 649.8 400.6"/>
        <polygon class="cls-22" points="645.9 406.3 645.3 406.6 645.2 407.3 644.9 406.7 644.3 406.6 644.8 406.3 644.9 405.6 645.2 406.2 645.9 406.3"/>
        <polygon class="cls-22" points="649.4 393.5 648.9 393.8 648.8 394.5 648.4 393.9 647.8 393.8 648.3 393.5 648.5 392.8 648.8 393.4 649.4 393.5"/>
      </g>
    </g>
    <g>
      <path class="cls-24" d="M620.5,466.2s-12.7-1.8-32.4,4.9l-19.7,6.7s18.9,4.1,35.9-2.3S620.5,466.2,620.5,466.2Z"/>
      <path class="cls-25" d="M516,443.9s-8.1-12-1.2-31.8c0,0,30.5,11,29.3,33.3C544.2,445.4,535.3,453.6,516,443.9Z"/>
      <path class="cls-26" d="M541.9,390.4s-16.2,29.4,1.9,45.3,15-15.4,11.2-26.1S541.9,390.4,541.9,390.4Z"/>
      <path class="cls-27" d="M561.1,399.6s22.7,24.3,10.8,41c0,0-13.9,1.8-14.6-12.8A84.8,84.8,0,0,1,561.1,399.6Z"/>
      <path class="cls-28" d="M593.5,396s-17,15.1-18.9,34.8,13.9,15.4,17.7,11.3,8.5-10.2,6.9-24.8S593.5,396,593.5,396Z"/>
      <path class="cls-29" d="M611.3,417.3s-25.1,18.7-26.6,30,14.3,14.9,21.6,6.9S616.3,433.4,611.3,417.3Z"/>
      <path class="cls-30" d="M568.9,468.7A179.3,179.3,0,0,1,623.2,450s-11.6,30.7-54.7,27.7C568.5,477.7,558.4,473.3,568.9,468.7Z"/>
      <path class="cls-31" d="M577.3,452.1s22-15.1,44.3-15.6c0,0-5.4,32.8-53.2,41.2C568.5,477.7,557.7,461.8,577.3,452.1Z"/>
      <path class="cls-32" d="M528,425.4s-7.7,12-3.5,21,21.2,13.8,21.2,13.8,3.1-17.2-7.7-27.4S528,425.4,528,425.4Z"/>
      <path class="cls-32" d="M589.3,412.9s-20.4,11.8-20.4,31.8,15.4,10.5,15.4,10.5S603.2,440.8,589.3,412.9Z"/>
      <path class="cls-33" d="M494.8,453.6s13.1,18.7,34.7,21,13.1-6.4,13.1-6.4S540.7,450.8,494.8,453.6Z"/>
      <path class="cls-24" d="M509.5,442.1s-0.8,23.6,20,32.5a59.8,59.8,0,0,0,38.9,3.1S551.1,451.1,509.5,442.1Z"/>
      <path class="cls-34" d="M537.6,414.2s32.4,17.2,38.9,32.3-8.1,31.2-8.1,31.2-19.7,1.5-30.8-25.3A63.7,63.7,0,0,1,537.6,414.2Z"/>
    </g>
    <g>
      <path class="cls-35" d="M697,468.4c-0.2,15.3-15.4,27.5-33.9,27.2s-33.3-13-33.1-28.3,15.5-29.3,34-29.1S697.2,453.1,697,468.4Z"/>
      <path class="cls-36" d="M656.3,439.1c-5,1.7-9.7,6.8-12.7,11a31.2,31.2,0,0,0-6.1,17.9c-0.3,19.7,16.5,26.5,16.5,26.5a33.1,33.1,0,0,0,7.5,1s-11.6-9.9-11.3-31,13.6-26.1,13.7-26.1a10,10,0,0,1-2.4,0,18.7,18.7,0,0,0-5.2.7h0Z"/>
      <path class="cls-37" d="M656.4,439.1s-25.1,3.9-26.5,27.7c-1.4,25.3,25.2,28.5,28.1,28.5,0,0-18.6-4.3-19.8-27.3C638.1,468,636.5,450.6,656.4,439.1Z"/>
      <path class="cls-38" d="M657.5,440.2a1.7,1.7,0,0,0,1.1,1.5l0.4-.3A1.9,1.9,0,0,0,657.5,440.2Z"/>
      <path class="cls-38" d="M655.6,441.9a2.2,2.2,0,0,0,1.4,1.9l0.5-.4S657.3,442.5,655.6,441.9Z"/>
      <path class="cls-38" d="M653.3,444.8a2.4,2.4,0,0,0,2,1.7l0.5-.5S655.3,445,653.3,444.8Z"/>
      <path class="cls-38" d="M651.9,447.2a2.4,2.4,0,0,0,2.2,1.5l0.4-.5S654,447.1,651.9,447.2Z"/>
      <path class="cls-38" d="M650.2,451.3a2.4,2.4,0,0,0,2.5.8l0.2-.6S652.2,450.6,650.2,451.3Z"/>
      <path class="cls-38" d="M648.8,456.3a2.4,2.4,0,0,0,2.6.4v-0.7S650.6,455.4,648.8,456.3Z"/>
      <path class="cls-38" d="M647.8,460.4a2.4,2.4,0,0,0,2.6.4v-0.7S649.6,459.4,647.8,460.4Z"/>
      <path class="cls-38" d="M647.7,465.4a2.4,2.4,0,0,0,2.6-.3v-0.7S649.2,464.1,647.7,465.4Z"/>
      <path class="cls-38" d="M647.8,469.6a2.4,2.4,0,0,0,2.6-.3v-0.7S649.3,468.2,647.8,469.6Z"/>
      <path class="cls-38" d="M648.1,473.2a2.4,2.4,0,0,0,2.6-.3v-0.7S649.6,471.9,648.1,473.2Z"/>
      <path class="cls-38" d="M649,477.2s1.8,0.4,2.5-.8l-0.2-.6S650.2,475.6,649,477.2Z"/>
      <path class="cls-38" d="M649.8,481s1.8,0.4,2.5-.8l-0.2-.6S650.9,479.4,649.8,481Z"/>
      <path class="cls-38" d="M651,484.2s1.8,0.4,2.5-.8l-0.2-.6S652.2,482.6,651,484.2Z"/>
      <path class="cls-38" d="M652.6,487.5s1.8,0.4,2.5-.8l-0.2-.6S653.8,485.9,652.6,487.5Z"/>
      <path class="cls-38" d="M655,491.3s1.8,0.3,2.4-1l-0.3-.6S656,489.6,655,491.3Z"/>
      <path class="cls-38" d="M657.8,493.5a1.8,1.8,0,0,0,1.8-.7l-0.2-.5A1.9,1.9,0,0,0,657.8,493.5Z"/>
      <path class="cls-38" d="M638.9,445.6a1.8,1.8,0,0,0,1.5,1.3l0.3-.4A1.9,1.9,0,0,0,638.9,445.6Z"/>
      <path class="cls-38" d="M636.3,448.5a1.8,1.8,0,0,0,1.6,1.1l0.3-.4A2,2,0,0,0,636.3,448.5Z"/>
      <path class="cls-38" d="M632.9,452.2a2.4,2.4,0,0,0,2.1,1.6l0.4-.5S634.9,452.2,632.9,452.2Z"/>
      <path class="cls-38" d="M630.5,455.9a2.4,2.4,0,0,0,2.3,1.2l0.3-.6S632.6,455.7,630.5,455.9Z"/>
      <path class="cls-38" d="M628.7,460.9a2.4,2.4,0,0,0,2.5.8l0.2-.6S630.6,460.3,628.7,460.9Z"/>
      <path class="cls-38" d="M627.9,464.8a2.4,2.4,0,0,0,2.5.9l0.3-.6S629.8,464.2,627.9,464.8Z"/>
      <path class="cls-38" d="M627.4,469.7a2.4,2.4,0,0,0,2.6-.3v-0.7S628.9,468.3,627.4,469.7Z"/>
      <path class="cls-38" d="M628.1,473.1a2.4,2.4,0,0,0,2.6-.3v-0.7S629.6,471.7,628.1,473.1Z"/>
      <path class="cls-38" d="M629,476.9s1.8,0.4,2.5-.8l-0.2-.6S630.2,475.3,629,476.9Z"/>
      <path class="cls-38" d="M630.4,480.2s1.8,0.4,2.5-.8l-0.2-.6S631.6,478.6,630.4,480.2Z"/>
      <path class="cls-38" d="M632.4,483.2s1.8,0.4,2.5-.8l-0.2-.6S633.6,481.6,632.4,483.2Z"/>
      <path class="cls-38" d="M634.8,485.8a2,2,0,0,0,1.8-1.1l-0.3-.5A2.1,2.1,0,0,0,634.8,485.8Z"/>
      <path class="cls-38" d="M637,487.7a1.7,1.7,0,0,0,1.5-1l-0.3-.4A1.8,1.8,0,0,0,637,487.7Z"/>
      <path class="cls-38" d="M639.3,489.5a1.8,1.8,0,0,0,1.8-.7l-0.2-.5A1.9,1.9,0,0,0,639.3,489.5Z"/>
      <path class="cls-38" d="M650.9,440.8a1.7,1.7,0,0,0,1.1,1.5l0.4-.3A1.9,1.9,0,0,0,650.9,440.8Z"/>
      <path class="cls-38" d="M647.9,442.3a2.2,2.2,0,0,0,1.4,1.9l0.5-.4S649.6,442.9,647.9,442.3Z"/>
      <path class="cls-38" d="M645.1,445a2.4,2.4,0,0,0,2,1.7l0.5-.5S647.1,445.2,645.1,445Z"/>
      <path class="cls-38" d="M642.5,448.1a2.4,2.4,0,0,0,2.2,1.5l0.4-.5S644.5,448,642.5,448.1Z"/>
      <path class="cls-38" d="M640.5,451.7a2.4,2.4,0,0,0,2.5.8l0.2-.6S642.4,451,640.5,451.7Z"/>
      <path class="cls-38" d="M638.6,454.8a2.4,2.4,0,0,0,2.3,1.2l0.3-.6S640.6,454.5,638.6,454.8Z"/>
      <path class="cls-38" d="M636.7,458.9a2.4,2.4,0,0,0,2.5.8l0.2-.6S638.6,458.2,636.7,458.9Z"/>
      <path class="cls-38" d="M636,463.7a2.4,2.4,0,0,0,2.6-.3v-0.7S637.5,462.3,636,463.7Z"/>
      <path class="cls-38" d="M635.7,467.8a2.4,2.4,0,0,0,2.6-.3v-0.7S637.2,466.5,635.7,467.8Z"/>
      <path class="cls-38" d="M636.2,472.2a2.4,2.4,0,0,0,2.6.5V472S638,471.3,636.2,472.2Z"/>
      <path class="cls-38" d="M636.9,476s1.5,1,2.6.1v-0.7S638.5,474.8,636.9,476Z"/>
      <path class="cls-38" d="M638.3,480s1.8,0.4,2.5-.8l-0.2-.6S639.5,478.4,638.3,480Z"/>
      <path class="cls-38" d="M639.7,483.6s1.8,0.4,2.5-.8l-0.2-.6S640.9,482,639.7,483.6Z"/>
      <path class="cls-38" d="M641.6,486.4s1.7,0.7,2.6-.4v-0.7S643,485,641.6,486.4Z"/>
      <path class="cls-38" d="M643.8,489.6s1.8,0.3,2.4-1L646,488S644.8,487.9,643.8,489.6Z"/>
      <path class="cls-38" d="M648.1,491.7a1.8,1.8,0,0,0,1.8-.7l-0.2-.5A1.9,1.9,0,0,0,648.1,491.7Z"/>
      <path class="cls-39" d="M671.5,439.4c4.9,1.9,9.5,7.1,12.4,11.4a31.2,31.2,0,0,1,5.5,18.1c-0.3,19.7-17.4,26-17.4,26a33.1,33.1,0,0,1-7.6.8s11.9-9.6,12.3-30.7-12.8-26.5-12.9-26.6a10,10,0,0,0,2.4.1,18.7,18.7,0,0,1,5.2.9h0Z"/>
      <path class="cls-40" d="M671.5,439.3s25,4.7,25.6,28.5c0.7,25.3-26.1,27.7-29,27.6,0,0,18.7-3.7,20.7-26.7C688.8,468.8,690.9,451.4,671.5,439.3Z"/>
      <path class="cls-38" d="M670.3,440.4a1.7,1.7,0,0,1-1.2,1.4l-0.4-.3A1.9,1.9,0,0,1,670.3,440.4Z"/>
      <path class="cls-38" d="M672.2,442.2a2.2,2.2,0,0,1-1.5,1.8l-0.5-.4S670.4,442.7,672.2,442.2Z"/>
      <path class="cls-38" d="M674.4,445.1a2.4,2.4,0,0,1-2,1.6l-0.4-.5S672.3,445.2,674.4,445.1Z"/>
      <path class="cls-38" d="M675.6,447.6a2.4,2.4,0,0,1-2.2,1.4l-0.4-.6S673.6,447.4,675.6,447.6Z"/>
      <path class="cls-38" d="M677.2,451.7a2.4,2.4,0,0,1-2.5.7l-0.2-.7S675.3,451,677.2,451.7Z"/>
      <path class="cls-38" d="M678.5,456.8a2.4,2.4,0,0,1-2.6.3v-0.7S676.7,455.8,678.5,456.8Z"/>
      <path class="cls-38" d="M679.3,460.9a2.4,2.4,0,0,1-2.6.3v-0.7S677.6,459.9,679.3,460.9Z"/>
      <path class="cls-38" d="M679.3,465.9a2.4,2.4,0,0,1-2.6-.4v-0.7S677.8,464.5,679.3,465.9Z"/>
      <path class="cls-38" d="M679.1,470.1a2.4,2.4,0,0,1-2.6-.4V469S677.6,468.7,679.1,470.1Z"/>
      <path class="cls-38" d="M678.6,473.7a2.4,2.4,0,0,1-2.6-.4v-0.7S677.2,472.3,678.6,473.7Z"/>
      <path class="cls-38" d="M677.6,477.7s-1.8.4-2.5-.8l0.2-.6S676.5,476,677.6,477.7Z"/>
      <path class="cls-38" d="M676.7,481.4s-1.8.4-2.5-.8l0.2-.6S675.6,479.8,676.7,481.4Z"/>
      <path class="cls-38" d="M675.4,484.6s-1.8.4-2.5-.8l0.2-.6S674.3,483,675.4,484.6Z"/>
      <path class="cls-38" d="M673.7,487.8s-1.8.4-2.5-.8l0.2-.6S672.6,486.2,673.7,487.8Z"/>
      <path class="cls-38" d="M671.1,491.6s-1.8.2-2.4-1.1l0.3-.6S670.2,489.9,671.1,491.6Z"/>
      <path class="cls-38" d="M668.3,493.7a1.8,1.8,0,0,1-1.8-.8l0.2-.5A1.9,1.9,0,0,1,668.3,493.7Z"/>
      <path class="cls-38" d="M688.7,446.4a1.8,1.8,0,0,1-1.5,1.2l-0.3-.4A1.9,1.9,0,0,1,688.7,446.4Z"/>
      <path class="cls-38" d="M691.2,449.3a1.8,1.8,0,0,1-1.6,1.1l-0.3-.4A2,2,0,0,1,691.2,449.3Z"/>
      <path class="cls-38" d="M694.5,453.1a2.4,2.4,0,0,1-2.2,1.5l-0.4-.5S692.5,453.1,694.5,453.1Z"/>
      <path class="cls-38" d="M696.7,457a2.4,2.4,0,0,1-2.3,1.2l-0.3-.6S694.7,456.6,696.7,457Z"/>
      <path class="cls-38" d="M698.4,462a2.4,2.4,0,0,1-2.5.7l-0.2-.6S696.5,461.3,698.4,462Z"/>
      <path class="cls-38" d="M699.1,465.9a2.4,2.4,0,0,1-2.5.8l-0.2-.6S697.2,465.3,699.1,465.9Z"/>
      <path class="cls-38" d="M699.5,470.8a2.4,2.4,0,0,1-2.6-.4v-0.7S698,469.4,699.5,470.8Z"/>
      <path class="cls-38" d="M698.6,474.2a2.4,2.4,0,0,1-2.6-.4v-0.7S697.2,472.8,698.6,474.2Z"/>
      <path class="cls-38" d="M697.6,477.9s-1.8.4-2.5-.8l0.2-.6S696.5,476.3,697.6,477.9Z"/>
      <path class="cls-38" d="M696.1,481.2s-1.8.4-2.5-.8l0.2-.6S695,479.6,696.1,481.2Z"/>
      <path class="cls-38" d="M694,484.2s-1.8.4-2.5-.8l0.2-.6S692.9,482.5,694,484.2Z"/>
      <path class="cls-38" d="M691.5,486.7a2,2,0,0,1-1.8-1.1l0.3-.5A2.1,2.1,0,0,1,691.5,486.7Z"/>
      <path class="cls-38" d="M689.3,488.6a1.7,1.7,0,0,1-1.4-1.1l0.3-.4A1.8,1.8,0,0,1,689.3,488.6Z"/>
      <path class="cls-38" d="M686.9,490.3a1.8,1.8,0,0,1-1.8-.8l0.2-.5A1.9,1.9,0,0,1,686.9,490.3Z"/>
      <path class="cls-38" d="M676.8,441.2a1.7,1.7,0,0,1-1.2,1.4l-0.4-.3A1.9,1.9,0,0,1,676.8,441.2Z"/>
      <path class="cls-38" d="M679.8,442.8a2.2,2.2,0,0,1-1.5,1.8l-0.5-.4S678,443.3,679.8,442.8Z"/>
      <path class="cls-38" d="M682.5,445.6a2.4,2.4,0,0,1-2,1.6l-0.4-.5S680.5,445.7,682.5,445.6Z"/>
      <path class="cls-38" d="M685.1,448.8a2.4,2.4,0,0,1-2.2,1.4l-0.4-.6S683,448.6,685.1,448.8Z"/>
      <path class="cls-38" d="M686.9,452.4a2.4,2.4,0,0,1-2.5.7l-0.2-.7S685,451.7,686.9,452.4Z"/>
      <path class="cls-38" d="M688.7,455.6a2.4,2.4,0,0,1-2.4,1.1l-0.3-.6S686.7,455.2,688.7,455.6Z"/>
      <path class="cls-38" d="M690.5,459.7a2.4,2.4,0,0,1-2.5.7l-0.2-.6S688.6,459,690.5,459.7Z"/>
      <path class="cls-38" d="M691,464.5a2.4,2.4,0,0,1-2.6-.4v-0.7S689.6,463.1,691,464.5Z"/>
      <path class="cls-38" d="M691.2,468.7a2.4,2.4,0,0,1-2.6-.4v-0.7S689.7,467.3,691.2,468.7Z"/>
      <path class="cls-38" d="M690.6,473.1a2.4,2.4,0,0,1-2.6.4v-0.7S688.8,472.1,690.6,473.1Z"/>
      <path class="cls-38" d="M689.8,476.8s-1.6.9-2.6,0v-0.7S688.2,475.6,689.8,476.8Z"/>
      <path class="cls-38" d="M688.2,480.8s-1.8.4-2.5-.8l0.2-.6S687.1,479.2,688.2,480.8Z"/>
      <path class="cls-38" d="M686.7,484.3s-1.8.4-2.5-.8l0.2-.6S685.5,482.7,686.7,484.3Z"/>
      <path class="cls-38" d="M684.8,487.1s-1.7.6-2.6-.5v-0.7S683.4,485.6,684.8,487.1Z"/>
      <path class="cls-38" d="M682.4,490.2s-1.8.2-2.4-1.1l0.3-.6S681.4,488.5,682.4,490.2Z"/>
      <path class="cls-38" d="M678.1,492.2a1.8,1.8,0,0,1-1.8-.8l0.2-.5A1.9,1.9,0,0,1,678.1,492.2Z"/>
      <path class="cls-41" d="M657.2,428.2s-2.3,4.2-.9,5.6,5,0.4,5.4-1.2S658.8,428.1,657.2,428.2Z"/>
      <path class="cls-41" d="M672.1,429.1s-4.6,1.4-4.3,3.6,3.3,3.6,4.3,3S673.8,430.7,672.1,429.1Z"/>
      <path class="cls-42" d="M658.9,440s-2.7,1.8-5.9-2.2-3.4-6.8-3.4-6.8,7.4-.5,9.4,1.3S661.3,438.7,658.9,440Z"/>
      <path class="cls-42" d="M670.1,440.7s2.5,2.1,6.1-1.6,4.2-6.4,4.2-6.4-7.3-1.3-9.5.3S666.3,438,670.1,440.7Z"/>
      <path class="cls-43" d="M663.9,440.8s4.3,0.2,5.8-3.7-4.9-10.4-4.9-10.4-6.9,5.7-5.9,9.7,5.3,4.3,5.3,4.3"/>
      <path class="cls-41" d="M664.8,431.1s-6.4,2.9-4.6,6.7,7,2.8,8.1.6S666.6,431.7,664.8,431.1Z"/>
    </g>
    <g>
      <path class="cls-44" d="M585.1,478.1s-0.6,4.6,3,7c0,0,2.4-3.2,2.1-5.3S585.7,476.2,585.1,478.1Z"/>
      <path class="cls-44" d="M628.4,478.1s0.6,4.6-3,7c0,0-2.4-3.2-2.1-5.3S627.8,476.2,628.4,478.1Z"/>
      <g>
        <path class="cls-45" d="M589.5,486.4s2,12,3.1,14h14.2V487.9Z"/>
        <path class="cls-46" d="M592.6,500.5c0-4,3.2-6.3,7.2-6.3s7.2,2.3,7.2,6.3"/>
        <path class="cls-45" d="M624.1,486.4s-2,12-3.1,14H606.8V487.9Z"/>
        <path class="cls-46" d="M621,500.5c0-4-3.2-6.3-7.2-6.3s-7.2,2.3-7.2,6.3"/>
      </g>
      <path class="cls-47" d="M629.4,478.1l0.4-5h-1.4c0-1.7-4.3-10.6-4.3-10.6-3.3,7.7-15.9,6.4-17.2,6.3h-0.1c-1.3.1-13.9,1.4-17.2-6.3,0,0-4.3,8.9-4.3,10.6h-1.4l0.4,5h4.3l0.7,2.8-1.5,5.4a167.8,167.8,0,0,0,19,1.5h0.1a167.8,167.8,0,0,0,19-1.5l-1.5-5.4,0.7-2.8h4.3Z"/>
      <path class="cls-48" d="M624.8,474.8l-18,.9-18-.9a11.2,11.2,0,0,0,.2,6.1l17.5,0.8H607l17.5-.8A11.2,11.2,0,0,0,624.8,474.8Z"/>
      <polygon class="cls-49" points="583.9 473.1 588.8 473.1 588.4 478.1 584.3 478.1 583.9 473.1"/>
      <polygon class="cls-49" points="625 473.1 629.9 473.1 629.5 478.1 625.4 478.1 625 473.1"/>
      <path class="cls-44" d="M621.5,429.2c0.7-2.4-.6-6.7-0.6-6.7a49.6,49.6,0,0,0-28.4,0s-1.3,4.3-.6,6.7c0,0-3.7,0-3,4.7s3.9,4.3,3.9,4.3,4.1,9.4,13.5,9.8H607c9.4-.4,13.5-9.8,13.5-9.8s3.2,0.4,3.9-4.3S621.5,429.2,621.5,429.2Z"/>
      <ellipse class="cls-50" cx="606.9" cy="435.3" rx="7.8" ry="5.9"/>
      <path class="cls-51" d="M592.5,422.5s-2.4,2.6-.6,6.7a10.4,10.4,0,0,1,.7,7.2s-7.8,8.5-6,18.1,4.9,11.9,6.6,13.4,8.1,3.3,8.1,8.2a10,10,0,0,0,1.1-3.2s4.2,1.1,3.5,6.6a7.8,7.8,0,0,0,2-4.7c0-2.7.3-4.7,1.7-3.1a1.6,1.6,0,0,1,0,2,8.8,8.8,0,0,1,5.3-3.8,15.2,15.2,0,0,0,10.5-9.1c2.5-5.7,4-12.4-1.1-20.4,0,0-3.5-3.5-3.3-5.3s1.4-5.6,1.4-7.5a11.8,11.8,0,0,0-.3-2.9l1.4,1.5-1.1-3.3s-1.4-2-2.6-.8-0.3,6.1-.3,7.4,1,5,.6,6.8-1.6,5.6-4.3,7.8-3.7,2.5-3.7,2.5a14.3,14.3,0,0,0-10.2.3s-7-2.9-8-10.3c0,0,.5-5.9.4-7s0.1-7.8.1-7.8S593,421.7,592.5,422.5Z"/>
      <g>
        <path class="cls-52" d="M606.9,441.2s-4.4-4.2-7.2-1.2-5.2.8-4.6-.3a2.7,2.7,0,0,1,1.8-1.2s-2.8-2-3.7,1.5a3.8,3.8,0,0,0,3.5,5.1C598.3,445.1,603.7,445.3,606.9,441.2Z"/>
        <path class="cls-52" d="M606.9,441.2s4.4-4.2,7.2-1.2,5.2,0.8,4.6-.3a2.7,2.7,0,0,0-1.8-1.2s2.8-2,3.7,1.5a3.8,3.8,0,0,1-3.5,5.1C615.5,445.1,610.1,445.3,606.9,441.2Z"/>
      </g>
      <g>
        <path class="cls-52" d="M608.7,428.3s0.9-5.8,8.2-4.4c0,0,3.1,1,3.5,3.9A10.2,10.2,0,0,0,608.7,428.3Z"/>
        <path class="cls-52" d="M604.9,428.3s-0.9-5.8-8.2-4.4c0,0-3.1,1-3.5,3.9A10.2,10.2,0,0,1,604.9,428.3Z"/>
      </g>
      <path class="cls-53" d="M591,423.3l12.8-41.9s0.8-2.8,2.8-2.7,3.2,3.2,3.2,3.2l12.5,41.1A48.9,48.9,0,0,0,591,423.3Z"/>
    </g>
    <g id="FRAME">
      <g>
        <path class="cls-54" d="M588.3,566.2c-77.1,0-146.9-53.4-164.3-131.8-9.4-42.2-1.3-86.5,22.2-121.6,19.6-29.3,48.5-51.5,83.6-64.3A193.9,193.9,0,0,1,635.4,241l8.9,2a164.3,164.3,0,0,0,20.2,3.9c46.8,5,87.2-29.7,122.8-60.3l10.9-9.3,2.6,3.1-10.9,9.3c-34.5,29.6-77.3,66.5-125.8,61.3a167.4,167.4,0,0,1-20.7-4l-8.8-2a189.8,189.8,0,0,0-103.4,7.4c-34.3,12.5-62.5,34.3-81.6,62.8-22.9,34.2-30.7,77.4-21.6,118.5C447.6,522,535.6,577.9,624.1,558.2c42.8-9.5,82.2-36.4,108-73.8,19.7-28.5,29.9-62.3,28.6-94.9-0.2-4.4-.5-8.9-0.9-13.3-0.9-10.5-1.8-21.3.1-31.9,5.8-33.6,35.3-55.8,61.4-75.5,5.4-4,10.4-7.9,15.3-11.7l2.6-2.1c3.8-3.1,7.7-6.2,11.7-9.1l2.4,3.2c-3.9,2.9-7.8,6-11.5,9l-2.6,2.1c-4.9,3.9-10,7.8-15.4,11.8-25.5,19.2-54.3,40.9-59.8,73-1.8,10.1-.9,20.7,0,30.9,0.4,4.4.7,9,.9,13.5,1.3,33.5-9.2,68.1-29.4,97.4-26.4,38.2-66.6,65.7-110.4,75.5A168.4,168.4,0,0,1,588.3,566.2Z"/>
        <path class="cls-54" d="M853.1,249l-2.3-3.3c1.6-1.1,2.3-5.3-.5-13.6s-7.8-17.5-14.5-26.8c-15-20.9-29.5-29.9-33.4-27.2l-2.3-3.3c8.1-5.8,26.1,10.2,39,28.1,6.9,9.6,12.2,19.5,15.1,27.8S856.9,246.4,853.1,249Z"/>
        <g id="CORK">
          <g>
            <path class="cls-55" d="M782.5,212.9s-6.3,7.4,10,27.7,23,15.4,23,15.4l44-32.5s-14.3-6-23.4-19.6-8.8-23.6-8.8-23.6Z"/>
            <path class="cls-55" d="M813.2,258.5c-3.9,0-11-2.8-22.3-16.7-16.9-21-10.7-29.3-9.9-30.2l0.2-.2,48.4-35.2v4.1c0,0.1-.1,9.6,8.4,22.4s22.3,18.8,22.5,18.8l3.2,1.4-46.9,34.6A5.8,5.8,0,0,1,813.2,258.5ZM784,214.3c-0.6,1.1-3.5,8.2,10.1,25s20.2,15.1,20.2,15l41.4-30.5c-4.8-2.6-14.4-8.6-21.2-18.8s-8.1-16.7-8.8-21Z"/>
          </g>
          <g>
            <ellipse class="cls-56" cx="845.3" cy="200.4" rx="8.2" ry="26.9" transform="translate(51.9 554.3) rotate(-37.4)"/>
            <path class="cls-56" d="M859.9,224.3c-6,0-15.3-8.2-22.6-17.7a70,70,0,0,1-9.9-17.1c-2.8-7.5-1.3-10.7.5-12.1s5.2-2,11.8,2.7a70,70,0,0,1,13.9,14.1c8.7,11.4,14.8,25.1,9.4,29.2A4.9,4.9,0,0,1,859.9,224.3Zm-28.9-43.9-0.7.2c-0.6.5-.9,2.9,0.8,7.5a65.9,65.9,0,0,0,9.4,16.1c9.8,12.8,18.4,17.3,20,16s-0.4-10.8-10.2-23.6a65.9,65.9,0,0,0-13-13.2C834.1,181.1,832,180.4,830.9,180.4Z"/>
          </g>
        </g>
        <path class="cls-54" d="M849.1,250.3c-3.5,0-8.1-2.1-13.4-6.1-7-5.3-14.6-13.6-21.5-23.2s-12.2-19.5-15.1-27.8-2.8-15.4.9-18.1l2.3,3.3c-1.6,1.1-2.3,5.3.5,13.6s7.8,17.5,14.5,26.8,14,17.2,20.7,22.3,11.1,6,12.7,4.9l2.3,3.3A6.8,6.8,0,0,1,849.1,250.3Z"/>
      </g>
      <path class="cls-54" d="M608,495.3c-44.4,0-83.9-28.4-93.3-70.6-11-49.4,23.3-99.2,76.4-111s105.3,18.7,116.3,68.1h0c11,49.4-23.3,99.2-76.4,111A105.8,105.8,0,0,1,608,495.3Zm6.1-180.2a101.8,101.8,0,0,0-22.1,2.5c-51,11.4-83.9,59-73.4,106.3s60.6,76.4,111.5,65.1,83.9-59,73.4-106.3h0C694.5,342.3,656.7,315.1,614.1,315.1Z"/>
    </g>
  </g>
  <circle class="cls-3" cx="104.6" cy="101.5" r="50.7"/>
  <circle class="cls-3" cx="271.6" cy="101.5" r="50.7"/>
  <circle class="cls-3" cx="104.6" cy="233.5" r="50.7"/>
  <circle class="cls-3" cx="104.6" cy="444" r="50.7"/>
  <circle class="cls-3" cx="271.6" cy="233.5" r="50.7"/>
  <circle class="cls-3" cx="266.1" cy="450.1" r="55.8"/>
  <circle class="cls-3" cx="104.6" cy="598.5" r="50.7"/>
  <circle class="cls-3" cx="265.6" cy="598.5" r="50.7"/>
  <g>
    <polygon class="cls-57" points="497.6 440.6 488.3 458.6 497.8 466.8 497.6 440.6"/>
    <polygon class="cls-58" points="505.4 457.9 497.8 466.8 497.6 440.6 505.4 457.9"/>
    <polygon class="cls-59" points="497.8 466.8 500.9 491.6 495.6 491.9 497.5 473.3 490.7 463.1 488.3 458.6 497.8 466.8"/>
    <polygon class="cls-60" points="507.9 471.2 499.9 464.3 497.8 466.8 500.9 491.6 506.7 491.7 507.9 471.2"/>
    <polygon class="cls-61" points="505.4 457.9 512 461.3 507.9 471.2 499.9 464.3 505.4 457.9"/>
    <polygon class="cls-62" points="497.6 440.6 517.5 455.8 512 461.3 505.4 457.9 497.6 440.6"/>
    <polygon class="cls-63" points="517.5 455.8 517.5 460.9 514 465.2 513.2 486.7 506.7 491.7 507.9 471.2 512 461.3 517.5 455.8"/>
    <polygon class="cls-64" points="517.5 460.9 529.1 461.1 530.7 467.2 524.2 468.7 514 465.2 517.5 460.9"/>
    <polygon class="cls-65" points="490.7 463.1 483.4 463.1 479.3 465 476.7 468.6 484 468.9 490.7 463.1"/>
    <polygon class="cls-66" points="474.9 473.7 481.1 475 484 468.9 476.7 468.6 474.9 473.7"/>
    <polygon class="cls-67" points="474.4 493 476.1 487.3 474.9 473.7 481.1 475 481.2 493 480.1 500 474.4 493"/>
    <polygon class="cls-68" points="481.2 493 486.1 493.5 489.8 477.7 484 468.9 481.1 475 481.2 493"/>
    <polygon class="cls-69" points="489 499.1 486.1 493.5 489.8 477.7 484 468.9 490.7 463.1 497.5 473.3 495.6 491.9 495.4 494.3 489 499.1"/>
    <polygon class="cls-70" points="513.6 474.9 514 465.2 517.1 466.2 519.5 475.8 513.6 474.9"/>
    <polygon class="cls-71" points="524.5 470.4 519.5 475.8 517.1 466.2 524.2 468.7 524.5 470.4"/>
    <polygon class="cls-72" points="532.6 474.2 530.7 467.2 524.2 468.7 525.4 476.6 532.6 474.2"/>
    <polygon class="cls-73" points="531.4 489.2 532.6 474.2 525.4 476.6 524.5 481.7 524.4 490.6 531.4 489.2"/>
    <polygon class="cls-74" points="518.3 481.4 524.5 481.7 525.4 476.6 524.5 470.4 519.5 475.8 518.3 481.4"/>
    <polygon class="cls-71" points="518.2 490.5 518.3 481.4 519.5 475.8 513.6 474.9 513.2 486.7 518.2 490.5"/>
    <polygon class="cls-75" points="506.7 491.7 513 492.9 518.2 490.5 513.2 486.7 506.7 491.7"/>
    <polygon class="cls-76" points="518.3 481.4 524.5 481.7 524.4 490.6 518.2 490.5 518.3 481.4"/>
    <polygon class="cls-77" points="522.3 495.9 513.5 498.6 513 492.9 518.2 490.5 524.4 490.6 522.3 495.9"/>
    <polygon class="cls-78" points="495.4 494.3 502.7 495.1 506.7 491.7 500.9 491.6 495.6 491.9 495.4 494.3"/>
    <polygon class="cls-79" points="489 499.1 499.4 499.4 502.7 495.1 495.4 494.3 489 499.1"/>
    <polygon class="cls-80" points="506.9 499.4 513.5 498.6 513 492.9 506.7 491.7 502.7 495.1 506.9 499.4"/>
    <polygon class="cls-81" points="489 499.1 493.5 501.6 504.5 501.5 507 500.7 517.6 500.6 523.5 497.5 531.1 495.1 533.1 488.8 531.5 487.9 531.4 489.2 524.4 490.6 522.3 495.9 513.5 498.6 506.9 499.4 502.7 495.1 499.4 499.4 489 499.1"/>
    <polygon class="cls-82" points="480.1 500 489 499.1 486.1 493.5 481.2 493 480.1 500"/>
  </g>
  <g>
    <rect class="cls-83" x="753" y="624" width="141.7" height="50.52"/>
    <text class="cls-84" transform="translate(793.4 652.8)">start over</text>
  </g>
  <g>
    <rect class="cls-85" x="637" y="16" width="266" height="123"/>
    <text class="cls-86" transform="translate(772 44.7)">bring forwards<tspan x="0" y="24">send backwards</tspan><tspan x="0" y="48">grow by 5%</tspan><tspan x="0" y="72">shrink by 5%</tspan></text>
    <text class="cls-87" transform="translate(748 45.4)"><tspan x="0" y="24"></tspan><tspan x="0" y="48"></tspan><tspan x="0" y="72"></tspan></text>
  </g>
  <g class="cls-88">
    <path class="cls-44" d="M669.7,107.6s-0.4,3.5,2.3,5.4c0,0,1.9-2.4,1.7-4.1S670.2,106.2,669.7,107.6Z"/>
    <path class="cls-44" d="M703.2,107.6s0.4,3.5-2.3,5.4c0,0-1.9-2.4-1.7-4.1S702.7,106.2,703.2,107.6Z"/>
    <g>
      <path class="cls-45" d="M673.1,114.1s1.5,9.3,2.4,10.8h11v-9.7Z"/>
      <path class="cls-46" d="M675.5,125c0-3.1,2.5-4.9,5.6-4.9s5.6,1.8,5.6,4.9"/>
      <path class="cls-45" d="M699.9,114.1s-1.5,9.3-2.4,10.8h-11v-9.7Z"/>
      <path class="cls-46" d="M697.5,125c0-3.1-2.5-4.9-5.6-4.9s-5.6,1.8-5.6,4.9"/>
    </g>
    <path class="cls-47" d="M704,107.7l0.3-3.9h-1.1c0-1.3-3.4-8.2-3.4-8.2-2.6,5.9-12.3,5-13.3,4.9h-0.1c-1,.1-10.7,1.1-13.3-4.9,0,0-3.4,6.9-3.4,8.2h-1.1l0.3,3.9h3.4l0.5,2.2-1.2,4.2a130,130,0,0,0,14.7,1.2h0.1a130,130,0,0,0,14.7-1.2l-1.2-4.2,0.5-2.2H704Z"/>
    <path class="cls-48" d="M700.4,105.1l-13.9.7-13.9-.7a8.7,8.7,0,0,0,.2,4.8l13.6,0.6h0.3l13.6-.6A8.7,8.7,0,0,0,700.4,105.1Z"/>
    <polygon class="cls-49" points="668.7 103.8 672.5 103.8 672.2 107.7 669 107.7 668.7 103.8"/>
    <polygon class="cls-49" points="700.5 103.8 704.4 103.8 704 107.7 700.9 107.7 700.5 103.8"/>
    <path class="cls-44" d="M697.8,69.8c0.6-1.9-.4-5.2-0.4-5.2a38.4,38.4,0,0,0-22,0s-1,3.3-.4,5.2c0,0-2.9,0-2.3,3.6s3,3.3,3,3.3,3.2,7.3,10.4,7.6h0.5c7.3-.3,10.4-7.6,10.4-7.6s2.4,0.3,3-3.3S697.8,69.8,697.8,69.8Z"/>
    <ellipse class="cls-50" cx="686.6" cy="74.5" rx="6" ry="4.6"/>
    <path class="cls-51" d="M675.4,64.6a4.8,4.8,0,0,0-.4,5.2,8,8,0,0,1,.5,5.6s-6.1,6.6-4.6,14,3.8,9.2,5.1,10.4,6.3,2.6,6.3,6.4a7.7,7.7,0,0,0,.9-2.5s3.2,0.9,2.7,5.1a6.1,6.1,0,0,0,1.5-3.7c0-2.1.2-3.7,1.3-2.4a1.2,1.2,0,0,1,0,1.5,6.8,6.8,0,0,1,4.1-2.9,11.8,11.8,0,0,0,8.1-7c1.9-4.4,3.1-9.6-.9-15.8,0,0-2.7-2.7-2.6-4.1s1.1-4.3,1.1-5.8a9.2,9.2,0,0,0-.2-2.3l1.1,1.2-0.8-2.6s-1.1-1.6-2-.6-0.2,4.8-.2,5.7,0.8,3.9.5,5.3a11.5,11.5,0,0,1-3.4,6.1,10.7,10.7,0,0,1-2.9,1.9,11.1,11.1,0,0,0-7.9.2s-5.4-2.3-6.2-7.9c0,0,.4-4.6.3-5.5s0.1-6.1.1-6.1A1.7,1.7,0,0,0,675.4,64.6Z"/>
    <g>
      <path class="cls-52" d="M686.6,79.1s-3.4-3.3-5.6-.9-4,.6-3.6-0.2a2.1,2.1,0,0,1,1.4-.9s-2.1-1.5-2.8,1.2a3,3,0,0,0,2.7,3.9C679.9,82.1,684.1,82.2,686.6,79.1Z"/>
      <path class="cls-52" d="M686.5,79.1s3.4-3.3,5.6-.9,4,0.6,3.6-.2a2.1,2.1,0,0,0-1.4-.9s2.1-1.5,2.8,1.2a3,3,0,0,1-2.7,3.9C693.2,82.1,689,82.2,686.5,79.1Z"/>
    </g>
    <g>
      <path class="cls-52" d="M687.9,69s0.7-4.5,6.3-3.4a4.2,4.2,0,0,1,2.7,3.1A7.9,7.9,0,0,0,687.9,69Z"/>
      <path class="cls-52" d="M685,69s-0.7-4.5-6.3-3.4a4.2,4.2,0,0,0-2.7,3.1A7.9,7.9,0,0,1,685,69Z"/>
    </g>
    <path class="cls-53" d="M674.3,65.2l9.9-32.5s0.6-2.2,2.2-2.1,2.4,2.4,2.4,2.4l9.7,31.8A37.9,37.9,0,0,0,674.3,65.2Z"/>
  </g>
</svg>
