<svg id="Layer_1" data-name="Layer 1" xmlns="http://www.w3.org/2000/svg" width="920" height="700" viewBox="0 0 920 700">
  <defs>
    <style>
      .cls-1 {
        fill: #424242;
      }

      .cls-2 {
        fill: #fff;
      }

      .cls-3 {
        fill: #78583d;
      }

      .cls-4 {
        fill: #896a52;
      }

      .cls-5 {
        fill: #a6a8ab;
      }

      .cls-6 {
        fill: #a3846f;
      }

      .cls-7 {
        fill: #ba9983;
      }

      .cls-8 {
        font-size: 16px;
        fill: #d207d8;
        font-family: Helvetica;
      }
    </style>
  </defs>
  <title>succulent-garden-instructions</title>
  <rect class="cls-1" x="0.9" width="920" height="700"/>
  <rect class="cls-2" x="11.5" y="9.9" width="897.1" height="680.28"/>
  <g id="BOTTLE">
    <g id="SOIL">
      <path class="cls-3" d="M349.2,183.7s4.7-3.3,18.4-2.4,19.4,3.8,24.6,3.3,18.9-.5,18.9-0.5,14.2,3.3,19.4,2.4,13.7-3.3,27.9-3.3,20.3,1.4,30.2.9,18.9-2.8,24.6-1.9a18.9,18.9,0,0,0,9.9-.9s-16.5,59.1-78.5,67.6S350.6,199.3,349.2,183.7Z"/>
      <g>
        <polygon class="cls-4" points="410.7 242.7 414.2 244.6 415.5 241.7 412.5 240.7 410.7 242.7"/>
        <polygon class="cls-4" points="435.1 243.7 437.2 241.8 435.5 240.2 434.1 242 435.1 243.7"/>
        <polygon class="cls-4" points="424.1 245.2 426.7 242.8 424.6 240.8 422.9 243.1 424.1 245.2"/>
        <polygon class="cls-4" points="442 242 444.9 244 446.4 241.5 443.8 240.4 442 242"/>
        <polygon class="cls-4" points="356.4 199.1 358.6 197.9 357.5 196.2 355.9 197.4 356.4 199.1"/>
        <polygon class="cls-4" points="368.9 198.9 368.3 201.7 370.6 202 370.7 199.7 368.9 198.9"/>
        <polygon class="cls-4" points="376 198.4 375.2 201.8 378 202.3 378.2 199.5 376 198.4"/>
        <polygon class="cls-4" points="364.1 204.2 360.6 204.2 360.8 207 363.6 206.5 364.1 204.2"/>
        <polygon class="cls-4" points="392.1 227.4 388.6 227.4 388.8 230.2 391.6 229.7 392.1 227.4"/>
        <polygon class="cls-4" points="371.6 209.2 373.4 211.1 374.8 209.5 373.1 208.3 371.6 209.2"/>
        <polygon class="cls-4" points="382.8 212.8 384.5 214.6 385.9 213.1 384.3 211.9 382.8 212.8"/>
        <polygon class="cls-4" points="459.3 237.8 459.7 239.6 461.2 239.8 461.4 237.6 459.3 237.8"/>
        <polygon class="cls-4" points="403.8 222.1 402.3 223.1 402.6 224.5 404.7 224.1 403.8 222.1"/>
        <polygon class="cls-4" points="408.1 192.9 410.3 191.7 409.2 189.9 407.6 191.2 408.1 192.9"/>
        <polygon class="cls-4" points="420.6 192.7 420 195.5 422.3 195.8 422.4 193.5 420.6 192.7"/>
        <polygon class="cls-4" points="423.4 203 425.1 204.8 426.5 203.3 424.9 202.1 423.4 203"/>
        <polygon class="cls-4" points="413.3 207.5 411.8 208.4 412.1 209.8 414.2 209.4 413.3 207.5"/>
        <polygon class="cls-4" points="368.9 189 369.8 190.7 371.1 190.3 369.7 188.4 368.9 189"/>
        <polygon class="cls-4" points="384.6 202.7 385.6 204.4 386.9 203.9 385.5 202.1 384.6 202.7"/>
        <polygon class="cls-4" points="426.6 211.5 427.6 213.2 428.8 212.8 427.5 210.9 426.6 211.5"/>
        <polygon class="cls-4" points="372.3 218.2 369.8 221.3 373.3 223.7 373.6 220.1 372.3 218.2"/>
        <polygon class="cls-4" points="390.4 195.2 392.9 196.6 393.9 194.5 391.7 193.8 390.4 195.2"/>
        <polygon class="cls-4" points="380.7 189.7 383.8 191.4 384.9 188.8 382.3 187.9 380.7 189.7"/>
        <polygon class="cls-4" points="394.2 201.3 393.2 204.7 396 205.2 396.3 202.4 394.2 201.3"/>
        <polygon class="cls-4" points="402.3 229.6 401.3 232.9 404.1 233.5 404.3 230.7 402.3 229.6"/>
        <polygon class="cls-4" points="408.8 200.5 405.3 200.4 405.5 203.3 408.3 202.8 408.8 200.5"/>
        <polygon class="cls-4" points="418.3 231.4 414.9 231.3 415 234.2 417.8 233.7 418.3 231.4"/>
        <polygon class="cls-4" points="417 214.5 414.5 217.6 418 220 418.2 216.3 417 214.5"/>
        <polygon class="cls-4" points="432.9 192.3 430.4 195.3 433.9 197.7 434.2 194.1 432.9 192.3"/>
        <polygon class="cls-4" points="398.8 211.8 396.6 213.1 397.8 214.8 399.4 213.4 398.8 211.8"/>
        <polygon class="cls-4" points="386.8 222.4 385.8 220.8 384.5 221.3 386 223.1 386.8 222.4"/>
        <polygon class="cls-4" points="360.3 190.4 362.6 187.2 359 185 358.9 188.6 360.3 190.4"/>
        <polygon class="cls-4" points="516.3 187.4 517 191.2 513.9 191.6 513.9 188.4 516.3 187.4"/>
        <polygon class="cls-4" points="510.2 198.4 507.7 199.8 506.8 197.7 508.9 197 510.2 198.4"/>
        <polygon class="cls-4" points="508.8 191.5 505.7 193.1 504.5 190.6 507.2 189.7 508.8 191.5"/>
        <polygon class="cls-4" points="506.5 204.5 507.4 207.9 504.6 208.4 504.4 205.6 506.5 204.5"/>
        <polygon class="cls-4" points="499.6 198.6 497.3 197.4 498.4 195.6 500 196.9 499.6 198.6"/>
        <polygon class="cls-4" points="487 198.4 487.6 201.2 485.3 201.5 485.2 199.2 487 198.4"/>
        <polygon class="cls-4" points="479.9 197.9 480.7 201.3 477.9 201.8 477.8 198.9 479.9 197.9"/>
        <polygon class="cls-4" points="491.8 203.6 495.3 203.6 495.1 206.5 492.4 206 491.8 203.6"/>
        <polygon class="cls-4" points="463.8 226.9 467.3 226.8 467.1 229.7 464.4 229.2 463.8 226.9"/>
        <polygon class="cls-4" points="484.3 208.7 482.5 210.5 481.1 209 482.8 207.8 484.3 208.7"/>
        <polygon class="cls-4" points="473.1 212.3 471.4 214.1 470 212.6 471.6 211.4 473.1 212.3"/>
        <polygon class="cls-4" points="494.3 213.2 495.8 214.1 495.5 215.6 493.4 215.1 494.3 213.2"/>
        <polygon class="cls-4" points="452.1 221.6 453.6 222.6 453.4 224 451.3 223.6 452.1 221.6"/>
        <polygon class="cls-4" points="447.8 192.4 445.6 191.2 446.7 189.4 448.3 190.7 447.8 192.4"/>
        <polygon class="cls-4" points="434.3 202.4 434.9 205.2 432.6 205.6 432.5 203.3 434.3 202.4"/>
        <polygon class="cls-4" points="442.6 206.9 444.1 207.9 443.8 209.3 441.7 208.9 442.6 206.9"/>
        <polygon class="cls-4" points="487.1 188.5 486.1 190.2 484.8 189.7 486.2 187.9 487.1 188.5"/>
        <polygon class="cls-4" points="471.3 202.2 470.3 203.8 469.1 203.4 470.4 201.5 471.3 202.2"/>
        <polygon class="cls-4" points="483.6 217.7 486.1 220.8 482.6 223.2 482.4 219.5 483.6 217.7"/>
        <polygon class="cls-4" points="465.5 194.7 463 196.1 462.1 194 464.2 193.3 465.5 194.7"/>
        <polygon class="cls-4" points="461.8 200.8 462.7 204.1 459.9 204.7 459.7 201.9 461.8 200.8"/>
        <polygon class="cls-4" points="453.7 229 454.6 232.4 451.8 233 451.6 230.2 453.7 229"/>
        <polygon class="cls-4" points="447.1 199.9 450.6 199.9 450.4 202.7 447.7 202.2 447.1 199.9"/>
        <polygon class="cls-4" points="437.6 230.8 441.1 230.8 440.9 233.6 438.1 233.1 437.6 230.8"/>
        <polygon class="cls-4" points="438.9 214 441.4 217.1 437.9 219.4 437.7 215.8 438.9 214"/>
        <polygon class="cls-4" points="457.1 211.3 459.3 212.6 458.1 214.3 456.6 212.9 457.1 211.3"/>
        <polygon class="cls-4" points="469.1 221.9 470.2 220.3 471.4 220.8 470 222.6 469.1 221.9"/>
        <polygon class="cls-4" points="473.9 192.9 471.6 189.7 475.1 187.5 475.2 191.1 473.9 192.9"/>
        <polygon class="cls-4" points="428.6 229.8 426.2 226.6 429.8 224.4 429.9 228 428.6 229.8"/>
      </g>
    </g>
    <g id="FRAME">
      <g>
        <path class="cls-5" d="M434,250.8A89.4,89.4,0,0,1,346.9,181a83.6,83.6,0,0,1,11.7-64.4C369,101,384.3,89.2,402.9,82.4a102.7,102.7,0,0,1,56-4l4.7,1.1a87.1,87.1,0,0,0,10.7,2.1c24.8,2.7,46.2-15.7,65.1-32l5.8-4.9,1.4,1.6-5.8,4.9c-18.3,15.7-41,35.2-66.7,32.5a88.7,88.7,0,0,1-11-2.1l-4.7-1.1a100.6,100.6,0,0,0-54.8,3.9c-18.2,6.6-33.1,18.2-43.3,33.3A81.5,81.5,0,0,0,349,180.5a87.2,87.2,0,0,0,104,66.1c22.7-5.1,43.6-19.3,57.2-39.1,10.4-15.1,15.8-33,15.2-50.3-0.1-2.3-.3-4.7-0.5-7-0.5-5.6-.9-11.3,0-16.9,3.1-17.8,18.7-29.6,32.5-40l8.1-6.2,1.4-1.1c2-1.6,4.1-3.3,6.2-4.8l1.3,1.7c-2.1,1.5-4.1,3.2-6.1,4.8l-1.4,1.1-8.1,6.3c-13.5,10.2-28.8,21.7-31.7,38.7-0.9,5.4-.5,11,0,16.4,0.2,2.3.4,4.8,0.5,7.1,0.7,17.8-4.9,36.1-15.6,51.6-14,20.2-35.3,34.8-58.5,40A89.3,89.3,0,0,1,434,250.8Z"/>
        <path class="cls-5" d="M574.3,82.7L573.1,81c0.8-.6,1.2-2.8-0.3-7.2a57.2,57.2,0,0,0-7.7-14.2c-7.9-11.1-15.7-15.9-17.7-14.4l-1.2-1.7c4.3-3.1,13.8,5.4,20.7,14.9a59.4,59.4,0,0,1,8,14.7C576.5,78,576.3,81.3,574.3,82.7Z"/>
        <g id="CORK">
          <g>
            <path class="cls-6" d="M536.9,63.6s-3.4,3.9,5.3,14.7,12.2,8.2,12.2,8.2l23.3-17.2a31.1,31.1,0,0,1-12.4-10.4c-4.8-7.2-4.6-12.5-4.6-12.5Z"/>
            <path class="cls-6" d="M553.2,87.7c-2.1,0-5.9-1.5-11.8-8.9-8.9-11.1-5.7-15.5-5.3-16h0.1l25.7-18.7v2.2s-0.1,5.1,4.5,11.9a30.2,30.2,0,0,0,11.9,10l1.7,0.7L555,87.2A3.1,3.1,0,0,1,553.2,87.7ZM537.7,64.3c-0.3.6-1.8,4.3,5.3,13.2s10.7,8,10.7,8l21.9-16.2a31.9,31.9,0,0,1-11.2-10,28.1,28.1,0,0,1-4.6-11.1Z"/>
          </g>
          <g>
            <ellipse class="cls-7" cx="570.2" cy="56.9" rx="4.4" ry="14.3" transform="translate(82.5 357.8) rotate(-37.4)"/>
            <path class="cls-7" d="M577.9,69.6c-3.2,0-8.1-4.3-12-9.4a37.1,37.1,0,0,1-5.3-9.1c-1.5-4-.7-5.7.3-6.4s2.8-1,6.2,1.4a37.1,37.1,0,0,1,7.4,7.5c4.6,6.1,7.8,13.3,5,15.5A2.6,2.6,0,0,1,577.9,69.6ZM562.6,46.4h-0.4c-0.3.2-.5,1.5,0.4,4a34.9,34.9,0,0,0,5,8.5c5.2,6.8,9.7,9.2,10.6,8.5s-0.2-5.7-5.4-12.5a35,35,0,0,0-6.9-7A6.8,6.8,0,0,0,562.6,46.4Z"/>
          </g>
        </g>
        <path class="cls-5" d="M572.2,83.4c-1.9,0-4.3-1.1-7.1-3.3a59.4,59.4,0,0,1-11.4-12.3,59.4,59.4,0,0,1-8-14.7c-1.6-4.9-1.5-8.2.5-9.6l1.2,1.7c-0.8.6-1.2,2.8,0.3,7.2a57.2,57.2,0,0,0,7.7,14.2,57.2,57.2,0,0,0,11,11.8c3.7,2.8,5.9,3.2,6.7,2.6l1.2,1.7A3.6,3.6,0,0,1,572.2,83.4Z"/>
      </g>
      <path class="cls-5" d="M444.4,213.2c-23.5,0-44.5-15.1-49.4-37.4-5.8-26.2,12.3-52.6,40.5-58.8s55.8,9.9,61.6,36.1h0c5.8,26.2-12.3,52.6-40.5,58.8A56.1,56.1,0,0,1,444.4,213.2Zm3.2-95.5a53.9,53.9,0,0,0-11.7,1.3c-27,6-44.5,31.3-38.9,56.3s32.1,40.5,59.1,34.5,44.5-31.3,38.9-56.3h0C490.3,132.1,470.2,117.7,447.7,117.7Z"/>
    </g>
  </g>
  <text class="cls-8" transform="translate(561.9 125.5)">terrariums on click:<tspan x="0" y="19.2">• other terrariums fade out</tspan><tspan x="0" y="38.4">• “choose your terrarium” fades out</tspan></text>
</svg>
